<?xml version="1.0" standalone="no"?><!DOCTYPE svg PUBLIC "-//W3C//DTD SVG 1.1//EN" "http://www.w3.org/Graphics/SVG/1.1/DTD/svg11.dtd"><svg class="icon" width="200px" height="200.00px" viewBox="0 0 1024 1024" version="1.1" xmlns="http://www.w3.org/2000/svg"><path fill="#333333" d="M547.456 74.624l230.144 137.1392a76.8 76.8 0 0 1 0 131.9424l-230.144 137.1392a76.8 76.8 0 0 1-78.6432 0l-230.1184-137.1392a76.8 76.8 0 0 1 0-131.9424l230.144-137.1392a76.8 76.8 0 0 1 78.6176 0z m-52.4288 43.9808L264.9088 255.744a25.6 25.6 0 0 0 0 43.9808l230.144 137.1392a25.6 25.6 0 0 0 26.1888 0l230.144-137.1392a25.6 25.6 0 0 0 0-43.9808l-230.144-137.1392a25.6 25.6 0 0 0-26.2144 0z"  /><path fill="#333333" d="M218.7008 402.5856l230.4 138.24A76.8 76.8 0 0 1 486.4 606.72V862.72a76.8 76.8 0 0 1-116.3008 65.8688l-230.4-138.24A76.8 76.8 0 0 1 102.4 724.48V468.48a76.8 76.8 0 0 1 116.3008-65.8688z m-26.3424 43.904A25.6 25.6 0 0 0 153.6 468.48V724.48a25.6 25.6 0 0 0 12.4416 21.9648l230.4 138.24A25.6 25.6 0 0 0 435.2 862.72V606.72a25.6 25.6 0 0 0-12.4416-21.9648l-230.4-138.24zM653.9008 928.6144l230.4-138.24A76.8 76.8 0 0 0 921.6 724.48V468.48a76.8 76.8 0 0 0-116.3008-65.8688l-230.4 138.24A76.8 76.8 0 0 0 537.6 606.72V862.72a76.8 76.8 0 0 0 116.3008 65.8688zM614.4 888.32a25.6 25.6 0 0 1-25.6-25.6V606.72a25.6 25.6 0 0 1 12.4416-21.9648l230.4-138.24A25.6 25.6 0 0 1 870.4 468.48V724.48a25.6 25.6 0 0 1-12.4416 21.9648l-230.4 138.24A25.6 25.6 0 0 1 614.4 888.32z"  /></svg>