<?xml version="1.0" standalone="no"?><!DOCTYPE svg PUBLIC "-//W3C//DTD SVG 1.1//EN" "http://www.w3.org/Graphics/SVG/1.1/DTD/svg11.dtd"><svg class="icon" width="200px" height="200.00px" viewBox="0 0 1024 1024" version="1.1" xmlns="http://www.w3.org/2000/svg"><path fill="#333333" d="M624.725333 360.576c0 64-27.776 120.576-70.144 155.008 112.341333 45.312 193.194667 168.32 193.194667 312.533333 0 13.909333-9.813333 25.216-21.930667 25.216H192.64C180.48 853.333333 170.666667 842.026667 170.666667 828.16c0-144.256 80.768-267.264 193.237333-312.576-42.368-34.432-70.186667-91.008-70.186667-155.008C293.717333 255.914667 368 170.666667 459.264 170.666667c91.178667 0 165.461333 85.162667 165.461333 189.909333z m-165.504-139.392c-67.029333 0-121.6 62.549333-121.6 139.52 0 68.608 43.52 125.696 100.650667 137.216a256 256 0 0 1 20.949333-0.938667c7.082667 0 14.08 0.426667 20.992 0.938667 57.088-11.392 100.608-68.522667 100.608-137.216 0-76.970667-54.528-139.52-121.6-139.52z m-22.528 327.424c-117.12 12.373333-210.645333 119.808-221.098666 254.293333h487.253333c-10.496-134.485333-103.936-241.92-221.056-254.293333a148.352 148.352 0 0 1-22.570667 2.005333c-7.68 0-15.104-0.853333-22.528-2.005333z m309.034667-187.093333c0 45.312-15.957333 88.277333-43.264 119.722666 90.410667 46.506667 150.954667 150.826667 150.869333 267.093334 0 13.909333-9.856 25.216-21.973333 25.216-12.074667 0-21.930667-11.306667-21.930667-25.173334 0-108.373333-63.530667-204.458667-154.453333-233.557333-10.410667-3.285333-16.896-14.634667-15.914667-26.496a26.453333 26.453333 0 0 1 10.837334-23.808c32-21.248 51.84-60.672 51.84-102.997333 0-48.298667-25.173333-91.562667-64.170667-109.952-11.178667-5.376-16.512-20.096-11.946667-32.938667 4.608-12.842667 17.536-18.986667 28.714667-13.653333 55.552 26.197333 91.392 87.637333 91.392 156.586666z"  fill-opacity=".54" /></svg>