<?xml version="1.0" standalone="no"?><!DOCTYPE svg PUBLIC "-//W3C//DTD SVG 1.1//EN" "http://www.w3.org/Graphics/SVG/1.1/DTD/svg11.dtd"><svg class="icon" width="200px" height="200.00px" viewBox="0 0 1024 1024" version="1.1" xmlns="http://www.w3.org/2000/svg"><path fill="#333333" d="M506.04544 63.4368c-144.0256 0-261.2224 117.1968-261.2224 261.2736 0 77.7728 34.29888 150.9376 93.99808 200.6528a258.5088 258.5088 0 0 0 36.1984 25.33888 260.864 260.864 0 0 0 131.0208 35.328c46.2848 0 91.5968-12.3904 131.1744-35.328a258.47296 258.47296 0 0 0 36.096-25.28768c59.8016-49.7664 94.0544-122.9312 94.0544-200.704 0.00512-144.0768-117.19168-261.2736-261.31968-261.2736z m135.4752 423.8336a210.33984 210.33984 0 0 1-91.1872 44.3904c-14.2848 3.07712-29.1328 4.6592-44.288 4.6592s-29.952-1.5872-44.2368-4.6592a209.9456 209.9456 0 0 1-91.136-44.4416c-46.59712-38.7072-76.19072-97.1776-76.19072-162.5088 0-116.8384 94.77632-211.6096 211.5584-211.6096 116.8896 0 211.6608 94.7712 211.6608 211.6096 0.00512 65.3312-29.63968 123.8016-76.18048 162.56z"  /><path fill="#333333" d="M109.39904 959.6672a46.9248 46.9248 0 0 1-46.9248-46.9248c0-182.92736 119.56224-346.28096 297.50784-406.48704a46.88384 46.88384 0 0 1 38.63552 3.88608 213.89824 213.89824 0 0 0 107.42272 28.96896c37.6832 0 74.9056-10.03008 107.64288-29.0048a46.91968 46.91968 0 0 1 38.57408-3.85024c177.92 60.19584 297.46176 223.54944 297.46176 406.48704a46.9248 46.9248 0 0 1-46.9248 46.9248H109.39904z m793.3952-46.9248c0-167.36768-110.8992-309.70368-265.5744-362.0352a261.94432 261.94432 0 0 1-131.1744 35.328 260.864 260.864 0 0 1-131.0208-35.328c-154.6752 52.33152-265.6256 194.61632-265.6256 362.0352h793.3952z"  /></svg>