<?xml version="1.0" standalone="no"?><!DOCTYPE svg PUBLIC "-//W3C//DTD SVG 1.1//EN" "http://www.w3.org/Graphics/SVG/1.1/DTD/svg11.dtd"><svg class="icon" width="200px" height="200.00px" viewBox="0 0 1024 1024" version="1.1" xmlns="http://www.w3.org/2000/svg"><path d="M86.78 233.218h850.44v695.61H86.78z" fill="#EF7E20" /><path d="M937.22 951.618H86.78c-12.58 0-22.78-10.2-22.78-22.78v-695.61c0-12.58 10.2-22.78 22.78-22.78h850.44c12.58 0 22.78 10.2 22.78 22.78v695.61c0 12.57-10.2 22.78-22.78 22.78z m-827.66-45.56h804.88v-650.05H109.56v650.05z" fill="#363432" /><path d="M86.78 95.158h850.44v138.06H86.78z" fill="#FFFBF1" /><path d="M937.22 256.008H86.78c-12.58 0-22.78-10.2-22.78-22.78V95.168c0-12.58 10.2-22.78 22.78-22.78h850.44c12.58 0 22.78 10.2 22.78 22.78v138.06c0 12.57-10.2 22.78-22.78 22.78z m-827.66-45.56h804.88v-92.5H109.56v92.5z" fill="#363432" /><path d="M167.02 164.198m-15.23 0a15.23 15.23 0 1 0 30.46 0 15.23 15.23 0 1 0-30.46 0Z" fill="#EF7E20" /><path d="M167.03 187.028c-12.59 0-22.83-10.23-22.83-22.82s10.24-22.82 22.83-22.82c12.58 0 22.82 10.23 22.82 22.82s-10.24 22.82-22.82 22.82z m0-30.46c-4.22 0-7.65 3.43-7.65 7.64s3.43 7.64 7.65 7.64c4.21 0 7.64-3.43 7.64-7.64s-3.43-7.64-7.64-7.64z" fill="#363432" /><path d="M224.52 164.198m-15.23 0a15.23 15.23 0 1 0 30.46 0 15.23 15.23 0 1 0-30.46 0Z" fill="#EF7E20" /><path d="M224.52 187.028c-12.58 0-22.82-10.23-22.82-22.82s10.24-22.82 22.82-22.82c12.59 0 22.83 10.23 22.83 22.82s-10.24 22.82-22.83 22.82z m0-30.46c-4.21 0-7.64 3.43-7.64 7.64s3.43 7.64 7.64 7.64c4.22 0 7.65-3.43 7.65-7.64s-3.43-7.64-7.65-7.64z" fill="#363432" /><path d="M282.02 164.198m-15.23 0a15.23 15.23 0 1 0 30.46 0 15.23 15.23 0 1 0-30.46 0Z" fill="#EF7E20" /><path d="M282.02 187.028c-12.58 0-22.82-10.23-22.82-22.82s10.24-22.82 22.82-22.82 22.82 10.23 22.82 22.82-10.24 22.82-22.82 22.82z m0-30.46c-4.21 0-7.64 3.43-7.64 7.64s3.43 7.64 7.64 7.64c4.21 0 7.64-3.43 7.64-7.64s-3.43-7.64-7.64-7.64z" fill="#363432" /><path d="M171.22 334.378h314.44v216.8H171.22z" fill="#EF7E20" /><path d="M485.65 566.358H171.22c-8.39 0-15.19-6.79-15.19-15.19v-216.79c0-8.39 6.8-15.19 15.19-15.19h314.44c8.39 0 15.19 6.79 15.19 15.19v216.79c-0.01 8.4-6.81 15.19-15.2 15.19z m-299.25-30.37h284.06v-186.42H186.4v186.42z" fill="#363432" /><path d="M171.22 551.198h314.44v71.88H171.22z" fill="#FFFBF1" /><path d="M485.65 638.258H171.22c-8.39 0-15.19-6.79-15.19-15.19v-71.88c0-8.39 6.8-15.19 15.19-15.19h314.44c8.39 0 15.19 6.79 15.19 15.19v71.88c-0.01 8.4-6.81 15.19-15.2 15.19z m-299.25-30.37h284.06v-41.51H186.4v41.51z" fill="#363432" /><path d="M354.62 442.798l-26.2 15.11-26.18 15.19v-60.55l26.18 15.19 26.2 15.06z" fill="#FFFBF1" /><path d="M302.24 480.688a7.63 7.63 0 0 1-3.79-1.01 7.61 7.61 0 0 1-3.8-6.58v-60.55a7.61 7.61 0 0 1 3.8-6.58 7.662 7.662 0 0 1 7.6 0.01l52.36 30.24c2.35 1.35 3.8 3.87 3.8 6.58s-1.45 5.22-3.8 6.57l-52.37 30.3a7.521 7.521 0 0 1-3.8 1.02z m7.6-54.96v34.18l29.57-17.1-29.57-17.08zM485.65 725.108H171.22c-8.39 0-15.19-6.79-15.19-15.19 0-8.39 6.8-15.19 15.19-15.19h314.44c8.39 0 15.19 6.79 15.19 15.19-0.01 8.4-6.81 15.19-15.2 15.19zM489.54 842.848H171.22c-8.39 0-15.19-6.79-15.19-15.19 0-8.39 6.8-15.19 15.19-15.19h318.32c8.39 0 15.19 6.79 15.19 15.19 0 8.4-6.8 15.19-15.19 15.19zM485.65 785.308H171.22c-8.39 0-15.19-6.79-15.19-15.19 0-8.39 6.8-15.19 15.19-15.19h314.44c8.39 0 15.19 6.79 15.19 15.19-0.01 8.39-6.81 15.19-15.2 15.19z" fill="#363432" /><path d="M541.95 334.378h128.51v117.98H541.95z" fill="#FFFBF1" /><path d="M670.46 467.548H541.95c-8.39 0-15.19-6.79-15.19-15.19v-117.98c0-8.39 6.8-15.19 15.19-15.19h128.51c8.39 0 15.19 6.79 15.19 15.19v117.98c-0.01 8.4-6.81 15.19-15.19 15.19z m-113.32-30.38h98.13v-87.6h-98.13v87.6z" fill="#363432" /><path d="M724.28 334.378h128.51v117.98H724.28z" fill="#FFFBF1" /><path d="M852.78 467.548h-128.5c-8.39 0-15.19-6.79-15.19-15.19v-117.98c0-8.39 6.8-15.19 15.19-15.19h128.51c8.39 0 15.19 6.79 15.19 15.19v117.98c-0.01 8.4-6.81 15.19-15.2 15.19z m-113.32-30.38h98.13v-87.6h-98.13v87.6z" fill="#363432" /><path d="M541.95 505.078h128.51v117.98H541.95z" fill="#FFFBF1" /><path d="M670.46 638.248H541.95c-8.39 0-15.19-6.79-15.19-15.19v-117.98c0-8.39 6.8-15.19 15.19-15.19h128.51c8.39 0 15.19 6.79 15.19 15.19v117.98c-0.01 8.39-6.81 15.19-15.19 15.19z m-113.32-30.38h98.13v-87.6h-98.13v87.6z" fill="#363432" /><path d="M724.28 505.078h128.51v117.98H724.28z" fill="#FFFBF1" /><path d="M852.78 638.248h-128.5c-8.39 0-15.19-6.79-15.19-15.19v-117.98c0-8.39 6.8-15.19 15.19-15.19h128.51c8.39 0 15.19 6.79 15.19 15.19v117.98c-0.01 8.39-6.81 15.19-15.2 15.19z m-113.32-30.38h98.13v-87.6h-98.13v87.6z" fill="#363432" /><path d="M852.78 725.108H541.95c-8.39 0-15.19-6.79-15.19-15.19 0-8.39 6.8-15.19 15.19-15.19h310.83c8.39 0 15.19 6.79 15.19 15.19 0 8.4-6.8 15.19-15.19 15.19z" fill="#363432" /><path d="M741.98 837.138H541.95c-8.39 0-15.19-6.79-15.19-15.19 0-8.39 6.8-15.19 15.19-15.19h200.03c8.39 0 15.19 6.79 15.19 15.19 0 8.4-6.8 15.19-15.19 15.19z" fill="#363432" /><path d="M815.97 779.598H541.95c-8.39 0-15.19-6.79-15.19-15.19s6.8-15.19 15.19-15.19h274.02c8.39 0 15.19 6.79 15.19 15.19s-6.8 15.19-15.19 15.19z" fill="#363432" /></svg>