<?xml version="1.0" standalone="no"?><!DOCTYPE svg PUBLIC "-//W3C//DTD SVG 1.1//EN" "http://www.w3.org/Graphics/SVG/1.1/DTD/svg11.dtd"><svg class="icon" width="200px" height="200.00px" viewBox="0 0 1024 1024" version="1.1" xmlns="http://www.w3.org/2000/svg"><path d="M587.9 850.05l32.89 32.89c72.36 72.37 189.69 72.39 262.06 0.03s72.39-189.69 0.03-262.06l-32.89-32.95-413.94-413.94-32.95-32.89c-72.36-72.36-189.67-72.36-262.03 0s-72.36 189.67 0 262.03l32.89 32.95L587.9 850.05z" fill="#EF7E20" /><path d="M751.84 959.91c-53.3 0-106.59-20.29-147.16-60.87l-479.74-479.8c-81.11-81.1-81.11-213.11 0.01-294.22 81.11-81.11 213.13-81.11 294.25 0L899 604.81c81.11 81.13 81.09 213.14-0.04 294.27-40.57 40.56-93.85 60.83-147.12 60.83zM272.08 109.72c-41.62 0-83.23 15.84-114.91 47.51-30.69 30.7-47.59 71.51-47.59 114.91s16.9 84.21 47.59 114.91L604 833.94l32.89 32.89c63.37 63.38 166.48 63.39 229.85 0.04 63.37-63.36 63.39-166.49 0.02-229.86L387.01 157.24c-31.69-31.68-73.32-47.52-114.93-47.52z" fill="#363432" /><path d="M141.07 882.94c-72.36-72.34-72.38-189.63-0.04-261.99l0.04-0.04 479.84-479.84c72.34-72.36 189.63-72.38 261.99-0.04l0.04 0.04c72.36 72.34 72.38 189.63 0.04 261.99l-0.04 0.04L403.1 882.94c-72.34 72.36-189.63 72.38-261.99 0.04-0.02-0.01-0.03-0.03-0.04-0.04z" fill="#FFFBF1" /><path d="M272.08 960c-55.56 0-107.79-21.64-147.08-60.92l-0.04-0.04c-81.01-81-81.14-212.72-0.36-293.87 0.12-0.13 0.24-0.25 0.36-0.37L604.8 124.96c39.28-39.3 91.52-60.95 147.09-60.96h0.03c55.56 0 107.79 21.64 147.08 60.92 81.06 81.04 81.18 212.77 0.41 293.91-0.12 0.13-0.24 0.25-0.36 0.37L419.2 899.04c-39.28 39.3-91.52 60.95-147.09 60.96h-0.03zM157.47 636.71c-0.11 0.12-0.22 0.22-0.34 0.34-63.33 63.35-63.32 166.43 0.04 229.78l0.04 0.04c30.69 30.67 71.48 47.57 114.87 47.57h0.02c43.4-0.01 84.2-16.92 114.88-47.62l479.55-479.54c0.11-0.12 0.22-0.22 0.34-0.34 63.33-63.35 63.32-166.43-0.04-229.78-30.73-30.71-71.53-47.62-114.92-47.62h-0.02c-43.4 0.01-84.2 16.92-114.88 47.62L157.47 636.71z" fill="#363432" /><path d="M511.05 390.55m-25.5 0a25.5 25.5 0 1 0 51 0 25.5 25.5 0 1 0-51 0Z" fill="#363432" /><path d="M572.26 451.75m-25.5 0a25.5 25.5 0 1 0 51 0 25.5 25.5 0 1 0-51 0Z" fill="#363432" /><path d="M633.45 512.96m-25.5 0a25.5 25.5 0 1 0 51 0 25.5 25.5 0 1 0-51 0Z" fill="#363432" /><path d="M450.76 450.82m-25.5 0a25.5 25.5 0 1 0 51 0 25.5 25.5 0 1 0-51 0Z" fill="#363432" /><path d="M511.97 512.03m-25.5 0a25.5 25.5 0 1 0 51 0 25.5 25.5 0 1 0-51 0Z" fill="#363432" /><path d="M573.18 573.24m-25.5 0a25.5 25.5 0 1 0 51 0 25.5 25.5 0 1 0-51 0Z" fill="#363432" /><path d="M390.49 511.11m-25.5 0a25.5 25.5 0 1 0 51 0 25.5 25.5 0 1 0-51 0Z" fill="#363432" /><path d="M451.69 572.32m-25.5 0a25.5 25.5 0 1 0 51 0 25.5 25.5 0 1 0-51 0Z" fill="#363432" /><path d="M512.9 633.51m-25.5 0a25.5 25.5 0 1 0 51 0 25.5 25.5 0 1 0-51 0Z" fill="#363432" /></svg>