<?xml version="1.0" standalone="no"?><!DOCTYPE svg PUBLIC "-//W3C//DTD SVG 1.1//EN" "http://www.w3.org/Graphics/SVG/1.1/DTD/svg11.dtd"><svg class="icon" width="200px" height="200.00px" viewBox="0 0 1024 1024" version="1.1" xmlns="http://www.w3.org/2000/svg"><path d="M86.4 231.166h851.2v561.67H86.4z" fill="#EF7E20" /><path d="M937.6 815.236H86.4c-12.37 0-22.4-10.03-22.4-22.4v-561.67c0-12.37 10.03-22.4 22.4-22.4h851.2c12.37 0 22.4 10.03 22.4 22.4v561.68c0 12.36-10.03 22.39-22.4 22.39z m-828.8-44.8h806.4v-516.87H108.8v516.87z" fill="#363432" /><path d="M768.33 301.366h104.31v104.31H768.33z" fill="#FFFBF1" /><path d="M872.64 420.616H768.33c-8.25 0-14.93-6.68-14.93-14.93v-104.32c0-8.25 6.69-14.93 14.93-14.93h104.31c8.25 0 14.93 6.68 14.93 14.93v104.31c0 8.26-6.68 14.94-14.93 14.94z m-89.38-29.87h74.44v-74.45h-74.44v74.45z" fill="#363432" /><path d="M513.24 737.566c-8.25 0-14.93-6.68-14.93-14.93v-421.27c0-8.25 6.69-14.93 14.93-14.93 8.25 0 14.93 6.68 14.93 14.93v421.27c0 8.25-6.68 14.93-14.93 14.93zM444.01 373.476H170.66c-8.25 0-14.93-6.68-14.93-14.93s6.69-14.93 14.93-14.93h273.35c8.25 0 14.93 6.68 14.93 14.93s-6.69 14.93-14.93 14.93zM853.34 540.126H579.99c-8.25 0-14.93-6.68-14.93-14.93s6.69-14.93 14.93-14.93h273.35c8.25 0 14.93 6.68 14.93 14.93 0.01 8.25-6.68 14.93-14.93 14.93zM853.34 623.456H579.99c-8.25 0-14.93-6.68-14.93-14.93s6.69-14.93 14.93-14.93h273.35c8.25 0 14.93 6.68 14.93 14.93 0.01 8.25-6.68 14.93-14.93 14.93zM853.34 706.786H579.99c-8.25 0-14.93-6.68-14.93-14.93s6.69-14.93 14.93-14.93h273.35c8.25 0 14.93 6.68 14.93 14.93s-6.68 14.93-14.93 14.93zM411.63 456.796H170.66c-8.25 0-14.93-6.68-14.93-14.93s6.69-14.93 14.93-14.93h240.98c8.25 0 14.93 6.68 14.93 14.93-0.01 8.25-6.69 14.93-14.94 14.93zM373.87 540.126H170.66c-8.25 0-14.93-6.68-14.93-14.93s6.69-14.93 14.93-14.93h203.21c8.25 0 14.93 6.68 14.93 14.93s-6.69 14.93-14.93 14.93zM291.15 623.456H170.66c-8.25 0-14.93-6.68-14.93-14.93s6.69-14.93 14.93-14.93h120.49c8.25 0 14.93 6.68 14.93 14.93s-6.68 14.93-14.93 14.93z" fill="#363432" /><path d="M820.48 352.126c-14.47 0-22.04-4.01-28.71-7.55-5.88-3.11-10.97-5.8-21.72-5.8-10.76 0-15.86 2.7-21.75 5.82-6.68 3.53-14.25 7.54-28.68 7.54-14.44 0-22-4.01-28.66-7.55-5.87-3.11-10.94-5.8-21.67-5.8-4.13 0-7.47-3.34-7.47-7.47s3.34-7.47 7.47-7.47c14.44 0 22.01 4.01 28.67 7.55 5.87 3.11 10.94 5.8 21.66 5.8s15.8-2.68 21.69-5.8c6.69-3.54 14.27-7.55 28.74-7.55s22.04 4.01 28.71 7.55c5.88 3.11 10.97 5.8 21.72 5.8 4.13 0 7.47 3.34 7.47 7.47s-3.34 7.46-7.47 7.46z" fill="#363432" /><path d="M820.48 374.386c-14.47 0-22.04-4.01-28.71-7.54-5.88-3.12-10.96-5.8-21.72-5.8s-15.86 2.7-21.76 5.82c-6.68 3.53-14.24 7.52-28.67 7.52-14.44 0-21.99-4.01-28.66-7.54-5.87-3.12-10.94-5.8-21.67-5.8-4.13 0-7.47-3.34-7.47-7.47s3.34-7.47 7.47-7.47c14.44 0 22 4.01 28.67 7.54 5.87 3.12 10.94 5.8 21.66 5.8s15.81-2.68 21.69-5.8c6.69-3.53 14.26-7.54 28.74-7.54 14.47 0 22.04 4.01 28.71 7.54 5.88 3.12 10.96 5.8 21.72 5.8 4.13 0 7.47 3.34 7.47 7.47s-3.34 7.47-7.47 7.47z" fill="#363432" /></svg>