<?xml version="1.0" standalone="no"?><!DOCTYPE svg PUBLIC "-//W3C//DTD SVG 1.1//EN" "http://www.w3.org/Graphics/SVG/1.1/DTD/svg11.dtd"><svg class="icon" width="200px" height="200.00px" viewBox="0 0 1024 1024" version="1.1" xmlns="http://www.w3.org/2000/svg"><path d="M139.947 85.689h744.1v852.62h-744.1z" fill="#EF7E20" /><path d="M884.047 959.999h-744.1c-11.98 0-21.69-9.72-21.69-21.69V85.689c0-11.98 9.71-21.69 21.69-21.69h744.1c11.98 0 21.69 9.72 21.69 21.69v852.62c0.01 11.97-9.7 21.69-21.69 21.69z m-722.41-43.38h700.72v-809.24h-700.72v809.24z" fill="#363432" /><path d="M246.857 197.759h530.28v147.61h-530.28z" fill="#FFFBF1" /><path d="M777.137 367.049h-530.28c-11.98 0-21.69-9.72-21.69-21.69v-147.59c0-11.98 9.71-21.69 21.69-21.69h530.28c11.98 0 21.69 9.72 21.69 21.69v147.59c0 11.97-9.71 21.69-21.69 21.69z m-508.58-43.38h486.89v-104.21h-486.89v104.21z" fill="#363432" /><path d="M314.357 310.619c-7.99 0-14.46-6.47-14.46-14.46v-49.2c0-7.99 6.48-14.46 14.46-14.46 7.99 0 14.46 6.47 14.46 14.46v49.2c0 7.99-6.48 14.46-14.46 14.46z" fill="#363432" /><path d="M246.857 440.269h95.21v95.21h-95.21z" fill="#E9E7DF" /><path d="M342.077 549.949h-95.21c-7.99 0-14.46-6.47-14.46-14.46v-95.21c0-7.99 6.48-14.46 14.46-14.46h95.21c7.99 0 14.46 6.47 14.46 14.46v95.21c0 7.99-6.48 14.46-14.46 14.46z m-80.75-28.92h66.29v-66.29h-66.29v66.29z" fill="#363432" /><path d="M391.877 440.269h95.21v95.21h-95.21z" fill="#E9E7DF" /><path d="M487.087 549.949h-95.21c-7.99 0-14.46-6.47-14.46-14.46v-95.21c0-7.99 6.48-14.46 14.46-14.46h95.21c7.99 0 14.46 6.47 14.46 14.46v95.21c0 7.99-6.47 14.46-14.46 14.46z m-80.75-28.92h66.29v-66.29h-66.29v66.29z" fill="#363432" /><path d="M536.897 440.269h95.21v95.21h-95.21z" fill="#E9E7DF" /><path d="M632.107 549.949h-95.21c-7.99 0-14.46-6.47-14.46-14.46v-95.21c0-7.99 6.48-14.46 14.46-14.46h95.21c7.99 0 14.46 6.47 14.46 14.46v95.21c0 7.99-6.47 14.46-14.46 14.46z m-80.75-28.92h66.29v-66.29h-66.29v66.29z" fill="#363432" /><path d="M681.907 440.269h95.21v95.21h-95.21z" fill="#E9E7DF" /><path d="M777.127 549.949h-95.21c-7.99 0-14.46-6.47-14.46-14.46v-95.21c0-7.99 6.48-14.46 14.46-14.46h95.21c7.99 0 14.46 6.47 14.46 14.46v95.21c0 7.99-6.48 14.46-14.46 14.46z m-80.75-28.92h66.29v-66.29h-66.29v66.29z" fill="#363432" /><path d="M246.857 592.119h95.21v95.21h-95.21z" fill="#E9E7DF" /><path d="M342.077 701.789h-95.21c-7.99 0-14.46-6.47-14.46-14.46v-95.21c0-7.99 6.48-14.46 14.46-14.46h95.21c7.99 0 14.46 6.47 14.46 14.46v95.21c0 7.99-6.48 14.46-14.46 14.46z m-80.75-28.92h66.29v-66.29h-66.29v66.29z" fill="#363432" /><path d="M391.877 592.119h95.21v95.21h-95.21z" fill="#E9E7DF" /><path d="M487.087 701.789h-95.21c-7.99 0-14.46-6.47-14.46-14.46v-95.21c0-7.99 6.48-14.46 14.46-14.46h95.21c7.99 0 14.46 6.47 14.46 14.46v95.21c0 7.99-6.47 14.46-14.46 14.46z m-80.75-28.92h66.29v-66.29h-66.29v66.29z" fill="#363432" /><path d="M536.897 592.119h95.21v95.21h-95.21z" fill="#E9E7DF" /><path d="M632.107 701.789h-95.21c-7.99 0-14.46-6.47-14.46-14.46v-95.21c0-7.99 6.48-14.46 14.46-14.46h95.21c7.99 0 14.46 6.47 14.46 14.46v95.21c0 7.99-6.47 14.46-14.46 14.46z m-80.75-28.92h66.29v-66.29h-66.29v66.29z" fill="#363432" /><path d="M681.907 592.119h95.21v95.21h-95.21z" fill="#E9E7DF" /><path d="M777.127 701.789h-95.21c-7.99 0-14.46-6.47-14.46-14.46v-95.21c0-7.99 6.48-14.46 14.46-14.46h95.21c7.99 0 14.46 6.47 14.46 14.46v95.21c0 7.99-6.48 14.46-14.46 14.46z m-80.75-28.92h66.29v-66.29h-66.29v66.29z" fill="#363432" /><path d="M246.857 743.959h95.21v95.21h-95.21z" fill="#E9E7DF" /><path d="M342.077 853.629h-95.21c-7.99 0-14.46-6.47-14.46-14.46v-95.21c0-7.99 6.48-14.46 14.46-14.46h95.21c7.99 0 14.46 6.47 14.46 14.46v95.21c0 7.99-6.48 14.46-14.46 14.46z m-80.75-28.92h66.29v-66.29h-66.29v66.29z" fill="#363432" /><path d="M391.877 743.959h95.21v95.21h-95.21z" fill="#E9E7DF" /><path d="M487.087 853.629h-95.21c-7.99 0-14.46-6.47-14.46-14.46v-95.21c0-7.99 6.48-14.46 14.46-14.46h95.21c7.99 0 14.46 6.47 14.46 14.46v95.21c0 7.99-6.47 14.46-14.46 14.46z m-80.75-28.92h66.29v-66.29h-66.29v66.29z" fill="#363432" /><path d="M536.897 743.959h240.24v95.21h-240.24z" fill="#E9E7DF" /><path d="M777.137 853.629h-240.24c-7.99 0-14.46-6.47-14.46-14.46v-95.21c0-7.99 6.48-14.46 14.46-14.46h240.24c7.99 0 14.46 6.47 14.46 14.46v95.21c0 7.99-6.47 14.46-14.46 14.46z m-225.78-28.92h211.32v-66.29h-211.32v66.29z" fill="#363432" /><path d="M139.947 85.689h744.1v852.62h-744.1z" fill="#EF7E20" /><path d="M884.047 959.999h-744.1c-11.98 0-21.69-9.72-21.69-21.69V85.689c0-11.98 9.71-21.69 21.69-21.69h744.1c11.98 0 21.69 9.72 21.69 21.69v852.62c0.01 11.97-9.7 21.69-21.69 21.69z m-722.41-43.38h700.72v-809.24h-700.72v809.24z" fill="#363432" /><path d="M246.857 197.759h530.28v147.61h-530.28z" fill="#FFFBF1" /><path d="M777.137 367.049h-530.28c-11.98 0-21.69-9.72-21.69-21.69v-147.59c0-11.98 9.71-21.69 21.69-21.69h530.28c11.98 0 21.69 9.72 21.69 21.69v147.59c0 11.97-9.71 21.69-21.69 21.69z m-508.58-43.38h486.89v-104.21h-486.89v104.21z" fill="#363432" /><path d="M314.357 310.619c-7.99 0-14.46-6.47-14.46-14.46v-49.2c0-7.99 6.48-14.46 14.46-14.46 7.99 0 14.46 6.47 14.46 14.46v49.2c0 7.99-6.48 14.46-14.46 14.46z" fill="#363432" /><path d="M246.857 440.269h95.21v95.21h-95.21z" fill="#E9E7DF" /><path d="M342.077 549.949h-95.21c-7.99 0-14.46-6.47-14.46-14.46v-95.21c0-7.99 6.48-14.46 14.46-14.46h95.21c7.99 0 14.46 6.47 14.46 14.46v95.21c0 7.99-6.48 14.46-14.46 14.46z m-80.75-28.92h66.29v-66.29h-66.29v66.29z" fill="#363432" /><path d="M391.877 440.269h95.21v95.21h-95.21z" fill="#E9E7DF" /><path d="M487.087 549.949h-95.21c-7.99 0-14.46-6.47-14.46-14.46v-95.21c0-7.99 6.48-14.46 14.46-14.46h95.21c7.99 0 14.46 6.47 14.46 14.46v95.21c0 7.99-6.47 14.46-14.46 14.46z m-80.75-28.92h66.29v-66.29h-66.29v66.29z" fill="#363432" /><path d="M536.897 440.269h95.21v95.21h-95.21z" fill="#E9E7DF" /><path d="M632.107 549.949h-95.21c-7.99 0-14.46-6.47-14.46-14.46v-95.21c0-7.99 6.48-14.46 14.46-14.46h95.21c7.99 0 14.46 6.47 14.46 14.46v95.21c0 7.99-6.47 14.46-14.46 14.46z m-80.75-28.92h66.29v-66.29h-66.29v66.29z" fill="#363432" /><path d="M681.907 440.269h95.21v95.21h-95.21z" fill="#E9E7DF" /><path d="M777.127 549.949h-95.21c-7.99 0-14.46-6.47-14.46-14.46v-95.21c0-7.99 6.48-14.46 14.46-14.46h95.21c7.99 0 14.46 6.47 14.46 14.46v95.21c0 7.99-6.48 14.46-14.46 14.46z m-80.75-28.92h66.29v-66.29h-66.29v66.29z" fill="#363432" /><path d="M246.857 592.119h95.21v95.21h-95.21z" fill="#E9E7DF" /><path d="M342.077 701.789h-95.21c-7.99 0-14.46-6.47-14.46-14.46v-95.21c0-7.99 6.48-14.46 14.46-14.46h95.21c7.99 0 14.46 6.47 14.46 14.46v95.21c0 7.99-6.48 14.46-14.46 14.46z m-80.75-28.92h66.29v-66.29h-66.29v66.29z" fill="#363432" /><path d="M391.877 592.119h95.21v95.21h-95.21z" fill="#E9E7DF" /><path d="M487.087 701.789h-95.21c-7.99 0-14.46-6.47-14.46-14.46v-95.21c0-7.99 6.48-14.46 14.46-14.46h95.21c7.99 0 14.46 6.47 14.46 14.46v95.21c0 7.99-6.47 14.46-14.46 14.46z m-80.75-28.92h66.29v-66.29h-66.29v66.29z" fill="#363432" /><path d="M536.897 592.119h95.21v95.21h-95.21z" fill="#E9E7DF" /><path d="M632.107 701.789h-95.21c-7.99 0-14.46-6.47-14.46-14.46v-95.21c0-7.99 6.48-14.46 14.46-14.46h95.21c7.99 0 14.46 6.47 14.46 14.46v95.21c0 7.99-6.47 14.46-14.46 14.46z m-80.75-28.92h66.29v-66.29h-66.29v66.29z" fill="#363432" /><path d="M681.907 592.119h95.21v95.21h-95.21z" fill="#E9E7DF" /><path d="M777.127 701.789h-95.21c-7.99 0-14.46-6.47-14.46-14.46v-95.21c0-7.99 6.48-14.46 14.46-14.46h95.21c7.99 0 14.46 6.47 14.46 14.46v95.21c0 7.99-6.48 14.46-14.46 14.46z m-80.75-28.92h66.29v-66.29h-66.29v66.29z" fill="#363432" /><path d="M246.857 743.959h95.21v95.21h-95.21z" fill="#E9E7DF" /><path d="M342.077 853.629h-95.21c-7.99 0-14.46-6.47-14.46-14.46v-95.21c0-7.99 6.48-14.46 14.46-14.46h95.21c7.99 0 14.46 6.47 14.46 14.46v95.21c0 7.99-6.48 14.46-14.46 14.46z m-80.75-28.92h66.29v-66.29h-66.29v66.29z" fill="#363432" /><path d="M391.877 743.959h95.21v95.21h-95.21z" fill="#E9E7DF" /><path d="M487.087 853.629h-95.21c-7.99 0-14.46-6.47-14.46-14.46v-95.21c0-7.99 6.48-14.46 14.46-14.46h95.21c7.99 0 14.46 6.47 14.46 14.46v95.21c0 7.99-6.47 14.46-14.46 14.46z m-80.75-28.92h66.29v-66.29h-66.29v66.29z" fill="#363432" /><path d="M536.897 743.959h240.24v95.21h-240.24z" fill="#E9E7DF" /><path d="M777.137 853.629h-240.24c-7.99 0-14.46-6.47-14.46-14.46v-95.21c0-7.99 6.48-14.46 14.46-14.46h240.24c7.99 0 14.46 6.47 14.46 14.46v95.21c0 7.99-6.47 14.46-14.46 14.46z m-225.78-28.92h211.32v-66.29h-211.32v66.29z" fill="#363432" /></svg>