<?xml version="1.0" standalone="no"?><!DOCTYPE svg PUBLIC "-//W3C//DTD SVG 1.1//EN" "http://www.w3.org/Graphics/SVG/1.1/DTD/svg11.dtd"><svg class="icon" width="200px" height="200.00px" viewBox="0 0 1024 1024" version="1.1" xmlns="http://www.w3.org/2000/svg"><path d="M191.935 743.675h-69.02v-524.85h513.15v524.85h-321.16" fill="#EF7E20" /><path d="M636.065 764.915h-321.16c-11.74 0-21.25-9.52-21.25-21.25s9.51-21.25 21.25-21.25h299.91v-482.34h-470.65v482.35h47.77c11.74 0 21.25 9.52 21.25 21.25s-9.51 21.25-21.25 21.25h-69.02c-11.74 0-21.25-9.52-21.25-21.25v-524.85c0-11.73 9.51-21.25 21.25-21.25h513.15c11.74 0 21.25 9.52 21.25 21.25v524.85c0 11.73-9.51 21.24-21.25 21.24z" fill="#363432" /><path d="M122.915 609.215h513.15v134.45h-513.15z" fill="#FFFBF1" /><path d="M636.065 757.825h-513.15c-7.82 0-14.17-6.34-14.17-14.17v-134.44c0-7.83 6.34-14.17 14.17-14.17h513.15c7.82 0 14.17 6.34 14.17 14.17v134.44c-0.01 7.83-6.35 14.17-14.17 14.17z m-498.99-28.33h484.82v-106.11h-484.82v106.11z" fill="#363432" /><path d="M828.965 743.665h69.92v-352.82c0-29.09-23.58-52.67-52.67-52.67h-157.48c-29.09 0-52.67 23.58-52.67 52.67v352.83h70.01" fill="#EF7E20" /><path d="M706.075 764.915h-70.01c-11.74 0-21.25-9.52-21.25-21.25v-352.82c0-40.77 33.16-73.93 73.92-73.93h157.48c40.76 0 73.92 33.16 73.92 73.93v352.81c0 11.73-9.51 21.25-21.25 21.25h-69.92c-11.74 0-21.25-9.52-21.25-21.25s9.51-21.25 21.25-21.25h48.67v-331.56c0-17.33-14.1-31.43-31.42-31.43h-157.48c-17.33 0-31.42 14.1-31.42 31.43v331.57h48.76c11.74 0 21.25 9.52 21.25 21.25s-9.52 21.25-21.25 21.25z" fill="#363432" /><path d="M253.425 743.675m-61.49 0a61.49 61.49 0 1 0 122.98 0 61.49 61.49 0 1 0-122.98 0Z" fill="#FFFBF1" /><path d="M253.425 826.425c-45.62 0-82.75-37.13-82.75-82.75s37.12-82.74 82.75-82.74 82.74 37.12 82.74 82.74-37.11 82.75-82.74 82.75z m0-123c-22.2 0-40.25 18.05-40.25 40.24 0 22.2 18.05 40.26 40.25 40.26 22.19 0 40.24-18.05 40.24-40.26 0.01-22.18-18.05-40.24-40.24-40.24z" fill="#363432" /><path d="M767.485 743.675m-61.49 0a61.49 61.49 0 1 0 122.98 0 61.49 61.49 0 1 0-122.98 0Z" fill="#FFFBF1" /><path d="M767.475 826.425c-45.62 0-82.74-37.13-82.74-82.75s37.12-82.74 82.74-82.74 82.75 37.12 82.75 82.74-37.12 82.75-82.75 82.75z m0-123c-22.19 0-40.24 18.05-40.24 40.24 0 22.2 18.05 40.26 40.24 40.26 22.2 0 40.25-18.05 40.25-40.26 0-22.18-18.05-40.24-40.25-40.24z" fill="#363432" /><path d="M733.525 623.385h-39.34c-7.82 0-14.17-6.34-14.17-14.17s6.34-14.17 14.17-14.17h39.34c7.82 0 14.17 6.34 14.17 14.17s-6.35 14.17-14.17 14.17zM938.755 764.915h-90.59c-11.74 0-21.25-9.52-21.25-21.25s9.51-21.25 21.25-21.25h90.59c11.74 0 21.25 9.52 21.25 21.25s-9.52 21.25-21.25 21.25zM191.925 764.915H85.245c-11.74 0-21.25-9.52-21.25-21.25s9.51-21.25 21.25-21.25h106.68c11.74 0 21.25 9.52 21.25 21.25s-9.51 21.25-21.25 21.25z" fill="#363432" /><path d="M694.185 406.275h147.07v147.07h-147.07z" fill="#E9E7DF" /><path d="M841.255 567.505h-147.07c-7.82 0-14.17-6.34-14.17-14.17v-147.06c0-7.83 6.34-14.17 14.17-14.17h147.07c7.82 0 14.17 6.34 14.17 14.17v147.07c0 7.83-6.35 14.16-14.17 14.16z m-132.9-28.33h118.74v-118.74h-118.74v118.74z" fill="#363432" /><path d="M640.325 271.555h147.07v50.66h-147.07z" fill="#FFFBF1" /><path d="M787.405 336.375h-147.07c-7.82 0-14.17-6.34-14.17-14.17v-50.65c0-7.83 6.34-14.17 14.17-14.17h147.07c7.82 0 14.17 6.34 14.17 14.17v50.65c-0.01 7.83-6.35 14.17-14.17 14.17z m-132.91-28.34h118.74v-22.31h-118.74v22.31z" fill="#363432" /><path d="M379.485 395.345m-77.62 0a77.62 77.62 0 1 0 155.24 0 77.62 77.62 0 1 0-155.24 0Z" fill="#E9E7DF" /><path d="M379.495 487.135c-50.61 0-91.78-41.17-91.78-91.79 0-50.6 41.17-91.77 91.78-91.77s91.78 41.17 91.78 91.77c0 50.62-41.17 91.79-91.78 91.79z m0-155.23c-34.99 0-63.45 28.46-63.45 63.44s28.46 63.46 63.45 63.46 63.45-28.47 63.45-63.46-28.47-63.44-63.45-63.44z" fill="#363432" /><path d="M479.625 435.155h-200.28c-7.82 0-14.17-6.34-14.17-14.17s6.34-14.17 14.17-14.17h200.28c7.82 0 14.17 6.34 14.17 14.17 0 7.84-6.34 14.17-14.17 14.17z" fill="#363432" /></svg>