<?xml version="1.0" standalone="no"?><!DOCTYPE svg PUBLIC "-//W3C//DTD SVG 1.1//EN" "http://www.w3.org/Graphics/SVG/1.1/DTD/svg11.dtd"><svg class="icon" width="200px" height="200.00px" viewBox="0 0 1024 1024" version="1.1" xmlns="http://www.w3.org/2000/svg"><path d="M511.995 511.995m-425.51 0a425.51 425.51 0 1 0 851.02 0 425.51 425.51 0 1 0-851.02 0Z" fill="#FFFBF1" /><path d="M512.005 960.005c-247.03 0-448-200.98-448-448s200.97-448 448-448 448 200.98 448 448-200.98 448-448 448z m0-851.02c-222.22 0-403.01 180.78-403.01 403.01S289.775 915.015 512.005 915.015s403.01-180.78 403.01-403.01-180.79-403.02-403.01-403.02z" fill="#363432" /><path d="M511.995 511.995m-332.41 0a332.41 332.41 0 1 0 664.82 0 332.41 332.41 0 1 0-664.82 0Z" fill="#EF7E20" /><path d="M512.005 859.405c-191.56 0-347.41-155.85-347.41-347.41s155.85-347.41 347.41-347.41 347.41 155.85 347.41 347.41-155.85 347.41-347.41 347.41z m0-664.82c-175.02 0-317.42 142.39-317.42 317.42S336.975 829.415 512.005 829.415s317.42-142.39 317.42-317.42-142.4-317.41-317.42-317.41z" fill="#363432" /><path d="M786.305 526.995c-8.28 0-15-6.71-15-15-0.01-69.27-26.98-134.38-75.97-183.36-48.97-48.96-114.09-75.93-183.33-75.93h-0.03c-142.97 0.01-259.28 116.33-259.29 259.29 0 8.29-6.71 15-15 15-8.28 0-15-6.72-15-15 0.01-159.49 129.78-289.27 289.28-289.28h0.03c77.26 0 149.9 30.08 204.54 84.72 54.65 54.64 84.75 127.29 84.75 204.57 0.01 8.27-6.7 14.99-14.98 14.99z" fill="#363432" /><path d="M785.145 526.995h-36.49c-8.28 0-15-6.71-15-15s6.71-15 15-15h36.49c8.28 0 15 6.71 15 15s-6.72 15-15 15zM274.195 526.995h-36.5c-8.28 0-15-6.71-15-15s6.71-15 15-15h36.5c8.28 0 15 6.71 15 15s-6.72 15-15 15zM511.425 289.755c-8.28 0-15-6.71-15-15v-36.51c0-8.29 6.71-15 15-15 8.28 0 15 6.71 15 15v36.51c0 8.3-6.71 15-15 15zM704.975 720.535c-3.84 0-7.67-1.46-10.6-4.39l-25.8-25.79c-5.86-5.84-5.86-15.35-0.01-21.21 5.86-5.86 15.35-5.86 21.21 0l25.8 25.79c5.86 5.86 5.86 15.35 0.01 21.21a14.953 14.953 0 0 1-10.61 4.39zM343.675 359.235c-3.84 0-7.67-1.46-10.6-4.39l-25.8-25.79c-5.86-5.86-5.86-15.35 0-21.21 5.86-5.86 15.35-5.86 21.21 0l25.8 25.79c5.86 5.86 5.86 15.35 0 21.21a15.029 15.029 0 0 1-10.61 4.39zM679.175 359.235c-3.84 0-7.68-1.46-10.61-4.39-5.85-5.86-5.85-15.35 0.01-21.21l25.8-25.79c5.86-5.86 15.35-5.86 21.21 0 5.85 5.86 5.85 15.36-0.01 21.21l-25.8 25.79a14.989 14.989 0 0 1-10.6 4.39zM318.045 720.945c-3.84 0-7.67-1.46-10.6-4.39-5.86-5.86-5.86-15.35 0-21.21l25.79-25.79c5.86-5.86 15.35-5.86 21.21 0 5.86 5.86 5.86 15.35 0 21.21l-25.79 25.79a14.987 14.987 0 0 1-10.61 4.39z" fill="#363432" /><path d="M705.945 720.965c-3.84 0-7.67-1.46-10.6-4.39-5.86-5.86-5.86-15.35 0-21.21 101.1-101.1 101.11-265.62 0.01-366.72-48.98-48.97-114.09-75.95-183.35-75.95-69.27 0-134.38 26.97-183.36 75.95s-75.97 114.07-75.97 183.34 26.97 134.39 75.94 183.36c5.86 5.86 5.86 15.35 0 21.21-5.86 5.86-15.35 5.86-21.21 0-54.64-54.64-84.73-127.29-84.72-204.57 0-77.28 30.09-149.91 84.74-204.55 54.64-54.64 127.29-84.73 204.57-84.73 77.27 0 149.92 30.09 204.56 84.73 112.8 112.79 112.8 296.33-0.01 409.13-2.93 2.93-6.77 4.4-10.6 4.4z" fill="#363432" /><path d="M511.995 344.235l22.64 109.68 22.66 109.68h-90.6l22.66-109.68 22.64-109.68z" fill="#EF7E20" /><path d="M557.305 578.585h-90.6c-4.51 0-8.78-2.04-11.63-5.52-2.85-3.5-3.97-8.1-3.06-12.51l45.3-219.36a14.997 14.997 0 0 1 14.69-11.96c7.12 0 13.25 4.99 14.69 11.96l45.3 219.36c0.91 4.41-0.21 9.01-3.06 12.51a15.019 15.019 0 0 1-11.63 5.52z m-72.2-29.99h53.79l-26.89-130.19-26.9 130.19z" fill="#363432" /><path d="M511.995 572.025m-46.86 0a46.86 46.86 0 1 0 93.72 0 46.86 46.86 0 1 0-93.72 0Z" fill="#FFFBF1" /><path d="M512.005 633.885c-34.11 0-61.86-27.75-61.86-61.86s27.75-61.86 61.86-61.86 61.86 27.75 61.86 61.86-27.76 61.86-61.86 61.86z m0-93.72c-17.57 0-31.87 14.29-31.87 31.87 0 17.57 14.29 31.87 31.87 31.87 17.57 0 31.87-14.29 31.87-31.87-0.01-17.58-14.3-31.87-31.87-31.87z" fill="#363432" /><path d="M512.005 801.285c-40.92 0-81.82-8.65-119.93-25.96-7.35-3.34-10.74-11.91-7.66-19.37l19.92-48.27c3.08-7.42 11.52-11.13 19.03-8.35 28.46 10.46 58.28 15.79 88.63 15.85 30.32-0.06 60.14-5.39 88.63-15.85 7.57-2.78 15.96 0.92 19.03 8.35l19.93 48.27c3.08 7.47-0.3 16.04-7.66 19.37a290.017 290.017 0 0 1-119.92 25.96z m-94.19-47.65c60.55 23.55 127.79 23.55 188.37 0l-8.88-21.51c-27.63 8.61-56.25 12.99-85.27 13.05h-0.06c-29.05-0.06-57.68-4.44-85.27-13.05l-8.89 21.51z" fill="#363432" /></svg>