<?xml version="1.0" standalone="no"?><!DOCTYPE svg PUBLIC "-//W3C//DTD SVG 1.1//EN" "http://www.w3.org/Graphics/SVG/1.1/DTD/svg11.dtd"><svg class="icon" width="200px" height="200.00px" viewBox="0 0 1024 1024" version="1.1" xmlns="http://www.w3.org/2000/svg"><path d="M148.536 336.635l-61.09 40.24v560.21h849.1v-560.21l-60.83-40.13-727.18-0.11z" fill="#EF7E20" /><path d="M936.546 959.995H87.456c-12.65 0-22.91-10.26-22.91-22.91v-560.21c0-7.71 3.87-14.9 10.31-19.13l61.09-40.24c3.74-2.46 8.12-3.77 12.6-3.77l727.18 0.1c4.49 0 8.87 1.31 12.62 3.79l60.83 40.13a22.892 22.892 0 0 1 10.29 19.12v560.22c-0.01 12.64-10.26 22.9-22.92 22.9z m-826.19-45.81h803.28v-524.98l-44.79-29.56-713.44-0.1-45.05 29.68v524.96z" fill="#363432" /><path d="M936.556 465.075l-424.56 280.11-424.55-280.11v472.02h849.1v-472.02z" fill="#FFFBF1" /><path d="M936.546 959.995H87.456c-12.65 0-22.91-10.26-22.91-22.91v-472.01c0-8.43 4.63-16.18 12.05-20.18 7.41-3.98 16.42-3.61 23.47 1.06l411.93 271.79 411.93-271.79a22.944 22.944 0 0 1 23.47-1.06c7.42 4 12.05 11.75 12.05 20.18v472.02c0.01 12.64-10.24 22.9-22.9 22.9z m-826.19-45.81h803.28v-406.55l-389.02 256.67a22.94 22.94 0 0 1-25.23 0l-389.03-256.67v406.55z" fill="#363432" /><path d="M445.176 701.075l-357.73 236.01h849.1l-357.72-236.01-66.83 44.1-66.82-44.1z" fill="#E9E7DF" /><path d="M936.546 952.365H87.456c-6.74 0-12.69-4.43-14.63-10.89-1.94-6.46 0.59-13.42 6.22-17.14l357.71-236c5.1-3.37 11.72-3.37 16.82 0l58.42 38.55 58.42-38.55c5.1-3.37 11.72-3.37 16.82 0l357.72 236.01a15.27 15.27 0 0 1 6.22 17.14 15.289 15.289 0 0 1-14.63 10.88z m-798.22-30.54h747.34l-306.84-202.44-58.42 38.55a15.255 15.255 0 0 1-16.82 0l-58.42-38.55-306.84 202.44z" fill="#363432" /><path d="M875.466 505.315v-418.4h-726.93v418.44l363.46 239.83 363.47-239.87z" fill="#EF7E20" /><path d="M511.996 768.095c-4.39 0-8.79-1.27-12.62-3.79l-363.45-239.83a22.892 22.892 0 0 1-10.29-19.12V86.905c0-12.65 10.25-22.91 22.91-22.91h726.92c12.65 0 22.91 10.26 22.91 22.91v418.4c0 7.7-3.86 14.88-10.29 19.12l-363.47 239.88a22.912 22.912 0 0 1-12.62 3.79z m-340.55-275.07l340.55 224.72 340.55-224.76v-383.17h-681.1v383.21z m704.02 12.29h0.15-0.15z" fill="#363432" /><path d="M767.146 243.295h-510.29c-8.43 0-15.27-6.83-15.27-15.27s6.84-15.27 15.27-15.27h510.29c8.43 0 15.27 6.83 15.27 15.27s-6.84 15.27-15.27 15.27zM706.716 326.405h-449.86c-8.43 0-15.27-6.83-15.27-15.27s6.84-15.27 15.27-15.27h449.86c8.43 0 15.27 6.83 15.27 15.27s-6.84 15.27-15.27 15.27zM636.216 409.505h-379.36c-8.43 0-15.27-6.83-15.27-15.27s6.84-15.27 15.27-15.27h379.36c8.43 0 15.27 6.83 15.27 15.27s-6.84 15.27-15.27 15.27zM481.796 492.615h-224.94c-8.43 0-15.27-6.83-15.27-15.27s6.84-15.27 15.27-15.27h224.94c8.43 0 15.27 6.83 15.27 15.27s-6.84 15.27-15.27 15.27z" fill="#363432" /></svg>