<?xml version="1.0" standalone="no"?><!DOCTYPE svg PUBLIC "-//W3C//DTD SVG 1.1//EN" "http://www.w3.org/Graphics/SVG/1.1/DTD/svg11.dtd"><svg class="icon" width="200px" height="200.00px" viewBox="0 0 1024 1024" version="1.1" xmlns="http://www.w3.org/2000/svg"><path d="M85.794 444.845h852.41v468.39H85.794z" fill="#E9E7DF" /><path d="M938.204 935.025H85.794c-12.04 0-21.79-9.76-21.79-21.79v-468.38c0-12.03 9.75-21.79 21.79-21.79h852.41c12.04 0 21.79 9.76 21.79 21.79v468.38c0.01 12.02-9.75 21.79-21.79 21.79z m-830.62-43.59h808.82v-424.79h-808.82v424.79z" fill="#363432" /><path d="M433.544 709.935h156.93v203.3h-156.93z" fill="#EF7E20" /><path d="M590.474 927.755h-156.93c-8.02 0-14.53-6.5-14.53-14.53v-203.3c0-8.03 6.51-14.53 14.53-14.53h156.93c8.02 0 14.53 6.5 14.53 14.53v203.3c0 8.03-6.51 14.53-14.53 14.53z m-142.4-29.06h127.87v-174.24h-127.87v174.24z" fill="#363432" /><path d="M540.914 818.375c-2.04 0-3.92-0.3-5.67-1.02-1.74-0.72-3.34-1.75-4.65-3.19-1.45-1.31-2.47-2.91-3.19-4.65-0.73-1.75-1.02-3.63-1.02-5.52 0-1.89 0.29-3.77 1.02-5.66 0.72-1.75 1.89-3.35 3.19-4.65 1.31-1.31 2.91-2.47 4.65-3.19a14.96 14.96 0 0 1 8.43-0.72c0.87 0.14 1.89 0.43 2.76 0.72 0.87 0.44 1.75 0.87 2.48 1.45 0.72 0.44 1.6 1.02 2.18 1.75 1.31 1.31 2.47 2.91 3.19 4.65 0.73 1.89 1.02 3.77 1.02 5.66 0 1.89-0.29 3.77-1.02 5.52-0.72 1.75-1.74 3.35-3.19 4.65-1.31 1.45-2.91 2.47-4.65 3.19-1.75 0.71-3.65 1.01-5.53 1.01z" fill="#363432" /><path d="M686.394 709.935h156.93v129.6h-156.93z" fill="#EF7E20" /><path d="M843.334 854.075h-156.94c-8.02 0-14.53-6.5-14.53-14.53v-129.62c0-8.03 6.51-14.53 14.53-14.53h156.94c8.02 0 14.53 6.5 14.53 14.53v129.62c0 8.03-6.51 14.53-14.53 14.53z m-142.41-29.06h127.88v-100.56h-127.88v100.56z" fill="#363432" /><path d="M686.394 525.675h156.93v129.6h-156.93z" fill="#EF7E20" /><path d="M843.334 669.805h-156.94c-8.02 0-14.53-6.5-14.53-14.53v-129.6c0-8.03 6.51-14.53 14.53-14.53h156.94c8.02 0 14.53 6.5 14.53 14.53v129.6c0 8.03-6.51 14.53-14.53 14.53z m-142.41-29.06h127.88v-100.54h-127.88v100.54z" fill="#363432" /><path d="M433.764 525.675h156.93v129.6h-156.93z" fill="#EF7E20" /><path d="M590.694 669.805h-156.93c-8.02 0-14.53-6.5-14.53-14.53v-129.6c0-8.03 6.51-14.53 14.53-14.53h156.93c8.02 0 14.53 6.5 14.53 14.53v129.6c0 8.03-6.51 14.53-14.53 14.53z m-142.4-29.06h127.87v-100.54h-127.87v100.54z" fill="#363432" /><path d="M181.124 525.675h156.93v129.6h-156.93z" fill="#EF7E20" /><path d="M338.054 669.805h-156.93c-8.02 0-14.53-6.5-14.53-14.53v-129.6c0-8.03 6.51-14.53 14.53-14.53h156.93c8.02 0 14.53 6.5 14.53 14.53v129.6c0 8.03-6.51 14.53-14.53 14.53z m-142.4-29.06h127.87v-100.54h-127.87v100.54z" fill="#363432" /><path d="M180.684 709.495h156.93v129.6h-156.93z" fill="#EF7E20" /><path d="M337.614 853.635h-156.93c-8.02 0-14.53-6.5-14.53-14.53v-129.6c0-8.03 6.51-14.53 14.53-14.53h156.94c8.02 0 14.53 6.5 14.53 14.53v129.6c-0.01 8.03-6.51 14.53-14.54 14.53z m-142.4-29.06h127.88v-100.54h-127.88v100.54z" fill="#363432" /><path d="M85.794 318.395h426.21v126.45H85.794z" fill="#FFFBF1" /><path d="M512.004 459.385H85.794c-8.02 0-14.53-6.5-14.53-14.53v-126.46c0-8.03 6.51-14.53 14.53-14.53h426.21c8.02 0 14.53 6.5 14.53 14.53v126.45c0 8.04-6.51 14.54-14.53 14.54z m-411.68-29.06h397.15v-97.39h-397.15v97.39z" fill="#363432" /><path d="M781.264 110.775h-269.26v334.08h426.21v-177.14l-156.95-156.94z" fill="#FFFBF1" /><path d="M938.204 466.645h-426.2c-12.04 0-21.79-9.76-21.79-21.79v-334.08c0-12.03 9.75-21.79 21.79-21.79h269.26c5.78 0 11.32 2.3 15.41 6.39l156.94 156.94c4.09 4.09 6.39 9.63 6.39 15.41v177.13c0 12.03-9.76 21.79-21.8 21.79z m-404.41-43.59h382.62v-146.31l-144.18-144.18h-238.44v290.49z" fill="#363432" /><path d="M589.534 237.365h156.93v203.3h-156.93z" fill="#EF7E20" /><path d="M746.464 455.195h-156.94c-8.02 0-14.53-6.5-14.53-14.53v-203.3c0-8.03 6.51-14.53 14.53-14.53h156.94c8.02 0 14.53 6.5 14.53 14.53v203.3c0 8.03-6.51 14.53-14.53 14.53z m-142.41-29.06h127.88v-174.24h-127.88v174.24z" fill="#363432" /><path d="M696.814 345.865c-1.89 0-3.77-0.28-5.52-1.01s-3.34-1.89-4.8-3.21c-2.76-2.75-4.21-6.39-4.21-10.32 0-1.89 0.44-3.77 1.16-5.52 0.72-1.75 1.75-3.33 3.05-4.8 1.45-1.31 2.91-2.31 4.8-3.05 3.49-1.45 7.56-1.45 11.04 0 1.89 0.74 3.35 1.75 4.8 3.05 1.31 1.46 2.33 3.05 3.05 4.8 0.87 1.75 1.16 3.63 1.16 5.52 0 3.93-1.45 7.56-4.21 10.32-2.77 2.78-6.4 4.22-10.32 4.22z" fill="#363432" /><path d="M156.834 456.005c-8.02 0-14.53-6.5-14.53-14.53v-163.67c0-8.03 6.51-14.53 14.53-14.53s14.53 6.5 14.53 14.53v163.67c0 8.03-6.51 14.53-14.53 14.53z" fill="#363432" /><path d="M227.864 456.005c-8.02 0-14.53-6.5-14.53-14.53v-163.67c0-8.03 6.51-14.53 14.53-14.53s14.53 6.5 14.53 14.53v163.67c0 8.03-6.51 14.53-14.53 14.53z" fill="#363432" /><path d="M298.894 456.005c-8.02 0-14.53-6.5-14.53-14.53v-163.67c0-8.03 6.51-14.53 14.53-14.53s14.53 6.5 14.53 14.53v163.67c0 8.03-6.5 14.53-14.53 14.53z" fill="#363432" /><path d="M369.934 456.005c-8.02 0-14.53-6.5-14.53-14.53v-163.67c0-8.03 6.51-14.53 14.53-14.53s14.53 6.5 14.53 14.53v163.67c0 8.03-6.51 14.53-14.53 14.53z" fill="#363432" /><path d="M440.964 456.005c-8.02 0-14.53-6.5-14.53-14.53v-163.67c0-8.03 6.51-14.53 14.53-14.53s14.53 6.5 14.53 14.53v163.67c0 8.03-6.51 14.53-14.53 14.53z" fill="#363432" /><path d="M301.354 576.905c-3.72 0-7.43-1.42-10.27-4.26-5.68-5.68-5.68-14.87 0-20.55l36.7-36.71c5.68-5.68 14.87-5.68 20.55 0 5.68 5.68 5.68 14.87 0 20.55l-36.7 36.71a14.51 14.51 0 0 1-10.28 4.26zM227.134 669.805c-3.72 0-7.43-1.42-10.27-4.26-5.68-5.68-5.68-14.87 0-20.55l24.65-24.66c5.68-5.68 14.87-5.68 20.55 0 5.68 5.68 5.68 14.87 0 20.55l-24.65 24.66a14.493 14.493 0 0 1-10.28 4.26z" fill="#363432" /><path d="M552.824 576.905c-3.72 0-7.43-1.42-10.27-4.26-5.68-5.68-5.68-14.87 0-20.55l36.7-36.71c5.68-5.68 14.87-5.68 20.55 0 5.68 5.68 5.68 14.87 0 20.55l-36.7 36.71a14.493 14.493 0 0 1-10.28 4.26zM478.614 669.805c-3.72 0-7.43-1.42-10.27-4.26-5.68-5.68-5.68-14.87 0-20.55l24.65-24.66c5.68-5.68 14.87-5.68 20.55 0 5.68 5.68 5.68 14.87 0 20.55l-24.65 24.66a14.51 14.51 0 0 1-10.28 4.26z" fill="#363432" /><path d="M806.614 576.905c-3.72 0-7.43-1.42-10.27-4.26-5.68-5.68-5.68-14.87 0-20.55l36.71-36.71c5.68-5.68 14.87-5.68 20.55 0 5.68 5.68 5.68 14.87 0 20.55l-36.71 36.71a14.527 14.527 0 0 1-10.28 4.26zM732.414 669.805c-3.72 0-7.43-1.42-10.27-4.26-5.68-5.66-5.68-14.87-0.01-20.55l24.65-24.66c5.68-5.68 14.88-5.68 20.55 0 5.68 5.66 5.68 14.87 0.01 20.55l-24.65 24.66a14.51 14.51 0 0 1-10.28 4.26z" fill="#363432" /><path d="M806.614 761.165c-3.72 0-7.43-1.42-10.27-4.26-5.68-5.68-5.68-14.87 0-20.55l36.71-36.71c5.68-5.68 14.87-5.68 20.55 0 5.68 5.68 5.68 14.87 0 20.55l-36.71 36.71a14.527 14.527 0 0 1-10.28 4.26zM732.414 854.075c-3.72 0-7.43-1.42-10.27-4.26-5.68-5.68-5.68-14.87 0-20.55l24.65-24.65c5.68-5.68 14.87-5.68 20.55 0 5.68 5.68 5.68 14.87 0 20.55l-24.65 24.65a14.527 14.527 0 0 1-10.28 4.26z" fill="#363432" /><path d="M300.904 761.165c-3.72 0-7.43-1.42-10.27-4.26-5.68-5.68-5.68-14.87 0-20.55l36.7-36.71c5.68-5.68 14.87-5.68 20.55 0 5.68 5.68 5.68 14.87 0 20.55l-36.7 36.71a14.493 14.493 0 0 1-10.28 4.26zM226.694 854.075c-3.72 0-7.43-1.42-10.27-4.26-5.68-5.68-5.68-14.87 0-20.55l24.65-24.65c5.68-5.68 14.87-5.68 20.55 0 5.68 5.68 5.68 14.87 0 20.55l-24.65 24.65a14.493 14.493 0 0 1-10.28 4.26z" fill="#363432" /><path d="M843.314 455.195c-8.02 0-14.53-6.5-14.53-14.53v-101.65c0-8.03 6.51-14.53 14.53-14.53s14.53 6.5 14.53 14.53v101.65c0 8.03-6.5 14.53-14.53 14.53z" fill="#363432" /><path d="M797.704 217.405l-40.68-40.68h-166.57" fill="#FFFBF1" /><path d="M797.704 224.665c-1.86 0-3.72-0.71-5.14-2.13l-38.56-38.55h-163.55c-4.02 0-7.26-3.25-7.26-7.26s3.25-7.26 7.26-7.26h166.56c1.93 0 3.77 0.77 5.14 2.13l40.69 40.68a7.255 7.255 0 0 1-5.14 12.39z" fill="#363432" /></svg>