<?xml version="1.0" standalone="no"?><!DOCTYPE svg PUBLIC "-//W3C//DTD SVG 1.1//EN" "http://www.w3.org/Graphics/SVG/1.1/DTD/svg11.dtd"><svg class="icon" width="200px" height="200.00px" viewBox="0 0 1024 1024" version="1.1" xmlns="http://www.w3.org/2000/svg"><path d="M567.408 212.549h-413.95v724.8h591.13v-547.56l-177.18-177.24z" fill="#FFFBF1" /><path d="M744.588 959.999h-591.12c-12.5 0-22.65-10.15-22.65-22.65v-724.8c0-12.5 10.15-22.65 22.65-22.65h413.95c6 0 11.77 2.39 16.01 6.64l177.17 177.23a22.649 22.649 0 0 1 6.64 16.01v547.56c0 12.52-10.14 22.66-22.65 22.66z m-568.47-45.3h545.82v-515.53l-163.9-163.96h-381.92v679.49z" fill="#363432" /><path d="M567.408 389.789h177.18l-177.18-177.24v177.24z" fill="#FFFBF1" /><path d="M744.588 412.439h-177.17c-12.5 0-22.65-10.15-22.65-22.65v-177.23c0-9.16 5.52-17.42 13.98-20.92a22.69 22.69 0 0 1 24.68 4.91l177.17 177.22c6.47 6.47 8.42 16.22 4.91 24.68a22.635 22.635 0 0 1-20.92 13.99z m-154.52-45.3h99.86l-99.86-99.89v99.89z" fill="#363432" /><path d="M693.258 86.649h-413.91v724.8h591.19v-547.56l-177.28-177.24z" fill="#EF7E20" /><path d="M870.538 834.099h-591.19c-12.5 0-22.65-10.15-22.65-22.65v-724.8c0-12.5 10.15-22.65 22.65-22.65h413.91c6 0 11.77 2.39 16.01 6.64l177.28 177.23a22.649 22.649 0 0 1 6.64 16.01v547.56c0 12.51-10.15 22.66-22.65 22.66z m-568.54-45.3h545.88v-515.54l-164-163.96h-381.88v679.5z" fill="#363432" /><path d="M693.258 263.889h177.29l-177.29-177.24v177.24z" fill="#FFFBF1" /><path d="M870.538 286.539h-177.28c-12.5 0-22.65-10.15-22.65-22.65V86.649c0-9.16 5.52-17.42 13.98-20.92a22.613 22.613 0 0 1 24.68 4.91l177.28 177.23c6.47 6.47 8.42 16.22 4.91 24.68a22.655 22.655 0 0 1-20.92 13.99z m-154.63-45.3h99.93l-99.93-99.9v99.9z" fill="#363432" /><path d="M585.008 282.269h-72.03c-8.35 0-15.1-6.75-15.1-15.1s6.75-15.1 15.1-15.1h72.03c8.35 0 15.1 6.75 15.1 15.1s-6.75 15.1-15.1 15.1zM781.118 350.239h-268.14c-8.35 0-15.1-6.75-15.1-15.1s6.75-15.1 15.1-15.1h268.14c8.35 0 15.1 6.75 15.1 15.1s-6.76 15.1-15.1 15.1z" fill="#363432" /><path d="M369.268 267.179h67.95v67.95h-67.95z" fill="#FFFBF1" /><path d="M437.218 350.219h-67.95c-8.35 0-15.1-6.75-15.1-15.1v-67.95c0-8.35 6.75-15.1 15.1-15.1h67.95c8.35 0 15.1 6.75 15.1 15.1v67.95c0 8.35-6.75 15.1-15.1 15.1z m-52.84-30.2h37.75v-37.75h-37.75v37.75z" fill="#363432" /><path d="M585.008 430.179h-72.03c-8.35 0-15.1-6.75-15.1-15.1s6.75-15.1 15.1-15.1h72.03c8.35 0 15.1 6.75 15.1 15.1 0 8.34-6.75 15.1-15.1 15.1zM781.118 498.139h-268.14c-8.35 0-15.1-6.75-15.1-15.1s6.75-15.1 15.1-15.1h268.14c8.35 0 15.1 6.75 15.1 15.1s-6.76 15.1-15.1 15.1z" fill="#363432" /><path d="M369.268 415.069h67.95v67.95h-67.95z" fill="#FFFBF1" /><path d="M437.218 498.129h-67.95c-8.35 0-15.1-6.75-15.1-15.1v-67.95c0-8.35 6.75-15.1 15.1-15.1h67.95c8.35 0 15.1 6.75 15.1 15.1v67.95c0 8.34-6.75 15.1-15.1 15.1z m-52.84-30.2h37.75v-37.75h-37.75v37.75z" fill="#363432" /><path d="M585.008 595.269h-72.03c-8.35 0-15.1-6.75-15.1-15.1s6.75-15.1 15.1-15.1h72.03c8.35 0 15.1 6.75 15.1 15.1s-6.75 15.1-15.1 15.1zM781.118 663.219h-268.14c-8.35 0-15.1-6.75-15.1-15.1s6.75-15.1 15.1-15.1h268.14c8.35 0 15.1 6.75 15.1 15.1s-6.76 15.1-15.1 15.1z" fill="#363432" /><path d="M369.268 580.169h67.95v67.95h-67.95z" fill="#FFFBF1" /><path d="M437.218 663.219h-67.95c-8.35 0-15.1-6.75-15.1-15.1v-67.95c0-8.35 6.75-15.1 15.1-15.1h67.95c8.35 0 15.1 6.75 15.1 15.1v67.95c0 8.35-6.75 15.1-15.1 15.1z m-52.84-30.2h37.75v-37.75h-37.75v37.75z" fill="#363432" /><path d="M585.008 190.359h-215.73c-8.35 0-15.1-6.75-15.1-15.1s6.75-15.1 15.1-15.1h215.73c8.35 0 15.1 6.75 15.1 15.1s-6.75 15.1-15.1 15.1z" fill="#363432" /></svg>