<?xml version="1.0" standalone="no"?><!DOCTYPE svg PUBLIC "-//W3C//DTD SVG 1.1//EN" "http://www.w3.org/Graphics/SVG/1.1/DTD/svg11.dtd"><svg class="icon" width="200px" height="200.00px" viewBox="0 0 1024 1024" version="1.1" xmlns="http://www.w3.org/2000/svg"><path d="M409.293 721.413h205.39v172.74h-205.39z" fill="#FFFBF1" /><path d="M614.683 915.763h-205.39c-11.94 0-21.61-9.68-21.61-21.61v-172.75c0-11.93 9.67-21.61 21.61-21.61h205.39c11.94 0 21.61 9.68 21.61 21.61v172.74c0 11.94-9.67 21.62-21.61 21.62z m-183.78-43.23h162.16v-129.52h-162.16v129.52z" fill="#363432" /><path d="M669.633 915.763h-315.29c-11.94 0-21.61-9.68-21.61-21.61s9.67-21.61 21.61-21.61h315.29c11.94 0 21.61 9.68 21.61 21.61s-9.67 21.61-21.61 21.61zM484.663 831.103h-75.37c-11.94 0-21.61-9.68-21.61-21.61s9.67-21.61 21.61-21.61h75.37c11.94 0 21.61 9.68 21.61 21.61s-9.67 21.61-21.61 21.61z" fill="#363432" /><path d="M85.613 129.853h852.78v417.81H85.613z" fill="#EF7E20" /><path d="M938.383 569.273H85.613c-11.94 0-21.61-9.68-21.61-21.61v-417.81c0-11.93 9.67-21.61 21.61-21.61h852.78c11.94 0 21.61 9.68 21.61 21.61v417.81c0 11.93-9.68 21.61-21.62 21.61z m-831.16-43.22h809.55v-374.59h-809.55v374.59z" fill="#363432" /><path d="M85.613 547.663h852.78v179.27H85.613z" fill="#FFFBF1" /><path d="M938.383 748.543H85.613c-11.94 0-21.61-9.68-21.61-21.61v-179.27c0-11.93 9.67-21.61 21.61-21.61h852.78c11.94 0 21.61 9.68 21.61 21.61v179.27c0 11.93-9.68 21.61-21.62 21.61z m-831.16-43.22h809.55v-136.05h-809.55v136.05z" fill="#363432" /><path d="M511.833 637.293m-37.22 0a37.22 37.22 0 1 0 74.44 0 37.22 37.22 0 1 0-74.44 0Z" fill="#EF7E20" /><path d="M511.833 681.713c-24.5 0-44.42-19.92-44.42-44.42s19.92-44.42 44.42-44.42 44.42 19.92 44.42 44.42-19.92 44.42-44.42 44.42z m0-74.43c-16.55 0-30.01 13.47-30.01 30.01s13.47 30.01 30.01 30.01 30.01-13.47 30.01-30.01-13.46-30.01-30.01-30.01z" fill="#363432" /><path d="M841.463 358.513h-154.28l27.66 70.34 111.65 11.97 14.97-82.31z" fill="#FFFBF1" /><path d="M826.503 448.033c-0.25 0-0.51-0.01-0.77-0.04l-111.65-11.97a7.204 7.204 0 0 1-5.94-4.53l-27.66-70.34a7.2 7.2 0 0 1 6.7-9.83h154.28c2.14 0 4.16 0.94 5.53 2.59a7.181 7.181 0 0 1 1.55 5.91l-14.97 82.31c-0.62 3.43-3.63 5.9-7.07 5.9z m-106.55-25.88l100.65 10.79 12.23-67.23h-135.07l22.19 56.44z" fill="#363432" /><path d="M836.383 393.673h-138.19c-3.98 0-7.2-3.22-7.2-7.2s3.22-7.2 7.2-7.2h138.19c3.98 0 7.2 3.22 7.2 7.2s-3.22 7.2-7.2 7.2zM831.293 421.663h-122.11c-3.98 0-7.2-3.22-7.2-7.2s3.22-7.2 7.2-7.2h122.11c3.98 0 7.2 3.22 7.2 7.2 0.01 3.97-3.21 7.2-7.2 7.2z" fill="#363432" /><path d="M764.323 441.363c-3.98 0-7.2-3.22-7.2-7.2v-75.64c0-3.98 3.22-7.2 7.2-7.2s7.2 3.22 7.2 7.2v75.64c0.01 3.97-3.21 7.2-7.2 7.2z" fill="#363432" /><path d="M831.293 476.023m-17.46 0a17.46 17.46 0 1 0 34.92 0 17.46 17.46 0 1 0-34.92 0Z" fill="#EF7E20" /><path d="M831.293 500.693c-13.6 0-24.67-11.06-24.67-24.67 0-13.61 11.07-24.67 24.67-24.67 13.6 0 24.67 11.06 24.67 24.67 0 13.61-11.07 24.67-24.67 24.67z m0-34.92c-5.66 0-10.26 4.6-10.26 10.26s4.6 10.26 10.26 10.26 10.26-4.6 10.26-10.26-4.6-10.26-10.26-10.26z" fill="#363432" /><path d="M714.843 476.023m-17.46 0a17.46 17.46 0 1 0 34.92 0 17.46 17.46 0 1 0-34.92 0Z" fill="#EF7E20" /><path d="M714.853 500.693c-13.6 0-24.67-11.06-24.67-24.67 0-13.61 11.07-24.67 24.67-24.67 13.6 0 24.67 11.06 24.67 24.67-0.01 13.61-11.08 24.67-24.67 24.67z m0-34.92c-5.66 0-10.26 4.6-10.26 10.26s4.6 10.26 10.26 10.26 10.26-4.6 10.26-10.26-4.61-10.26-10.26-10.26z" fill="#363432" /><path d="M833.763 408.023c-0.44 0-0.88-0.04-1.32-0.13-3.91-0.72-6.49-4.47-5.77-8.39l15-80.88c0.58-3.12 3.13-5.5 6.28-5.85l38.54-4.33c3.88-0.48 7.52 2.41 7.96 6.36 0.44 3.95-2.41 7.51-6.36 7.96l-33.23 3.73-14.02 75.63a7.208 7.208 0 0 1-7.08 5.9z" fill="#363432" /><path d="M86.953 130.523h851.43v86.78H86.953z" fill="#FFFBF1" /><path d="M938.373 238.923H86.953c-11.94 0-21.61-9.68-21.61-21.61v-86.79c0-11.93 9.67-21.61 21.61-21.61h851.42c11.94 0 21.61 9.68 21.61 21.61v86.79c0 11.93-9.67 21.61-21.61 21.61z m-829.81-43.22h808.2v-43.56h-808.2v43.56z" fill="#363432" /><path d="M144.233 173.923m-9.84 0a9.84 9.84 0 1 0 19.68 0 9.84 9.84 0 1 0-19.68 0Z" fill="#EF7E20" /><path d="M144.233 190.973c-9.4 0-17.05-7.65-17.05-17.05s7.65-17.04 17.05-17.04 17.05 7.64 17.05 17.04-7.65 17.05-17.05 17.05z m0-19.68c-1.46 0-2.64 1.18-2.64 2.63 0 2.93 5.28 2.93 5.28 0 0-1.45-1.18-2.63-2.64-2.63z" fill="#363432" /><path d="M181.413 173.923m-9.84 0a9.84 9.84 0 1 0 19.68 0 9.84 9.84 0 1 0-19.68 0Z" fill="#EF7E20" /><path d="M181.413 190.973c-9.4 0-17.05-7.65-17.05-17.05s7.65-17.04 17.05-17.04 17.04 7.64 17.04 17.04-7.64 17.05-17.04 17.05z m0-19.68c-1.46 0-2.64 1.18-2.64 2.63 0.01 2.93 5.28 2.94 5.27 0 0-1.45-1.18-2.63-2.63-2.63z" fill="#363432" /><path d="M218.573 173.923m-9.84 0a9.84 9.84 0 1 0 19.68 0 9.84 9.84 0 1 0-19.68 0Z" fill="#EF7E20" /><path d="M218.563 190.973c-9.4 0-17.04-7.65-17.04-17.05s7.64-17.04 17.04-17.04 17.05 7.64 17.05 17.04-7.65 17.05-17.05 17.05z m0-19.68c-1.45 0-2.63 1.18-2.63 2.63 0.01 2.94 5.28 2.93 5.27 0 0-1.45-1.18-2.63-2.64-2.63z" fill="#363432" /><path d="M144.233 266.833h390.12v112.57h-390.12z" fill="#FFFBF1" /><path d="M534.353 386.613h-390.12c-3.98 0-7.2-3.22-7.2-7.2v-112.59c0-3.98 3.22-7.2 7.2-7.2h390.11c3.98 0 7.2 3.22 7.2 7.2v112.58a7.19 7.19 0 0 1-7.19 7.21z m-382.91-14.41h375.71v-98.17h-375.71v98.17z" fill="#363432" /><path d="M312.223 421.663h-167.99c-3.98 0-7.2-3.22-7.2-7.2s3.22-7.2 7.2-7.2h167.98c3.98 0 7.2 3.22 7.2 7.2 0.01 3.97-3.21 7.2-7.19 7.2z" fill="#363432" /><path d="M312.223 451.333h-167.99c-3.98 0-7.2-3.22-7.2-7.2s3.22-7.2 7.2-7.2h167.98c3.98 0 7.2 3.22 7.2 7.2a7.18 7.18 0 0 1-7.19 7.2z" fill="#363432" /><path d="M312.223 480.193h-167.99c-3.98 0-7.2-3.22-7.2-7.2s3.22-7.2 7.2-7.2h167.98c3.98 0 7.2 3.22 7.2 7.2s-3.21 7.2-7.19 7.2z" fill="#363432" /><path d="M312.223 509.873h-167.99c-3.98 0-7.2-3.22-7.2-7.2s3.22-7.2 7.2-7.2h167.98c3.98 0 7.2 3.22 7.2 7.2s-3.21 7.2-7.19 7.2z" fill="#363432" /><path d="M534.353 386.613c-0.66 0-1.33-0.08-2-0.28l-390.11-112.58a7.195 7.195 0 0 1-4.92-8.92c1.1-3.81 5.09-6.05 8.92-4.92l390.11 112.58a7.195 7.195 0 0 1 4.92 8.92c-0.91 3.14-3.79 5.2-6.92 5.2z" fill="#363432" /><path d="M534.353 421.663h-167.98c-3.98 0-7.2-3.22-7.2-7.2s3.22-7.2 7.2-7.2h167.98c3.98 0 7.2 3.22 7.2 7.2 0 3.97-3.22 7.2-7.2 7.2z" fill="#363432" /><path d="M509.043 451.333h-142.67c-3.98 0-7.2-3.22-7.2-7.2s3.22-7.2 7.2-7.2h142.67c3.98 0 7.2 3.22 7.2 7.2s-3.22 7.2-7.2 7.2z" fill="#363432" /><path d="M516.893 507.913h-133.13c-9.63-0.06-17.4-7.89-17.39-17.52 0.05-9.58 7.81-17.34 17.39-17.41h133.13c9.61 0.02 17.41 7.79 17.46 17.41 0.01 9.65-7.8 17.49-17.46 17.52z" fill="#FFFBF1" /><path d="M516.913 515.113h-133.15c-13.59-0.1-24.6-11.19-24.6-24.72 0.08-13.51 11.09-24.53 24.55-24.61h133.18c13.54 0.01 24.6 11.05 24.67 24.57 0.01 13.63-11.05 24.72-24.65 24.76z m-133.15-34.92c-5.56 0.03-10.15 4.63-10.19 10.24-0.01 5.6 4.59 10.23 10.24 10.27h133.08c5.66-0.03 10.26-4.64 10.26-10.3-0.03-5.61-4.64-10.2-10.26-10.22h-133.13z" fill="#363432" /><path d="M520.393 497.653h-7.2c-3.98 0-7.2-3.22-7.2-7.2s3.22-7.2 7.2-7.2h7.2c3.98 0 7.2 3.22 7.2 7.2s-3.22 7.2-7.2 7.2zM560.113 497.653h-13.24c-3.98 0-7.2-3.22-7.2-7.2s3.22-7.2 7.2-7.2h13.24c3.98 0 7.2 3.22 7.2 7.2s-3.22 7.2-7.2 7.2zM593.783 497.603h-7.2c-3.98 0-7.2-3.22-7.2-7.2s3.22-7.2 7.2-7.2c0-3.98 3.22-7.2 7.2-7.2s7.2 3.22 7.2 7.2v7.2c0.01 3.97-3.22 7.2-7.2 7.2zM593.783 464.803c-3.98 0-7.2-3.22-7.2-7.2v-12.82c0-3.98 3.22-7.2 7.2-7.2s7.2 3.22 7.2 7.2v12.82c0.01 3.98-3.22 7.2-7.2 7.2z m0-38.47c-3.98 0-7.2-3.22-7.2-7.2v-12.82c0-3.98 3.22-7.2 7.2-7.2s7.2 3.22 7.2 7.2v12.82c0.01 3.98-3.22 7.2-7.2 7.2z m0-38.47c-3.98 0-7.2-3.22-7.2-7.2v-12.84c0-3.98 3.22-7.2 7.2-7.2s7.2 3.22 7.2 7.2v12.83a7.191 7.191 0 0 1-7.2 7.21z m0-38.47c-3.98 0-7.2-3.22-7.2-7.2v-12.83c0-3.98 3.22-7.2 7.2-7.2s7.2 3.22 7.2 7.2v12.83c0.01 3.98-3.22 7.2-7.2 7.2zM593.783 310.963c-3.98 0-7.2-3.22-7.2-7.2v-7.2c0-3.98 3.22-7.2 7.2-7.2h7.2c3.98 0 7.2 3.22 7.2 7.2s-3.22 7.2-7.2 7.2c0.01 3.98-3.22 7.2-7.2 7.2zM731.153 303.763h-14.46c-3.98 0-7.2-3.22-7.2-7.2s3.22-7.2 7.2-7.2h14.46c3.98 0 7.2 3.22 7.2 7.2s-3.21 7.2-7.2 7.2z m-43.38 0h-14.46c-3.98 0-7.2-3.22-7.2-7.2s3.22-7.2 7.2-7.2h14.46c3.98 0 7.2 3.22 7.2 7.2s-3.21 7.2-7.2 7.2z m-43.38 0h-14.46c-3.98 0-7.2-3.22-7.2-7.2s3.22-7.2 7.2-7.2h14.46c3.98 0 7.2 3.22 7.2 7.2s-3.22 7.2-7.2 7.2zM767.273 310.963c-3.98 0-7.2-3.22-7.2-7.2-3.98 0-7.2-3.22-7.2-7.2s3.22-7.2 7.2-7.2h7.2c3.98 0 7.2 3.22 7.2 7.2v7.2c0.01 3.98-3.22 7.2-7.2 7.2zM767.273 333.773c-3.98 0-7.2-3.22-7.2-7.2v-7.2c0-3.98 3.22-7.2 7.2-7.2s7.2 3.22 7.2 7.2v7.2c0.01 3.98-3.22 7.2-7.2 7.2z" fill="#FFFBF1" /><path d="M767.273 365.713c-3.98 0-7.2-3.22-7.2-7.2v-61.95c0-3.98 3.22-7.2 7.2-7.2s7.2 3.22 7.2 7.2v61.95c0.01 3.98-3.22 7.2-7.2 7.2z" fill="#FFFBF1" /><path d="M767.273 365.713c-2.05 0-4.01-0.87-5.38-2.41l-15.83-17.8a7.192 7.192 0 0 1 0.6-10.17c2.97-2.63 7.52-2.38 10.17 0.61l10.45 11.73 10.47-11.75c2.66-2.95 7.21-3.22 10.17-0.58a7.2 7.2 0 0 1 0.59 10.17l-15.86 17.79a7.181 7.181 0 0 1-5.38 2.41z" fill="#FFFBF1" /></svg>