<?xml version="1.0" standalone="no"?><!DOCTYPE svg PUBLIC "-//W3C//DTD SVG 1.1//EN" "http://www.w3.org/Graphics/SVG/1.1/DTD/svg11.dtd"><svg class="icon" width="200px" height="200.00px" viewBox="0 0 1024 1024" version="1.1" xmlns="http://www.w3.org/2000/svg"><path d="M774.175 475.93c-57.33 0-95.74-17.28-120.81-44.35h-20.54c-25.07 27.07-63.48 44.35-120.81 44.35s-95.74-17.28-120.81-44.35h-20.57c-25.07 27.07-63.48 44.35-120.81 44.35-38.12 2.01-75.79-9.1-106.71-31.49v476.95h742.31V440.95a163.851 163.851 0 0 1-111.25 34.98z" fill="#FFFBF1" /><path d="M885.415 944.43h-742.32c-12.73 0-23.04-10.32-23.04-23.04V444.44c0-8.66 4.85-16.59 12.56-20.52 7.71-3.96 16.98-3.21 24 1.86 26.55 19.25 59.25 28.9 91.98 27.14 47.44-0.03 82.4-12.47 105.12-37a23.053 23.053 0 0 1 16.91-7.38h20.58c6.42 0 12.54 2.67 16.91 7.38 22.71 24.53 57.68 36.97 103.9 36.97s81.19-12.44 103.9-36.97a23.053 23.053 0 0 1 16.91-7.38h20.55c6.42 0 12.54 2.67 16.91 7.38 22.71 24.53 57.68 36.97 103.9 36.97 0.46 0 0.92 0.01 1.37 0.04 34.47 2.04 68.46-8.63 95.6-30.05 6.93-5.49 16.41-6.5 24.33-2.66 7.95 3.84 13 11.9 13 20.73v480.44c-0.02 12.72-10.34 23.04-23.07 23.04z m-719.27-46.09h696.23V481.99c-27.58 12.77-58.07 18.75-88.88 16.98-54.83-0.12-98.4-15.03-129.7-44.35h-1.42c-31.42 29.44-75.22 44.35-130.37 44.35s-98.95-14.91-130.37-44.35h-1.45c-31.42 29.44-75.22 44.35-130.37 44.35-28.31 1.41-57.15-3.77-83.67-15.15v414.52z" fill="#363432" /><path d="M234.065 651.54h207.2v269.85h-207.2z" fill="#EF7E20" /><path d="M441.265 936.75h-207.2c-8.48 0-15.36-6.87-15.36-15.36V651.55c0-8.49 6.88-15.36 15.36-15.36h207.2c8.48 0 15.36 6.87 15.36 15.36v269.84c0 8.49-6.88 15.36-15.36 15.36z m-191.83-30.73h176.47V666.91h-176.47v239.11z" fill="#363432" /><path d="M517.335 552.34h272.6v272.6h-272.6z" fill="#EF7E20" /><path d="M789.935 840.3h-272.59c-8.48 0-15.36-6.87-15.36-15.36V552.35c0-8.49 6.88-15.36 15.36-15.36h272.59c8.48 0 15.36 6.87 15.36 15.36v272.58c0 8.5-6.88 15.37-15.36 15.37z m-257.23-30.73h241.86V567.71h-241.86v241.86zM390.015 846.84c-8.48 0-15.36-6.87-15.36-15.36v-47c0-8.49 6.88-15.36 15.36-15.36s15.36 6.87 15.36 15.36v47c0 8.49-6.88 15.36-15.36 15.36z" fill="#363432" /><path d="M511.965 102.61h125.36s141.57 373.32-125.36 373.32-125.36-373.32-125.36-373.32h125.36z" fill="#EF7E20" /><path d="M511.965 498.97c-69.03 0-119.94-23.04-151.32-68.5-78.49-113.72 0.98-327 4.41-336.03a23.05 23.05 0 0 1 21.54-14.87h250.73c9.57 0 18.15 5.93 21.54 14.87 3.43 9.03 82.9 222.31 4.41 336.03-31.37 45.46-82.29 68.5-151.31 68.5z m-108.94-373.31c-15.71 47.98-58.82 199.93-4.42 278.66 22.58 32.68 59.66 48.56 113.36 48.56s90.78-15.89 113.36-48.56c54.4-78.73 11.29-230.68-4.42-278.66h-217.88z" fill="#363432" /><path d="M380.915 119.19c-3.44-10.58-5.68-16.58-5.68-16.58h-250.77s-141.57 373.32 125.36 373.32c65.8 0 106.69-22.74 131.09-56.93-61.99-86.9-16.96-247.96 0-299.81z" fill="#FFFBF1" /><path d="M249.825 498.97c-69.03 0-119.94-23.04-151.32-68.5-78.49-113.72 0.98-327 4.41-336.03a23.05 23.05 0 0 1 21.54-14.87h250.77c9.6 0 18.21 5.97 21.58 14.96 0 0 2.38 6.33 6.02 17.55 1.51 4.64 1.5 9.65-0.02 14.28-14.93 45.61-59.25 200.59-3.14 279.25a23.043 23.043 0 0 1 0 26.76c-31.5 44.19-81.92 66.6-149.84 66.6z m-108.94-373.31c-15.71 47.98-58.82 199.93-4.42 278.66 22.58 32.68 59.66 48.56 113.36 48.56 46.01 0 79.81-11.7 102.75-35.68-49.3-88.64-18.62-223.68 2.12-291.55h-213.81z" fill="#363432" /><path d="M899.535 102.61h-250.72s-2.29 6.07-5.73 16.58c16.9 51.85 61.99 212.93 0 299.82 24.4 34.18 65.29 56.93 131.09 56.93 266.93-0.01 125.36-373.33 125.36-373.33z" fill="#FFFBF1" /><path d="M774.175 498.99c-67.9 0-118.32-22.4-149.85-66.6a23.043 23.043 0 0 1 0-26.76c55.96-78.43 11.74-233.61-3.15-279.29-1.52-4.65-1.51-9.65 0.01-14.3 3.64-11.15 6.07-17.55 6.07-17.55a23.06 23.06 0 0 1 21.56-14.91h250.72c9.57 0 18.15 5.93 21.54 14.87 3.43 9.03 82.9 222.31 4.41 336.03-31.37 45.45-82.29 68.51-151.31 68.51z m-102.76-81.78c22.95 23.99 56.75 35.69 102.75 35.69 53.7 0 90.78-15.89 113.36-48.56 54.4-78.73 11.29-230.7-4.42-278.68h-213.82c20.68 67.93 51.27 203.07 2.13 291.55z" fill="#363432" /><path d="M653.645 840.3c-8.48 0-15.36-6.87-15.36-15.36V552.35c0-8.49 6.88-15.36 15.36-15.36s15.36 6.87 15.36 15.36v272.58c0 8.5-6.88 15.37-15.36 15.37z" fill="#363432" /><path d="M789.935 704h-272.59c-8.48 0-15.36-6.87-15.36-15.36s6.88-15.36 15.36-15.36h272.59c8.48 0 15.36 6.87 15.36 15.36s-6.88 15.36-15.36 15.36z" fill="#363432" /><path d="M234.065 552.34h207.2v45.43h-207.2z" fill="#E9E7DF" /><path d="M441.265 613.14h-207.2c-8.48 0-15.36-6.87-15.36-15.36v-45.43c0-8.49 6.88-15.36 15.36-15.36h207.2c8.48 0 15.36 6.87 15.36 15.36v45.43c0 8.49-6.88 15.36-15.36 15.36z m-191.83-30.72h176.47v-14.7h-176.47v14.7z" fill="#363432" /></svg>