<?xml version="1.0" standalone="no"?><!DOCTYPE svg PUBLIC "-//W3C//DTD SVG 1.1//EN" "http://www.w3.org/Graphics/SVG/1.1/DTD/svg11.dtd"><svg class="icon" width="200px" height="200.00px" viewBox="0 0 1024 1024" version="1.1" xmlns="http://www.w3.org/2000/svg"><path d="M747.68 590.897H210.66c-19.97-0.07-36.14-16.25-36.19-36.22 0.07-19.96 16.23-36.13 36.19-36.19h537.01c19.96 0.07 36.13 16.23 36.19 36.19-0.03 19.97-16.2 36.16-36.18 36.22z" fill="#EF7E20" /><path d="M747.68 605.867H210.65c-28.17-0.1-51.1-23.05-51.17-51.15 0.1-28.19 23.03-51.12 51.12-51.21h537.06c28.14 0.09 51.07 23.02 51.17 51.12-0.04 28.19-22.97 51.15-51.11 51.24h-0.04z m-537.03-72.41c-11.64 0.03-21.18 9.58-21.22 21.26 0.03 11.61 9.57 21.16 21.27 21.2h536.93c11.7-0.03 21.23-9.58 21.25-21.26-0.04-11.63-9.58-21.18-21.26-21.2H210.65z" fill="#363432" /><path d="M861.23 937.527H162.75c-25.56 0-46.29-20.72-46.29-46.29v-0.01c0-25.56 20.72-46.29 46.29-46.29h698.48c25.57 0 46.29 20.72 46.3 46.29 0.01 25.57-20.72 46.3-46.3 46.3z" fill="#FFFBF1" /><path d="M861.23 959.997H162.75c-37.91 0-68.75-30.84-68.75-68.76s30.84-68.76 68.75-68.76h698.48c37.9 0 68.76 30.84 68.77 68.75 0 37.92-30.85 68.77-68.77 68.77z m-698.48-92.59c-13.14 0-23.83 10.69-23.83 23.82 0 13.15 10.69 23.85 23.83 23.85h698.48c13.15 0 23.84-10.7 23.84-23.85-0.01-13.13-10.7-23.82-23.84-23.82H162.75z" fill="#363432" /><path d="M718.21 259.097H394.99v-116.16h446.95v578.27l-123.73 123.74H497.72v-239.06h220.49v-346.79" fill="#FFFBF1" /><path d="M718.21 867.407H497.72c-12.41 0-22.46-10.06-22.46-22.46v-239.06c0-12.4 10.05-22.46 22.46-22.46h198.03v-301.87H394.99c-12.41 0-22.46-10.06-22.46-22.46v-116.16c0-12.4 10.05-22.46 22.46-22.46h446.95c12.41 0 22.46 10.06 22.46 22.46v578.27c0 5.95-2.37 11.67-6.58 15.88l-123.73 123.73a22.425 22.425 0 0 1-15.88 6.59z m-198.03-44.93h188.73l110.58-110.57v-546.51H417.46v71.23h300.75c12.41 0 22.46 10.06 22.46 22.46v346.79c0 12.4-10.05 22.46-22.46 22.46H520.18v194.14z" fill="#363432" /><path d="M632.36 725.807m-57.23 0a57.23 57.23 0 1 0 114.46 0 57.23 57.23 0 1 0-114.46 0Z" fill="#EF7E20" /><path d="M632.36 798.017c-39.82 0-72.21-32.39-72.21-72.21 0-39.82 32.39-72.21 72.21-72.21 39.81 0 72.2 32.39 72.2 72.21 0.01 39.81-32.39 72.21-72.2 72.21z m0-114.48c-23.3 0-42.26 18.95-42.26 42.26s18.96 42.26 42.26 42.26c23.3 0 42.26-18.95 42.26-42.26S655.66 683.537 632.36 683.537z" fill="#363432" /><path d="M256.96 78.967H395v262.61H256.96z" fill="#EF7E20" /><path d="M394.99 356.547H256.95c-8.27 0-14.97-6.7-14.97-14.97v-262.6c0-8.28 6.71-14.97 14.97-14.97h138.04c8.27 0 14.97 6.7 14.97 14.97v262.6c0.01 8.27-6.7 14.97-14.97 14.97z m-123.06-29.95h108.09V93.947H271.93v232.65z" fill="#363432" /><path d="M282.2 341.597h87.54v70.71H282.2z" fill="#EF7E20" /><path d="M369.75 427.287H282.2c-8.27 0-14.97-6.7-14.97-14.97v-70.72c0-8.28 6.71-14.97 14.97-14.97h87.55c8.27 0 14.97 6.7 14.97 14.97v70.72c0 8.27-6.7 14.97-14.97 14.97z m-72.57-29.95h57.6v-40.77h-57.6v40.77z" fill="#363432" /><path d="M784.61 488.297c-4.14 0-7.49-3.35-7.49-7.49v-177.82c0-4.14 3.35-7.49 7.49-7.49 4.14 0 7.49 3.35 7.49 7.49v177.83c0 4.13-3.35 7.48-7.49 7.48z" fill="#363432" /><path d="M256.96 175.057H395v51.92H256.96z" fill="#FFFBF1" /><path d="M394.99 234.467H256.95c-4.14 0-7.49-3.35-7.49-7.49v-51.91c0-4.14 3.35-7.49 7.49-7.49h138.04c4.14 0 7.49 3.35 7.49 7.49v51.91c0 4.14-3.35 7.49-7.49 7.49z m-130.55-14.97h123.07v-36.94H264.44v36.94z" fill="#363432" /></svg>