<?xml version="1.0" standalone="no"?><!DOCTYPE svg PUBLIC "-//W3C//DTD SVG 1.1//EN" "http://www.w3.org/Graphics/SVG/1.1/DTD/svg11.dtd"><svg class="icon" width="200px" height="200.00px" viewBox="0 0 1024 1024" version="1.1" xmlns="http://www.w3.org/2000/svg"><path d="M86.048 248.542h327.06v595.87H86.048z" fill="#EF7E20" /><path d="M413.108 866.452H86.048c-12.18 0-22.05-9.88-22.05-22.05v-595.87c0-12.17 9.87-22.05 22.05-22.05h327.06c12.18 0 22.05 9.88 22.05 22.05v595.87c0 12.17-9.87 22.05-22.05 22.05z m-305.01-44.1h282.96v-551.77h-282.96v551.77z" fill="#363432" /><path d="M147.708 546.472a143.28 101.86 90 1 0 203.72 0 143.28 101.86 90 1 0-203.72 0Z" fill="#FFFBF1" /><path d="M249.568 704.452c-64.27 0-116.56-70.87-116.56-157.98s52.29-157.98 116.56-157.98 116.56 70.87 116.56 157.98-52.29 157.98-116.56 157.98z m0-286.57c-48.06 0-87.17 57.69-87.17 128.58s39.1 128.58 87.17 128.58c48.06 0 87.16-57.69 87.16-128.58s-39.1-128.58-87.16-128.58z" fill="#363432" /><path d="M86.018 365.582v-29.4c48.32 0 87.64-39.32 87.65-87.63h29.4c-0.01 64.53-52.52 117.03-117.05 117.03zM410.318 365.582c-64.53-0.01-117.02-52.54-117.01-117.06h29.4c-0.01 48.33 39.3 87.65 87.63 87.66l-0.02 29.4zM322.688 844.372h-29.4c0.01-64.52 52.52-117.01 117.05-117.01v29.4c-48.32-0.01-87.63 39.3-87.65 87.61z" fill="#363432" /><path d="M203.048 844.402h-29.4c0.01-48.32-39.3-87.63-87.62-87.65l0.01-29.4c64.52 0.02 117.02 52.53 117.01 117.05z" fill="#363432" /><path d="M99.878 750.199l171.61-570.605 313.193 94.193-171.61 570.605z" fill="#EF7E20" /><path d="M413.098 866.452c-2.1 0-4.24-0.3-6.36-0.93l-313.2-94.19a22.047 22.047 0 0 1-14.76-27.46l171.62-570.62c3.5-11.67 15.78-18.24 27.47-14.77l313.2 94.19a22.047 22.047 0 0 1 14.76 27.46l-171.62 570.61c-2.87 9.55-11.63 15.71-21.11 15.71z m-285.74-131.01l270.97 81.5 158.91-528.39-270.97-81.5-158.91 528.39z" fill="#363432" /><path d="M301.021708 649.211472a101.86 143.28 16.739 1 0 82.53284-274.417499 101.86 143.28 16.739 1 0-82.53284 274.417499Z" fill="#FFFBF1" /><path d="M322.058 666.972c-8.5 0-16.95-1.19-25.26-3.69-61.56-18.52-91.21-101.45-66.12-184.87 11.89-39.55 34.2-73.58 62.81-95.8 30.09-23.37 63.59-31.15 94.31-21.92 30.73 9.24 54.38 34.21 66.58 70.31 11.6 34.32 11.43 75-0.46 114.55-21.7 72.16-77.38 121.4-131.86 121.42z m40.05-280.62c-16.61 0-34.07 6.65-50.59 19.48-23.83 18.52-42.54 47.3-52.69 81.06-20.42 67.89 0.41 134.4 46.44 148.23 46.09 13.88 100.09-30.14 120.51-98.04 10.15-33.75 10.41-68.08 0.75-96.67-9.06-26.81-25.82-45.13-47.19-51.55-5.58-1.68-11.35-2.51-17.23-2.51z m-117.35 96.3h0.14-0.14z" fill="#363432" /><path d="M271.678 296.692c-11.34 0-22.73-1.67-33.89-5.02l8.47-28.16c22.43 6.76 46.13 4.36 66.74-6.7 20.62-11.08 35.69-29.53 42.44-51.93l28.78 4.21-0.98 4.16 0.35 0.1c-9.01 29.93-29.14 54.56-56.68 69.36-17.27 9.26-36.16 13.98-55.23 13.98zM548.308 385.082c-29.94-9.01-54.57-29.15-69.37-56.68-14.79-27.55-17.98-59.2-8.96-89.12l28.15 8.47c-6.75 22.42-4.36 46.12 6.72 66.75 11.07 20.61 29.52 35.68 51.93 42.43l-8.47 28.15zM326.548 818.322l-28.15-8.47c9.01-29.93 29.14-54.56 56.68-69.36 27.53-14.78 59.2-17.97 89.12-8.97l-8.47 28.16c-22.45-6.79-46.13-4.38-66.74 6.7-20.63 11.09-35.7 29.53-42.44 51.94z" fill="#363432" /><path d="M211.948 783.912l-28.15-8.47c6.75-22.42 4.36-46.12-6.71-66.75-11.08-20.61-29.53-35.68-51.93-42.43l8.47-28.16c29.94 9.01 54.57 29.15 69.36 56.68 14.79 27.55 17.97 59.2 8.96 89.13z" fill="#363432" /><path d="M181.832 613.137l421.34-421.34 231.264 231.264-421.34 421.34z" fill="#EF7E20" /><path d="M413.098 866.452c-5.64 0-11.28-2.15-15.59-6.46l-231.26-231.26c-4.13-4.13-6.46-9.75-6.46-15.59s2.33-11.45 6.46-15.59l421.34-421.35c8.27-8.27 22.91-8.27 31.18 0l231.26 231.28c8.61 8.61 8.61 22.56 0 31.18l-421.34 421.33c-4.31 4.3-9.95 6.46-15.59 6.46z m-200.09-253.31l200.09 200.08 390.17-390.16-200.09-200.09-390.17 390.17z" fill="#363432" /><path d="M406.796266 619.417714a101.86 143.28 44.999 1 0 202.624982-202.632055 101.86 143.28 44.999 1 0-202.624982 202.632055Z" fill="#FFFBF1" /><path d="M466.928 657.152c-28.06 0-52.56-9.39-70.51-27.34-22.7-22.69-31.71-55.88-25.36-93.45 6.04-35.73 25.44-71.48 54.65-100.68 29.2-29.2 64.95-48.6 100.68-54.65 37.56-6.34 70.74 2.66 93.45 25.36 45.44 45.45 32.31 132.53-29.29 194.12-29.2 29.2-64.96 48.6-100.68 54.65-7.86 1.33-15.53 1.99-22.94 1.99z m82.22-248.68c-5.73 0-11.71 0.52-17.87 1.55-29.76 5.04-59.86 21.53-84.79 46.45-24.93 24.92-41.42 55.03-46.45 84.79-4.72 27.92 1.38 51.99 17.16 67.77 15.78 15.79 39.85 21.86 67.77 17.17 29.76-5.04 59.86-21.53 84.79-46.45 50.13-50.14 63.27-118.56 29.29-152.56-12.31-12.31-29.64-18.72-49.9-18.72z m-113.05 37.6h0.14-0.14z" fill="#363432" /><path d="M603.178 308.762c-29.98 0-59.95-11.41-82.77-34.22l20.78-20.78c34.18 34.16 89.78 34.16 123.95 0l20.78 20.78c-22.79 22.81-52.76 34.22-82.74 34.22zM749.748 503.862c-22.11-22.11-34.28-51.49-34.28-82.75s12.18-60.66 34.28-82.77l20.78 20.78c-16.55 16.56-25.67 38.57-25.67 61.98 0 23.41 9.12 45.42 25.67 61.97l-20.78 20.79zM473.118 780.482c-34.18-34.18-89.78-34.15-123.95 0l-20.78-20.78c45.65-45.6 119.91-45.6 165.52 0l-20.79 20.78z" fill="#363432" /><path d="M264.578 695.842l-20.78-20.78c34.16-34.18 34.16-89.78 0-123.95l20.78-20.78c45.62 45.61 45.62 119.86 0 165.51z" fill="#363432" /><path d="M258.253 556.334l524.842-282.145 154.863 288.075-524.843 282.144z" fill="#EF7E20" /><path d="M413.138 866.452c-7.86 0-15.46-4.21-19.44-11.61l-154.87-288.08a22.036 22.036 0 0 1-1.69-16.78c1.69-5.6 5.53-10.31 10.67-13.08l524.84-282.14c5.16-2.76 11.2-3.34 16.79-1.69 5.6 1.68 10.3 5.53 13.07 10.68l154.86 288.07c5.76 10.72 1.74 24.09-8.98 29.86l-524.83 282.14a21.989 21.989 0 0 1-10.42 2.63z m-125.03-301.14l133.99 249.23 485.99-261.27-133.98-249.23-486 261.27z" fill="#363432" /><path d="M471.891865 627.140806a101.86 143.28 61.739 1 0 252.402005-135.682944 101.86 143.28 61.739 1 0-252.402005 135.682944Z" fill="#FFFBF1" /><path d="M560.648 686.492c-6.6 0-13.12-0.4-19.51-1.21-37.8-4.74-66.99-22.91-82.19-51.19-30.43-56.61 7.23-136.23 83.96-177.47 36.37-19.56 76.18-27.88 112.16-23.34 37.8 4.75 66.99 22.92 82.19 51.2 30.43 56.61-7.23 136.22-83.96 177.46-29.92 16.08-62.16 24.55-92.65 24.55zM635.418 461.482c-25.61 0-52.97 7.26-78.6 21.04-62.45 33.57-94.74 95.33-71.99 137.66 10.56 19.67 31.86 32.43 59.95 35.94 29.94 3.8 63.53-3.37 94.58-20.07 62.45-33.56 94.74-95.31 71.99-137.64-10.57-19.67-31.86-32.43-59.95-35.96-5.23-0.64-10.57-0.97-15.98-0.97z m-85.56 8.09h0.14-0.14z" fill="#363432" /><path d="M783.258 391.282c-11.33 0-22.73-1.67-33.88-5.02-29.94-9-54.57-29.14-69.37-56.67l25.89-13.92c11.08 20.63 29.53 35.7 51.95 42.45 22.43 6.75 46.13 4.36 66.75-6.72l13.91 25.89c-17.28 9.29-36.17 13.99-55.25 13.99zM833.618 615.272c-14.8-27.53-17.99-59.18-8.99-89.12 9.01-29.94 29.14-54.57 56.68-69.37l13.91 25.89c-20.62 11.08-35.68 29.53-42.43 51.95s-4.36 46.12 6.72 66.73l-25.89 13.92zM488.978 800.482c-22.88-42.57-76.11-58.61-118.7-35.71l-13.91-25.89c56.86-30.56 127.95-9.16 158.5 47.68l-25.89 13.92z" fill="#363432" /><path d="M313.638 659.392l-13.91-25.89c20.62-11.08 35.69-29.53 42.44-51.95s4.36-46.12-6.72-66.75l25.89-13.92c30.55 56.85 9.15 127.96-47.7 158.51z" fill="#363432" /><path d="M615.708 543.692c-2.97-0.57-6.01-0.57-8.98 0-2.94 0.56-6.89 1.47-11.69 2.94l-12.51-20.77c4.61-1.27 9.55 0.04 12.92 3.44 2.34 2.83 6.43 3.47 9.51 1.47 1.67-0.98 2.86-2.6 3.29-4.48 0.49-1.84 0.2-3.79-0.81-5.41-1.09-1.68-2.53-3.1-4.22-4.17a24.988 24.988 0 0 0-6.63-3.12c-3.1-1.06-6.41-1.38-9.66-0.94-3.63 0.59-7.16 1.72-10.45 3.37l-3.26-5.36c-1.65-2.72-3.54-3.42-5.66-2.15-2.12 1.28-2.28 3.29-0.59 6.09l3.2 5.26a28.558 28.558 0 0 0-11.86 15.93 24.981 24.981 0 0 0 12.41 26.37c3.48 1.64 7.33 2.34 11.17 2.03 4.62-0.44 9.18-1.34 13.63-2.68l14.05 23.11c-2.27 0.7-4.67 0.88-7.01 0.51-1.93-0.33-3.77-1.05-5.41-2.12a75.08 75.08 0 0 1-6.13-4.82 6.3 6.3 0 0 0-3.92-1.63c-1.56-0.04-3.1 0.4-4.41 1.25a7.363 7.363 0 0 0-3.48 4.75c-0.5 1.84-0.23 3.8 0.75 5.44 1.4 2.25 3.24 4.2 5.39 5.73 2.49 1.77 5.28 3.07 8.23 3.85 3.39 0.91 6.93 1.17 10.42 0.78a36.78 36.78 0 0 0 11.83-3.45l8.16 13.42c0.63 1.22 1.6 2.24 2.78 2.94 1.06 0.43 2.27 0.26 3.17-0.44a2.84 2.84 0 0 0 1.69-2.87c-0.39-1.67-1.09-3.25-2.07-4.66l-7.53-12.38c4.16-2.9 7.59-6.74 10.01-11.2 2.13-3.93 3.14-8.37 2.94-12.83-0.22-4.33-1.52-8.53-3.79-12.23-1.7-2.9-4-5.4-6.73-7.35-2.6-1.85-5.6-3.08-8.75-3.62z m-28.1 4.85c-2.89 0.69-5.88 0.82-8.82 0.4-5.11-1.7-8.19-6.9-7.22-12.2 0.98-2.71 2.51-5.18 4.51-7.25l11.53 19.05z m33.8 23.94c-0.75 3.44-2.61 6.54-5.31 8.82l-13.23-21.77c3.34-0.95 6.84-1.21 10.29-0.76 2.88 0.61 5.35 2.47 6.73 5.07 1.59 2.58 2.14 5.67 1.54 8.64h-0.02z" fill="#363432" /></svg>