<?xml version="1.0" standalone="no"?><!DOCTYPE svg PUBLIC "-//W3C//DTD SVG 1.1//EN" "http://www.w3.org/Graphics/SVG/1.1/DTD/svg11.dtd"><svg class="icon" width="200px" height="200.00px" viewBox="0 0 1024 1024" version="1.1" xmlns="http://www.w3.org/2000/svg"><path d="M86.78 233.218h850.44v695.61H86.78z" fill="#EF7E20" /><path d="M937.22 951.618H86.78c-12.58 0-22.78-10.2-22.78-22.78v-695.61c0-12.58 10.2-22.78 22.78-22.78h850.44c12.58 0 22.78 10.2 22.78 22.78v695.61c0 12.57-10.2 22.78-22.78 22.78z m-827.66-45.56h804.88v-650.05H109.56v650.05z" fill="#363432" /><path d="M86.78 95.158h850.44v138.06H86.78z" fill="#FFFBF1" /><path d="M937.22 256.008H86.78c-12.58 0-22.78-10.2-22.78-22.78V95.168c0-12.58 10.2-22.78 22.78-22.78h850.44c12.58 0 22.78 10.2 22.78 22.78v138.06c0 12.57-10.2 22.78-22.78 22.78z m-827.66-45.56h804.88v-92.5H109.56v92.5z" fill="#363432" /><path d="M167.02 164.198m-15.23 0a15.23 15.23 0 1 0 30.46 0 15.23 15.23 0 1 0-30.46 0Z" fill="#EF7E20" /><path d="M167.03 187.028c-12.59 0-22.83-10.23-22.83-22.82s10.24-22.82 22.83-22.82c12.58 0 22.82 10.23 22.82 22.82s-10.24 22.82-22.82 22.82z m0-30.46c-4.22 0-7.65 3.43-7.65 7.64s3.43 7.64 7.65 7.64c4.21 0 7.64-3.43 7.64-7.64s-3.43-7.64-7.64-7.64z" fill="#363432" /><path d="M224.52 164.198m-15.23 0a15.23 15.23 0 1 0 30.46 0 15.23 15.23 0 1 0-30.46 0Z" fill="#EF7E20" /><path d="M224.52 187.028c-12.58 0-22.82-10.23-22.82-22.82s10.24-22.82 22.82-22.82c12.59 0 22.83 10.23 22.83 22.82s-10.24 22.82-22.83 22.82z m0-30.46c-4.21 0-7.64 3.43-7.64 7.64s3.43 7.64 7.64 7.64c4.22 0 7.65-3.43 7.65-7.64s-3.43-7.64-7.65-7.64z" fill="#363432" /><path d="M282.02 164.198m-15.23 0a15.23 15.23 0 1 0 30.46 0 15.23 15.23 0 1 0-30.46 0Z" fill="#EF7E20" /><path d="M282.02 187.028c-12.58 0-22.82-10.23-22.82-22.82s10.24-22.82 22.82-22.82 22.82 10.23 22.82 22.82-10.24 22.82-22.82 22.82z m0-30.46c-4.21 0-7.64 3.43-7.64 7.64s3.43 7.64 7.64 7.64c4.21 0 7.64-3.43 7.64-7.64s-3.43-7.64-7.64-7.64z" fill="#363432" /><path d="M512 653.298m-196.01 0a196.01 196.01 0 1 0 392.02 0 196.01 196.01 0 1 0-392.02 0Z" fill="#FFFBF1" /><path d="M512 864.498c-116.46 0-211.2-94.74-211.2-211.2s94.74-211.2 211.2-211.2 211.2 94.74 211.2 211.2-94.74 211.2-211.2 211.2z m0-392.03c-99.71 0-180.83 81.12-180.83 180.83s81.12 180.83 180.83 180.83 180.83-81.12 180.83-180.83-81.12-180.83-180.83-180.83z" fill="#363432" /><path d="M512 653.298m-153.12 0a153.12 153.12 0 1 0 306.24 0 153.12 153.12 0 1 0-306.24 0Z" fill="#EF7E20" /><path d="M512 814.018c-88.62 0-160.72-72.09-160.72-160.72s72.1-160.72 160.72-160.72 160.72 72.09 160.72 160.72-72.1 160.72-160.72 160.72z m0-306.25c-80.25 0-145.53 65.28-145.53 145.53s65.28 145.53 145.53 145.53 145.53-65.28 145.53-145.53-65.28-145.53-145.53-145.53z" fill="#363432" /><path d="M638.35 660.828c-4.19 0-7.59-3.4-7.59-7.59-0.01-65.48-53.29-118.75-118.78-118.75-65.46 0.01-118.73 53.29-118.73 118.75 0 4.2-3.4 7.59-7.59 7.59-4.2 0-7.59-3.4-7.59-7.59 0.01-73.84 60.09-133.92 133.92-133.93 73.86 0 133.96 60.08 133.96 133.93-0.01 4.2-3.4 7.59-7.6 7.59z" fill="#363432" /><path d="M637.84 660.888h-16.81c-4.2 0-7.59-3.4-7.59-7.59s3.4-7.59 7.59-7.59h16.81c4.2 0 7.59 3.4 7.59 7.59s-3.4 7.59-7.59 7.59zM402.45 660.888h-16.8c-4.2 0-7.59-3.4-7.59-7.59s3.4-7.59 7.59-7.59h16.8c4.2 0 7.59 3.4 7.59 7.59s-3.4 7.59-7.59 7.59zM511.74 551.608c-4.2 0-7.59-3.4-7.59-7.59v-16.8c0-4.2 3.4-7.59 7.59-7.59 4.2 0 7.59 3.4 7.59 7.59v16.8c0 4.19-3.39 7.59-7.59 7.59zM600.9 750.048a7.58 7.58 0 0 1-5.37-2.22l-11.89-11.89a7.587 7.587 0 0 1 0-10.74 7.587 7.587 0 0 1 10.74 0l11.89 11.89a7.587 7.587 0 0 1 0 10.74 7.58 7.58 0 0 1-5.37 2.22zM434.46 583.608a7.58 7.58 0 0 1-5.37-2.22l-11.89-11.88a7.596 7.596 0 0 1-0.01-10.74c2.97-2.97 7.78-2.97 10.74 0l11.89 11.88a7.596 7.596 0 0 1 0.01 10.74 7.58 7.58 0 0 1-5.37 2.22zM589.01 583.608a7.62 7.62 0 0 1-5.38-2.22 7.596 7.596 0 0 1 0.01-10.74l11.89-11.88c2.97-2.97 7.78-2.97 10.74 0a7.596 7.596 0 0 1-0.01 10.74l-11.89 11.88a7.556 7.556 0 0 1-5.36 2.22zM422.66 750.228a7.58 7.58 0 0 1-5.37-2.22 7.587 7.587 0 0 1 0-10.74l11.87-11.88a7.587 7.587 0 0 1 10.74 0 7.587 7.587 0 0 1 0 10.74l-11.87 11.88a7.58 7.58 0 0 1-5.37 2.22z" fill="#363432" /><path d="M601.34 750.248a7.58 7.58 0 0 1-5.37-2.22 7.587 7.587 0 0 1 0-10.74c46.31-46.3 46.32-121.64 0.02-167.96-46.3-46.3-121.65-46.32-167.95-0.01s-46.31 121.63-0.02 167.95a7.587 7.587 0 0 1 0 10.74 7.587 7.587 0 0 1-10.74 0c-52.21-52.23-52.2-137.21 0.02-189.43 52.23-52.22 137.2-52.2 189.42 0.01 52.22 52.23 52.2 137.21-0.02 189.43a7.525 7.525 0 0 1-5.36 2.23z" fill="#363432" /><path d="M512 576.008l10.43 50.53 10.43 50.53h-41.73l10.43-50.53 10.44-50.53z" fill="#EF7E20" /><path d="M532.87 684.648h-41.73c-2.28 0-4.44-1.02-5.89-2.8a7.592 7.592 0 0 1-1.55-6.33l20.87-101.04c0.73-3.51 3.83-6.05 7.44-6.05s6.71 2.54 7.44 6.05l20.87 101.04c0.46 2.24-0.11 4.57-1.55 6.33a7.622 7.622 0 0 1-5.9 2.8z m-32.42-15.19h23.09l-11.55-55.9-11.54 55.9z" fill="#363432" /><path d="M512 680.948m-21.58 0a21.58 21.58 0 1 0 43.16 0 21.58 21.58 0 1 0-43.16 0Z" fill="#FFFBF1" /><path d="M512 710.128c-16.08 0-29.17-13.08-29.17-29.17 0-16.09 13.09-29.19 29.17-29.19s29.17 13.1 29.17 29.19c0 16.09-13.09 29.17-29.17 29.17z m0-43.17c-7.71 0-13.99 6.27-13.99 14 0 7.71 6.27 13.99 13.99 13.99s13.99-6.27 13.99-13.99c0-7.73-6.28-14-13.99-14z" fill="#363432" /><path d="M512.07 787.248c-18.95 0-37.88-4-55.53-12.01a7.588 7.588 0 0 1-3.89-9.79l9.11-22.25c1.56-3.8 5.84-5.65 9.65-4.26a118.1 118.1 0 0 0 40.6 7.27 117.8 117.8 0 0 0 40.73-7.27c3.81-1.38 8.1 0.46 9.65 4.26l9.11 22.25c1.54 3.78-0.17 8.1-3.89 9.79-17.64 8-36.6 12.01-55.54 12.01z m-42.5-23.02a119.31 119.31 0 0 0 85.02 0l-3.56-8.69c-12.64 3.89-25.72 5.84-39.02 5.86h-0.02c-13.24-0.03-26.28-1.99-38.86-5.86l-3.56 8.69z" fill="#363432" /><path d="M174.1 299.388h675.8v94.98H174.1z" fill="#FFFBF1" /><path d="M849.9 409.558H174.1c-8.39 0-15.19-6.79-15.19-15.19v-94.97c0-8.39 6.8-15.19 15.19-15.19h675.8c8.39 0 15.19 6.79 15.19 15.19v94.97c-0.01 8.4-6.81 15.19-15.19 15.19z m-660.61-30.37h645.42v-64.6H189.29v64.6z" fill="#363432" /><path d="M682.85 409.558c-3.89 0-7.77-1.48-10.74-4.45-5.93-5.93-5.93-15.54 0-21.47l94.31-94.31c5.93-5.93 15.54-5.93 21.47 0s5.93 15.54 0 21.47l-94.31 94.31a15.104 15.104 0 0 1-10.73 4.45zM556.48 409.558c-3.89 0-7.77-1.48-10.74-4.45-5.93-5.93-5.93-15.54 0-21.47l94.31-94.31c5.93-5.93 15.54-5.93 21.47 0s5.93 15.54 0 21.47l-94.31 94.31c-2.95 2.97-6.84 4.45-10.73 4.45zM430.1 409.558c-3.89 0-7.77-1.48-10.74-4.45-5.93-5.93-5.93-15.54 0-21.47l94.32-94.31c5.93-5.93 15.54-5.93 21.47 0s5.93 15.54 0 21.47l-94.32 94.31a15.104 15.104 0 0 1-10.73 4.45zM303.74 409.558c-3.89 0-7.77-1.48-10.74-4.45-5.93-5.93-5.93-15.54 0-21.47l94.31-94.31c5.93-5.93 15.54-5.93 21.47 0s5.93 15.54 0 21.47l-94.31 94.31a15.104 15.104 0 0 1-10.73 4.45zM177.36 409.558c-3.89 0-7.77-1.48-10.74-4.45-5.93-5.93-5.93-15.54 0-21.47l94.31-94.31c5.93-5.93 15.54-5.93 21.47 0s5.93 15.54 0 21.47l-94.31 94.31c-2.95 2.97-6.84 4.45-10.73 4.45z" fill="#363432" /></svg>