<?xml version="1.0" standalone="no"?><!DOCTYPE svg PUBLIC "-//W3C//DTD SVG 1.1//EN" "http://www.w3.org/Graphics/SVG/1.1/DTD/svg11.dtd"><svg class="icon" width="200px" height="200.00px" viewBox="0 0 1024 1024" version="1.1" xmlns="http://www.w3.org/2000/svg"><path d="M512.003 463.428c-108.6 0-196.95-88.36-196.95-196.95s88.35-196.96 196.95-196.96 196.95 88.36 196.95 196.95-88.36 196.96-196.95 196.96z m0-347.26c-82.88 0-150.31 67.43-150.31 150.31s67.43 150.31 150.31 150.31 150.31-67.43 150.31-150.31-67.43-150.31-150.31-150.31z" fill="#363432" /><path d="M842.893 931.148h-661.78c-51.79 0-93.77-41.98-93.77-93.77v-477.14c0-51.79 41.98-93.77 93.77-93.77h661.79c51.79 0 93.77 41.98 93.77 93.77v477.14c0 51.79-41.99 93.77-93.78 93.77z" fill="#FFFBF1" /><path d="M842.883 954.478h-661.77c-64.57 0-117.1-52.54-117.1-117.1v-477.14c0-64.56 52.53-117.08 117.1-117.08h661.79c64.56 0 117.09 52.52 117.09 117.08v477.15c0 64.57-52.54 117.09-117.11 117.09z m-661.77-664.68c-38.85 0-70.45 31.6-70.45 70.44v477.15c0 38.86 31.61 70.45 70.45 70.45h661.77c38.85 0 70.46-31.61 70.47-70.45v-477.15c0-38.84-31.61-70.44-70.45-70.44h-661.79z" fill="#363432" /><path d="M87.323 266.468h849.34v252.65H87.323z" fill="#EF7E20" /><path d="M936.663 542.448H87.323c-12.88 0-23.32-10.45-23.32-23.32v-252.66c0-12.88 10.44-23.32 23.32-23.32h849.34c12.88 0 23.32 10.45 23.32 23.32v252.65c0 12.88-10.44 23.33-23.32 23.33z m-826.02-46.65h802.69v-206h-802.69v206z" fill="#363432" /><path d="M252.343 429.708c-19.9 0-36.03 16.13-36.03 36.03v106.77c0 19.9 16.13 36.03 36.03 36.03 19.9 0 36.03-16.13 36.03-36.03v-106.77c-0.01-19.9-16.14-36.03-36.03-36.03z" fill="#EF7E20" /><path d="M252.333 624.088c-28.44 0-51.57-23.14-51.57-51.58v-106.77c0-28.44 23.13-51.57 51.57-51.57s51.58 23.13 51.58 51.57v106.77c0 28.44-23.14 51.58-51.58 51.58z m0-178.82c-11.29 0-20.48 9.19-20.48 20.47v106.77c0 11.3 9.19 20.48 20.48 20.48 11.3 0 20.48-9.19 20.48-20.48v-106.77c0.01-11.29-9.18-20.47-20.48-20.47z" fill="#363432" /><path d="M771.663 429.708c-19.9 0-36.03 16.13-36.03 36.03v106.77c0 19.9 16.13 36.03 36.03 36.03 19.9 0 36.03-16.13 36.03-36.03v-106.77c-0.01-19.9-16.14-36.03-36.03-36.03z" fill="#EF7E20" /><path d="M771.663 624.088c-28.44 0-51.58-23.14-51.58-51.58v-106.77c0-28.44 23.14-51.57 51.58-51.57s51.57 23.13 51.57 51.57v106.77c0 28.44-23.13 51.58-51.57 51.58z m0-178.82c-11.3 0-20.48 9.19-20.48 20.47v106.77c0 11.3 9.19 20.48 20.48 20.48 11.29 0 20.48-9.19 20.48-20.48v-106.77c0-11.29-9.19-20.47-20.48-20.47z" fill="#363432" /><path d="M512.003 954.478c-12.88 0-23.32-10.45-23.32-23.32v-412.04c0-12.88 10.44-23.32 23.32-23.32s23.32 10.45 23.32 23.32v412.04c0 12.88-10.44 23.32-23.32 23.32z" fill="#363432" /><path d="M404.453 361.048h215.08v63.47h-215.08z" fill="#FFFBF1" /><path d="M619.533 440.058h-215.08c-8.59 0-15.55-6.95-15.55-15.55v-63.45c0-8.59 6.96-15.55 15.55-15.55h215.08c8.59 0 15.55 6.95 15.55 15.55v63.45c0 8.6-6.96 15.55-15.55 15.55z m-199.53-31.1h183.99v-32.36h-183.99v32.36z" fill="#363432" /></svg>