<?xml version="1.0" standalone="no"?><!DOCTYPE svg PUBLIC "-//W3C//DTD SVG 1.1//EN" "http://www.w3.org/Graphics/SVG/1.1/DTD/svg11.dtd"><svg class="icon" width="200px" height="200.00px" viewBox="0 0 1024 1024" version="1.1" xmlns="http://www.w3.org/2000/svg"><path d="M87.075 87.065h849.85v849.85H87.075z" fill="#EF7E20" /><path d="M936.925 960.005H87.075c-12.75 0-23.07-10.33-23.07-23.07V87.075c0-12.74 10.33-23.07 23.07-23.07h849.85c12.75 0 23.07 10.33 23.07 23.07v849.85c0.01 12.74-10.32 23.08-23.07 23.08z m-826.78-46.15h803.71v-803.71h-803.71v803.71z" fill="#363432" /><path d="M150.785 148.595h722.43v582.85h-722.43z" fill="#FFFBF1" /><path d="M873.215 746.835h-722.43c-8.49 0-15.38-6.88-15.38-15.38v-582.85c0-8.5 6.89-15.38 15.38-15.38h722.43c8.49 0 15.38 6.88 15.38 15.38v582.85c0 8.5-6.89 15.38-15.38 15.38z m-707.05-30.77h691.66v-552.08h-691.66v552.08z" fill="#363432" /><path d="M873.215 731.445c0-73.19-88.83-132.53-198.43-132.53s-198.43 59.33-198.43 132.53h396.86z" fill="#EF7E20" /><path d="M873.215 746.835h-396.85c-8.49 0-15.38-6.88-15.38-15.38 0-81.57 95.91-147.92 213.81-147.92s213.81 66.35 213.81 147.92c-0.01 8.5-6.9 15.38-15.39 15.38z m-379.9-30.77h362.95c-11.81-57.35-88.69-101.77-181.47-101.77s-169.67 44.42-181.48 101.77z" fill="#363432" /><path d="M476.395 731.445c0-47.42 37.41-88.91 93.46-112.29-79.99-74.99-237.64-126.02-419.07-126.02v238.42h325.61v-0.11z" fill="#EF7E20" /><path d="M476.395 746.935h-325.61c-8.49 0-15.38-6.88-15.38-15.38v-238.42c0-8.5 6.89-15.38 15.38-15.38 179.32 0 343.93 49.89 429.59 130.19 3.81 3.58 5.54 8.82 4.61 13.95-0.92 5.14-4.39 9.45-9.22 11.46-52.6 21.93-84 58.6-84 98.09v0.11c0.01 8.5-6.88 15.38-15.37 15.38z m-310.23-30.76h295.95c5.82-40.03 34.43-76.05 79.83-100.72-81.45-64.23-221.66-104.31-375.78-106.82v207.54z" fill="#363432" /><path d="M674.805 295.695m-62.16 0a62.16 62.16 0 1 0 124.32 0 62.16 62.16 0 1 0-124.32 0Z" fill="#EF7E20" /><path d="M674.805 373.235c-42.76 0-77.54-34.79-77.54-77.54s34.78-77.54 77.54-77.54c42.76 0 77.54 34.79 77.54 77.54s-34.78 77.54-77.54 77.54z m0-124.32c-25.79 0-46.78 20.98-46.78 46.78s20.98 46.78 46.78 46.78c25.79 0 46.78-20.98 46.78-46.78s-20.99-46.78-46.78-46.78z" fill="#363432" /></svg>