<?xml version="1.0" standalone="no"?><!DOCTYPE svg PUBLIC "-//W3C//DTD SVG 1.1//EN" "http://www.w3.org/Graphics/SVG/1.1/DTD/svg11.dtd"><svg class="icon" width="200px" height="200.00px" viewBox="0 0 1024 1024" version="1.1" xmlns="http://www.w3.org/2000/svg"><path d="M88.545 131.5h282.3v760.99h-282.3z" fill="#EF7E20" /><path d="M370.845 917.04h-282.3c-13.56 0-24.55-11-24.55-24.55V131.51c0-13.55 10.99-24.55 24.55-24.55h282.3c13.56 0 24.55 11 24.55 24.55V892.5c0 13.55-10.99 24.54-24.55 24.54z m-257.75-49.09h233.21v-711.9h-233.21v711.9z" fill="#363432" /><path d="M229.695 682.19c-34.98 0.11-63.31 28.44-63.42 63.42 0.11 34.98 28.44 63.31 63.42 63.42 34.98-0.11 63.31-28.44 63.42-63.42-0.11-34.98-28.44-63.31-63.42-63.42z" fill="#FFFBF1" /><path d="M229.755 825.39c-43.94-0.14-79.71-35.91-79.84-79.73 0.13-43.92 35.89-79.68 79.72-79.83h0.11c43.83 0.14 79.6 35.91 79.72 79.73-0.11 43.91-35.88 79.68-79.71 79.83z m-0.06-126.84c-25.87 0.11-46.97 21.22-47.05 47.1 0.08 25.79 21.21 46.92 47.11 47 25.79-0.08 46.91-21.21 46.99-47.1-0.08-25.77-21.17-46.88-47.05-47z" fill="#363432" /><path d="M166.285 224.24h126.83v339.58h-126.83z" fill="#FFFBF1" /><path d="M293.115 580.19h-126.83c-9.04 0-16.37-7.32-16.37-16.37V224.25c0-9.05 7.33-16.37 16.37-16.37h126.83c9.04 0 16.37 7.32 16.37 16.37v339.58c-0.01 9.04-7.33 16.36-16.37 16.36z m-110.47-32.73h94.1V240.61h-94.1v306.85z" fill="#363432" /><path d="M229.695 514.01c-9.04 0-16.37-7.32-16.37-16.37V290.41c0-9.05 7.33-16.37 16.37-16.37 9.04 0 16.37 7.32 16.37 16.37v207.24c0 9.04-7.33 16.36-16.37 16.36z" fill="#363432" /><path d="M370.845 131.5h282.3v760.99h-282.3z" fill="#FFFBF1" /><path d="M653.155 917.04h-282.3c-13.56 0-24.55-11-24.55-24.55V131.51c0-13.55 10.99-24.55 24.55-24.55h282.3c13.56 0 24.55 11 24.55 24.55V892.5c-0.01 13.55-10.99 24.54-24.55 24.54z m-257.76-49.09h233.21v-711.9h-233.21v711.9z" fill="#363432" /><path d="M512.005 682.19c-34.98 0.11-63.31 28.44-63.42 63.42 0.14 34.95 28.46 63.24 63.42 63.35 34.98-0.11 63.31-28.44 63.42-63.42-0.15-34.95-28.47-63.24-63.42-63.35z" fill="#EF7E20" /><path d="M512.055 825.32c-43.89-0.14-79.65-35.86-79.84-79.65 0.13-43.93 35.89-79.7 79.72-79.84h0.11c43.78 0.14 79.54 35.86 79.72 79.65-0.11 43.93-35.88 79.7-79.71 79.84z m-0.05-126.77c-25.87 0.11-46.97 21.22-47.05 47.1 0.1 25.75 21.24 46.86 47.11 46.94 25.79-0.08 46.91-21.21 46.99-47.1-0.11-25.73-21.21-46.82-47.05-46.94z" fill="#363432" /><path d="M448.585 224.24h126.83v339.58h-126.83z" fill="#EF7E20" /><path d="M575.415 580.19h-126.83c-9.04 0-16.37-7.32-16.37-16.37V224.25c0-9.05 7.33-16.37 16.37-16.37h126.83c9.04 0 16.37 7.32 16.37 16.37v339.58c0 9.04-7.33 16.36-16.37 16.36z m-110.47-32.73h94.1V240.61h-94.1v306.85z" fill="#363432" /><path d="M512.005 514.01c-9.04 0-16.37-7.32-16.37-16.37V290.41c0-9.05 7.33-16.37 16.37-16.37s16.37 7.32 16.37 16.37v207.24c-0.01 9.04-7.34 16.36-16.37 16.36z" fill="#363432" /><path d="M653.155 131.5h282.3v760.99h-282.3z" fill="#EF7E20" /><path d="M935.455 917.04h-282.3c-13.56 0-24.55-11-24.55-24.55V131.51c0-13.55 10.99-24.55 24.55-24.55h282.3c13.56 0 24.55 11 24.55 24.55V892.5c0 13.55-10.99 24.54-24.55 24.54z m-257.76-49.09h233.21v-711.9h-233.21v711.9z" fill="#363432" /><path d="M794.305 682.19c-34.98 0.11-63.31 28.44-63.42 63.42 0.11 34.98 28.44 63.31 63.42 63.42 34.98-0.11 63.31-28.44 63.42-63.42-0.12-34.98-28.44-63.31-63.42-63.42z" fill="#FFFBF1" /><path d="M794.355 825.39c-43.94-0.14-79.71-35.91-79.84-79.73 0.13-43.92 35.89-79.68 79.72-79.83h0.11c43.83 0.14 79.6 35.91 79.72 79.73-0.11 43.91-35.88 79.68-79.71 79.83z m-0.05-126.84c-25.87 0.11-46.97 21.22-47.05 47.1 0.08 25.79 21.21 46.92 47.11 47 25.79-0.08 46.91-21.21 46.99-47.1-0.08-25.77-21.18-46.88-47.05-47z" fill="#363432" /><path d="M730.885 224.24h126.83v339.58h-126.83z" fill="#FFFBF1" /><path d="M857.715 580.19h-126.83c-9.04 0-16.37-7.32-16.37-16.37V224.25c0-9.05 7.33-16.37 16.37-16.37h126.83c9.04 0 16.37 7.32 16.37 16.37v339.58c0 9.04-7.33 16.36-16.37 16.36z m-110.46-32.73h94.1V240.61h-94.1v306.85z" fill="#363432" /><path d="M794.305 514.01c-9.04 0-16.37-7.32-16.37-16.37V290.41c0-9.05 7.33-16.37 16.37-16.37 9.04 0 16.37 7.32 16.37 16.37v207.24c-0.01 9.04-7.34 16.36-16.37 16.36z" fill="#363432" /></svg>