<?xml version="1.0" standalone="no"?><!DOCTYPE svg PUBLIC "-//W3C//DTD SVG 1.1//EN" "http://www.w3.org/Graphics/SVG/1.1/DTD/svg11.dtd"><svg class="icon" width="200px" height="200.00px" viewBox="0 0 1024 1024" version="1.1" xmlns="http://www.w3.org/2000/svg"><path d="M437.519 437.499m-355.85 0a355.85 355.85 0 1 0 711.7 0 355.85 355.85 0 1 0-711.7 0Z" fill="#E9E7DF" /><path d="M437.519 810.999c-205.95 0-373.5-167.54-373.5-373.5s167.55-373.5 373.5-373.5 373.5 167.54 373.5 373.5-167.56 373.5-373.5 373.5z m0-711.71c-186.49 0-338.21 151.73-338.21 338.21s151.72 338.21 338.21 338.21 338.21-151.73 338.21-338.21-151.72-338.21-338.21-338.21z" fill="#363432" /><path d="M437.519 437.499m-241.37 0a241.37 241.37 0 1 0 482.74 0 241.37 241.37 0 1 0-482.74 0Z" fill="#FFFBF1" /><path d="M437.519 705.329c-147.68 0-267.83-120.16-267.83-267.83S289.839 169.669 437.519 169.669s267.84 120.16 267.84 267.83-120.16 267.83-267.84 267.83z m0-482.73c-118.49 0-214.9 96.39-214.9 214.9s96.4 214.9 214.9 214.9 214.91-96.39 214.91-214.9-96.41-214.9-214.91-214.9z" fill="#363432" /><path d="M437.519 437.499m-74.99 0a74.99 74.99 0 1 0 149.98 0 74.99 74.99 0 1 0-149.98 0Z" fill="#EF7E20" /><path d="M437.519 538.959c-55.94 0-101.46-45.51-101.46-101.46S381.569 336.039 437.519 336.039s101.46 45.51 101.46 101.46-45.52 101.46-101.46 101.46z m0-149.99c-26.76 0-48.52 21.76-48.52 48.52s21.76 48.52 48.52 48.52 48.52-21.76 48.52-48.52-21.76-48.52-48.52-48.52z" fill="#363432" /><path d="M877.629 904.079c-6.77 0-13.54-2.58-18.71-7.75l-440.12-440.12c-10.34-10.34-10.34-27.09 0-37.43s27.09-10.34 37.43 0l440.12 440.12c10.34 10.34 10.34 27.09 0 37.43-5.17 5.17-11.95 7.75-18.72 7.75z" fill="#363432" /><path d="M821.659 959.999c-13.92 0-25.59-10.87-26.4-24.95l-6.81-118.62a26.472 26.472 0 0 1 7.71-20.23c5.32-5.34 12.57-8.29 20.23-7.7l118.63 6.81c14.6 0.83 25.74 13.34 24.91 27.93-0.84 14.6-13.58 25.68-27.94 24.9l-88.99-5.1 5.11 88.98c0.84 14.6-10.31 27.11-24.91 27.93-0.51 0.03-1.03 0.05-1.54 0.05z" fill="#363432" /><path d="M741.229 879.509c-13.92 0-25.59-10.87-26.4-24.95l-6.82-118.62c-0.43-7.53 2.37-14.91 7.71-20.23 5.34-5.34 12.68-8.19 20.23-7.7l118.62 6.81c14.6 0.83 25.75 13.34 24.92 27.93-0.84 14.6-13.55 25.86-27.93 24.9l-89-5.1 5.12 88.98c0.84 14.6-10.31 27.11-24.91 27.93-0.52 0.03-1.03 0.05-1.54 0.05z" fill="#363432" /></svg>