<?xml version="1.0" standalone="no"?><!DOCTYPE svg PUBLIC "-//W3C//DTD SVG 1.1//EN" "http://www.w3.org/Graphics/SVG/1.1/DTD/svg11.dtd"><svg class="icon" width="200px" height="200.00px" viewBox="0 0 1024 1024" version="1.1" xmlns="http://www.w3.org/2000/svg"><path d="M937.568 946.302H86.428c-12.39 0-22.43-10.05-22.43-22.43 0-12.38 10.04-22.43 22.43-22.43h851.14c12.39 0 22.43 10.05 22.43 22.43 0 12.38-10.04 22.43-22.43 22.43z" fill="#363432" /><path d="M454.048 92.662h115.9v831.2h-115.9z" fill="#EF7E20" /><path d="M569.948 938.812h-115.9c-8.26 0-14.95-6.69-14.95-14.95V92.652c0-8.27 6.7-14.95 14.95-14.95h115.9c8.26 0 14.95 6.69 14.95 14.95v831.2c0 8.27-6.69 14.96-14.95 14.96z m-100.94-29.91h85.99v-801.3h-85.99v801.3z" fill="#363432" /><path d="M246.558 599.862l-67.29-91.59 67.29-91.59h530.88v183.19h-530.88z" fill="#FFFBF1" /><path d="M777.438 614.812h-530.88c-4.76 0-9.24-2.26-12.05-6.1l-67.29-91.59a14.912 14.912 0 0 1 0-17.7l67.29-91.59c2.81-3.84 7.29-6.1 12.05-6.1h530.88c8.26 0 14.95 6.69 14.95 14.95v183.19c0 8.25-6.69 14.94-14.95 14.94z m-523.3-29.91h508.35v-153.28h-508.35l-56.31 76.64 56.31 76.64z" fill="#363432" /><path d="M777.438 154.972l67.29 91.59-67.29 91.59h-530.88v-183.18h530.88z" fill="#EF7E20" /><path d="M777.438 353.112h-530.88c-8.26 0-14.95-6.69-14.95-14.95v-183.2c0-8.27 6.7-14.95 14.95-14.95h530.88c4.76 0 9.24 2.26 12.05 6.1l67.29 91.59a14.912 14.912 0 0 1 0 17.7l-67.29 91.59a14.89 14.89 0 0 1-12.05 6.12z m-515.92-29.91h508.35l56.31-76.64-56.31-76.64h-508.35v153.28zM569.948 938.952c-4.27 0-8.34-1.83-11.17-5.02l-50.54-56.84c-5.49-6.16-4.94-15.61 1.23-21.1 6.16-5.52 15.63-4.95 21.11 1.24l39.37 44.26 39.37-44.26c5.48-6.19 14.94-6.76 21.11-1.24 6.17 5.49 6.73 14.94 1.23 21.1l-50.54 56.84c-2.83 3.2-6.9 5.02-11.17 5.02zM255.998 938.952c-4.27 0-8.34-1.83-11.17-5.02l-50.56-56.82c-5.49-6.18-4.94-15.63 1.23-21.12 6.18-5.52 15.61-4.94 21.11 1.23l39.39 44.28 39.38-44.28c5.48-6.16 14.93-6.75 21.11-1.23 6.17 5.49 6.73 14.94 1.23 21.12l-50.55 56.82c-2.83 3.2-6.9 5.02-11.17 5.02zM796.608 938.952c-4.27 0-8.34-1.83-11.17-5.02l-50.55-56.82c-5.49-6.18-4.94-15.63 1.23-21.12 6.18-5.52 15.64-4.94 21.11 1.23l39.38 44.28 39.39-44.26c5.48-6.19 14.93-6.76 21.11-1.24 6.17 5.49 6.73 14.94 1.23 21.1l-50.56 56.85c-2.83 3.18-6.89 5-11.17 5z" fill="#363432" /><path d="M494.238 235.832h-183.19c-8.26 0-14.95-6.69-14.95-14.95 0-8.27 6.7-14.95 14.95-14.95h183.19c8.26 0 14.95 6.69 14.95 14.95 0 8.26-6.7 14.95-14.95 14.95zM635.368 287.222h-324.32c-8.26 0-14.95-6.69-14.95-14.95 0-8.27 6.7-14.95 14.95-14.95h324.33c8.26 0 14.95 6.69 14.95 14.95 0 8.26-6.7 14.95-14.96 14.95z" fill="#363432" /><path d="M494.238 497.532h-183.19c-8.26 0-14.95-6.69-14.95-14.95 0-8.27 6.7-14.95 14.95-14.95h183.19c8.26 0 14.95 6.69 14.95 14.95 0 8.26-6.7 14.95-14.95 14.95z" fill="#363432" /><path d="M635.368 548.922h-324.32c-8.26 0-14.95-6.69-14.95-14.95s6.7-14.95 14.95-14.95h324.33c8.26 0 14.95 6.69 14.95 14.95s-6.7 14.95-14.96 14.95z" fill="#363432" /><path d="M678.368 497.532h-132.72c-8.26 0-14.95-6.69-14.95-14.95 0-8.27 6.7-14.95 14.95-14.95h132.72c8.26 0 14.95 6.69 14.95 14.95 0 8.26-6.69 14.95-14.95 14.95z" fill="#363432" /></svg>