<?xml version="1.0" standalone="no"?><!DOCTYPE svg PUBLIC "-//W3C//DTD SVG 1.1//EN" "http://www.w3.org/Graphics/SVG/1.1/DTD/svg11.dtd"><svg class="icon" width="200px" height="200.00px" viewBox="0 0 1024 1024" version="1.1" xmlns="http://www.w3.org/2000/svg"><path d="M195.639 325.861h-39.66c-38.53 0.11-69.74 31.32-69.86 69.86v232.52c0.11 38.53 31.32 69.74 69.86 69.86h39.67" fill="#FFFBF1" /><path d="M195.639 720.211h-39.66c-50.61-0.16-91.83-41.38-91.97-91.91v-232.59c0.14-50.59 41.37-91.84 91.91-91.98h39.73c12.22 0 22.12 9.91 22.12 22.12s-9.9 22.12-22.12 22.12h-39.67c-26.22 0.07-47.66 21.52-47.73 47.8v232.47c0.07 26.21 21.52 47.65 47.8 47.73h39.6c12.22 0 22.12 9.91 22.12 22.12s-9.91 22.12-22.13 22.12z" fill="#363432" /><path d="M550.149 511.981c0-225.2-13.74-407.77-30.69-408.07-141.23 0.21-263.38 90.4-323.8 221.96-2.17 55.85-3.41 119.01-3.41 186.12s1.24 130.28 3.41 186.12c60.46 131.56 182.57 221.75 323.8 221.96 16.95-0.32 30.69-182.88 30.69-408.09z" fill="#EF7E20" /><path d="M519.889 942.211c-146.1-0.22-277.85-90.21-344.33-234.86a22.251 22.251 0 0 1-2.01-8.37c-2.27-58.53-3.42-121.43-3.42-186.99s1.15-128.46 3.42-186.99c0.12-2.89 0.79-5.73 2-8.37 66.43-144.63 198.2-234.62 343.87-234.84 23.28 0.42 34.28 13.8 43.79 140.15 5.83 77.61 9.05 180.61 9.05 290.03 0 109.44-3.22 212.44-9.05 290.05-9.5 126.35-20.49 139.74-43.32 140.19z m-302.3-249.39c57.76 122.27 167.49 199.7 289.35 204.87 9.59-37.54 21.08-178.35 21.08-385.71 0-207.38-11.5-348.17-21.09-385.68-121.67 5-231.57 82.47-289.34 204.87-2.14 56.68-3.22 117.5-3.22 180.82s1.08 124.14 3.22 180.83z" fill="#363432" /><path d="M801.009 670.971c-87.66 0-158.98-71.33-158.98-158.99 0-87.66 71.32-158.98 158.98-158.98 87.67 0 158.99 71.32 158.99 158.98s-71.32 158.99-158.99 158.99z m0-273.73c-63.27 0-114.74 51.47-114.74 114.74 0 63.28 51.47 114.75 114.74 114.75s114.75-51.47 114.75-114.75c0-63.27-51.48-114.74-114.75-114.74z" fill="#363432" /><path d="M702.759 625.661c-5.93 0-11.83-2.36-16.19-7.03-8.33-8.94-7.84-22.94 1.09-31.27l198.32-184.95c8.93-8.34 22.92-7.85 31.27 1.08 8.33 8.94 7.84 22.94-1.09 31.27l-198.32 184.95a22.025 22.025 0 0 1-15.08 5.95z" fill="#363432" /></svg>