<?xml version="1.0" standalone="no"?><!DOCTYPE svg PUBLIC "-//W3C//DTD SVG 1.1//EN" "http://www.w3.org/Graphics/SVG/1.1/DTD/svg11.dtd"><svg class="icon" width="200px" height="200.00px" viewBox="0 0 1024 1024" version="1.1" xmlns="http://www.w3.org/2000/svg"><path d="M650.959 86.649h-485.9v850.7h693.87v-642.67l-207.97-208.03z" fill="#EF7E20" /><path d="M858.939 959.999h-693.88c-12.51 0-22.65-10.14-22.65-22.65v-850.7c0-12.51 10.14-22.65 22.65-22.65h485.9c6.01 0 11.77 2.39 16.02 6.64l207.98 208.03a22.681 22.681 0 0 1 6.63 16.01v642.67c0 12.51-10.14 22.65-22.65 22.65z m-671.23-45.3h648.57v-610.64l-194.7-194.76h-453.87v805.4z" fill="#363432" /><path d="M650.959 294.679h207.97l-207.97-208.03v208.03z" fill="#FFFBF1" /><path d="M858.939 317.329h-207.97c-12.51 0-22.65-10.14-22.65-22.65V86.649c0-9.16 5.52-17.42 13.99-20.92 8.47-3.52 18.21-1.56 24.68 4.91l207.97 208.03a22.65 22.65 0 0 1 4.9 24.68 22.636 22.636 0 0 1-20.92 13.98z m-185.32-45.3h130.65l-130.65-130.68v130.68z" fill="#363432" /><path d="M388.679 393.719h246.63v125.83h-246.63z" fill="#FFFBF1" /><path d="M635.309 534.649h-246.63c-8.34 0-15.1-6.76-15.1-15.1v-125.83c0-8.34 6.76-15.1 15.1-15.1h246.63c8.34 0 15.1 6.76 15.1 15.1v125.83c0 8.34-6.77 15.1-15.1 15.1z m-231.53-30.2h216.43v-95.63h-216.43v95.63z" fill="#363432" /><path d="M542.819 712.069h246.63v125.83h-246.63z" fill="#FFFBF1" /><path d="M789.449 852.999h-246.63c-8.34 0-15.1-6.76-15.1-15.1v-125.82c0-8.34 6.76-15.1 15.1-15.1h246.63c8.34 0 15.1 6.76 15.1 15.1v125.83c0 8.33-6.77 15.09-15.1 15.09z m-231.53-30.2h216.43v-95.63h-216.43v95.63z" fill="#363432" /><path d="M234.539 712.069h246.63v125.83h-246.63z" fill="#FFFBF1" /><path d="M481.169 852.999h-246.63c-8.34 0-15.1-6.76-15.1-15.1v-125.82c0-8.34 6.76-15.1 15.1-15.1h246.63c8.34 0 15.1 6.76 15.1 15.1v125.83c0 8.33-6.77 15.09-15.1 15.09z m-231.53-30.2h216.43v-95.63h-216.43v95.63z" fill="#363432" /><path d="M357.859 727.179c-8.34 0-15.1-6.76-15.1-15.1v-96.26c0-8.34 6.76-15.1 15.1-15.1h139.08v-81.16c0-8.34 6.76-15.1 15.1-15.1s15.1 6.76 15.1 15.1v96.26c0 8.34-6.76 15.1-15.1 15.1h-139.08v81.16c0 8.34-6.76 15.1-15.1 15.1z" fill="#363432" /><path d="M666.069 727.179c-8.34 0-15.1-6.76-15.1-15.1v-81.16h-138.93c-8.34 0-15.1-6.76-15.1-15.1s6.76-15.1 15.1-15.1h154.02c8.34 0 15.1 6.76 15.1 15.1v96.26c0.01 8.34-6.75 15.1-15.09 15.1z" fill="#363432" /><path d="M434.929 192.379h-180.32c-8.34 0-15.1-6.76-15.1-15.1s6.76-15.1 15.1-15.1h180.32c8.34 0 15.1 6.76 15.1 15.1s-6.76 15.1-15.1 15.1z" fill="#363432" /><path d="M522.749 260.329h-268.14c-8.34 0-15.1-6.76-15.1-15.1s6.76-15.1 15.1-15.1h268.14c8.34 0 15.1 6.76 15.1 15.1s-6.76 15.1-15.1 15.1z" fill="#363432" /></svg>