<?xml version="1.0" standalone="no"?><!DOCTYPE svg PUBLIC "-//W3C//DTD SVG 1.1//EN" "http://www.w3.org/Graphics/SVG/1.1/DTD/svg11.dtd"><svg class="icon" width="200px" height="200.00px" viewBox="0 0 1024 1024" version="1.1" xmlns="http://www.w3.org/2000/svg"><path d="M86.78 233.218h850.44v695.61H86.78z" fill="#EF7E20" /><path d="M937.22 951.618H86.78c-12.58 0-22.78-10.2-22.78-22.78v-695.61c0-12.58 10.2-22.78 22.78-22.78h850.44c12.58 0 22.78 10.2 22.78 22.78v695.61c0 12.57-10.2 22.78-22.78 22.78z m-827.66-45.56h804.88v-650.05H109.56v650.05z" fill="#363432" /><path d="M86.78 95.158h850.44v138.06H86.78z" fill="#FFFBF1" /><path d="M937.22 256.008H86.78c-12.58 0-22.78-10.2-22.78-22.78V95.168c0-12.58 10.2-22.78 22.78-22.78h850.44c12.58 0 22.78 10.2 22.78 22.78v138.06c0 12.57-10.2 22.78-22.78 22.78z m-827.66-45.56h804.88v-92.5H109.56v92.5z" fill="#363432" /><path d="M167.02 164.198m-15.23 0a15.23 15.23 0 1 0 30.46 0 15.23 15.23 0 1 0-30.46 0Z" fill="#EF7E20" /><path d="M167.03 187.028c-12.59 0-22.83-10.23-22.83-22.82s10.24-22.82 22.83-22.82c12.58 0 22.82 10.23 22.82 22.82s-10.24 22.82-22.82 22.82z m0-30.46c-4.22 0-7.65 3.43-7.65 7.64s3.43 7.64 7.65 7.64c4.21 0 7.64-3.43 7.64-7.64s-3.43-7.64-7.64-7.64z" fill="#363432" /><path d="M224.52 164.198m-15.23 0a15.23 15.23 0 1 0 30.46 0 15.23 15.23 0 1 0-30.46 0Z" fill="#EF7E20" /><path d="M224.52 187.028c-12.58 0-22.82-10.23-22.82-22.82s10.24-22.82 22.82-22.82c12.59 0 22.83 10.23 22.83 22.82s-10.24 22.82-22.83 22.82z m0-30.46c-4.21 0-7.64 3.43-7.64 7.64s3.43 7.64 7.64 7.64c4.22 0 7.65-3.43 7.65-7.64s-3.43-7.64-7.65-7.64z" fill="#363432" /><path d="M282.02 164.198m-15.23 0a15.23 15.23 0 1 0 30.46 0 15.23 15.23 0 1 0-30.46 0Z" fill="#EF7E20" /><path d="M282.02 187.028c-12.58 0-22.82-10.23-22.82-22.82s10.24-22.82 22.82-22.82 22.82 10.23 22.82 22.82-10.24 22.82-22.82 22.82z m0-30.46c-4.21 0-7.64 3.43-7.64 7.64s3.43 7.64 7.64 7.64c4.21 0 7.64-3.43 7.64-7.64s-3.43-7.64-7.64-7.64z" fill="#363432" /><path d="M301.93 319.128h420.16v130.72H301.93z" fill="#EF7E20" /><path d="M722.09 457.448H301.93c-4.2 0-7.59-3.4-7.59-7.59v-130.72c0-4.2 3.4-7.59 7.59-7.59h420.16c4.2 0 7.59 3.4 7.59 7.59v130.71c0 4.2-3.39 7.6-7.59 7.6z m-412.57-15.19H714.5v-115.53H309.52v115.53z" fill="#363432" /><path d="M362.67 499.428h298.67v130.72H362.67z" fill="#FFFBF1" /><path d="M661.34 637.738H362.67c-4.2 0-7.59-3.4-7.59-7.59v-130.72c0-4.2 3.4-7.59 7.59-7.59h298.67c4.2 0 7.59 3.4 7.59 7.59v130.72c0.01 4.2-3.39 7.59-7.59 7.59z m-291.08-15.18h283.49v-115.53H370.26v115.53z" fill="#363432" /><path d="M167.02 717.408h298.67v86.29H167.02z" fill="#FFFBF1" /><path d="M465.7 811.298H167.03c-4.2 0-7.59-3.4-7.59-7.59v-86.3c0-4.2 3.4-7.59 7.59-7.59H465.7c4.2 0 7.59 3.4 7.59 7.59v86.3c0 4.2-3.39 7.59-7.59 7.59z m-291.08-15.18h283.49v-71.11H174.62v71.11z" fill="#363432" /><path d="M554.28 717.408h298.67v86.29H554.28z" fill="#FFFBF1" /><path d="M852.95 811.298H554.28c-4.2 0-7.59-3.4-7.59-7.59v-86.3c0-4.2 3.4-7.59 7.59-7.59h298.67c4.2 0 7.59 3.4 7.59 7.59v86.3c0.01 4.2-3.39 7.59-7.59 7.59z m-291.07-15.18h283.49v-71.11H561.88v71.11z" fill="#363432" /><path d="M512 507.028c-4.2 0-7.59-3.4-7.59-7.59v-49.59c0-4.2 3.4-7.59 7.59-7.59s7.59 3.4 7.59 7.59v49.58c0 4.2-3.39 7.6-7.59 7.6z" fill="#363432" /><path d="M316.36 725.018c-4.2 0-7.59-3.4-7.59-7.59v-38.37c0-4.2 3.4-7.59 7.59-7.59h188.05v-41.32c0-4.2 3.4-7.59 7.59-7.59s7.59 3.4 7.59 7.59v48.91c0 4.2-3.4 7.59-7.59 7.59H323.95v30.77c0 4.2-3.4 7.6-7.59 7.6z" fill="#363432" /><path d="M703.61 725.018c-4.2 0-7.59-3.4-7.59-7.59v-30.78H512c-4.2 0-7.59-3.4-7.59-7.59 0-4.2 3.4-7.59 7.59-7.59h191.61c4.2 0 7.59 3.4 7.59 7.59v38.37c0 4.19-3.39 7.59-7.59 7.59z" fill="#363432" /><path d="M614.51 392.088H409.49c-4.2 0-7.59-3.4-7.59-7.59 0-4.2 3.4-7.59 7.59-7.59h205.02c4.2 0 7.59 3.4 7.59 7.59 0 4.19-3.39 7.59-7.59 7.59zM614.51 425.638H409.49c-4.2 0-7.59-3.4-7.59-7.59 0-4.2 3.4-7.59 7.59-7.59h205.02c4.2 0 7.59 3.4 7.59 7.59 0 4.19-3.39 7.59-7.59 7.59zM614.51 358.558H409.49c-4.2 0-7.59-3.4-7.59-7.59s3.4-7.59 7.59-7.59h205.02c4.2 0 7.59 3.4 7.59 7.59s-3.39 7.59-7.59 7.59z" fill="#363432" /><path d="M614.51 555.608H409.49c-4.2 0-7.59-3.4-7.59-7.59 0-4.2 3.4-7.59 7.59-7.59h205.02c4.2 0 7.59 3.4 7.59 7.59 0 4.19-3.39 7.59-7.59 7.59zM582.24 589.138H441.76c-4.2 0-7.59-3.4-7.59-7.59s3.4-7.59 7.59-7.59h140.47c4.2 0 7.59 3.4 7.59 7.59s-3.39 7.59-7.58 7.59z" fill="#363432" /><path d="M418.86 768.148H213.85c-4.2 0-7.59-3.4-7.59-7.59 0-4.2 3.4-7.59 7.59-7.59h205.02c4.2 0 7.59 3.4 7.59 7.59 0 4.19-3.4 7.59-7.6 7.59z" fill="#363432" /><path d="M806.12 768.148H601.1c-4.2 0-7.59-3.4-7.59-7.59 0-4.2 3.4-7.59 7.59-7.59h205.02c4.2 0 7.59 3.4 7.59 7.59 0 4.19-3.39 7.59-7.59 7.59z" fill="#363432" /></svg>