<?xml version="1.0" standalone="no"?><!DOCTYPE svg PUBLIC "-//W3C//DTD SVG 1.1//EN" "http://www.w3.org/Graphics/SVG/1.1/DTD/svg11.dtd"><svg class="icon" width="200px" height="200.00px" viewBox="0 0 1024 1024" version="1.1" xmlns="http://www.w3.org/2000/svg"><path d="M584.141 447.92m-351.62 0a351.62 351.62 0 1 0 703.24 0 351.62 351.62 0 1 0-703.24 0Z" fill="#EF7E20" /><path d="M584.151 823.58c-207.14 0-375.67-168.52-375.67-375.66 0-207.15 168.52-375.67 375.67-375.67 207.14 0 375.66 168.52 375.66 375.67-0.01 207.14-168.53 375.66-375.66 375.66z m0-703.24c-180.63 0-327.58 146.95-327.58 327.59 0 180.62 146.95 327.57 327.58 327.57 180.62 0 327.57-146.95 327.57-327.57 0-180.64-146.95-327.59-327.57-327.59z" fill="#363432" /><path d="M549.981 927.55c-62.26 0.21-177.58-41.58-297.7-160.01a625.408 625.408 0 0 1-145.24-209.3c-26.04-67.67-25.14-122.47 2.49-150.44 3.21-3.21 6.41-6.65 9.62-10.16 21.25-22.68 47.72-50.92 84.79-51.05 27.36-0.1 53.06 15.05 78.54 46.29 67.32 82.5 41.92 119.8 1.6 160.01l-4.55 4.57c0.34 5.29 6.11 31.35 78.54 102.76 71.49 70.53 97.95 76.67 103.83 77.03l4.47-4.58c18.55-19.09 39.57-40.71 72.42-40.83 25.08-0.08 52.89 12.71 87.65 40.23 30.45 24.17 45.97 48.74 47.27 75.14 1.86 38.47-26.74 66.02-49.69 88.16-3.49 3.37-6.92 6.67-10.1 9.89a88.022 88.022 0 0 1-63.94 22.29z" fill="#FFFBF1" /><path d="M555.051 951.75c-1.91 0-3.82-0.06-5.74-0.16-66.99-0.11-189.07-43.83-313.91-166.94-64.71-61.38-115.45-134.49-150.49-217.03-30.33-78.73-27.55-141.22 7.51-176.72 3.05-3.05 6-6.21 8.95-9.45 23.37-24.94 55.04-58.75 102.49-58.9h0.34c34.93 0 66.64 18.03 96.9 55.13 75.99 93.12 46.9 143.65 6.14 185.96 6.39 11.25 23.39 35.78 67.72 79.47 43.87 43.28 68.59 60 80.46 66.4 19.03-19.19 44.68-41.57 83.31-41.7h0.31c30.69 0 63.21 14.43 102.34 45.43 36.28 28.79 54.71 59.14 56.36 92.82 2.39 49.37-31.95 82.48-57.01 106.64-3.37 3.24-6.65 6.39-9.68 9.45-21.49 19.3-48.56 29.6-76 29.6z m-5.07-48.24c0.48 0 0.95 0.02 1.42 0.05 16.99 1 33.87-4.9 46.47-16.2 2.25-2.33 5.82-5.79 9.47-9.3 20.47-19.72 43.67-42.11 42.35-69.67-0.94-19-13.44-37.82-38.21-57.48-29.74-23.56-53.46-35.02-72.47-35.02h-0.14c-22.77 0.08-38.55 16.33-55.25 33.53l-4.52 4.63c-4.9 5.02-11.66 7.67-18.74 7.2-24.21-1.55-64.3-29.77-119.17-83.9-55.31-54.54-84.14-94.36-85.66-118.35a24.01 24.01 0 0 1 6.97-18.5l4.56-4.57c32.39-32.31 55.75-55.62-3.2-127.85-20.56-25.19-40.08-37.44-59.67-37.44h-0.16c-26.7 0.09-48.29 23.12-67.33 43.44-3.24 3.55-6.7 7.28-10.17 10.74-20.28 20.52-19.21 67.21 2.96 124.79 32.13 75.67 79.12 143.37 139.34 200.5 107.63 106.13 218.34 153.42 280.67 153.42 0.16-0.02 0.33-0.01 0.48-0.02z" fill="#363432" /><path d="M323.771 483.92l-135.76-135.76c-15.58-15.64-15.58-40.93 0-56.57 15.64-15.58 40.93-15.58 56.57 0l135.76 135.76c15.58 15.64 15.58 40.93 0 56.57-15.64 15.58-40.93 15.58-56.57 0z" fill="#EF7E20" /><path d="M352.031 519.58c-16.38 0-32.75-6.2-45.22-18.63-0.01 0-0.02-0.02-0.03-0.03l-135.77-135.77c-24.88-24.98-24.88-65.57-0.04-90.52 25.01-24.94 65.62-24.94 90.58-0.06l135.78 135.79c24.9 24.98 24.9 65.59 0.03 90.54-12.51 12.47-28.93 18.68-45.33 18.68z m-11.29-52.68c6.24 6.2 16.4 6.2 22.63 0 6.15-6.18 6.15-16.33-0.06-22.57L227.581 308.6c-6.21-6.17-16.35-6.2-22.6 0.03-6.15 6.17-6.15 16.33 0.06 22.56l135.7 135.71z" fill="#363432" /><path d="M671.801 831.95l-135.81-135.7c-15.58-15.64-15.58-40.93 0-56.57 15.64-15.58 40.93-15.58 56.57 0l135.76 135.76c15.58 15.64 15.58 40.93 0 56.57-15.65 15.54-40.9 15.51-56.52-0.06z" fill="#EF7E20" /><path d="M700.061 867.61c-16.4 0-32.77-6.21-45.23-18.63-0.01 0-0.02-0.02-0.02-0.02l-135.81-135.69c-24.9-25-24.9-65.6-0.05-90.55 25.03-24.92 65.63-24.92 90.58-0.06l135.79 135.79c24.9 24.98 24.9 65.59 0.03 90.54-12.52 12.43-28.91 18.62-45.29 18.62z m-11.29-52.68c6.24 6.21 16.37 6.21 22.61 0.03 6.12-6.15 6.12-16.29-0.09-22.54l-135.73-135.73c-6.21-6.17-16.37-6.18-22.6 0.03-6.15 6.18-6.15 16.33 0.07 22.57l135.74 135.64zM584.151 192.69c-13.28 0-24.04-10.77-24.04-24.04V96.3c0-13.27 10.76-24.04 24.04-24.04s24.04 10.77 24.04 24.04v72.35c0 13.27-10.76 24.04-24.04 24.04z" fill="#363432" /><path d="M386.531 274.54c-6.15 0-12.3-2.35-17-7.04l-51.16-51.14c-9.39-9.38-9.39-24.61-0.01-34 9.39-9.39 24.61-9.39 34.01 0l51.16 51.14c9.39 9.38 9.39 24.61 0.01 34a24.02 24.02 0 0 1-17.01 7.04z" fill="#363432" /><path d="M832.901 720.93a23.98 23.98 0 0 1-17-7.04l-51.15-51.15c-9.39-9.39-9.39-24.61 0-34s24.62-9.39 34 0l51.15 51.15c9.39 9.39 9.39 24.61 0 34a23.963 23.963 0 0 1-17 7.04z" fill="#363432" /><path d="M935.961 472.16h-72.36c-13.28 0-24.04-10.77-24.04-24.04s10.76-24.04 24.04-24.04h72.36c13.28 0 24.04 10.77 24.04 24.04s-10.76 24.04-24.04 24.04z" fill="#363432" /><path d="M781.761 274.54a23.98 23.98 0 0 1-17-7.04c-9.39-9.39-9.39-24.61 0-34l51.15-51.14c9.39-9.39 24.62-9.39 34 0 9.39 9.39 9.39 24.61 0 34l-51.15 51.14a23.997 23.997 0 0 1-17 7.04z" fill="#363432" /></svg>