<?xml version="1.0" standalone="no"?><!DOCTYPE svg PUBLIC "-//W3C//DTD SVG 1.1//EN" "http://www.w3.org/Graphics/SVG/1.1/DTD/svg11.dtd"><svg class="icon" width="200px" height="200.00px" viewBox="0 0 1024 1024" version="1.1" xmlns="http://www.w3.org/2000/svg"><path d="M86.78 233.218h850.44v695.61H86.78z" fill="#EF7E20" /><path d="M937.22 951.618H86.78c-12.58 0-22.78-10.2-22.78-22.78v-695.61c0-12.58 10.2-22.78 22.78-22.78h850.44c12.58 0 22.78 10.2 22.78 22.78v695.61c0 12.57-10.2 22.78-22.78 22.78z m-827.66-45.56h804.88v-650.05H109.56v650.05z" fill="#363432" /><path d="M86.78 95.158h850.44v138.06H86.78z" fill="#FFFBF1" /><path d="M937.22 256.008H86.78c-12.58 0-22.78-10.2-22.78-22.78V95.168c0-12.58 10.2-22.78 22.78-22.78h850.44c12.58 0 22.78 10.2 22.78 22.78v138.06c0 12.57-10.2 22.78-22.78 22.78z m-827.66-45.56h804.88v-92.5H109.56v92.5z" fill="#363432" /><path d="M167.02 164.198m-15.23 0a15.23 15.23 0 1 0 30.46 0 15.23 15.23 0 1 0-30.46 0Z" fill="#EF7E20" /><path d="M167.03 187.028c-12.59 0-22.83-10.23-22.83-22.82s10.24-22.82 22.83-22.82c12.58 0 22.82 10.23 22.82 22.82s-10.24 22.82-22.82 22.82z m0-30.46c-4.22 0-7.65 3.43-7.65 7.64s3.43 7.64 7.65 7.64c4.21 0 7.64-3.43 7.64-7.64s-3.43-7.64-7.64-7.64z" fill="#363432" /><path d="M224.52 164.198m-15.23 0a15.23 15.23 0 1 0 30.46 0 15.23 15.23 0 1 0-30.46 0Z" fill="#EF7E20" /><path d="M224.52 187.028c-12.58 0-22.82-10.23-22.82-22.82s10.24-22.82 22.82-22.82c12.59 0 22.83 10.23 22.83 22.82s-10.24 22.82-22.83 22.82z m0-30.46c-4.21 0-7.64 3.43-7.64 7.64s3.43 7.64 7.64 7.64c4.22 0 7.65-3.43 7.65-7.64s-3.43-7.64-7.65-7.64z" fill="#363432" /><path d="M282.02 164.198m-15.23 0a15.23 15.23 0 1 0 30.46 0 15.23 15.23 0 1 0-30.46 0Z" fill="#EF7E20" /><path d="M282.02 187.028c-12.58 0-22.82-10.23-22.82-22.82s10.24-22.82 22.82-22.82 22.82 10.23 22.82 22.82-10.24 22.82-22.82 22.82z m0-30.46c-4.21 0-7.64 3.43-7.64 7.64s3.43 7.64 7.64 7.64c4.21 0 7.64-3.43 7.64-7.64s-3.43-7.64-7.64-7.64z" fill="#363432" /><path d="M447.29 349.568h-269.7c-8.39 0-15.19-6.79-15.19-15.19s6.8-15.19 15.19-15.19h269.69c8.39 0 15.19 6.79 15.19 15.19s-6.8 15.19-15.18 15.19z" fill="#363432" /><path d="M447.29 417.918h-269.7c-8.39 0-15.19-6.79-15.19-15.19 0-8.39 6.8-15.19 15.19-15.19h269.69c8.39 0 15.19 6.79 15.19 15.19 0 8.4-6.8 15.19-15.18 15.19z" fill="#363432" /><path d="M839.24 772.048H569.56c-8.39 0-15.19-6.79-15.19-15.19 0-8.39 6.8-15.19 15.19-15.19h269.68c8.39 0 15.19 6.79 15.19 15.19-0.01 8.4-6.81 15.19-15.19 15.19z" fill="#363432" /><path d="M839.24 840.388H569.56c-8.39 0-15.19-6.79-15.19-15.19 0-8.39 6.8-15.19 15.19-15.19h269.68c8.39 0 15.19 6.79 15.19 15.19-0.01 8.39-6.81 15.19-15.19 15.19z" fill="#363432" /><path d="M237.34 773.358m-52.58 0a52.58 52.58 0 1 0 105.16 0 52.58 52.58 0 1 0-105.16 0Z" fill="#FFFBF1" /><path d="M237.34 848.718c-41.55 0-75.35-33.8-75.35-75.35 0-41.56 33.81-75.37 75.35-75.37s75.35 33.81 75.35 75.37c0 41.55-33.8 75.35-75.35 75.35z m0-105.16c-16.43 0-29.79 13.38-29.79 29.81s13.36 29.79 29.79 29.79 29.79-13.36 29.79-29.79-13.36-29.81-29.79-29.81z" fill="#363432" /><path d="M421.37 554.748m-52.58 0a52.58 52.58 0 1 0 105.16 0 52.58 52.58 0 1 0-105.16 0Z" fill="#FFFBF1" /><path d="M421.37 630.098c-41.56 0-75.36-33.8-75.36-75.35 0-41.56 33.81-75.35 75.36-75.35s75.35 33.8 75.35 75.35c0 41.56-33.8 75.35-75.35 75.35z m0-105.14c-16.43 0-29.8 13.36-29.8 29.79s13.37 29.79 29.8 29.79 29.79-13.36 29.79-29.79c0.01-16.43-13.36-29.79-29.79-29.79z" fill="#363432" /><path d="M601.25 619.778m-52.58 0a52.58 52.58 0 1 0 105.16 0 52.58 52.58 0 1 0-105.16 0Z" fill="#FFFBF1" /><path d="M601.25 695.138c-41.55 0-75.35-33.8-75.35-75.35 0-41.56 33.81-75.35 75.35-75.35s75.35 33.8 75.35 75.35-33.8 75.35-75.35 75.35z m0-105.15c-16.43 0-29.79 13.36-29.79 29.79s13.36 29.79 29.79 29.79 29.79-13.36 29.79-29.79-13.36-29.79-29.79-29.79z" fill="#363432" /><path d="M786.66 388.698m-52.58 0a52.58 52.58 0 1 0 105.16 0 52.58 52.58 0 1 0-105.16 0Z" fill="#FFFBF1" /><path d="M786.66 464.058c-41.55 0-75.35-33.8-75.35-75.35s33.81-75.35 75.35-75.35 75.35 33.8 75.35 75.35-33.8 75.35-75.35 75.35z m0-105.15c-16.43 0-29.79 13.36-29.79 29.79s13.36 29.79 29.79 29.79 29.79-13.36 29.79-29.79c0.01-16.42-13.36-29.79-29.79-29.79z" fill="#363432" /><path d="M271.12 755.998c-5.18 0-10.38-1.75-14.65-5.35-9.63-8.1-10.86-22.47-2.76-32.09l116.52-138.44c8.09-9.61 22.47-10.87 32.09-2.76 9.63 8.1 10.86 22.47 2.76 32.09l-116.52 138.44c-4.5 5.35-10.95 8.11-17.44 8.11zM634 601.728c-5 0-10.03-1.63-14.24-5.01-9.81-7.88-11.38-22.22-3.51-32.02l119.77-149.27c7.88-9.82 22.17-11.42 32.03-3.51 9.81 7.88 11.38 22.22 3.51 32.02l-119.78 149.27c-4.5 5.6-11.11 8.52-17.78 8.52zM551.97 624.748c-2.57 0-5.19-0.43-7.75-1.36l-81.32-29.41c-11.83-4.27-17.95-17.34-13.67-29.16 4.28-11.85 17.35-17.99 29.17-13.67l81.32 29.41c11.83 4.27 17.95 17.34 13.67 29.16-3.35 9.28-12.1 15.03-21.42 15.03z" fill="#363432" /></svg>