<?xml version="1.0" standalone="no"?><!DOCTYPE svg PUBLIC "-//W3C//DTD SVG 1.1//EN" "http://www.w3.org/Graphics/SVG/1.1/DTD/svg11.dtd"><svg class="icon" width="200px" height="200.00px" viewBox="0 0 1024 1024" version="1.1" xmlns="http://www.w3.org/2000/svg"><path d="M512.003 556.869c-123.07 0-223.19-100.12-223.19-223.18 0-123.07 100.13-223.19 223.19-223.19s223.19 100.12 223.19 223.19c-0.01 123.06-100.13 223.18-223.19 223.18z m0-403.51c-99.44 0-180.33 80.89-180.33 180.33 0 99.42 80.89 180.31 180.33 180.31 99.43 0 180.32-80.89 180.32-180.31 0-99.44-80.89-180.33-180.32-180.33z" fill="#363432" /><path d="M126.323 381.009v-9.93h-2.33l40.88 173.67-38.55-163.74z" fill="#EF7E20" /><path d="M164.863 566.179c-9.72 0-18.52-6.66-20.84-16.52l-38.55-163.74c-0.05-0.2-0.09-0.39-0.13-0.59l-2.2-9.35c-1.5-6.38-0.01-13.09 4.06-18.22a21.452 21.452 0 0 1 16.8-8.12h2.33c11.84 0 21.43 9.6 21.43 21.43v7.41l37.98 161.35c2.71 11.53-4.43 23.07-15.95 25.77-1.65 0.4-3.31 0.58-4.93 0.58z" fill="#363432" /><path d="M642.113 544.739v-173.66h-257.89v173.67h257.89z" fill="#EF7E20" /><path d="M642.113 566.179h-257.88c-11.84 0-21.43-9.6-21.43-21.43v-173.68c0-11.83 9.59-21.43 21.43-21.43h257.88c11.84 0 21.43 9.6 21.43 21.43v173.67c0 11.84-9.59 21.44-21.43 21.44z m-236.45-42.87h215.02v-130.8h-215.02v130.8z" fill="#363432" /><path d="M205.743 718.399l40.88 173.68-40.88-173.68z" fill="#FFFBF1" /><path d="M246.603 913.509c-9.72 0-18.52-6.66-20.84-16.52l-40.88-173.67c-0.39-1.66-0.58-3.31-0.58-4.94 0.01-9.71 6.66-18.52 16.53-20.83 11.51-2.73 23.06 4.42 25.77 15.95l40.88 173.67c0.39 1.66 0.58 3.31 0.58 4.94-0.01 9.71-6.66 18.52-16.53 20.83-1.65 0.38-3.31 0.57-4.93 0.57z" fill="#363432" /><path d="M384.223 718.399v173.68h257.89v-173.68h-257.89z" fill="#FFFBF1" /><path d="M642.113 913.509h-257.88c-11.84 0-21.43-9.6-21.43-21.43v-173.68c0-11.83 9.59-21.43 21.43-21.43h257.88c11.84 0 21.43 9.6 21.43 21.43v173.67c0 11.84-9.59 21.44-21.43 21.44z m-236.45-42.87h215.02v-130.8h-215.02v130.8z" fill="#363432" /><path d="M164.883 544.739h219.35v-173.66h-257.9v9.93l38.55 163.73z" fill="#EF7E20" /><path d="M384.233 566.179h-219.35c-9.94 0-18.59-6.84-20.86-16.52l-38.55-163.74c-0.38-1.6-0.57-3.25-0.57-4.91v-9.94c0-11.83 9.59-21.43 21.43-21.43h257.9c11.84 0 21.43 9.6 21.43 21.43v173.67c0 11.84-9.59 21.44-21.43 21.44z m-202.38-42.87h180.94v-130.8h-211.74l30.8 130.8z" fill="#363432" /><path d="M205.743 718.399l40.88 173.68h137.6v-173.68h-178.48z" fill="#FFFBF1" /><path d="M384.233 913.509h-137.61c-9.94 0-18.59-6.84-20.86-16.52l-40.88-173.67c-1.5-6.38-0.01-13.09 4.06-18.22a21.452 21.452 0 0 1 16.8-8.12h178.49c11.84 0 21.43 9.6 21.43 21.43v173.67c0 11.83-9.59 21.43-21.43 21.43z m-120.64-42.87h99.2v-130.8h-129.98l30.78 130.8z" fill="#363432" /><path d="M642.113 371.079v173.67h217.01l40.88-173.67h-257.89z" fill="#EF7E20" /><path d="M859.123 566.179h-217.01c-11.84 0-21.43-9.6-21.43-21.43v-173.68c0-11.83 9.59-21.43 21.43-21.43h257.88c6.55 0 12.74 3 16.8 8.12a21.432 21.432 0 0 1 4.06 18.22l-40.88 173.67a21.413 21.413 0 0 1-20.85 16.53z m-195.58-42.87h178.6l30.79-130.8h-209.39v130.8z" fill="#363432" /><path d="M642.113 892.079h135.26l40.88-173.65h-176.14v173.65z" fill="#FFFBF1" /><path d="M777.373 913.509h-135.26c-11.84 0-21.43-9.6-21.43-21.43v-173.65c0-11.83 9.59-21.43 21.43-21.43h176.14c6.55 0 12.74 3 16.8 8.12a21.432 21.432 0 0 1 4.06 18.22l-40.89 173.64a21.413 21.413 0 0 1-20.85 16.53z m-113.83-42.87h96.85l30.8-130.78h-127.65v130.78z" fill="#363432" /><path d="M185.313 742.209c-11.84 0-21.43-9.6-21.43-21.43v-178.4c0-11.83 9.59-21.43 21.43-21.43s21.43 9.6 21.43 21.43v178.4c0 11.83-9.59 21.43-21.43 21.43z" fill="#363432" /><path d="M384.223 544.739h257.89v173.65h-257.89z" fill="#FFFBF1" /><path d="M642.113 739.829h-257.88c-11.84 0-21.43-9.6-21.43-21.43v-173.66c0-11.83 9.59-21.43 21.43-21.43h257.88c11.84 0 21.43 9.6 21.43 21.43v173.66c0 11.83-9.59 21.43-21.43 21.43z m-236.45-42.86h215.02v-130.79h-215.02v130.79z" fill="#363432" /><path d="M164.883 544.739l40.87 173.65h178.48v-173.65h-219.35z" fill="#FFFBF1" /><path d="M384.233 739.829h-178.49c-9.95 0-18.59-6.84-20.86-16.52l-40.86-173.66c-1.5-6.38-0.01-13.09 4.06-18.22a21.406 21.406 0 0 1 16.8-8.12h219.35c11.84 0 21.43 9.6 21.43 21.43v173.66c0 11.83-9.59 21.43-21.43 21.43z m-161.51-42.86h140.08v-130.79h-170.86l30.78 130.79z" fill="#363432" /><path d="M642.113 718.399h176.14l40.87-173.65h-217.01v173.65z" fill="#FFFBF1" /><path d="M818.253 739.829h-176.14c-11.84 0-21.43-9.6-21.43-21.43v-173.66c0-11.83 9.59-21.43 21.43-21.43h217.01c6.54 0 12.74 2.99 16.8 8.12a21.432 21.432 0 0 1 4.06 18.22l-40.86 173.66c-2.28 9.69-10.92 16.52-20.87 16.52z m-154.71-42.86h137.73l30.78-130.79h-168.51v130.79z" fill="#363432" /><path d="M901.173 408.489h-778.35c-20.63-0.05-37.34-16.76-37.39-37.39 0.05-20.63 16.76-37.34 37.39-37.39h778.34c20.63 0.06 37.33 16.77 37.39 37.39-0.05 20.62-16.76 37.32-37.38 37.39z" fill="#EF7E20" /><path d="M901.173 429.919h-778.35c-32.37-0.08-58.73-26.46-58.82-58.77 0.09-32.44 26.46-58.8 58.78-58.87h778.39c32.37 0.08 58.73 26.44 58.83 58.75-0.1 32.46-26.46 58.82-58.77 58.9-0.02-0.01-0.04-0.01-0.06-0.01z m-778.35-74.78c-8.76 0.01-15.94 7.2-15.96 16.01 0.02 8.69 7.21 15.88 16.01 15.91h778.24c8.8-0.03 15.99-7.21 16.02-16.03-0.03-8.67-7.21-15.85-16.02-15.88h-778.29z" fill="#363432" /></svg>