<?xml version="1.0" standalone="no"?><!DOCTYPE svg PUBLIC "-//W3C//DTD SVG 1.1//EN" "http://www.w3.org/Graphics/SVG/1.1/DTD/svg11.dtd"><svg class="icon" width="200px" height="200.00px" viewBox="0 0 1024 1024" version="1.1" xmlns="http://www.w3.org/2000/svg"><path d="M86.78 233.218h850.44v695.61H86.78z" fill="#EF7E20" /><path d="M937.22 951.618H86.78c-12.58 0-22.78-10.2-22.78-22.78v-695.61c0-12.58 10.2-22.78 22.78-22.78h850.44c12.58 0 22.78 10.2 22.78 22.78v695.61c0 12.57-10.2 22.78-22.78 22.78z m-827.66-45.56h804.88v-650.05H109.56v650.05z" fill="#363432" /><path d="M86.78 95.158h850.44v138.06H86.78z" fill="#FFFBF1" /><path d="M937.22 256.008H86.78c-12.58 0-22.78-10.2-22.78-22.78V95.168c0-12.58 10.2-22.78 22.78-22.78h850.44c12.58 0 22.78 10.2 22.78 22.78v138.06c0 12.57-10.2 22.78-22.78 22.78z m-827.66-45.56h804.88v-92.5H109.56v92.5z" fill="#363432" /><path d="M167.02 164.198m-15.23 0a15.23 15.23 0 1 0 30.46 0 15.23 15.23 0 1 0-30.46 0Z" fill="#EF7E20" /><path d="M167.03 187.028c-12.59 0-22.83-10.23-22.83-22.82s10.24-22.82 22.83-22.82c12.58 0 22.82 10.23 22.82 22.82s-10.24 22.82-22.82 22.82z m0-30.46c-4.22 0-7.65 3.43-7.65 7.64s3.43 7.64 7.65 7.64c4.21 0 7.64-3.43 7.64-7.64s-3.43-7.64-7.64-7.64z" fill="#363432" /><path d="M224.52 164.198m-15.23 0a15.23 15.23 0 1 0 30.46 0 15.23 15.23 0 1 0-30.46 0Z" fill="#EF7E20" /><path d="M224.52 187.028c-12.58 0-22.82-10.23-22.82-22.82s10.24-22.82 22.82-22.82c12.59 0 22.83 10.23 22.83 22.82s-10.24 22.82-22.83 22.82z m0-30.46c-4.21 0-7.64 3.43-7.64 7.64s3.43 7.64 7.64 7.64c4.22 0 7.65-3.43 7.65-7.64s-3.43-7.64-7.65-7.64z" fill="#363432" /><path d="M282.02 164.198m-15.23 0a15.23 15.23 0 1 0 30.46 0 15.23 15.23 0 1 0-30.46 0Z" fill="#EF7E20" /><path d="M282.02 187.028c-12.58 0-22.82-10.23-22.82-22.82s10.24-22.82 22.82-22.82 22.82 10.23 22.82 22.82-10.24 22.82-22.82 22.82z m0-30.46c-4.21 0-7.64 3.43-7.64 7.64s3.43 7.64 7.64 7.64c4.21 0 7.64-3.43 7.64-7.64s-3.43-7.64-7.64-7.64z" fill="#363432" /><path d="M787.51 616.358H635.65c-11.53 0.03-20.86 9.37-20.9 20.9 0.03 11.53 9.37 20.86 20.9 20.9h151.86c11.53-0.03 20.86-9.37 20.9-20.9-0.03-11.53-9.37-20.86-20.9-20.9z" fill="#EF7E20" /><path d="M635.65 673.338c-19.87-0.04-36.03-16.22-36.08-36.04 0.05-19.89 16.21-36.05 36.02-36.13h151.98c19.8 0.07 35.96 16.24 36.02 36.04-0.07 19.92-16.23 36.08-36.05 36.13H635.65z m0-41.8c-3.11 0.01-5.7 2.6-5.71 5.75 0.01 3.08 2.59 5.65 5.75 5.67h151.83c3.12-0.01 5.7-2.6 5.71-5.75-0.01-3.07-2.6-5.65-5.77-5.67H635.65z" fill="#363432" /><path d="M774.22 658.138H648.97c-11.53 0.03-20.87 9.38-20.9 20.91 0.03 11.53 9.37 20.86 20.9 20.9h125.26c11.53-0.03 20.86-9.37 20.9-20.9-0.04-11.53-9.38-20.87-20.91-20.91z" fill="#EF7E20" /><path d="M774.28 715.138H648.97c-19.87-0.07-36.03-16.24-36.08-36.04 0.04-19.89 16.19-36.08 36.02-36.16h125.38c19.8 0.07 35.96 16.25 36.02 36.07-0.07 19.89-16.23 36.06-36.03 36.13z m-125.31-41.82c-3.11 0.01-5.7 2.6-5.71 5.77 0.01 3.08 2.6 5.67 5.77 5.68h125.2c3.11-0.01 5.7-2.6 5.71-5.75-0.01-3.08-2.59-5.67-5.75-5.69H648.97z" fill="#363432" /><path d="M848.27 491.088c0-80.73-61.19-146.17-136.68-146.17s-136.68 65.44-136.68 146.17c-0.55 50.35 24.51 97.53 66.53 125.27h140.31c42.01-27.75 67.06-74.93 66.52-125.27z" fill="#EF7E20" /><path d="M781.76 631.538H641.45c-2.97 0-5.88-0.88-8.36-2.51-46.54-30.71-73.96-82.35-73.35-138.12 0-88.81 68.12-161.19 151.86-161.19 83.71 0 151.82 72.34 151.86 161.28 0.57 55.72-26.84 107.31-73.33 138.01a15.05 15.05 0 0 1-8.37 2.53z m-135.62-30.37h130.92c35.63-25.26 56.5-66.03 56.02-109.92v-0.16c0-72.22-54.5-130.98-121.49-130.98s-121.49 58.75-121.49 130.97c-0.48 44.08 20.4 84.85 56.04 110.09z m217.32-110.09h0.15-0.15z" fill="#363432" /><path d="M673.86 734.888h75.46l20.18-34.93H653.67l20.19 34.93z" fill="#EF7E20" /><path d="M749.32 750.078h-75.46c-5.42 0-10.43-2.89-13.15-7.59l-20.18-34.93a15.207 15.207 0 0 1-0.01-15.19c2.71-4.7 7.73-7.59 13.15-7.59H769.5c5.43 0 10.44 2.89 13.15 7.59 2.71 4.7 2.71 10.5-0.01 15.19l-20.18 34.93c-2.71 4.7-7.72 7.59-13.14 7.59z m-66.69-30.37h57.93l2.63-4.55H680l2.63 4.55z" fill="#363432" /><path d="M698.52 748.528h26.09l6.99-12.15h-40.06l6.98 12.15z" fill="#EF7E20" /><path d="M724.61 763.708h-26.09c-5.44 0-10.45-2.91-13.16-7.61l-6.99-12.15c-2.71-4.7-2.7-10.49 0.01-15.19 2.71-4.69 7.73-7.58 13.15-7.58h40.06c5.42 0 10.43 2.89 13.15 7.58 2.71 4.7 2.72 10.49 0.01 15.17l-6.99 12.15a15.108 15.108 0 0 1-13.15 7.63z" fill="#363432" /><path d="M808.41 488.038c1.83-55.33-41.49-101.68-96.81-103.6" fill="#EF7E20" /><path d="M808.42 495.638h-0.26a7.597 7.597 0 0 1-7.33-7.85c1.68-51.03-38.46-93.98-89.49-95.76a7.59 7.59 0 0 1-7.32-7.86c0.15-4.18 3.52-7.39 7.85-7.33 59.37 2.08 106.09 52.07 104.13 111.45-0.14 4.11-3.5 7.35-7.58 7.35z" fill="#363432" /><path d="M614.78 488.038c-0.4 35.65 17.33 69.07 47.08 88.73" fill="#EF7E20" /><path d="M661.85 584.368c-1.44 0-2.89-0.4-4.18-1.26-32.04-21.18-50.91-56.76-50.48-95.15 0.04-4.17 3.44-7.5 7.59-7.5h0.08c4.2 0.04 7.56 3.49 7.51 7.68-0.37 33.22 15.95 63.98 43.68 82.31 3.49 2.31 4.46 7.01 2.14 10.51a7.577 7.577 0 0 1-6.34 3.41z" fill="#363432" /><path d="M175.73 317.928h264.9v187.84h-264.9z" fill="#FFFBF1" /><path d="M440.62 520.968h-264.9c-8.39 0-15.19-6.79-15.19-15.19v-187.84c0-8.39 6.8-15.19 15.19-15.19h264.9c8.39 0 15.19 6.79 15.19 15.19v187.84c0 8.39-6.8 15.19-15.19 15.19z m-249.71-30.38h234.52v-157.47H190.91v157.47z" fill="#363432" /><path d="M451.62 584.648H181.94c-8.39 0-15.19-6.79-15.19-15.19 0-8.39 6.8-15.19 15.19-15.19h269.68c8.39 0 15.19 6.79 15.19 15.19-0.01 8.4-6.81 15.19-15.19 15.19zM451.62 652.988H181.94c-8.39 0-15.19-6.79-15.19-15.19 0-8.39 6.8-15.19 15.19-15.19h269.68c8.39 0 15.19 6.79 15.19 15.19-0.01 8.4-6.81 15.19-15.19 15.19zM711.63 859.308H316.78c-8.39 0-15.19-6.79-15.19-15.19v-122.8H181.94c-8.39 0-15.19-6.79-15.19-15.19 0-8.39 6.8-15.19 15.19-15.19h134.84c8.39 0 15.19 6.79 15.19 15.19v122.8h364.47v-86.45c0-8.39 6.8-15.19 15.19-15.19s15.19 6.79 15.19 15.19v101.63c-0.01 8.41-6.81 15.2-15.19 15.2z" fill="#363432" /><path d="M711.6 519.018c-21.16 0-38.37-17.22-38.37-38.38 0-21.16 17.22-38.38 38.37-38.38 21.16 0 38.37 17.22 38.37 38.38 0 21.17-17.22 38.38-38.37 38.38z m0-61.57c-12.78 0-23.19 10.41-23.19 23.19 0 12.78 10.4 23.19 23.19 23.19 12.78 0 23.19-10.41 23.19-23.19-0.01-12.78-10.41-23.19-23.19-23.19z" fill="#363432" /><path d="M711.6 623.948c-4.2 0-7.59-3.4-7.59-7.59v-104.94c0-4.2 3.4-7.59 7.59-7.59 4.2 0 7.59 3.4 7.59 7.59v104.94c0 4.19-3.4 7.59-7.59 7.59z" fill="#363432" /></svg>