<?xml version="1.0" standalone="no"?><!DOCTYPE svg PUBLIC "-//W3C//DTD SVG 1.1//EN" "http://www.w3.org/Graphics/SVG/1.1/DTD/svg11.dtd"><svg class="icon" width="200px" height="200.00px" viewBox="0 0 1024 1024" version="1.1" xmlns="http://www.w3.org/2000/svg"><path d="M278.228 512.008l233.754-233.754 233.753 233.754L511.982 745.76z" fill="#EF7E20" /><path d="M511.98 769.383c-6.26 0-12.27-2.49-16.69-6.92l-233.75-233.76c-4.43-4.43-6.92-10.44-6.92-16.69s2.49-12.27 6.92-16.69l233.75-233.74c9.22-9.22 24.17-9.22 33.39 0l233.75 233.74c4.43 4.43 6.92 10.44 6.92 16.69s-2.49 12.27-6.92 16.69l-233.75 233.76a23.649 23.649 0 0 1-16.7 6.92z m-200.36-257.38l200.36 200.37 200.36-200.37-200.36-200.35-200.36 200.35z" fill="#363432" /><path d="M571.825 338.061L822.273 87.614l114.09 114.09-250.447 250.448z" fill="#EF7E20" /><path d="M685.93 475.773c-6.04 0-12.08-2.31-16.69-6.92l-114.1-114.1c-9.22-9.22-9.22-24.17 0-33.39l250.45-250.45c9.22-9.22 24.17-9.22 33.39 0l114.1 114.1c9.22 9.22 9.22 24.17 0 33.39l-250.46 250.45c-4.61 4.62-10.65 6.92-16.69 6.92z m-80.71-137.71l80.71 80.71 217.06-217.06-80.71-80.71-217.06 217.06z" fill="#363432" /><path d="M873.77 287.933c-6.04 0-12.08-2.31-16.69-6.92l-114.1-114.1c-9.22-9.22-9.22-24.17 0-33.39s24.17-9.22 33.39 0l114.1 114.1c9.22 9.22 9.22 24.17 0 33.39-4.61 4.62-10.65 6.92-16.7 6.92zM811.15 350.543c-6.04 0-12.09-2.31-16.69-6.92l-114.08-114.09c-9.22-9.22-9.22-24.17 0-33.39s24.18-9.22 33.39 0l114.08 114.1c9.22 9.22 9.22 24.17 0 33.39-4.61 4.61-10.66 6.91-16.7 6.91z" fill="#363432" /><path d="M748.55 413.163c-6.04 0-12.08-2.31-16.69-6.92l-114.1-114.1c-9.22-9.22-9.22-24.17 0-33.39 9.22-9.22 24.17-9.22 33.39 0l114.1 114.1c9.22 9.22 9.22 24.17 0 33.39a23.574 23.574 0 0 1-16.7 6.92z" fill="#363432" /><path d="M87.614 822.282l250.448-250.448 114.09 114.09-250.448 250.449z" fill="#EF7E20" /><path d="M201.72 960.003c-6.26 0-12.27-2.49-16.69-6.92l-114.1-114.1c-9.22-9.22-9.22-24.17 0-33.39l250.44-250.45c8.85-8.85 24.53-8.85 33.39 0l114.1 114.1c9.22 9.22 9.22 24.17 0 33.39l-250.45 250.45a23.601 23.601 0 0 1-16.69 6.92z m-80.71-137.71l80.71 80.71 217.06-217.06-80.71-80.71-217.06 217.06z" fill="#363432" /><path d="M389.54 772.173c-6.04 0-12.08-2.31-16.69-6.92l-114.09-114.1c-9.22-9.22-9.22-24.17 0-33.39 9.22-9.22 24.17-9.22 33.39 0l114.09 114.1c9.22 9.22 9.22 24.17 0 33.39a23.532 23.532 0 0 1-16.7 6.92zM326.92 834.773c-6.04 0-12.09-2.31-16.69-6.92l-114.07-114.1c-9.22-9.22-9.22-24.17 0-33.39 9.22-9.22 24.18-9.22 33.39 0l114.07 114.1c9.22 9.22 9.22 24.17 0 33.39a23.574 23.574 0 0 1-16.7 6.92z" fill="#363432" /><path d="M264.32 897.403c-6.04 0-12.08-2.31-16.69-6.92l-114.1-114.1c-9.22-9.22-9.22-24.17 0-33.39 9.22-9.22 24.17-9.22 33.39 0l114.1 114.1c9.22 9.22 9.22 24.17 0 33.39a23.557 23.557 0 0 1-16.7 6.92z" fill="#363432" /><path d="M339.45 450.787l111.312-111.311 233.753 233.753L573.204 684.54z" fill="#E9E7DF" /><path d="M573.21 700.273c-4.03 0-8.06-1.54-11.13-4.61l-233.75-233.74c-6.15-6.15-6.15-16.11 0-22.26l111.31-111.31c5.9-5.9 16.36-5.9 22.26 0l233.75 233.76c2.95 2.95 4.61 6.95 4.61 11.13s-1.66 8.18-4.61 11.13l-111.31 111.3a15.72 15.72 0 0 1-11.13 4.6z m-211.49-249.48l211.49 211.48 89.05-89.04-211.49-211.5-89.05 89.06z" fill="#363432" /></svg>