<?xml version="1.0" standalone="no"?><!DOCTYPE svg PUBLIC "-//W3C//DTD SVG 1.1//EN" "http://www.w3.org/Graphics/SVG/1.1/DTD/svg11.dtd"><svg class="icon" width="200px" height="200.00px" viewBox="0 0 1024 1024" version="1.1" xmlns="http://www.w3.org/2000/svg"><path d="M86.78 231.416h850.44v561.17H86.78z" fill="#EF7E20" /><path d="M937.22 815.366H86.78c-12.58 0-22.78-10.2-22.78-22.78v-561.17c0-12.58 10.2-22.78 22.78-22.78h850.44c12.58 0 22.78 10.2 22.78 22.78v561.17c0 12.58-10.2 22.78-22.78 22.78z m-827.66-45.56h804.88v-515.61H109.56v515.61z" fill="#363432" /><path d="M741.98 332.326h104.21v104.21H741.98z" fill="#FFFBF1" /><path d="M846.19 451.726H741.98c-8.39 0-15.19-6.79-15.19-15.19v-104.2c0-8.39 6.8-15.19 15.19-15.19h104.21c8.39 0 15.19 6.79 15.19 15.19v104.2c0 8.39-6.8 15.19-15.19 15.19z m-89.02-30.38H831v-73.83h-73.83v73.83z" fill="#363432" /><path d="M442.82 640.066H169.71c-12.58 0-22.78-10.2-22.78-22.78 0-12.58 10.2-22.78 22.78-22.78h273.11c12.58 0 22.78 10.2 22.78 22.78 0 12.58-10.19 22.78-22.78 22.78z" fill="#363432" /><path d="M410.48 723.316H169.71c-12.58 0-22.78-10.2-22.78-22.78 0-12.58 10.2-22.78 22.78-22.78h240.77c12.58 0 22.78 10.2 22.78 22.78 0 12.57-10.2 22.78-22.78 22.78z" fill="#363432" /></svg>