<?xml version="1.0" standalone="no"?><!DOCTYPE svg PUBLIC "-//W3C//DTD SVG 1.1//EN" "http://www.w3.org/Graphics/SVG/1.1/DTD/svg11.dtd"><svg class="icon" width="200px" height="200.00px" viewBox="0 0 1024 1024" version="1.1" xmlns="http://www.w3.org/2000/svg"><path d="M549.588 87.043c17.68 0 32 190.27 32 424.96s-14.25 424.96-32 424.96" fill="#EF7E20" /><path d="M549.588 960.003c-12.72 0-23.03-10.32-23.03-23.03 0-7.18 3.28-13.59 8.44-17.82 9.92-27.41 23.57-169.09 23.57-407.16 0-227.98-13.34-378.68-23.6-407.17-5.13-4.23-8.4-10.62-8.4-17.79 0-12.72 10.31-23.03 23.03-23.03 25.97 0 36.21 21.07 45.6 145.78 6.09 80.82 9.44 188.15 9.44 302.21 0 114.18-3.34 221.51-9.41 302.23-9.38 124.71-19.62 145.78-45.64 145.78z m-0.05-46.07z m0.05-803.86h0.15-0.15z m-0.05 0z" fill="#363432" /><path d="M212.438 318.183h-41.29c-40.13 0.12-72.63 32.62-72.74 72.74v242.13c0.12 40.13 32.62 72.63 72.74 72.74h41.31" fill="#FFFBF1" /><path d="M212.458 728.823h-41.31c-52.7-0.15-95.63-43.09-95.78-95.71v-242.19c0.15-52.68 43.08-95.62 95.71-95.78h41.36c12.72 0 23.03 10.32 23.03 23.03s-10.31 23.03-23.03 23.03h-41.29c-27.3 0.07-49.63 22.4-49.71 49.77v242.07c0.07 27.29 22.4 49.62 49.77 49.7h41.24c12.72 0 23.03 10.32 23.03 23.03s-10.3 23.05-23.02 23.05zM682.538 718.763c-7.82 0-15.45-3.97-19.77-11.17-6.55-10.9-3.02-25.06 7.88-31.61 90.42-54.32 119.8-172.07 65.49-262.48-16.08-26.77-38.72-49.41-65.49-65.49-10.91-6.55-14.43-20.71-7.88-31.61 6.56-10.9 20.72-14.41 31.61-7.89 33.21 19.96 61.31 48.06 81.25 81.27 67.39 112.19 30.95 258.3-81.25 325.71a23.11 23.11 0 0 1-11.84 3.27z" fill="#363432" /><path d="M581.598 512.003c0-234.51-14.31-424.62-31.96-424.93-147.07 0.21-274.27 94.14-337.18 231.13-2.26 58.16-3.55 123.93-3.55 193.81s1.29 135.66 3.55 193.81c62.96 137 190.11 230.92 337.18 231.13 17.71-0.33 31.96-190.45 31.96-424.95z" fill="#EF7E20" /><path d="M550.088 960.003c-152.13-0.22-289.34-93.94-358.56-244.56-1.26-2.74-1.97-5.7-2.09-8.71-2.36-60.95-3.56-126.45-3.56-194.72s1.2-133.77 3.56-194.7c0.12-3.01 0.82-5.97 2.08-8.71 69.17-150.63 206.38-244.35 358.08-244.57 24.24 0.43 35.7 14.37 45.6 145.95 6.07 80.82 9.43 188.07 9.43 302.02 0 114.05-3.34 221.3-9.4 302.03-9.85 130.96-21.88 145.5-45.14 145.97z m-314.79-259.7c60.15 127.34 174.41 207.97 301.34 213.34 9.73-37.67 21.92-176.61 21.92-401.65 0-215.95-11.97-362.56-21.96-401.62-126.71 5.22-241.14 85.89-301.3 213.36-2.23 59.01-3.35 122.33-3.35 188.28-0.01 65.93 1.12 129.26 3.35 188.29z" fill="#363432" /><path d="M782.778 819.033c-7.04 0-14-3.22-18.52-9.31-7.57-10.21-5.44-24.64 4.78-32.23 70.92-52.59 117.12-129.65 130.07-216.97 12.96-87.34-8.86-174.49-61.46-245.4-19.41-26.17-42.49-49.26-68.61-68.61-10.22-7.57-12.36-22-4.79-32.23 7.57-10.21 22-12.37 32.22-4.78a375.992 375.992 0 0 1 78.18 78.18c123.7 166.81 88.62 403.14-78.18 526.83a22.88 22.88 0 0 1-13.69 4.52z" fill="#363432" /></svg>