<?xml version="1.0" standalone="no"?><!DOCTYPE svg PUBLIC "-//W3C//DTD SVG 1.1//EN" "http://www.w3.org/Graphics/SVG/1.1/DTD/svg11.dtd"><svg class="icon" width="200px" height="200.00px" viewBox="0 0 1024 1024" version="1.1" xmlns="http://www.w3.org/2000/svg"><path d="M814.563 643.005h3.3c65.59-0.19 118.71-53.31 118.9-118.9 0 0 42.79-71.31-336.35-71.31H85.803v71.31c0.19 63.65 50.33 115.94 113.91 118.8l122.59 0.1h369.63" fill="#EF7E20" /><path d="M814.563 664.795c-12.04 0-21.79-9.76-21.79-21.79s9.76-21.79 21.79-21.79h3.3c53.36-0.16 96.95-43.73 97.1-97.15 0.01-2.06 0.31-4.09 0.87-6.04-5.73-6.95-48.56-43.42-315.44-43.42h-492.8v49.52c0.16 52.03 41.06 94.67 93.1 97.03l491.23 0.07c12.04 0 21.79 9.76 21.79 21.79s-9.76 21.79-21.79 21.79l-492.23-0.1c-76.29-3.42-135.47-65.13-135.7-140.52v-71.39c0-12.03 9.76-21.79 21.79-21.79h514.6c316.42 0 344.77 50.07 354.08 66.52 6.41 11.31 6.45 22.49 4 30.78-2.41 75.43-64.62 136.29-140.56 136.5h-3.34z m103.51-151.89c-0.01 0-0.01 0.01-0.02 0.03 0-0.02 0.01-0.03 0.02-0.03z" fill="#363432" /><path d="M753.233 643.005m-61.3 0a61.3 61.3 0 1 0 122.6 0 61.3 61.3 0 1 0-122.6 0Z" fill="#FFFBF1" /><path d="M753.223 726.115c-45.82 0-83.09-37.28-83.09-83.11 0-45.82 37.28-83.09 83.09-83.09 45.82 0 83.1 37.28 83.1 83.09 0 45.83-37.27 83.11-83.1 83.11z m0-122.62c-21.78 0-39.5 17.72-39.5 39.5 0 21.79 17.72 39.52 39.5 39.52 21.79 0 39.51-17.72 39.51-39.52 0-21.77-17.72-39.5-39.51-39.5z" fill="#363432" /><path d="M605.163 531.475h-39.21c-8.02 0-14.53-6.5-14.53-14.53s6.51-14.53 14.53-14.53h39.21c8.02 0 14.53 6.5 14.53 14.53s-6.5 14.53-14.53 14.53z" fill="#363432" /><path d="M261.003 643.005m-61.3 0a61.3 61.3 0 1 0 122.6 0 61.3 61.3 0 1 0-122.6 0Z" fill="#FFFBF1" /><path d="M260.993 726.115c-45.82 0-83.09-37.28-83.09-83.11 0-45.82 37.28-83.09 83.09-83.09 45.82 0 83.1 37.28 83.1 83.09 0 45.83-37.27 83.11-83.1 83.11z m0-122.62c-21.78 0-39.5 17.72-39.5 39.5 0 21.79 17.72 39.52 39.5 39.52 21.79 0 39.51-17.72 39.51-39.52 0-21.77-17.72-39.5-39.51-39.5z" fill="#363432" /><path d="M341.323 531.475h-39.22c-8.02 0-14.53-6.5-14.53-14.53s6.51-14.53 14.53-14.53h39.22c8.02 0 14.53 6.5 14.53 14.53s-6.51 14.53-14.53 14.53z" fill="#363432" /><path d="M85.803 452.795v-14.21c0.19-65.59 53.31-118.71 118.9-118.9h350.55l133.02 133.02-602.47 0.09z" fill="#E9E7DF" /><path d="M85.793 474.585c-5.78 0-11.32-2.3-15.41-6.39a21.792 21.792 0 0 1-6.39-15.41v-14.2c0.23-77.37 63.31-140.46 140.63-140.7h350.61c5.78 0 11.32 2.3 15.41 6.39l133.03 133.03a21.788 21.788 0 0 1-15.4 37.2l-602.48 0.08z m21.8-21.79h0.14-0.14z m97.1-111.32c-50.78 0.16-92.72 39.64-96.79 89.52l527.75-0.07-89.44-89.45h-341.52z" fill="#363432" /><path d="M167.023 658.625h-81.23c-12.04 0-21.79-9.76-21.79-21.79s9.76-21.79 21.79-21.79h81.23c12.04 0 21.79 9.76 21.79 21.79s-9.75 21.79-21.79 21.79z" fill="#363432" /><path d="M938.203 664.795h-116.89c-12.04 0-21.79-9.76-21.79-21.79s9.76-21.79 21.79-21.79h116.89c12.04 0 21.79 9.76 21.79 21.79 0.01 12.03-9.75 21.79-21.79 21.79z" fill="#363432" /></svg>