<?xml version="1.0" standalone="no"?><!DOCTYPE svg PUBLIC "-//W3C//DTD SVG 1.1//EN" "http://www.w3.org/Graphics/SVG/1.1/DTD/svg11.dtd"><svg class="icon" width="200px" height="200.00px" viewBox="0 0 1024 1024" version="1.1" xmlns="http://www.w3.org/2000/svg"><path d="M454.282 718.855h-60.19c-11.91 0-21.56-9.65-21.56-21.56 0-11.91 9.65-21.56 21.56-21.56h60.19c11.91 0 21.56 9.65 21.56 21.56 0 11.91-9.65 21.56-21.56 21.56z" fill="#363432" /><path d="M279.442 697.285h-64.32v-122.98h478.32v122.98h-471.3" fill="#FFFBF1" /><path d="M693.442 718.855h-478.32c-11.91 0-21.56-9.65-21.56-21.56v-122.99c0-11.91 9.65-21.56 21.56-21.56h478.32c11.91 0 21.56 9.65 21.56 21.56v122.98c0.01 11.92-9.65 21.57-21.56 21.57z m-456.76-43.13h435.19v-79.85h-435.19v79.85z" fill="#363432" /><path d="M873.252 697.285h65.18v-328.88c-0.02-27.1-21.99-49.05-49.08-49.05h-146.81c-27.11 0-49.08 21.97-49.08 49.08v328.86h65.18" fill="#FFFBF1" /><path d="M758.642 718.865h-65.18c-11.91 0-21.56-9.65-21.56-21.56v-328.87c0-38.95 31.69-70.65 70.65-70.65h146.81c38.93 0 70.63 31.67 70.65 70.61v328.89c0 11.91-9.65 21.56-21.56 21.56h-65.18c-11.91 0-21.56-9.65-21.56-21.56 0-11.91 9.65-21.56 21.56-21.56h43.61v-307.32c-0.01-15.16-12.35-27.49-27.52-27.49h-146.82c-15.17 0-27.52 12.34-27.52 27.52v307.3h43.62c11.91 0 21.56 9.65 21.56 21.56 0.01 11.92-9.65 21.57-21.56 21.57z" fill="#363432" /><path d="M272.442 697.285m-57.32 0a57.32 57.32 0 1 0 114.64 0 57.32 57.32 0 1 0-114.64 0Z" fill="#E9E7DF" /><path d="M272.442 776.165c-43.5 0-78.89-35.39-78.89-78.88 0-43.5 35.39-78.89 78.89-78.89 43.49 0 78.88 35.39 78.88 78.89s-35.38 78.88-78.88 78.88z m0-114.64c-19.72 0-35.76 16.04-35.76 35.76 0 19.71 16.04 35.75 35.76 35.75 19.71 0 35.75-16.04 35.75-35.75 0-19.72-16.04-35.76-35.75-35.76z" fill="#363432" /><path d="M447.272 697.285m-57.32 0a57.32 57.32 0 1 0 114.64 0 57.32 57.32 0 1 0-114.64 0Z" fill="#E9E7DF" /><path d="M447.272 776.165c-43.49 0-78.88-35.39-78.88-78.88 0-43.5 35.39-78.89 78.88-78.89 43.5 0 78.89 35.39 78.89 78.89s-35.39 78.88-78.89 78.88z m0-114.64c-19.71 0-35.75 16.04-35.75 35.76 0 19.71 16.04 35.75 35.75 35.75 19.72 0 35.76-16.04 35.76-35.75 0-19.72-16.04-35.76-35.76-35.76z" fill="#363432" /><path d="M815.952 697.285m-57.32 0a57.32 57.32 0 1 0 114.64 0 57.32 57.32 0 1 0-114.64 0Z" fill="#E9E7DF" /><path d="M815.942 776.165c-43.49 0-78.88-35.39-78.88-78.88 0-43.5 35.39-78.89 78.88-78.89 43.5 0 78.89 35.39 78.89 78.89s-35.38 78.88-78.89 78.88z m0-114.64c-19.71 0-35.75 16.04-35.75 35.76 0 19.71 16.04 35.75 35.75 35.75 19.72 0 35.76-16.04 35.76-35.75 0-19.72-16.04-35.76-35.76-35.76z" fill="#363432" /><path d="M784.292 586.335h-36.68c-7.94 0-14.38-6.44-14.38-14.38s6.44-14.38 14.38-14.38h36.68c7.94 0 14.38 6.44 14.38 14.38s-6.44 14.38-14.38 14.38z" fill="#363432" /><path d="M747.612 382.785h137.09v137.09h-137.09z" fill="#EF7E20" /><path d="M884.712 534.255h-137.1c-7.94 0-14.38-6.44-14.38-14.38v-137.09c0-7.94 6.44-14.38 14.38-14.38h137.1c7.94 0 14.38 6.44 14.38 14.38v137.09c0 7.94-6.44 14.38-14.38 14.38z m-122.72-28.76h108.34v-108.33h-108.34v108.33zM693.442 423.515c-11.91 0-21.56-9.65-21.56-21.56v-132.56c0-11.91 9.65-21.56 21.56-21.56 11.91 0 21.56 9.65 21.56 21.56v132.55c0.01 11.92-9.65 21.57-21.56 21.57z" fill="#363432" /><path d="M693.442 574.305h-478.32c-118.71 0-129.56-254.95-129.56-254.95h607.88v254.95z" fill="#FFFBF1" /><path d="M693.442 595.875h-478.32c-137.78 0-150.62-264.34-151.1-275.6-0.25-5.88 1.91-11.6 5.97-15.84s9.69-6.64 15.57-6.64h607.88c11.91 0 21.56 9.65 21.56 21.56v254.95c0.01 11.92-9.65 21.57-21.56 21.57z m-584.78-254.95c6.83 74.93 34.24 211.82 106.46 211.82h456.76v-211.82h-563.22z" fill="#363432" /><path d="M243.662 526.375c-7.94 0-14.38-6.44-14.38-14.38v-121.3c0-7.94 6.44-14.38 14.38-14.38s14.38 6.44 14.38 14.38v121.3c0 7.94-6.44 14.38-14.38 14.38zM312.602 526.375c-7.94 0-14.38-6.44-14.38-14.38v-121.3c0-7.94 6.44-14.38 14.38-14.38s14.38 6.44 14.38 14.38v121.3c-0.01 7.94-6.44 14.38-14.38 14.38z" fill="#363432" /><path d="M381.532 526.375c-7.94 0-14.38-6.44-14.38-14.38v-121.3c0-7.94 6.44-14.38 14.38-14.38s14.38 6.44 14.38 14.38v121.3c0 7.94-6.44 14.38-14.38 14.38z" fill="#363432" /><path d="M450.482 526.375c-7.94 0-14.38-6.44-14.38-14.38v-121.3c0-7.94 6.44-14.38 14.38-14.38s14.38 6.44 14.38 14.38v121.3c0 7.94-6.44 14.38-14.38 14.38z" fill="#363432" /><path d="M519.412 526.375c-7.94 0-14.38-6.44-14.38-14.38v-121.3c0-7.94 6.44-14.38 14.38-14.38s14.38 6.44 14.38 14.38v121.3c0 7.94-6.44 14.38-14.38 14.38z" fill="#363432" /><path d="M588.352 526.375c-7.94 0-14.38-6.44-14.38-14.38v-121.3c0-7.94 6.44-14.38 14.38-14.38s14.38 6.44 14.38 14.38v121.3c-0.01 7.94-6.44 14.38-14.38 14.38z" fill="#363432" /></svg>