<?xml version="1.0" standalone="no"?><!DOCTYPE svg PUBLIC "-//W3C//DTD SVG 1.1//EN" "http://www.w3.org/Graphics/SVG/1.1/DTD/svg11.dtd"><svg class="icon" width="200px" height="200.00px" viewBox="0 0 1024 1024" version="1.1" xmlns="http://www.w3.org/2000/svg"><path d="M803.448 504.727v-118.49h-0.93c5.83-32.31-15.64-63.23-47.95-69.05a59.25 59.25 0 0 0-11.89-0.93h-568.81c-32.82-0.74-60.03 25.27-60.77 58.09-0.09 3.98 0.22 7.97 0.93 11.89h-0.93v280.04h796.57v-121.11l-106.22-40.44z" fill="#FFFBF1" /><path d="M909.658 688.377h-796.57c-12.21 0-22.1-9.9-22.1-22.1v-280.04c0-1.21 0.1-2.4 0.29-3.57-0.25-2.92-0.35-5.86-0.28-8.79 1-44.36 37.39-79.74 81.51-79.74 0.61 0 1.22 0 1.85 0.01h568.31c4.99-0.16 10.44 0.32 15.8 1.28 21.44 3.87 40.09 15.86 52.52 33.74 11.01 15.84 15.96 34.65 14.27 53.64 0.19 1.11 0.29 2.26 0.29 3.42v103.25l91.97 35.03c8.58 3.25 14.24 11.48 14.24 20.65v121.12c0 12.2-9.89 22.1-22.1 22.1z m-774.47-44.2h752.37v-83.78l-91.97-35.03c-8.58-3.25-14.24-11.48-14.24-20.65v-112.95c-0.9-3.05-1.15-6.27-0.58-9.45 3.65-20.26-9.86-39.71-30.13-43.36-2.47-0.45-5.01-0.7-7.49-0.59h-569.28c-0.29 0-0.59-0.01-0.88-0.01-20.68 0-37.34 16.21-37.8 36.52-0.05 2.49 0.14 5.01 0.58 7.47 0.63 3.45 0.41 6.96-0.58 10.24v251.59z" fill="#363432" /><path d="M313.788 666.287m-48.85 0a48.85 48.85 0 1 0 97.7 0 48.85 48.85 0 1 0-97.7 0Z" fill="#E9E7DF" /><path d="M313.788 729.877c-35.06 0-63.59-28.53-63.59-63.59s28.52-63.58 63.59-63.58 63.59 28.52 63.59 63.58c-0.01 35.06-28.53 63.59-63.59 63.59z m0-97.71c-18.81 0-34.12 15.31-34.12 34.11 0 18.82 15.31 34.13 34.12 34.13s34.12-15.31 34.12-34.13c0-18.8-15.31-34.11-34.12-34.11z" fill="#363432" /><path d="M799.618 666.287m-48.85 0a48.85 48.85 0 1 0 97.7 0 48.85 48.85 0 1 0-97.7 0Z" fill="#E9E7DF" /><path d="M799.618 729.877c-35.06 0-63.59-28.53-63.59-63.59s28.52-63.58 63.59-63.58 63.59 28.52 63.59 63.58-28.52 63.59-63.59 63.59z m0-97.71c-18.81 0-34.12 15.31-34.12 34.11 0 18.82 15.31 34.13 34.12 34.13s34.12-15.31 34.12-34.13c0-18.8-15.31-34.11-34.12-34.11z" fill="#363432" /><path d="M142.568 688.377h-56.47c-12.21 0-22.1-9.9-22.1-22.1s9.89-22.1 22.1-22.1h56.47c12.21 0 22.1 9.9 22.1 22.1s-9.89 22.1-22.1 22.1zM937.898 688.377h-56.47c-12.21 0-22.1-9.9-22.1-22.1s9.89-22.1 22.1-22.1h56.47c12.21 0 22.1 9.9 22.1 22.1s-9.89 22.1-22.1 22.1z" fill="#363432" /><path d="M114.348 381.627h83.34v109.64h-83.34z" fill="#EF7E20" /><path d="M197.688 505.997h-83.35c-8.14 0-14.73-6.59-14.73-14.73v-109.63c0-8.14 6.6-14.73 14.73-14.73h83.35c8.14 0 14.73 6.59 14.73 14.73v109.63c0.01 8.14-6.59 14.73-14.73 14.73z m-68.61-29.46h53.88v-80.17h-53.88v80.17z" fill="#363432" /><path d="M197.678 381.627h130.61v109.64h-130.61z" fill="#EF7E20" /><path d="M328.278 505.997h-130.6c-8.14 0-14.73-6.59-14.73-14.73v-109.63c0-8.14 6.6-14.73 14.73-14.73h130.6c8.14 0 14.73 6.59 14.73 14.73v109.63c0.01 8.14-6.59 14.73-14.73 14.73z m-115.87-29.46h101.14v-80.17h-101.14v80.17z" fill="#363432" /><path d="M328.278 381.627h130.61v109.64h-130.61z" fill="#EF7E20" /><path d="M458.888 505.997h-130.61c-8.14 0-14.73-6.59-14.73-14.73v-109.63c0-8.14 6.6-14.73 14.73-14.73h130.61c8.14 0 14.73 6.59 14.73 14.73v109.63c0.01 8.14-6.59 14.73-14.73 14.73z m-115.87-29.46h101.15v-80.17h-101.15v80.17z" fill="#363432" /><path d="M458.888 381.627h130.61v109.64h-130.61z" fill="#EF7E20" /><path d="M589.498 505.997h-130.6c-8.14 0-14.73-6.59-14.73-14.73v-109.63c0-8.14 6.6-14.73 14.73-14.73h130.6c8.14 0 14.73 6.59 14.73 14.73v109.63c0 8.14-6.6 14.73-14.73 14.73z m-115.87-29.46h101.14v-80.17h-101.14v80.17z" fill="#363432" /><path d="M589.498 381.627h130.61v109.64h-130.61z" fill="#EF7E20" /><path d="M720.108 505.997h-130.61c-8.14 0-14.73-6.59-14.73-14.73v-109.63c0-8.14 6.6-14.73 14.73-14.73h130.61c8.14 0 14.73 6.59 14.73 14.73v109.63c0 8.14-6.59 14.73-14.73 14.73z m-115.88-29.46h101.15v-80.17h-101.15v80.17z" fill="#363432" /><path d="M721.418 381.627h80.49v109.64h-80.49z" fill="#EF7E20" /><path d="M801.898 505.997h-80.48c-8.14 0-14.73-6.59-14.73-14.73v-109.63c0-8.14 6.6-14.73 14.73-14.73h80.48c8.14 0 14.73 6.59 14.73 14.73v109.63c0.01 8.14-6.59 14.73-14.73 14.73z m-65.75-29.46h51.02v-80.17h-51.02v80.17z" fill="#363432" /><path d="M643.668 570.037h-529.33c-8.14 0-14.73-6.59-14.73-14.73s6.6-14.73 14.73-14.73h529.33c8.14 0 14.73 6.59 14.73 14.73s-6.59 14.73-14.73 14.73z" fill="#363432" /></svg>