<?xml version="1.0" standalone="no"?><!DOCTYPE svg PUBLIC "-//W3C//DTD SVG 1.1//EN" "http://www.w3.org/Graphics/SVG/1.1/DTD/svg11.dtd"><svg class="icon" width="200px" height="200.00px" viewBox="0 0 1024 1024" version="1.1" xmlns="http://www.w3.org/2000/svg"><path d="M818.8 87.18H87.17v849.66h849.66V205.2L818.8 87.18z" fill="#E9E7DF" /><path d="M936.83 960H87.17C74.37 960 64 949.62 64 936.83V87.17C64 74.38 74.37 64 87.17 64H818.8c6.15 0 12.04 2.44 16.38 6.79l118.03 118.03A23.187 23.187 0 0 1 960 205.2v731.62c0 12.8-10.37 23.18-23.17 23.18z m-826.49-46.34h803.31V214.8L809.2 110.34H110.34v803.32z" fill="#363432" /><path d="M206.26 936.83V570.08c0-45.1 36.56-81.66 81.66-81.66H736c45.1 0 81.66 36.56 81.66 81.66v366.76h-611.4z" fill="#EF7E20" /><path d="M817.66 960h-611.4c-12.8 0-23.17-10.38-23.17-23.17V570.08c0-57.81 47.03-104.83 104.83-104.83H736c57.8 0 104.83 47.02 104.83 104.83v366.75c0 12.79-10.37 23.17-23.17 23.17z m-588.22-46.34h565.05V570.08c0-32.25-26.23-58.49-58.49-58.49H287.92c-32.25 0-58.49 26.23-58.49 58.49v343.58z" fill="#363432" /><path d="M701.2 87.18v206.13c0 36.51-29.6 66.1-66.1 66.1H272.35c-36.51 0-66.1-29.6-66.1-66.1V87.18H701.2z" fill="#FFFBF1" /><path d="M635.1 382.58H272.35c-49.23 0-89.27-40.04-89.27-89.27V87.17c0-12.79 10.37-23.17 23.17-23.17H701.2c12.8 0 23.17 10.38 23.17 23.17v206.14c0 49.23-40.05 89.27-89.27 89.27zM229.42 110.34v182.97c0 23.67 19.26 42.92 42.93 42.92H635.1c23.67 0 42.93-19.25 42.93-42.92V110.34H229.42z" fill="#363432" /><path d="M701.2 87.18v206.13c0 36.51-29.6 66.1-66.1 66.1H388.9c-36.51 0-66.1-29.6-66.1-66.1V87.18h378.4z" fill="#EF7E20" /><path d="M635.1 382.58H388.9c-49.23 0-89.28-40.04-89.28-89.27V87.17c0-12.79 10.37-23.17 23.17-23.17H701.2c12.8 0 23.17 10.38 23.17 23.17v206.14c0 49.23-40.05 89.27-89.27 89.27zM345.96 110.34v182.97c0 23.67 19.26 42.92 42.94 42.92h246.2c23.67 0 42.93-19.25 42.93-42.92V110.34H345.96z" fill="#363432" /><path d="M585.89 290.19c-12.8 0-23.17-10.38-23.17-23.17V165.09c0-12.79 10.37-23.17 23.17-23.17 12.8 0 23.17 10.38 23.17 23.17v101.92c0 12.8-10.37 23.18-23.17 23.18z" fill="#363432" /><path d="M723.44 727.16h-422.9c-8.53 0-15.45-6.91-15.45-15.45s6.92-15.45 15.45-15.45h422.9c8.53 0 15.45 6.91 15.45 15.45s-6.92 15.45-15.45 15.45zM723.44 848.02h-422.9c-8.53 0-15.45-6.91-15.45-15.45s6.92-15.45 15.45-15.45h422.9c8.53 0 15.45 6.91 15.45 15.45s-6.92 15.45-15.45 15.45zM723.44 606.29h-422.9c-8.53 0-15.45-6.91-15.45-15.45s6.92-15.45 15.45-15.45h422.9c8.53 0 15.45 6.91 15.45 15.45s-6.92 15.45-15.45 15.45z" fill="#363432" /></svg>