<?xml version="1.0" standalone="no"?><!DOCTYPE svg PUBLIC "-//W3C//DTD SVG 1.1//EN" "http://www.w3.org/Graphics/SVG/1.1/DTD/svg11.dtd"><svg class="icon" width="200px" height="200.00px" viewBox="0 0 1024 1024" version="1.1" xmlns="http://www.w3.org/2000/svg"><path d="M937.728 846.849H86.258c-8.2 0-14.84-6.64-14.84-14.84s6.64-14.84 14.84-14.84h851.46c8.2 0 14.84 6.64 14.84 14.84s-6.64 14.84-14.83 14.84z" fill="#363432" /><path d="M242.398 769.389m-62.61 0a62.61 62.61 0 1 0 125.22 0 62.61 62.61 0 1 0-125.22 0Z" fill="#E9E7DF" /><path d="M242.398 846.849c-42.71 0-77.46-34.75-77.46-77.46 0-42.71 34.75-77.45 77.46-77.45 42.7 0 77.45 34.74 77.45 77.45 0 42.7-34.75 77.46-77.45 77.46z m0-125.23c-26.34 0-47.77 21.43-47.77 47.77 0 26.35 21.43 47.78 47.77 47.78s47.77-21.43 47.77-47.78c0-26.34-21.43-47.77-47.77-47.77z" fill="#363432" /><path d="M781.598 769.389m-62.61 0a62.61 62.61 0 1 0 125.22 0 62.61 62.61 0 1 0-125.22 0Z" fill="#E9E7DF" /><path d="M781.608 846.849c-42.71 0-77.46-34.75-77.46-77.46 0-42.71 34.75-77.45 77.46-77.45 42.7 0 77.45 34.74 77.45 77.45-0.01 42.7-34.75 77.46-77.45 77.46z m0-125.23c-26.34 0-47.77 21.43-47.77 47.77 0 26.35 21.43 47.78 47.77 47.78s47.77-21.43 47.77-47.78c-0.01-26.34-21.43-47.77-47.77-47.77z" fill="#363432" /><path d="M800.928 340.409h-577.86c-75.56 0-136.81 61.25-136.81 136.81v286.76h851.48v-286.75c-0.01-75.56-61.26-136.81-136.81-136.82z" fill="#E9E7DF" /><path d="M937.738 786.249H86.258c-12.3 0-22.26-9.97-22.26-22.26v-286.76c0-87.71 71.36-159.07 159.07-159.07h577.85c87.71 0 159.07 71.36 159.08 159.07v286.76c0 12.29-9.96 22.26-22.26 22.26z m-829.22-44.52h806.96v-264.5c-0.01-63.16-51.4-114.55-114.56-114.55h-577.85c-63.17 0-114.55 51.39-114.55 114.55v264.5z" fill="#363432" /><path d="M656.688 355.249c-3.75 0-7.51-1.41-10.39-4.25-1.28-1.23-129.8-124.49-385.86-144.19-8.17-0.62-14.29-7.77-13.66-15.94 0.63-8.17 7.89-14.43 15.93-13.65 267.6 20.58 398.94 147.24 404.41 152.64 5.83 5.74 5.9 15.12 0.16 20.96a14.833 14.833 0 0 1-10.59 4.43z" fill="#363432" /><path d="M380.688 462.579h133.67v110.44h-133.67z" fill="#EF7E20" /><path d="M514.358 580.449h-133.67c-4.1 0-7.42-3.32-7.42-7.42v-110.45c0-4.1 3.32-7.42 7.42-7.42h133.66c4.1 0 7.42 3.32 7.42 7.42v110.45c0.01 4.1-3.31 7.42-7.41 7.42z m-126.25-14.84h118.82v-95.61h-118.82v95.61z" fill="#363432" /><path d="M514.358 462.579h133.67v110.44h-133.67z" fill="#EF7E20" /><path d="M648.028 580.449h-133.67c-4.1 0-7.42-3.32-7.42-7.42v-110.45c0-4.1 3.32-7.42 7.42-7.42h133.67c4.1 0 7.42 3.32 7.42 7.42v110.45c0 4.1-3.32 7.42-7.42 7.42z m-126.25-14.84h118.83v-95.61h-118.83v95.61z" fill="#363432" /><path d="M900.818 462.579h-29.09c-19.39 0-35.11 15.72-35.11 35.11v40.22c-0.01 19.39 15.71 35.12 35.1 35.13h66v-110.46h-36.9z" fill="#EF7E20" /><path d="M937.728 580.459h-66c-23.46-0.01-42.54-19.1-42.53-42.55v-40.22c0-23.45 19.08-42.54 42.53-42.54h66c4.1 0 7.42 3.32 7.42 7.42v110.46a7.42 7.42 0 0 1-7.42 7.43z m-66-110.46c-15.27 0-27.69 12.42-27.69 27.7v40.22c-0.01 15.28 12.41 27.7 27.68 27.71h58.59v-95.62h-58.58z" fill="#363432" /><path d="M99.038 573.039h29.12c19.39-0.01 35.11-15.74 35.1-35.13v-40.22c0-19.39-15.72-35.11-35.11-35.11h-41.87v110.46h12.76z" fill="#EF7E20" /><path d="M128.158 580.459h-41.88c-4.1 0-7.42-3.32-7.42-7.42v-110.46c0-4.1 3.32-7.42 7.42-7.42h41.86c23.46 0 42.54 19.09 42.54 42.54v40.22c0 23.44-19.07 42.53-42.52 42.54z m-34.46-14.84h34.46c15.27-0.01 27.69-12.43 27.68-27.71v-40.22c0-15.28-12.43-27.7-27.7-27.7h-34.44v95.63z" fill="#363432" /><path d="M86.258 614.959h851.46v149.03H86.258z" fill="#FFFBF1" /><path d="M937.728 778.829H86.258c-8.2 0-14.84-6.64-14.84-14.84v-149.02c0-8.2 6.64-14.84 14.84-14.84h851.46c8.2 0 14.84 6.64 14.84 14.84v149.03c0.01 8.2-6.64 14.83-14.83 14.83z m-836.63-29.68h821.79v-119.34h-821.79v119.34z" fill="#363432" /><path d="M295.138 462.579h-46.35c-21.84 0.01-39.53 17.71-39.53 39.55v261.84h125.45v-261.84c0.01-21.83-17.69-39.54-39.52-39.55h-0.05z" fill="#E9E7DF" /><path d="M334.698 771.399h-125.44c-4.1 0-7.42-3.32-7.42-7.42v-261.85c0-25.88 21.06-46.96 46.94-46.97h46.4c25.89 0.01 46.95 21.09 46.94 46.97v261.85c0 4.1-3.32 7.42-7.42 7.42z m-118.02-14.84h110.6v-254.43c0.01-17.71-14.4-32.12-32.11-32.13l-0.04-7.42v7.42h-46.34c-17.7 0.01-32.11 14.42-32.11 32.13v254.43z" fill="#363432" /><path d="M765.498 462.579h-46.35c-21.84 0-39.55 17.71-39.55 39.55v261.84h125.45v-261.84c0-21.84-17.7-39.55-39.55-39.55z" fill="#E9E7DF" /><path d="M805.058 771.399h-125.45c-4.1 0-7.42-3.32-7.42-7.42v-261.85c0-25.9 21.07-46.97 46.97-46.97h46.35c25.9 0 46.97 21.07 46.97 46.97v261.85c0 4.1-3.32 7.42-7.42 7.42z m-118.03-14.84h110.61v-254.43c0-17.71-14.41-32.13-32.13-32.13h-46.35c-17.72 0-32.13 14.42-32.13 32.13v254.43z" fill="#363432" /><path d="M308.868 622.389h-20.02c-4.1 0-7.42-3.32-7.42-7.42s3.32-7.42 7.42-7.42h20.02c4.1 0 7.42 3.32 7.42 7.42s-3.32 7.42-7.42 7.42z" fill="#363432" /><path d="M779.228 622.389h-20.04c-4.1 0-7.42-3.32-7.42-7.42s3.32-7.42 7.42-7.42h20.04c4.1 0 7.42 3.32 7.42 7.42s-3.32 7.42-7.42 7.42z" fill="#363432" /><path d="M271.968 526.789m-26.88 0a26.88 26.88 0 1 0 53.76 0 26.88 26.88 0 1 0-53.76 0Z" fill="#E9E7DF" /><path d="M271.968 561.079c-18.91 0-34.3-15.38-34.3-34.29 0-18.91 15.38-34.3 34.3-34.3 18.91 0 34.3 15.39 34.3 34.3 0 18.92-15.39 34.29-34.3 34.29z m0-53.75c-10.73 0-19.46 8.72-19.46 19.46 0 10.72 8.72 19.45 19.46 19.45 10.73 0 19.46-8.72 19.46-19.45 0-10.73-8.73-19.46-19.46-19.46z" fill="#363432" /><path d="M742.338 526.789m-26.88 0a26.88 26.88 0 1 0 53.76 0 26.88 26.88 0 1 0-53.76 0Z" fill="#E9E7DF" /><path d="M742.338 561.079c-18.91 0-34.3-15.38-34.3-34.29 0-18.91 15.38-34.3 34.3-34.3s34.3 15.39 34.3 34.3c0 18.92-15.39 34.29-34.3 34.29z m0-53.75c-10.73 0-19.46 8.72-19.46 19.46 0 10.72 8.72 19.45 19.46 19.45 10.73 0 19.46-8.72 19.46-19.45 0-10.73-8.73-19.46-19.46-19.46z" fill="#363432" /></svg>