<?xml version="1.0" standalone="no"?><!DOCTYPE svg PUBLIC "-//W3C//DTD SVG 1.1//EN" "http://www.w3.org/Graphics/SVG/1.1/DTD/svg11.dtd"><svg class="icon" width="200px" height="200.00px" viewBox="0 0 1024 1024" version="1.1" xmlns="http://www.w3.org/2000/svg"><path d="M660.646 314.555l-291.87-2.94c-128.75-0.87-234.05 102.36-235.75 231.1l-0.77 75.53c-0.89 128.76 102.35 234.08 231.1 235.75l291.88 2.95c128.76 0.89 234.08-102.35 235.75-231.1l0.77-75.53c0.88-128.76-102.36-234.08-231.11-235.76z" fill="#E9E7DF" /><path d="M656.866 871.665h-1.74l-291.93-2.94c-136.43-1.78-246.62-114.19-245.68-250.59l0.76-75.57c1.79-135.85 113.29-245.7 248.9-245.7h1.68l291.93 2.95h0.04c136.39 1.77 246.58 114.18 245.64 250.59l-0.76 75.57c-1.76 135.86-113.22 245.69-248.84 245.69z m-289.73-545.32c-119.52 0-217.81 96.84-219.38 216.57l-0.76 75.47c-0.83 120.21 96.31 219.31 216.56 220.87l291.83 2.94h1.53c119.52 0 217.77-96.81 219.33-216.54l0.76-75.49c0.83-120.21-96.31-219.32-216.56-220.87l-291.83-2.95h-1.48z" fill="#363432" /><path d="M511.966 290.615c-71.6 0-129.86-50.84-129.86-113.31s58.26-113.3 129.86-113.3 129.86 50.82 129.86 113.3-58.26 113.31-129.86 113.31z m0-182.41c-47.23 0-85.65 30.99-85.65 69.1s38.43 69.11 85.65 69.11 85.65-31.01 85.65-69.11-38.43-69.1-85.65-69.1z" fill="#363432" /><path d="M523.016 177.305h-22.1c-161.87 0.47-292.98 131.57-293.47 293.44v133.16c0.45 161.89 131.57 293.03 293.47 293.5h22.1c161.88-0.47 293-131.58 293.47-293.47v-133.19c-0.49-161.87-131.6-292.97-293.47-293.44z" fill="#EF7E20" /><path d="M500.916 919.495c-173.55-0.49-315.08-142.04-315.57-315.54v-133.22c0.52-173.5 142.05-315.04 315.5-315.54h22.23c173.45 0.5 314.98 142.04 315.5 315.47v133.26c-0.5 173.53-142.04 315.08-315.5 315.57h-22.16z m0-720.09c-149.16 0.43-270.92 122.19-271.37 271.41v133.09c0.42 149.2 122.18 270.98 271.43 271.39h22.04c149.17-0.42 270.93-122.19 271.37-271.42v-133.14c-0.46-149.14-122.22-270.9-271.44-271.33h-22.03z" fill="#363432" /><path d="M519.916 349.595h-15.91c-116.5 0.34-210.85 94.69-211.19 211.19v135.12c0.34 116.5 94.69 210.85 211.19 211.19h15.91c116.5-0.34 210.85-94.69 211.19-211.19v-135.12c-0.34-116.49-94.69-210.85-211.19-211.19z" fill="#FFFBF1" /><path d="M504.006 921.825c-124.24-0.37-225.56-101.7-225.92-225.88v-135.16c0.36-124.22 101.69-225.55 225.88-225.92h16c124.19 0.37 225.52 101.7 225.88 225.88v135.16c-0.36 124.22-101.69 225.55-225.88 225.92h-15.96z m0-557.49c-107.99 0.32-196.14 88.46-196.46 196.5v135.07c0.32 107.99 88.46 196.14 196.5 196.46h15.87c107.99-0.32 196.14-88.46 196.46-196.5v-135.08c-0.32-107.99-88.46-196.14-196.5-196.46h-15.87z" fill="#363432" /><path d="M207.446 584.195v207.58c0 80.7 136.34 146.12 304.52 146.12s304.52-65.42 304.52-146.12v-207.58h-609.04z" fill="#EF7E20" /><path d="M511.966 959.995c-183.15 0-326.62-73.89-326.62-168.22v-207.58c0-12.2 9.89-22.1 22.1-22.1h609.04c12.21 0 22.1 9.9 22.1 22.1v207.58c0 94.34-143.47 168.22-326.62 168.22z m-282.42-353.7v185.48c0 58.66 115.98 124.02 282.42 124.02s282.41-65.35 282.41-124.02v-185.48h-564.83z" fill="#363432" /><path d="M731.116 686.545h-438.3c-8.14 0-14.73-6.59-14.73-14.73s6.6-14.73 14.73-14.73h438.29c8.14 0 14.73 6.59 14.73 14.73s-6.59 14.73-14.72 14.73z" fill="#363432" /><path d="M342.516 739.945c-8.14 0-14.73-6.59-14.73-14.73v-53.4c0-8.14 6.6-14.73 14.73-14.73s14.73 6.59 14.73 14.73v53.4c0.01 8.14-6.59 14.73-14.73 14.73z" fill="#363432" /><path d="M410.046 443.855h203.82v60.15h-203.82z" fill="#EF7E20" /><path d="M613.866 511.355h-203.82a7.37 7.37 0 0 1-7.37-7.37v-60.13c0-4.07 3.3-7.37 7.37-7.37h203.82c4.07 0 7.37 3.3 7.37 7.37v60.13c0 4.08-3.3 7.37-7.37 7.37z m-196.45-14.73h189.09v-45.4h-189.09v45.4z" fill="#363432" /></svg>