<?xml version="1.0" standalone="no"?><!DOCTYPE svg PUBLIC "-//W3C//DTD SVG 1.1//EN" "http://www.w3.org/Graphics/SVG/1.1/DTD/svg11.dtd"><svg class="icon" width="200px" height="200.00px" viewBox="0 0 1024 1024" version="1.1" xmlns="http://www.w3.org/2000/svg"><path d="M512.005 101.302c-235.23 0-426.58 148.89-426.58 331.9 0 90.59 46.66 175.4 131.37 238.86a31.609 31.609 0 0 1 12.61 25.35c-0.5 120.64 73.15 189.82 130.29 225.29-15.26-58.37 5.99-120.19 53.92-156.84a31.093 31.093 0 0 1 23.56-6.21c24.79 3.56 49.79 5.39 74.84 5.47 235.22 0 426.58-148.87 426.58-331.9s-191.38-331.92-426.59-331.92z" fill="#FFFBF1" /><path d="M359.685 944.112c-3.91 0-7.82-1.07-11.29-3.22-64.35-39.94-140.96-114.61-140.42-243.56 0.01-3.18-1.51-6.23-4.05-8.14-90.23-67.59-139.92-158.5-139.92-255.97 0-194.81 200.97-353.32 448-353.32s448 158.5 448 353.33c0 194.81-200.97 353.3-448 353.3-26.01-0.07-52.19-1.98-77.89-5.69-2.6-0.32-5.3 0.32-7.38 1.95-41.3 31.58-59.44 84.33-46.32 134.48 2.22 8.48-0.96 17.46-8 22.66a21.528 21.528 0 0 1-12.73 4.18z m152.32-821.39c-223.41 0-405.16 139.27-405.16 310.48 0 83.65 43.61 162.38 122.79 221.71 13.32 10 21.23 25.91 21.18 42.54-0.36 84.92 39.2 142.29 82.7 179.67 2.18-49.74 26.06-96.93 67.08-128.29 11.11-8.62 25.6-12.42 39.64-10.4 23.7 3.42 47.87 5.17 71.83 5.24 223.34 0 405.1-139.27 405.1-310.47 0-171.19-181.76-310.48-405.16-310.48z" fill="#363432" /><path d="M583.395 548.462h-142.79c-10.84 0.03-19.62 8.81-19.65 19.65 0.03 10.84 8.81 19.62 19.65 19.65h142.79c10.84-0.03 19.62-8.81 19.65-19.65-0.03-10.84-8.81-19.62-19.65-19.65z" fill="#EF7E20" /><path d="M440.605 602.032c-18.68-0.04-33.88-15.25-33.93-33.88 0.05-18.7 15.24-33.9 33.87-33.97h142.9c18.63 0.07 33.82 15.27 33.87 33.88-0.05 18.71-15.25 33.93-33.89 33.97h-142.82z m0-39.3c-2.93 0.01-5.36 2.44-5.37 5.41 0.01 2.9 2.43 5.31 5.4 5.33h142.75c2.94-0.01 5.36-2.43 5.37-5.41-0.01-2.89-2.44-5.31-5.42-5.33h-142.73z" fill="#363432" /><path d="M570.885 587.752h-117.77c-10.84 0.03-19.62 8.81-19.65 19.65 0.03 10.84 8.81 19.62 19.65 19.65h117.77c10.84-0.03 19.62-8.81 19.65-19.65-0.03-10.84-8.81-19.61-19.65-19.65z" fill="#EF7E20" /><path d="M453.115 641.322c-18.68-0.04-33.88-15.26-33.93-33.88 0.05-18.7 15.24-33.9 33.87-33.97h117.89c18.63 0.07 33.82 15.27 33.87 33.88-0.05 18.71-15.25 33.93-33.89 33.97h-117.81z m0-39.29c-2.93 0.01-5.36 2.44-5.37 5.41 0.01 2.9 2.43 5.31 5.4 5.33h117.74c2.94-0.01 5.36-2.43 5.37-5.41-0.01-2.89-2.44-5.31-5.42-5.33h-117.72z" fill="#363432" /><path d="M640.505 430.672c0-75.91-57.53-137.43-128.51-137.43s-128.51 61.53-128.51 137.43c-0.51 47.34 23.05 91.7 62.56 117.79h131.92c39.5-26.09 63.06-70.45 62.54-117.79z" fill="#EF7E20" /><path d="M577.975 562.732h-131.93c-2.8 0-5.53-0.82-7.86-2.36-43.76-28.89-69.54-77.43-68.97-129.86 0-83.5 64.05-151.56 142.79-151.56 78.71 0 142.75 68.02 142.79 151.64 0.54 52.39-25.23 100.9-68.95 129.76a14.184 14.184 0 0 1-7.87 2.38z m-127.52-28.55h123.1c33.5-23.75 53.12-62.08 52.67-103.35v-0.15c0-67.91-51.24-123.16-114.23-123.16s-114.23 55.24-114.23 123.15c-0.45 41.43 19.18 79.76 52.69 103.51z m204.33-103.51h0.14-0.14z" fill="#363432" /><path d="M476.515 659.912h70.97l18.98-32.84h-108.92l18.97 32.84z" fill="#EF7E20" /><path d="M547.485 674.192h-70.96c-5.1 0-9.81-2.72-12.36-7.14l-18.98-32.85a14.27 14.27 0 0 1 12.36-21.42h108.92c5.1 0 9.82 2.72 12.37 7.14 2.55 4.42 2.54 9.86-0.01 14.28l-18.98 32.85a14.278 14.278 0 0 1-12.36 7.14z m-62.73-28.56h54.48l2.48-4.29h-59.44l2.48 4.29z" fill="#363432" /><path d="M499.705 672.742h24.59l6.57-11.42h-37.72l6.56 11.42z" fill="#EF7E20" /><path d="M524.295 687.022h-24.58c-5.11 0-9.83-2.73-12.38-7.17l-6.57-11.42c-2.54-4.41-2.54-9.84 0.01-14.26 2.55-4.41 7.26-7.13 12.36-7.13h37.72c5.1 0 9.81 2.72 12.36 7.13 2.55 4.42 2.56 9.86 0.01 14.26l-6.57 11.42a14.216 14.216 0 0 1-12.36 7.17z" fill="#363432" /><path d="M603.025 427.752c1.65-51.97-39.06-95.49-91.03-97.3" fill="#EF7E20" /><path d="M603.035 434.882h-0.24c-3.94-0.13-7.03-3.43-6.9-7.36 1.52-47.93-36.23-88.27-84.14-89.93a7.136 7.136 0 0 1-6.89-7.39c0.14-3.93 3.56-6.62 7.38-6.89 55.77 1.94 99.69 48.87 97.92 104.65a7.144 7.144 0 0 1-7.13 6.92z" fill="#363432" /><path d="M420.975 427.752a98.722 98.722 0 0 0 44.26 83.43" fill="#EF7E20" /><path d="M465.235 518.322a7.04 7.04 0 0 1-3.93-1.19c-30.13-19.91-47.87-53.36-47.47-89.48 0.03-3.95 3.42-7.56 7.22-7.06 3.95 0.04 7.1 3.28 7.06 7.22-0.35 31.24 15 60.17 41.07 77.4 3.28 2.18 4.19 6.6 2.01 9.89a7.132 7.132 0 0 1-5.96 3.22z" fill="#363432" /><path d="M512.005 456.932c-19.89 0-36.08-16.19-36.08-36.07 0-19.9 16.19-36.09 36.08-36.09 19.89 0 36.08 16.19 36.08 36.09 0 19.88-16.19 36.07-36.08 36.07z m0-57.89c-12.02 0-21.8 9.79-21.8 21.81s9.78 21.79 21.8 21.79c12.02 0 21.8-9.77 21.8-21.79s-9.79-21.81-21.8-21.81z" fill="#363432" /><path d="M512.005 555.592c-3.95 0-7.14-3.19-7.14-7.14v-98.67c0-3.95 3.19-7.14 7.14-7.14s7.14 3.19 7.14 7.14v98.67c-0.01 3.95-3.2 7.14-7.14 7.14z" fill="#363432" /><path d="M328.155 427.992h-40.45c-3.95 0-7.14-3.19-7.14-7.14 0-3.95 3.19-7.14 7.14-7.14h40.45c3.95 0 7.14 3.19 7.14 7.14 0 3.95-3.19 7.14-7.14 7.14zM736.295 427.992h-40.45c-3.95 0-7.14-3.19-7.14-7.14 0-3.95 3.19-7.14 7.14-7.14h40.45c3.95 0 7.14 3.19 7.14 7.14 0 3.95-3.2 7.14-7.14 7.14z" fill="#363432" /><path d="M353.405 586.592a7.14 7.14 0 0 1-5.05-12.19l28.6-28.61a7.14 7.14 0 0 1 10.1 0 7.14 7.14 0 0 1 0 10.1l-28.6 28.61a7.1 7.1 0 0 1-5.05 2.09zM641.995 297.992a7.14 7.14 0 0 1-5.05-12.19l28.6-28.6a7.14 7.14 0 0 1 10.1 0 7.14 7.14 0 0 1 0 10.1l-28.6 28.6a7.142 7.142 0 0 1-5.05 2.09z" fill="#363432" /><path d="M512.005 244.152c-3.95 0-7.14-3.19-7.14-7.14v-40.45c0-3.95 3.19-7.14 7.14-7.14s7.14 3.19 7.14 7.14v40.45c-0.01 3.95-3.2 7.14-7.14 7.14z" fill="#363432" /><path d="M670.595 586.592c-1.83 0-3.65-0.7-5.05-2.09l-28.6-28.61a7.14 7.14 0 0 1 0-10.1 7.14 7.14 0 0 1 10.1 0l28.6 28.61a7.14 7.14 0 0 1 0 10.1 7.1 7.1 0 0 1-5.05 2.09zM382.005 297.992c-1.83 0-3.65-0.7-5.05-2.09l-28.6-28.6a7.14 7.14 0 0 1 0-10.1 7.14 7.14 0 0 1 10.1 0l28.6 28.6a7.14 7.14 0 0 1-5.05 12.19z" fill="#363432" /></svg>