<?xml version="1.0" standalone="no"?><!DOCTYPE svg PUBLIC "-//W3C//DTD SVG 1.1//EN" "http://www.w3.org/Graphics/SVG/1.1/DTD/svg11.dtd"><svg class="icon" width="200px" height="200.00px" viewBox="0 0 1024 1024" version="1.1" xmlns="http://www.w3.org/2000/svg"><path d="M87.72 757.063L757.2 87.58l179.08 179.08L266.8 936.143z" fill="#E9E7DF" /><path d="M266.794 959.865c-6.29 0-12.32-2.5-16.77-6.95l-179.08-179.09c-9.26-9.26-9.26-24.27 0-33.54l669.49-669.48c8.89-8.89 24.64-8.89 33.54 0l179.08 179.09c9.26 9.26 9.26 24.27 0 33.54l-669.49 669.48a23.68 23.68 0 0 1-16.77 6.95z m-145.54-202.81l145.54 145.55 635.95-635.95-145.54-145.54-635.95 635.94z" fill="#363432" /><path d="M762.994 276.665c-4.05 0-8.09-1.54-11.18-4.63l-89.54-89.54c-6.18-6.18-6.18-16.18 0-22.36s16.18-6.18 22.36 0l89.54 89.54c6.18 6.18 6.18 16.18 0 22.36a15.764 15.764 0 0 1-11.18 4.63zM641.204 322.385c-4.05 0-8.09-1.54-11.18-4.63l-51.5-51.51c-6.18-6.18-6.18-16.18 0-22.36s16.18-6.18 22.36 0l51.5 51.51c6.18 6.18 6.18 16.18 0 22.36a15.73 15.73 0 0 1-11.18 4.63zM595.494 444.155c-4.05 0-8.09-1.54-11.18-4.63l-89.54-89.54c-6.18-6.18-6.18-16.18 0-22.36s16.18-6.18 22.36 0l89.54 89.54c6.18 6.18 6.18 16.18 0 22.36a15.748 15.748 0 0 1-11.18 4.63zM473.704 489.885c-4.05 0-8.09-1.54-11.18-4.63l-51.5-51.5c-6.18-6.18-6.18-16.18 0-22.36s16.18-6.18 22.36 0l51.5 51.5c6.18 6.18 6.18 16.18 0 22.36a15.807 15.807 0 0 1-11.18 4.63zM428.004 611.665c-4.05 0-8.09-1.54-11.18-4.63l-89.54-89.53c-6.18-6.18-6.18-16.18 0-22.36s16.18-6.18 22.36 0l89.54 89.53c6.18 6.18 6.18 16.18 0 22.36a15.748 15.748 0 0 1-11.18 4.63zM306.204 657.375c-4.05 0-8.09-1.54-11.18-4.63l-51.5-51.5c-6.18-6.18-6.18-16.18 0-22.36s16.18-6.18 22.36 0l51.5 51.5c6.18 6.18 6.18 16.18 0 22.36a15.807 15.807 0 0 1-11.18 4.63z" fill="#363432" /><path d="M260.504 779.155c-4.05 0-8.09-1.54-11.18-4.63l-89.54-89.53c-6.18-6.18-6.18-16.18 0-22.36s16.18-6.18 22.36 0l89.54 89.53c6.18 6.18 6.18 16.18 0 22.36a15.748 15.748 0 0 1-11.18 4.63z" fill="#363432" /><path d="M138.034 137.885l57.42 214.27 533.63 533.66 156.88-156.86-533.67-533.64-214.26-57.43z" fill="#E9E7DF" /><path d="M729.094 909.545c-6.29 0-12.32-2.5-16.77-6.95l-533.63-533.67a23.74 23.74 0 0 1-6.14-10.62l-57.43-214.28c-2.19-8.18 0.15-16.92 6.14-22.91 6-5.99 14.76-8.32 22.91-6.15l214.26 57.44c4.02 1.08 7.69 3.2 10.63 6.15l533.66 533.63a23.714 23.714 0 0 1 6.95 16.77c0 6.28-2.5 12.32-6.95 16.77l-156.86 156.87a23.714 23.714 0 0 1-16.77 6.95z m-512.37-569.66l512.37 512.4 123.32-123.33-512.39-512.37-168.44-45.15 45.14 168.45z" fill="#363432" /><path d="M195.454 352.155l69.22-6.32 1.9-52.92 71.82-5.66 13.91-91.91" fill="#E9E7DF" /><path d="M195.444 367.975c-8.08 0-14.98-6.16-15.73-14.38-0.8-8.69 5.61-16.38 14.3-17.19l55.36-5.06 1.4-39c0.29-8.03 6.55-14.56 14.56-15.19l59.3-4.68 12.04-79.49c1.31-8.63 9.42-14.56 18-13.26 8.63 1.3 14.57 9.36 13.26 17.99l-13.91 91.91a15.812 15.812 0 0 1-14.39 13.4l-57.77 4.56-1.39 38.83c-0.29 7.95-6.44 14.45-14.36 15.18l-69.22 6.33c-0.49 0.03-0.97 0.05-1.45 0.05z" fill="#363432" /><path d="M708.844 750.995c-4.05 0-8.09-1.54-11.18-4.63l-442.26-442.29c-6.18-6.18-6.18-16.18 0-22.36s16.18-6.18 22.36 0l442.27 442.28c6.18 6.18 6.18 16.18 0 22.36a15.78 15.78 0 0 1-11.19 4.64z" fill="#363432" /><path d="M260.304 170.655l-89.51 89.51-32.76-122.27 122.27 32.76z" fill="#FFFBF1" /><path d="M170.794 275.975c-1.37 0-2.74-0.17-4.09-0.54a15.825 15.825 0 0 1-11.18-11.18l-32.76-122.28c-1.47-5.45 0.1-11.27 4.09-15.27 3.99-4 9.84-5.57 15.27-4.09l122.27 32.77c5.46 1.47 9.72 5.73 11.18 11.18 1.47 5.45-0.09 11.27-4.09 15.27l-89.51 89.51a15.792 15.792 0 0 1-11.18 4.63z m-10.4-115.73l18.58 69.38 50.79-50.79-69.37-18.59z" fill="#363432" /><path d="M639.854 796.598l156.863-156.863 89.222 89.221L729.076 885.82z" fill="#EF7E20" /><path d="M729.084 909.525c-6.07 0-12.14-2.32-16.77-6.95l-89.22-89.22c-9.26-9.26-9.26-24.27 0-33.54l156.87-156.86a23.714 23.714 0 0 1 16.77-6.95c6.29 0 12.32 2.5 16.77 6.95l89.22 89.23c9.26 9.26 9.26 24.27 0 33.54l-156.87 156.85c-4.63 4.64-10.7 6.95-16.77 6.95z m-55.68-112.94l55.68 55.68 123.33-123.31-55.68-55.7-123.33 123.33z" fill="#363432" /></svg>