<?xml version="1.0" standalone="no"?><!DOCTYPE svg PUBLIC "-//W3C//DTD SVG 1.1//EN" "http://www.w3.org/Graphics/SVG/1.1/DTD/svg11.dtd"><svg class="icon" width="200px" height="200.00px" viewBox="0 0 1024 1024" version="1.1" xmlns="http://www.w3.org/2000/svg"><path d="M168.962 85.879h686.08v852.24h-686.08z" fill="#EF7E20" /><path d="M855.042 959.999h-686.08c-12.08 0-21.88-9.8-21.88-21.88V85.879c0-12.08 9.79-21.88 21.88-21.88h686.07c12.08 0 21.88 9.8 21.88 21.88v852.25c0 12.07-9.79 21.87-21.87 21.87z m-664.2-43.75h642.32v-808.5h-642.32v808.5z" fill="#363432" /><path d="M240.422 158.239h543.14v618.19h-543.14v-618.19z" fill="#E9E7DF" /><path d="M783.562 791.019h-543.14c-8.05 0-14.58-6.52-14.58-14.58v-618.2c0-8.06 6.53-14.58 14.58-14.58h543.14c8.05 0 14.58 6.52 14.58 14.58v618.2c0.01 8.06-6.52 14.58-14.58 14.58z m-528.56-29.17h513.98v-589.03h-513.98v589.03z" fill="#363432" /><path d="M512.002 851.459m-28.34 0a28.34 28.34 0 1 0 56.68 0 28.34 28.34 0 1 0-56.68 0Z" fill="#363432" /><path d="M314.562 245.149h170.03v113.94h-170.03z" fill="#EF7E20" /><path d="M484.602 366.379h-170.04c-4.03 0-7.29-3.26-7.29-7.29v-113.95c0-4.03 3.26-7.29 7.29-7.29h170.03c4.03 0 7.29 3.26 7.29 7.29v113.95a7.27 7.27 0 0 1-7.28 7.29z m-162.75-14.58h155.45v-99.37h-155.45v99.37zM484.602 401.849h-170.04c-4.03 0-7.29-3.26-7.29-7.29s3.26-7.29 7.29-7.29h170.03c4.03 0 7.29 3.26 7.29 7.29s-3.25 7.29-7.28 7.29zM484.602 431.909h-170.04c-4.03 0-7.29-3.26-7.29-7.29s3.26-7.29 7.29-7.29h170.03c4.03 0 7.29 3.26 7.29 7.29a7.27 7.27 0 0 1-7.28 7.29zM484.602 461.089h-170.04c-4.03 0-7.29-3.26-7.29-7.29s3.26-7.29 7.29-7.29h170.03c4.03 0 7.29 3.26 7.29 7.29s-3.25 7.29-7.28 7.29zM484.602 491.139h-170.04c-4.03 0-7.29-3.26-7.29-7.29s3.26-7.29 7.29-7.29h170.03c4.03 0 7.29 3.26 7.29 7.29s-3.25 7.29-7.28 7.29zM709.432 263.599h-170.03c-4.03 0-7.29-3.26-7.29-7.29s3.26-7.29 7.29-7.29h170.03c4.03 0 7.29 3.26 7.29 7.29s-3.26 7.29-7.29 7.29zM709.432 291.239h-170.03c-4.03 0-7.29-3.26-7.29-7.29s3.26-7.29 7.29-7.29h170.03c4.03 0 7.29 3.26 7.29 7.29 0.01 4.03-3.26 7.29-7.29 7.29zM709.432 318.889h-170.03c-4.03 0-7.29-3.26-7.29-7.29s3.26-7.29 7.29-7.29h170.03c4.03 0 7.29 3.26 7.29 7.29s-3.26 7.29-7.29 7.29zM709.432 346.529h-170.03c-4.03 0-7.29-3.26-7.29-7.29s3.26-7.29 7.29-7.29h170.03c4.03 0 7.29 3.26 7.29 7.29s-3.26 7.29-7.29 7.29zM709.432 374.189h-170.03c-4.03 0-7.29-3.26-7.29-7.29s3.26-7.29 7.29-7.29h170.03c4.03 0 7.29 3.26 7.29 7.29s-3.26 7.29-7.29 7.29zM709.432 401.819h-170.03c-4.03 0-7.29-3.26-7.29-7.29s3.26-7.29 7.29-7.29h170.03c4.03 0 7.29 3.26 7.29 7.29s-3.26 7.29-7.29 7.29zM709.432 457.119h-170.03c-4.03 0-7.29-3.26-7.29-7.29s3.26-7.29 7.29-7.29h170.03c4.03 0 7.29 3.26 7.29 7.29s-3.26 7.29-7.29 7.29zM709.432 484.779h-170.03c-4.03 0-7.29-3.26-7.29-7.29s3.26-7.29 7.29-7.29h170.03c4.03 0 7.29 3.26 7.29 7.29s-3.26 7.29-7.29 7.29zM709.432 512.409h-170.03c-4.03 0-7.29-3.26-7.29-7.29s3.26-7.29 7.29-7.29h170.03c4.03 0 7.29 3.26 7.29 7.29s-3.26 7.29-7.29 7.29zM683.812 429.479h-144.41c-4.03 0-7.29-3.26-7.29-7.29s3.26-7.29 7.29-7.29h144.41c4.03 0 7.29 3.26 7.29 7.29 0 4.02-3.26 7.29-7.29 7.29zM709.432 540.059h-170.03c-4.03 0-7.29-3.26-7.29-7.29s3.26-7.29 7.29-7.29h170.03c4.03 0 7.29 3.26 7.29 7.29s-3.26 7.29-7.29 7.29zM709.432 567.709h-170.03c-4.03 0-7.29-3.26-7.29-7.29s3.26-7.29 7.29-7.29h170.03c4.03 0 7.29 3.26 7.29 7.29s-3.26 7.29-7.29 7.29zM709.432 595.349h-170.03c-4.03 0-7.29-3.26-7.29-7.29s3.26-7.29 7.29-7.29h170.03c4.03 0 7.29 3.26 7.29 7.29s-3.26 7.29-7.29 7.29zM709.432 622.999h-170.03c-4.03 0-7.29-3.26-7.29-7.29s3.26-7.29 7.29-7.29h170.03c4.03 0 7.29 3.26 7.29 7.29s-3.26 7.29-7.29 7.29zM709.432 650.649h-170.03c-4.03 0-7.29-3.26-7.29-7.29s3.26-7.29 7.29-7.29h170.03c4.03 0 7.29 3.26 7.29 7.29s-3.26 7.29-7.29 7.29zM709.432 678.279h-170.03c-4.03 0-7.29-3.26-7.29-7.29s3.26-7.29 7.29-7.29h170.03c4.03 0 7.29 3.26 7.29 7.29s-3.26 7.29-7.29 7.29z" fill="#363432" /><path d="M683.812 705.939h-144.41c-4.03 0-7.29-3.26-7.29-7.29s3.26-7.29 7.29-7.29h144.41c4.03 0 7.29 3.26 7.29 7.29s-3.26 7.29-7.29 7.29z" fill="#363432" /><path d="M314.572 358.869c-2.43 0-4.81-1.21-6.19-3.42-2.14-3.42-1.1-7.92 2.31-10.05l170.03-106.43c3.4-2.15 7.91-1.11 10.05 2.31 2.14 3.42 1.1 7.92-2.31 10.05l-170.03 106.42c-1.2 0.76-2.54 1.12-3.86 1.12z" fill="#363432" /><path d="M484.602 697.989h-155.19c-4.03 0-7.29-3.26-7.29-7.29v-155.19c0-4.03 3.26-7.29 7.29-7.29s7.29 3.26 7.29 7.29v147.9h147.89c4.03 0 7.29 3.26 7.29 7.29a7.27 7.27 0 0 1-7.28 7.29z" fill="#363432" /><path d="M344.292 561.729a7.28 7.28 0 0 1-5.75-2.79l-9.09-11.62-9.11 11.62a7.295 7.295 0 0 1-10.23 1.24c-3.18-2.48-3.73-7.06-1.25-10.24l14.85-18.96a7.268 7.268 0 0 1 5.74-2.79c2.24 0 4.36 1.03 5.74 2.79l14.83 18.96a7.29 7.29 0 0 1-1.25 10.24 7.296 7.296 0 0 1-4.48 1.55zM465.672 712.829a7.28 7.28 0 0 1-5.75-2.79 7.29 7.29 0 0 1 1.25-10.24l11.62-9.1-11.62-9.1c-3.17-2.48-3.73-7.06-1.25-10.24a7.25 7.25 0 0 1 10.23-1.24l18.96 14.84c1.77 1.38 2.8 3.5 2.8 5.74s-1.03 4.36-2.8 5.74l-18.96 14.84a7.255 7.255 0 0 1-4.48 1.55z" fill="#363432" /><path d="M348.592 600.249h19.47v72.23h-19.47z" fill="#EF7E20" /><path d="M368.062 679.759h-19.47c-4.03 0-7.29-3.26-7.29-7.29v-72.22c0-4.03 3.26-7.29 7.29-7.29h19.47c4.03 0 7.29 3.26 7.29 7.29v72.22c0 4.03-3.26 7.29-7.29 7.29z m-12.18-14.58h4.88v-57.64h-4.88v57.64z" fill="#363432" /><path d="M388.272 580.909h19.47v91.56h-19.47z" fill="#EF7E20" /><path d="M407.742 679.749h-19.47c-4.03 0-7.29-3.26-7.29-7.29v-91.55c0-4.03 3.26-7.29 7.29-7.29h19.47c4.03 0 7.29 3.26 7.29 7.29v91.55c0 4.03-3.26 7.29-7.29 7.29z m-12.18-14.58h4.88v-76.96h-4.88v76.96z" fill="#363432" /><path d="M427.942 614.489h19.47v57.98h-19.47z" fill="#EF7E20" /><path d="M447.402 679.759h-19.47c-4.03 0-7.29-3.26-7.29-7.29v-57.98c0-4.03 3.26-7.29 7.29-7.29h19.47c4.03 0 7.29 3.26 7.29 7.29v57.98c0.01 4.03-3.26 7.29-7.29 7.29z m-12.17-14.58h4.88v-43.4h-4.88v43.4z" fill="#363432" /></svg>