<?xml version="1.0" standalone="no"?><!DOCTYPE svg PUBLIC "-//W3C//DTD SVG 1.1//EN" "http://www.w3.org/Graphics/SVG/1.1/DTD/svg11.dtd"><svg class="icon" width="200px" height="200.00px" viewBox="0 0 1024 1024" version="1.1" xmlns="http://www.w3.org/2000/svg"><path d="M689.567 935.033c-81.37 0.27-232.07-54.33-389.05-209.12-87.82-86.61-155.22-183.77-189.82-273.53-34.12-88.41-32.85-160.03 3.26-196.59 4.1-4.18 8.32-8.69 12.65-13.28 27.79-29.65 62.36-66.56 110.83-66.71 35.76-0.12 69.37 19.67 102.58 60.51 88.02 107.74 54.79 156.58 2.18 209.11l-5.9 5.9c0.44 6.91 7.98 40.97 102.61 134.31 93.44 92.07 128.02 100.19 135.71 100.69l5.9-5.99c24.25-24.96 51.73-53.22 94.65-53.35 32.78-0.1 69.18 16.6 114.55 52.57 39.85 31.6 60.08 63.72 61.77 98.21 2.44 50.18-34.94 86.28-64.94 115.26-4.58 4.43-9.05 8.72-13.28 12.93-22.91 20.47-53.04 30.95-83.7 29.08z" fill="#FFFBF1" /><path d="M696.347 957.383c-2.46 0-4.94-0.06-7.41-0.2-85.73-0.03-242.65-56.43-403.97-215.49-89.98-88.75-159.22-188.66-194.93-281.36-37.37-96.8-34.39-177.02 8.17-220.11 3.34-3.42 6.82-7.11 10.38-10.88l1.92-2.03c29.04-30.99 68.85-73.49 126.87-73.67h0.4c42.78 0 81.85 22.47 119.43 68.69 97.42 119.26 58.73 179.89 4.09 235.27 6.49 13.75 27.3 47.29 93.16 112.27 65.67 64.69 99.51 85.08 113.63 91.48 25.26-25.92 56.98-56.38 107.02-56.53h0.36c37.96 0 78.65 18.23 128 57.35 45.19 35.85 68.12 73.29 70.13 114.49 2.93 60.23-40.19 101.86-71.67 132.26l-3.31 3.2c-3.36 3.26-6.63 6.43-9.78 9.54-25.84 23.15-58.92 35.72-92.49 35.72z m-6.78-44.48c0.45 0 0.89 0.01 1.33 0.04 24.59 1.44 49.23-7.06 67.58-23.51 2.45-2.48 5.84-5.77 9.32-9.12l3.32-3.2c28.24-27.27 60.19-58.11 58.24-98.3-1.35-27.69-18.82-54.5-53.42-81.94-41.22-32.67-73.33-48.41-100.72-47.77-33.63 0.1-55.59 22.72-78.84 46.64l-6.02 6.11c-4.51 4.57-10.84 7.03-17.21 6.54-28.88-1.9-80.68-38.9-149.8-107-69.59-68.65-107.34-120.06-109.17-148.67-0.4-6.36 1.95-12.58 6.45-17.08l5.9-5.9c48.97-48.9 73.15-85.38-3.68-179.43-28.67-35.27-56.51-52.39-85.13-52.39h-0.23c-38.9 0.12-68.56 31.77-94.72 59.7l-1.97 2.09c-3.76 3.99-7.44 7.91-11.04 11.57-29.39 29.75-28.78 94.45 1.59 173.12 33.51 86.94 99.11 181.32 184.71 265.74 151.82 149.7 295.6 202.75 372.9 202.75 0.2 0.01 0.37-0.03 0.61 0.01z" fill="#363432" /><path d="M393.887 355.263l-177.39-177.42c-20.32-20.45-20.32-53.48 0-73.93 20.45-20.32 53.48-20.32 73.93 0l177.42 177.42c20.32 20.45 20.32 53.48 0 73.93-20.45 20.34-53.5 20.34-73.96 0z" fill="#EF7E20" /><path d="M430.837 392.563c-19.05 0-38.07-7.19-52.56-21.61l-0.04-0.04-177.39-177.42c-28.86-29.03-28.86-76.2-0.05-105.19 29.09-28.88 76.25-28.9 105.24-0.1l177.47 177.49c28.86 29.03 28.86 76.2 0.05 105.19-14.56 14.46-33.65 21.68-52.72 21.68z m-21.34-53c11.79 11.7 30.97 11.7 42.74 0 11.61-11.69 11.61-30.84-0.09-42.62l-177.37-177.38c-11.73-11.66-30.9-11.66-42.68 0.06-11.6 11.67-11.6 30.83 0.1 42.61l177.3 177.33z" fill="#363432" /><path d="M848.767 810.113l-177.4-177.42c-20.32-20.45-20.32-53.48 0-73.93 20.45-20.32 53.48-20.32 73.93 0l177.41 177.44c20.32 20.45 20.32 53.48 0 73.93-20.46 20.32-53.49 20.31-73.94-0.02z" fill="#EF7E20" /><path d="M885.697 847.403c-19.04 0-38.06-7.19-52.54-21.59l-0.04-0.04-177.4-177.43c-28.86-29.03-28.86-76.2-0.05-105.19 29.07-28.9 76.25-28.9 105.23-0.1l177.46 177.49c28.86 29.04 28.86 76.2 0.05 105.2-14.56 14.46-33.65 21.66-52.71 21.66z m-21.3-52.96c11.79 11.67 30.93 11.69 42.71-0.01 11.6-11.67 11.6-30.84-0.11-42.62l-177.36-177.39c-11.73-11.66-30.9-11.66-42.67 0.06-11.6 11.67-11.6 30.83 0.1 42.61l177.33 177.35z" fill="#363432" /><path d="M756.817 407.183a19.469 19.469 0 0 1-14.29 5.9h-40.5c-11.16-0.04-20.19-9.08-20.23-20.23v-87.51h-87.55c-11.18-0.01-20.25-9.05-20.29-20.23v-40.5c0.04-11.16 9.08-20.19 20.23-20.23h87.55v-87.57c0.04-11.16 9.08-20.19 20.23-20.23h40.5c11.16 0.04 20.19 9.08 20.23 20.23v87.55h87.55c11.2-0.02 20.31 9.03 20.35 20.23v40.5c-0.04 11.16-9.08 20.19-20.23 20.23h-87.61v87.55c0.09 5.4-2.06 10.57-5.94 14.31z" fill="#EF7E20" /><path d="M742.847 427.853H702.037c-19.26-0.07-34.92-15.75-34.99-34.95v-72.79h-72.8c-19.28-0.03-34.99-15.7-35.05-34.95v-40.54c0.06-19.24 15.73-34.92 34.94-35h72.84v-72.8c0.07-19.24 15.75-34.92 34.94-35h40.56c19.25 0.07 34.92 15.75 35 34.94v72.84h72.79c19.19-0.22 35.05 15.62 35.12 34.94v40.56c-0.07 19.24-15.75 34.92-34.94 35h-72.91v72.79c0.14 9.14-3.61 18.22-10.28 24.75-6.43 6.5-15.28 10.21-24.41 10.21z m-0.31-29.52c1.23 0.06 2.8-0.5 3.7-1.43l0.35-0.35c0.93-0.89 1.46-2.16 1.43-3.46v-87.76c0-8.16 6.61-14.76 14.76-14.76h87.61c2.98-0.01 5.46-2.49 5.48-5.53v-40.44c-0.01-3-2.5-5.48-5.55-5.48h-87.59c-8.15 0-14.76-6.6-14.76-14.76v-87.55c-0.01-2.98-2.49-5.46-5.53-5.48h-40.44c-2.98 0.01-5.46 2.49-5.48 5.53v87.5c0 8.16-6.61 14.76-14.76 14.76h-87.55c-2.98 0.01-5.47 2.49-5.48 5.52v40.46c0.01 3 2.5 5.48 5.56 5.48h87.53c8.15 0 14.76 6.6 14.76 14.76v87.5c0.01 2.98 2.49 5.46 5.53 5.48h40.43z" fill="#363432" /></svg>