<?xml version="1.0" standalone="no"?><!DOCTYPE svg PUBLIC "-//W3C//DTD SVG 1.1//EN" "http://www.w3.org/Graphics/SVG/1.1/DTD/svg11.dtd"><svg class="icon" width="200px" height="200.00px" viewBox="0 0 1024 1024" version="1.1" xmlns="http://www.w3.org/2000/svg"><path d="M419.869 730.118h47.36v123.21h-47.36z" fill="#E9E7DF" /><path d="M467.229 867.548h-47.36c-7.85 0-14.22-6.36-14.22-14.22v-123.22c0-7.86 6.37-14.22 14.22-14.22h47.36c7.85 0 14.22 6.36 14.22 14.22v123.22c0.01 7.86-6.36 14.22-14.22 14.22z m-33.14-28.44h18.92v-94.77h-18.92v94.77z" fill="#363432" /><path d="M443.549 417.838m-332.49 0a332.49 332.49 0 1 0 664.98 0 332.49 332.49 0 1 0-664.98 0Z" fill="#E9E7DF" /><path d="M443.549 771.668c-195.1 0-353.83-158.73-353.83-353.84 0-195.1 158.73-353.83 353.83-353.83s353.83 158.73 353.83 353.83c0 195.11-158.73 353.84-353.83 353.84z m0-665c-171.57 0-311.16 139.58-311.16 311.16S271.979 728.998 443.549 728.998s311.16-139.59 311.16-311.17-139.58-311.16-311.16-311.16z" fill="#363432" /><path d="M776.059 432.048h-665c-7.85 0-14.22-6.36-14.22-14.22s6.37-14.22 14.22-14.22h665c7.85 0 14.22 6.36 14.22 14.22s-6.37 14.22-14.22 14.22zM728.379 265.808h-569.64c-7.85 0-14.22-6.36-14.22-14.22s6.37-14.22 14.22-14.22h569.65c7.85 0 14.22 6.36 14.22 14.22 0 7.85-6.37 14.22-14.23 14.22zM728.379 598.308h-569.64c-7.85 0-14.22-6.36-14.22-14.22s6.37-14.22 14.22-14.22h569.65c7.85 0 14.22 6.36 14.22 14.22s-6.37 14.22-14.23 14.22z" fill="#363432" /><path d="M443.549 764.558c-79.95 0-142.57-152.3-142.57-346.73 0-194.41 62.62-346.72 142.57-346.72s142.57 152.3 142.57 346.72c0 194.43-62.62 346.73-142.57 346.73z m0-665c-53.98 0-114.13 130.7-114.13 318.27s60.14 318.28 114.13 318.28 114.13-130.71 114.13-318.28-60.15-318.27-114.13-318.27z" fill="#363432" /><path d="M867.569 809.738h-202.07c-25.06 0-45.37-20.31-45.37-45.37v-151.65c0-25.06 20.31-45.37 45.37-45.37h202.07c25.06 0 45.37 20.31 45.37 45.37v151.65c0 25.06-20.31 45.37-45.37 45.37z" fill="#EF7E20" /><path d="M867.569 831.078h-202.07c-36.78 0-66.71-29.93-66.71-66.71v-151.65c0-36.78 29.93-66.7 66.71-66.7h202.07c36.78 0 66.71 29.92 66.71 66.7v151.65c0 36.77-29.93 66.71-66.71 66.71z m-202.07-242.39c-13.25 0-24.04 10.78-24.04 24.03v151.65c0 13.25 10.79 24.04 24.04 24.04h202.07c13.25 0 24.04-10.79 24.04-24.04v-151.65c0-13.25-10.79-24.03-24.04-24.03h-202.07z" fill="#363432" /><path d="M799.849 671.888c0.11-18.41-14.72-33.43-33.13-33.54-18.41-0.11-33.43 14.72-33.54 33.13a33.353 33.353 0 0 0 12.8 26.47l-6.1 57.94c-0.12 1.25 0.28 2.49 1.11 3.43 0.86 0.92 2.06 1.43 3.31 1.42h44.63a4.447 4.447 0 0 0 4.12-6.13l-5.97-56.72a33.125 33.125 0 0 0 12.77-26z" fill="#363432" /><path d="M891.859 588.698h-250.66c-11.79 0-21.33-9.56-21.33-21.33 0.01-80.91 65.82-146.69 146.66-146.69h0.03c80.87 0.01 146.65 65.82 146.64 146.69 0 11.79-9.56 21.33-21.34 21.33z m-227.13-42.67h203.61c-9.85-47.16-51.75-82.67-101.79-82.69h-0.02c-50.04 0.01-91.95 35.54-101.8 82.69z" fill="#363432" /><path d="M153.929 872.318h579.28v47.36h-579.28z" fill="#E9E7DF" /><path d="M733.199 933.898h-579.28c-7.85 0-14.22-6.36-14.22-14.22v-47.36c0-7.86 6.37-14.22 14.22-14.22h579.28c7.85 0 14.22 6.36 14.22 14.22v47.36c0.01 7.86-6.36 14.22-14.22 14.22z m-565.05-28.44h550.83v-18.92h-550.83v18.92z" fill="#363432" /><path d="M315.199 853.328h256.71v85.34h-256.71z" fill="#EF7E20" /><path d="M571.909 959.998h-256.71c-11.79 0-21.33-9.56-21.33-21.33v-85.34c0-11.78 9.55-21.33 21.33-21.33h256.71c11.79 0 21.33 9.56 21.33 21.33v85.34c0.01 11.78-9.54 21.33-21.33 21.33z m-235.37-42.67h214.04v-42.67h-214.04v42.67z" fill="#363432" /></svg>