<?xml version="1.0" standalone="no"?><!DOCTYPE svg PUBLIC "-//W3C//DTD SVG 1.1//EN" "http://www.w3.org/Graphics/SVG/1.1/DTD/svg11.dtd"><svg class="icon" width="200px" height="200.00px" viewBox="0 0 1024 1024" version="1.1" xmlns="http://www.w3.org/2000/svg"><path d="M281.554 316.364h655.77l-117.54 299.02-474.68 50.91-63.55-349.93z" fill="#FFFBF1" /><path d="M345.084 688.964c-10.83 0-20.31-7.74-22.29-18.63l-63.55-349.93c-1.2-6.61 0.6-13.42 4.91-18.57 4.3-5.17 10.68-8.15 17.41-8.15h655.77a22.676 22.676 0 0 1 21.1 30.98l-117.54 299.02a22.69 22.69 0 0 1-18.68 14.25l-474.68 50.9c-0.82 0.09-1.64 0.13-2.45 0.13z m-36.37-349.92l54.93 302.45 440.06-47.18 100.34-255.27h-595.33z" fill="#363432" /><path d="M890.584 457.954h-587.41c-12.53 0-22.68-10.16-22.68-22.68s10.15-22.68 22.68-22.68h587.41c12.53 0 22.68 10.16 22.68 22.68s-10.15 22.68-22.68 22.68zM843.834 576.884h-519.05c-12.53 0-22.68-10.16-22.68-22.68s10.15-22.68 22.68-22.68h519.05c12.53 0 22.68 10.16 22.68 22.68 0 12.53-10.15 22.68-22.68 22.68z" fill="#363432" /><path d="M609.444 660.604c-12.53 0-22.68-10.16-22.68-22.68v-321.56c0-12.52 10.15-22.68 22.68-22.68s22.68 10.16 22.68 22.68v321.57c0 12.52-10.15 22.67-22.68 22.67z" fill="#363432" /><path d="M324.794 815.934m-74.24 0a74.24 74.24 0 1 0 148.48 0 74.24 74.24 0 1 0-148.48 0Z" fill="#EF7E20" /><path d="M324.784 912.844c-53.43 0-96.91-43.48-96.91-96.92s43.48-96.92 96.91-96.92c53.44 0 96.92 43.48 96.92 96.92s-43.48 96.92-96.92 96.92z m0-148.48c-28.43 0-51.56 23.13-51.56 51.57s23.13 51.57 51.56 51.57c28.43 0 51.57-23.13 51.57-51.57s-23.13-51.57-51.57-51.57z" fill="#363432" /><path d="M819.784 815.934m-74.24 0a74.24 74.24 0 1 0 148.48 0 74.24 74.24 0 1 0-148.48 0Z" fill="#EF7E20" /><path d="M819.784 912.844c-53.44 0-96.92-43.48-96.92-96.92s43.48-96.92 96.92-96.92c53.44 0 96.92 43.48 96.92 96.92s-43.47 96.92-96.92 96.92z m0-148.48c-28.43 0-51.57 23.13-51.57 51.57s23.13 51.57 51.57 51.57c28.43 0 51.57-23.13 51.57-51.57s-23.13-51.57-51.57-51.57z" fill="#363432" /><path d="M314.244 518.974c-10.72 0-20.25-7.62-22.27-18.54l-60.74-327.37-147.11-16.68c-12.45-1.4-21.39-12.64-19.97-25.08 1.4-12.45 12.57-21.52 25.08-19.97l163.79 18.57a22.672 22.672 0 0 1 19.74 18.39l63.8 343.87c2.29 12.31-5.84 24.14-18.16 26.43-1.4 0.26-2.79 0.38-4.16 0.38z" fill="#363432" /></svg>