<?xml version="1.0" standalone="no"?><!DOCTYPE svg PUBLIC "-//W3C//DTD SVG 1.1//EN" "http://www.w3.org/Graphics/SVG/1.1/DTD/svg11.dtd"><svg class="icon" width="200px" height="200.00px" viewBox="0 0 1024 1024" version="1.1" xmlns="http://www.w3.org/2000/svg"><path d="M409.293 721.403h205.39v172.74h-205.39z" fill="#FFFBF1" /><path d="M614.673 915.763h-205.38c-11.94 0-21.61-9.68-21.61-21.61v-172.75c0-11.93 9.67-21.61 21.61-21.61h205.39c11.94 0 21.61 9.68 21.61 21.61v172.74c-0.01 11.94-9.68 21.62-21.62 21.62z m-183.77-43.23h162.16v-129.52h-162.16v129.52z" fill="#363432" /><path d="M669.623 915.763h-315.29c-11.94 0-21.61-9.68-21.61-21.61s9.67-21.61 21.61-21.61h315.29c11.94 0 21.61 9.68 21.61 21.61s-9.67 21.61-21.61 21.61zM484.653 831.093h-75.36c-11.94 0-21.61-9.68-21.61-21.61s9.67-21.61 21.61-21.61h75.37c11.94 0 21.61 9.68 21.61 21.61s-9.68 21.61-21.62 21.61z" fill="#363432" /><path d="M85.613 129.853h852.78v417.81H85.613z" fill="#EF7E20" /><path d="M938.383 569.273H85.613c-11.94 0-21.61-9.68-21.61-21.61v-417.81c0-11.93 9.67-21.61 21.61-21.61h852.78c11.94 0 21.61 9.68 21.61 21.61v417.81c0 11.93-9.68 21.61-21.62 21.61z m-831.16-43.22h809.55v-374.59h-809.55v374.59z" fill="#363432" /><path d="M700.863 286.873l-35.5 61.49v241.58h71v-241.58l-35.5-61.49z" fill="#EF7E20" /><path d="M736.373 597.143h-71.01c-3.98 0-7.2-3.22-7.2-7.2v-241.58c0-1.27 0.33-2.5 0.96-3.6l35.5-61.5c2.57-4.45 9.91-4.45 12.48 0l35.51 61.5c0.63 1.1 0.96 2.34 0.96 3.6v241.58c0 3.98-3.22 7.2-7.2 7.2z m-63.8-14.4h56.6v-232.45l-28.3-49.02-28.3 49.02v232.45z" fill="#363432" /><path d="M665.363 348.363l17.1 14.24 12.41-11.53 17.55 14.97 23.95-17.66" fill="#EF7E20" /><path d="M712.423 373.243a7.24 7.24 0 0 1-4.68-1.72l-12.66-10.81-7.71 7.16c-2.65 2.46-6.73 2.59-9.51 0.25l-17.1-14.24c-3.06-2.53-3.48-7.08-0.93-10.14 2.55-3.04 7.09-3.48 10.14-0.91l12.23 10.17 7.76-7.22c2.68-2.48 6.79-2.56 9.58-0.21l13.2 11.27 19.35-14.26c3.2-2.38 7.71-1.67 10.07 1.52a7.201 7.201 0 0 1-1.52 10.07l-23.95 17.66a7.1 7.1 0 0 1-4.27 1.41z" fill="#363432" /><path d="M694.873 558.483c-3.98 0-7.2-3.22-7.2-7.2v-200.23c0-3.98 3.22-7.2 7.2-7.2s7.2 3.22 7.2 7.2v200.22c0 3.99-3.22 7.21-7.2 7.21z" fill="#363432" /><path d="M721.123 321.953h-40.56l20.26-35.08 20.3 35.08z" fill="#E9E7DF" /><path d="M721.123 329.163h-40.56c-2.57 0-4.95-1.38-6.24-3.6a7.181 7.181 0 0 1 0-7.2l20.25-35.09a7.227 7.227 0 0 1 6.23-3.6h0.01c2.57 0 4.95 1.36 6.23 3.6l20.3 35.09a7.206 7.206 0 0 1 0.01 7.2 7.179 7.179 0 0 1-6.23 3.6z m-28.08-14.41h15.59l-7.8-13.49-7.79 13.49z" fill="#363432" /><path d="M665.363 549.563h71.02v40.39h-71.02z" fill="#FFFBF1" /><path d="M736.383 597.143h-71.02c-3.98 0-7.2-3.22-7.2-7.2v-40.38c0-3.98 3.22-7.2 7.2-7.2h71.02c3.98 0 7.2 3.22 7.2 7.2v40.38c0.01 3.98-3.22 7.2-7.2 7.2z m-63.81-14.4h56.61v-25.97h-56.61v25.97z" fill="#363432" /><path d="M778.833 286.873h81.07v303.08h-81.07z" fill="#EF7E20" /><path d="M859.903 597.143h-81.07c-3.98 0-7.2-3.22-7.2-7.2v-303.08c0-3.98 3.22-7.2 7.2-7.2h81.07c3.98 0 7.2 3.22 7.2 7.2v303.08c0 3.98-3.22 7.2-7.2 7.2z m-73.87-14.4h66.67v-288.67h-66.67v288.67z" fill="#363432" /><path d="M819.363 331.993h-40.53c-3.98 0-7.2-3.22-7.2-7.2s3.22-7.2 7.2-7.2h40.53c3.98 0 7.2 3.22 7.2 7.2 0 3.97-3.22 7.2-7.2 7.2zM802.143 369.913h-23.31c-3.98 0-7.2-3.22-7.2-7.2s3.22-7.2 7.2-7.2h23.31c3.98 0 7.2 3.22 7.2 7.2 0 3.97-3.22 7.2-7.2 7.2zM819.363 407.813h-40.53c-3.98 0-7.2-3.22-7.2-7.2s3.22-7.2 7.2-7.2h40.53c3.98 0 7.2 3.22 7.2 7.2s-3.22 7.2-7.2 7.2zM802.143 445.733h-23.31c-3.98 0-7.2-3.22-7.2-7.2s3.22-7.2 7.2-7.2h23.31c3.98 0 7.2 3.22 7.2 7.2s-3.22 7.2-7.2 7.2zM819.363 483.643h-40.53c-3.98 0-7.2-3.22-7.2-7.2s3.22-7.2 7.2-7.2h40.53c3.98 0 7.2 3.22 7.2 7.2s-3.22 7.2-7.2 7.2z" fill="#363432" /><path d="M802.143 521.543h-23.31c-3.98 0-7.2-3.22-7.2-7.2s3.22-7.2 7.2-7.2h23.31c3.98 0 7.2 3.22 7.2 7.2s-3.22 7.2-7.2 7.2z" fill="#363432" /><path d="M819.363 559.483h-40.53c-3.98 0-7.2-3.22-7.2-7.2s3.22-7.2 7.2-7.2h40.53c3.98 0 7.2 3.22 7.2 7.2s-3.22 7.2-7.2 7.2z" fill="#363432" /><path d="M85.613 547.663h852.78v179.27H85.613z" fill="#FFFBF1" /><path d="M938.383 748.533H85.613c-11.94 0-21.61-9.68-21.61-21.61v-179.26c0-11.93 9.67-21.61 21.61-21.61h852.78c11.94 0 21.61 9.68 21.61 21.61v179.26c0 11.93-9.68 21.61-21.62 21.61z m-831.16-43.23h809.55v-136.03h-809.55v136.03z" fill="#363432" /><path d="M511.833 637.293m-37.22 0a37.22 37.22 0 1 0 74.44 0 37.22 37.22 0 1 0-74.44 0Z" fill="#EF7E20" /><path d="M511.833 681.713c-24.5 0-44.42-19.92-44.42-44.42s19.92-44.42 44.42-44.42 44.42 19.92 44.42 44.42c0 24.49-19.92 44.42-44.42 44.42z m0-74.43c-16.55 0-30.01 13.47-30.01 30.01 0 16.55 13.47 30.01 30.01 30.01 16.55 0 30.01-13.47 30.01-30.01 0-16.55-13.46-30.01-30.01-30.01z" fill="#363432" /><path d="M86.953 130.533h851.42v86.78H86.953z" fill="#FFFBF1" /><path d="M938.373 238.923H86.953c-11.94 0-21.61-9.68-21.61-21.61v-86.79c0-11.93 9.67-21.61 21.61-21.61h851.42c11.94 0 21.61 9.68 21.61 21.61v86.79c0 11.93-9.67 21.61-21.61 21.61z m-829.81-43.22h808.2v-43.56h-808.2v43.56z" fill="#363432" /><path d="M144.233 173.923m-9.84 0a9.84 9.84 0 1 0 19.68 0 9.84 9.84 0 1 0-19.68 0Z" fill="#EF7E20" /><path d="M144.233 190.973c-9.4 0-17.05-7.65-17.05-17.05s7.65-17.04 17.05-17.04 17.05 7.64 17.05 17.04c0 9.4-7.65 17.05-17.05 17.05z m0-19.68c-1.46 0-2.64 1.18-2.64 2.63 0 2.93 5.28 2.93 5.28 0 0-1.45-1.18-2.63-2.64-2.63z" fill="#363432" /><path d="M181.413 173.923m-9.84 0a9.84 9.84 0 1 0 19.68 0 9.84 9.84 0 1 0-19.68 0Z" fill="#EF7E20" /><path d="M181.413 190.973c-9.4 0-17.05-7.65-17.05-17.05s7.65-17.04 17.05-17.04 17.05 7.64 17.05 17.04c-0.01 9.4-7.65 17.05-17.05 17.05z m0-19.68c-1.46 0-2.64 1.18-2.64 2.63 0 2.93 5.28 2.93 5.28 0 0-1.45-1.19-2.63-2.64-2.63z" fill="#363432" /><path d="M218.563 173.923m-9.84 0a9.84 9.84 0 1 0 19.68 0 9.84 9.84 0 1 0-19.68 0Z" fill="#EF7E20" /><path d="M218.573 190.973c-9.4 0-17.05-7.65-17.05-17.05s7.65-17.04 17.05-17.04 17.04 7.64 17.04 17.04c0 9.4-7.64 17.05-17.04 17.05z m0-19.68c-1.46 0-2.64 1.18-2.64 2.63 0.01 2.93 5.28 2.94 5.27 0 0-1.45-1.18-2.63-2.63-2.63z" fill="#363432" /><path d="M144.233 266.833h167.98v112.57h-167.98z" fill="#FFFBF1" /><path d="M312.223 386.613h-167.99c-3.98 0-7.2-3.22-7.2-7.2v-112.58c0-3.98 3.22-7.2 7.2-7.2h167.99c3.98 0 7.2 3.22 7.2 7.2v112.58c0.01 3.98-3.22 7.2-7.2 7.2z m-160.78-14.41h153.58v-98.17h-153.58v98.17z" fill="#363432" /><path d="M312.223 421.663h-167.99c-3.98 0-7.2-3.22-7.2-7.2s3.22-7.2 7.2-7.2h167.99c3.98 0 7.2 3.22 7.2 7.2 0.01 3.98-3.22 7.2-7.2 7.2z" fill="#363432" /><path d="M312.223 451.333h-167.99c-3.98 0-7.2-3.22-7.2-7.2s3.22-7.2 7.2-7.2h167.99c3.98 0 7.2 3.22 7.2 7.2s-3.22 7.2-7.2 7.2z" fill="#363432" /><path d="M312.223 480.183h-167.99c-3.98 0-7.2-3.22-7.2-7.2s3.22-7.2 7.2-7.2h167.99c3.98 0 7.2 3.22 7.2 7.2s-3.22 7.2-7.2 7.2z" fill="#363432" /><path d="M312.223 509.873h-167.99c-3.98 0-7.2-3.22-7.2-7.2s3.22-7.2 7.2-7.2h167.99c3.98 0 7.2 3.22 7.2 7.2 0.01 3.97-3.22 7.2-7.2 7.2z" fill="#363432" /><path d="M534.353 285.053h-167.99c-3.98 0-7.2-3.22-7.2-7.2s3.22-7.2 7.2-7.2h167.99c3.98 0 7.2 3.22 7.2 7.2s-3.22 7.2-7.2 7.2z" fill="#363432" /><path d="M534.353 312.783h-167.99c-3.98 0-7.2-3.22-7.2-7.2s3.22-7.2 7.2-7.2h167.99c3.98 0 7.2 3.22 7.2 7.2 0.01 3.98-3.22 7.2-7.2 7.2z" fill="#363432" /><path d="M534.353 340.493h-167.99c-3.98 0-7.2-3.22-7.2-7.2s3.22-7.2 7.2-7.2h167.99c3.98 0 7.2 3.22 7.2 7.2s-3.22 7.2-7.2 7.2z" fill="#363432" /><path d="M534.353 368.203h-167.99c-3.98 0-7.2-3.22-7.2-7.2s3.22-7.2 7.2-7.2h167.99c3.98 0 7.2 3.22 7.2 7.2s-3.22 7.2-7.2 7.2z" fill="#363432" /><path d="M534.353 395.913h-167.99c-3.98 0-7.2-3.22-7.2-7.2s3.22-7.2 7.2-7.2h167.99c3.98 0 7.2 3.22 7.2 7.2s-3.22 7.2-7.2 7.2z" fill="#363432" /><path d="M312.213 386.613c-1.38 0-2.77-0.39-4-1.22l-167.99-112.58c-3.31-2.21-4.19-6.68-1.98-9.99 2.22-3.31 6.7-4.21 10-1.97l167.99 112.57c3.31 2.21 4.19 6.68 1.98 9.99a7.217 7.217 0 0 1-6 3.2z" fill="#363432" /><path d="M534.353 423.633h-167.99c-3.98 0-7.2-3.22-7.2-7.2s3.22-7.2 7.2-7.2h167.99c3.98 0 7.2 3.22 7.2 7.2s-3.22 7.2-7.2 7.2z" fill="#363432" /><path d="M509.033 451.333h-142.67c-3.98 0-7.2-3.22-7.2-7.2s3.22-7.2 7.2-7.2h142.67c3.98 0 7.2 3.22 7.2 7.2s-3.22 7.2-7.2 7.2z" fill="#363432" /></svg>