<?xml version="1.0" standalone="no"?><!DOCTYPE svg PUBLIC "-//W3C//DTD SVG 1.1//EN" "http://www.w3.org/Graphics/SVG/1.1/DTD/svg11.dtd"><svg class="icon" width="200px" height="200.00px" viewBox="0 0 1024 1024" version="1.1" xmlns="http://www.w3.org/2000/svg"><path d="M696.8 189.411h175.74v82.1H696.8z" fill="#E9E7DF" /><path d="M872.54 286.451H696.8c-8.25 0-14.93-6.68-14.93-14.93v-82.1c0-8.25 6.69-14.93 14.93-14.93h175.74c8.25 0 14.93 6.68 14.93 14.93v82.1c0 8.25-6.69 14.93-14.93 14.93z m-160.81-29.86H857.6v-52.24H711.73v52.24z" fill="#363432" /><path d="M86.4 271.521h851.2v472.7H86.4z" fill="#FFFBF1" /><path d="M937.6 766.611H86.4c-12.37 0-22.4-10.03-22.4-22.4v-472.69c0-12.37 10.03-22.4 22.4-22.4h851.2c12.37 0 22.4 10.03 22.4 22.4v472.69c0 12.37-10.03 22.4-22.4 22.4z m-828.8-44.8h806.4v-427.89H108.8v427.89z" fill="#363432" /><path d="M162.93 590.391v80.27h74.67" fill="#FFFBF1" /><path d="M237.6 685.581h-74.67c-8.25 0-14.93-6.68-14.93-14.93v-80.27c0-8.25 6.69-14.93 14.93-14.93s14.93 6.68 14.93 14.93v65.33h59.73c8.25 0 14.93 6.68 14.93 14.93s-6.67 14.94-14.92 14.94z" fill="#363432" /><path d="M523.2 607.201m-219.91 0a219.91 219.91 0 1 0 439.82 0 219.91 219.91 0 1 0-439.82 0Z" fill="#EF7E20" /><path d="M523.2 849.521c-133.61 0-242.31-108.7-242.31-242.32s108.7-242.3 242.31-242.3 242.31 108.69 242.31 242.3-108.7 242.32-242.31 242.32z m0-439.82c-108.91 0-197.51 88.59-197.51 197.5s88.6 197.52 197.51 197.52 197.51-88.61 197.51-197.52-88.6-197.5-197.51-197.5z" fill="#363432" /><path d="M651.25 607.201c0.01-70.72-57.32-128.06-128.04-128.07s-128.06 57.32-128.06 128.04c-0.01 70.72 57.32 128.06 128.04 128.07h0.01" fill="#EF7E20" /><path d="M523.19 750.171c-78.84-0.01-142.98-64.17-142.98-143s64.16-142.98 143-142.98c38.19 0.01 74.1 14.89 101.11 41.9 27 27.01 41.87 62.91 41.86 101.11 0 8.25-6.69 14.93-14.93 14.93-8.25 0-14.93-6.69-14.93-14.93 0.01-30.22-11.75-58.63-33.12-79.99-21.36-21.36-49.77-33.15-79.98-33.15-62.38 0-113.13 50.74-113.14 113.11s50.74 113.12 113.11 113.14c8.25 0 14.93 6.69 14.93 14.93 0 8.25-6.69 14.93-14.93 14.93z" fill="#363432" /><path d="M523.2 607.201m-23.64 0a23.64 23.64 0 1 0 47.28 0 23.64 23.64 0 1 0-47.28 0Z" fill="#FFFBF1" /><path d="M523.2 645.771c-21.27 0-38.57-17.31-38.57-38.57s17.3-38.57 38.57-38.57 38.57 17.31 38.57 38.57-17.3 38.57-38.57 38.57z m0-47.28c-4.8 0-8.71 3.91-8.71 8.71s3.91 8.71 8.71 8.71 8.71-3.91 8.71-8.71-3.91-8.71-8.71-8.71z" fill="#363432" /><path d="M327.2 360.321H162.93c-8.25 0-14.93-6.68-14.93-14.93s6.69-14.93 14.93-14.93H327.2c8.25 0 14.93 6.68 14.93 14.93s-6.68 14.93-14.93 14.93z" fill="#363432" /><path d="M750.93 346.241h106.3v82.1h-106.3z" fill="#EF7E20" /><path d="M857.23 443.281h-106.3c-8.25 0-14.93-6.68-14.93-14.93v-82.1c0-8.25 6.69-14.93 14.93-14.93h106.3c8.25 0 14.93 6.68 14.93 14.93v82.1c0 8.25-6.68 14.93-14.93 14.93z m-91.36-29.86h76.43v-52.24h-76.43v52.24z" fill="#363432" /></svg>