<?xml version="1.0" standalone="no"?><!DOCTYPE svg PUBLIC "-//W3C//DTD SVG 1.1//EN" "http://www.w3.org/Graphics/SVG/1.1/DTD/svg11.dtd"><svg class="icon" width="200px" height="200.00px" viewBox="0 0 1024 1024" version="1.1" xmlns="http://www.w3.org/2000/svg"><path d="M86.78 233.218h850.44v695.61H86.78z" fill="#EF7E20" /><path d="M937.22 951.618H86.78c-12.58 0-22.78-10.2-22.78-22.78v-695.61c0-12.58 10.2-22.78 22.78-22.78h850.44c12.58 0 22.78 10.2 22.78 22.78v695.61c0 12.57-10.2 22.78-22.78 22.78z m-827.66-45.56h804.88v-650.05H109.56v650.05z" fill="#363432" /><path d="M86.78 95.158h850.44v138.06H86.78z" fill="#FFFBF1" /><path d="M937.22 256.008H86.78c-12.58 0-22.78-10.2-22.78-22.78V95.168c0-12.58 10.2-22.78 22.78-22.78h850.44c12.58 0 22.78 10.2 22.78 22.78v138.06c0 12.57-10.2 22.78-22.78 22.78z m-827.66-45.56h804.88v-92.5H109.56v92.5z" fill="#363432" /><path d="M167.02 164.198m-15.23 0a15.23 15.23 0 1 0 30.46 0 15.23 15.23 0 1 0-30.46 0Z" fill="#EF7E20" /><path d="M167.03 187.028c-12.59 0-22.83-10.23-22.83-22.82s10.24-22.82 22.83-22.82c12.58 0 22.82 10.23 22.82 22.82s-10.24 22.82-22.82 22.82z m0-30.46c-4.22 0-7.65 3.43-7.65 7.64s3.43 7.64 7.65 7.64c4.21 0 7.64-3.43 7.64-7.64s-3.43-7.64-7.64-7.64z" fill="#363432" /><path d="M224.52 164.198m-15.23 0a15.23 15.23 0 1 0 30.46 0 15.23 15.23 0 1 0-30.46 0Z" fill="#EF7E20" /><path d="M224.52 187.028c-12.58 0-22.82-10.23-22.82-22.82s10.24-22.82 22.82-22.82c12.59 0 22.83 10.23 22.83 22.82s-10.24 22.82-22.83 22.82z m0-30.46c-4.21 0-7.64 3.43-7.64 7.64s3.43 7.64 7.64 7.64c4.22 0 7.65-3.43 7.65-7.64s-3.43-7.64-7.65-7.64z" fill="#363432" /><path d="M282.02 164.198m-15.23 0a15.23 15.23 0 1 0 30.46 0 15.23 15.23 0 1 0-30.46 0Z" fill="#EF7E20" /><path d="M282.02 187.028c-12.58 0-22.82-10.23-22.82-22.82s10.24-22.82 22.82-22.82 22.82 10.23 22.82 22.82-10.24 22.82-22.82 22.82z m0-30.46c-4.21 0-7.64 3.43-7.64 7.64s3.43 7.64 7.64 7.64c4.21 0 7.64-3.43 7.64-7.64s-3.43-7.64-7.64-7.64z" fill="#363432" /><path d="M451.94 616.148H182.26c-8.39 0-15.19-6.79-15.19-15.19 0-8.39 6.8-15.19 15.19-15.19h269.68c8.39 0 15.19 6.79 15.19 15.19-0.01 8.4-6.81 15.19-15.19 15.19zM451.94 688.338H182.26c-8.39 0-15.19-6.79-15.19-15.19 0-8.39 6.8-15.19 15.19-15.19h269.68c8.39 0 15.19 6.79 15.19 15.19-0.01 8.4-6.81 15.19-15.19 15.19z" fill="#363432" /><path d="M467.12 789.058h-15.19c-4.2 0-7.59-3.4-7.59-7.59 0-4.2 3.4-7.59 7.59-7.59h15.19c4.2 0 7.59 3.4 7.59 7.59 0.01 4.19-3.39 7.59-7.59 7.59zM510.47 789.058h-17.34c-4.2 0-7.59-3.4-7.59-7.59 0-4.2 3.4-7.59 7.59-7.59h17.34c4.2 0 7.59 3.4 7.59 7.59 0 4.19-3.4 7.59-7.59 7.59zM551.65 789.058h-15.19c-4.2 0-7.59-3.4-7.59-7.59 0-4.2 3.4-7.59 7.59-7.59h7.59v-7.59c0-4.2 3.4-7.59 7.59-7.59s7.59 3.4 7.59 7.59v15.19c0.01 4.18-3.38 7.58-7.58 7.58zM551.65 727.188c-4.2 0-7.59-3.4-7.59-7.59v-31.13c0-4.2 3.4-7.59 7.59-7.59s7.59 3.4 7.59 7.59v31.13c0 4.19-3.39 7.59-7.59 7.59z m0-77.85c-4.2 0-7.59-3.4-7.59-7.59v-31.13c0-4.2 3.4-7.59 7.59-7.59s7.59 3.4 7.59 7.59v31.13c0 4.19-3.39 7.59-7.59 7.59z m0-77.85c-4.2 0-7.59-3.4-7.59-7.59v-31.13c0-4.2 3.4-7.59 7.59-7.59s7.59 3.4 7.59 7.59v31.13c0 4.2-3.39 7.59-7.59 7.59z m0-77.84c-4.2 0-7.59-3.4-7.59-7.59v-31.13c0-4.2 3.4-7.59 7.59-7.59s7.59 3.4 7.59 7.59v31.13c0 4.19-3.39 7.59-7.59 7.59zM551.65 415.768c-4.2 0-7.59-3.4-7.59-7.59v-15.19c0-4.2 3.4-7.59 7.59-7.59h15.19c4.2 0 7.59 3.4 7.59 7.59s-3.4 7.59-7.59 7.59h-7.59v7.59c-0.01 4.21-3.4 7.6-7.6 7.6zM697.05 400.588h-26.04c-4.2 0-7.59-3.4-7.59-7.59s3.4-7.59 7.59-7.59h26.04c4.2 0 7.59 3.4 7.59 7.59s-3.4 7.59-7.59 7.59z m-65.11 0H605.9c-4.2 0-7.59-3.4-7.59-7.59s3.4-7.59 7.59-7.59h26.04c4.2 0 7.59 3.4 7.59 7.59s-3.39 7.59-7.59 7.59zM751.29 415.768c-4.2 0-7.59-3.4-7.59-7.59v-7.59h-7.59c-4.2 0-7.59-3.4-7.59-7.59s3.4-7.59 7.59-7.59h15.19c4.2 0 7.59 3.4 7.59 7.59v15.19a7.592 7.592 0 0 1-7.6 7.58zM751.29 472.278c-4.2 0-7.59-3.4-7.59-7.59v-22.6c0-4.2 3.4-7.59 7.59-7.59 4.2 0 7.59 3.4 7.59 7.59v22.6c0 4.19-3.39 7.59-7.59 7.59zM751.29 521.348c-4.2 0-7.59-3.4-7.59-7.59v-15.19c0-4.2 3.4-7.59 7.59-7.59 4.2 0 7.59 3.4 7.59 7.59v15.19c0 4.2-3.39 7.59-7.59 7.59z" fill="#FFFBF1" /><path d="M804.76 746.088h46.44v-172.4l-63.78-59.93H651.38v232.35h47.08" fill="#EF7E20" /><path d="M698.46 761.308h-47.07c-8.39 0-15.19-6.79-15.19-15.19v-232.36c0-8.39 6.8-15.19 15.19-15.19h136.04c3.86 0 7.59 1.47 10.4 4.12l63.78 59.93c3.06 2.86 4.79 6.87 4.79 11.06v172.39c0 8.39-6.8 15.19-15.19 15.19h-46.44c-8.39 0-15.19-6.79-15.19-15.19s6.8-15.19 15.19-15.19h31.26v-150.62l-54.62-51.31H666.57v201.99h31.89c8.39 0 15.19 6.79 15.19 15.19-0.01 8.39-6.81 15.18-15.19 15.18z" fill="#363432" /><path d="M787.36 573.688h63.78l-63.78-59.93v59.93z" fill="#EF7E20" /><path d="M851.14 588.878h-63.79c-8.39 0-15.19-6.79-15.19-15.19v-59.93c0-6.05 3.6-11.54 9.16-13.94 5.55-2.37 12.01-1.28 16.42 2.88l63.79 59.93a15.178 15.178 0 0 1 3.72 16.65 15.15 15.15 0 0 1-14.11 9.6z m-48.6-30.38h10.26l-10.26-9.64v9.64z" fill="#363432" /><path d="M751.29 849.848c-8.39 0-15.19-6.79-15.19-15.19v-179.08c0-8.39 6.8-15.19 15.19-15.19s15.19 6.79 15.19 15.19v179.08c0 8.4-6.8 15.19-15.19 15.19z" fill="#363432" /><path d="M751.39 849.908c-3.37 0-6.73-1.11-9.51-3.35l-42.67-34.13c-6.56-5.22-7.65-14.79-2.42-21.34 5.22-6.57 14.8-7.62 21.34-2.42l33.26 26.56 33.01-26.52c6.53-5.25 16.1-4.21 21.35 2.33 5.26 6.53 4.22 16.09-2.32 21.34l-42.52 34.17a15.128 15.128 0 0 1-9.52 3.36z" fill="#363432" /><path d="M182.26 327.398h269.68v201.34H182.26z" fill="#FFFBF1" /><path d="M451.94 543.918H182.26c-8.39 0-15.19-6.79-15.19-15.19v-201.33c0-8.39 6.8-15.19 15.19-15.19h269.68c8.39 0 15.19 6.79 15.19 15.19v201.34c-0.01 8.39-6.81 15.18-15.19 15.18z m-254.5-30.37h239.31v-170.96H197.44v170.96z" fill="#363432" /><path d="M415.82 817.578H218.4c-19.94 0-36.11-16.17-36.11-36.11 0-19.94 16.17-36.11 36.11-36.11h197.42c19.94 0 36.11 16.17 36.11 36.11 0.01 19.95-16.16 36.11-36.11 36.11z" fill="#FFFBF1" /><path d="M415.82 832.758H218.4c-28.29 0-51.3-23.02-51.3-51.3 0-28.28 23.01-51.3 51.3-51.3h197.42c28.29 0 51.3 23.02 51.3 51.3 0 28.29-23.01 51.3-51.3 51.3z m-197.42-72.22c-11.54 0-20.93 9.39-20.93 20.93s9.39 20.93 20.93 20.93h197.42c11.54 0 20.93-9.39 20.93-20.93s-9.39-20.93-20.93-20.93H218.4z" fill="#363432" /></svg>