<?xml version="1.0" standalone="no"?><!DOCTYPE svg PUBLIC "-//W3C//DTD SVG 1.1//EN" "http://www.w3.org/Graphics/SVG/1.1/DTD/svg11.dtd"><svg class="icon" width="200px" height="200.00px" viewBox="0 0 1024 1024" version="1.1" xmlns="http://www.w3.org/2000/svg"><path d="M337.264 471.83c-69.54-0.03-125.93 56.31-125.96 125.85s56.31 125.93 125.85 125.96h0.11V471.83z" fill="#EF7E20" /><path d="M337.264 745.45c-81.57-0.03-147.8-66.33-147.77-147.78 0.04-81.41 66.3-147.64 147.72-147.64h0.06c12.04 0 21.79 9.77 21.79 21.8v251.82c0 12.04-9.76 21.8-21.8 21.8z m-21.8-249.53c-46.99 10.02-82.34 51.85-82.36 101.78-0.01 27.8 10.81 53.95 30.47 73.62 14.43 14.46 32.37 24.14 51.9 28.27V495.92z" fill="#363432" /><path d="M844.224 619.56c-12.04 0-21.8-9.77-21.8-21.8V400.98c-1.1-162.22-133.37-293.38-295.28-293.38-0.67 0-1.34 0.01-2.02 0.01-162.83 1.11-294.39 134.48-293.29 297.31v192.82c0 12.04-9.76 21.8-21.8 21.8-12.04 0-21.8-9.77-21.8-21.8V405.07c-1.26-186.72 149.73-339.78 336.6-341.06 0.77 0 1.55-0.01 2.31-0.01 185.83 0 337.62 150.52 338.88 336.62v197.13c0 12.04-9.76 21.81-21.8 21.81z" fill="#363432" /><path d="M844.224 434.77c0-148.12-141.97-268.2-317.1-268.2s-317.09 120.07-317.09 268.2v-29.71c-1.19-175.12 139.82-318.05 314.95-319.24s318.06 139.82 319.24 314.95c0.01 1.43 0.01 2.86 0 4.3v29.7z" fill="#E9E7DF" /><path d="M844.224 449.31c-8.03 0-14.53-6.5-14.53-14.53 0-139.88-135.73-253.66-302.57-253.66-166.83 0-302.55 113.79-302.55 253.66 0 8.03-6.51 14.53-14.53 14.53-8.03 0-14.53-6.5-14.53-14.53v-29.71c-1.25-182.76 146.51-332.54 329.37-333.79 0.75 0 1.52-0.01 2.26-0.01 181.85 0 330.38 147.3 331.61 329.4v34.11c0 8.03-6.5 14.53-14.53 14.53z m-317.1-297.27c114.45 0 215.53 49.68 275.16 125.06-48.15-104.87-154.97-177.05-277.2-176.75-121.23 0.82-225.56 73.22-273.09 176.75 59.61-75.38 160.7-125.06 275.13-125.06zM388.744 738.19c-8.03 0-14.53-6.5-14.53-14.53V471.83c0-8.03 6.51-14.53 14.53-14.53 8.03 0 14.53 6.5 14.53 14.53v251.82c0 8.04-6.5 14.54-14.53 14.54z" fill="#363432" /><path d="M718.364 723.65c69.54 0 125.91-56.37 125.91-125.91 0-69.54-56.37-125.91-125.91-125.91v251.82z" fill="#EF7E20" /><path d="M718.364 745.45c-12.04 0-21.8-9.77-21.8-21.8V471.83c0-12.04 9.76-21.8 21.8-21.8 81.44 0 147.7 66.27 147.7 147.71s-66.26 147.71-147.7 147.71z m21.8-249.52v203.62c46.97-10.05 82.3-51.88 82.3-101.81s-35.33-91.76-82.3-101.81z" fill="#363432" /><path d="M666.834 738.19c-8.03 0-14.53-6.5-14.53-14.53V471.83c0-8.03 6.51-14.53 14.53-14.53s14.54 6.5 14.54 14.53v251.82c0 8.04-6.51 14.54-14.54 14.54z" fill="#363432" /><path d="M496.904 939.29c-155.66 0-260-28.15-310.13-83.64-28.72-31.81-29.18-61.87-28.77-69.45V525.78c0-12.04 9.76-21.8 21.8-21.8s21.8 9.77 21.8 21.8v261.13c0 0.74-0.04 1.48-0.11 2.21 0.01 0.23-0.65 18.12 19.34 39.13 29.27 30.76 100.92 67.43 276.08 67.43 12.04 0 21.8 9.77 21.8 21.8-0.01 12.05-9.77 21.81-21.81 21.81z" fill="#363432" /><path d="M578.964 945.47h-103.68c-14.03-0.04-25.39-11.4-25.43-25.43v-5.09c0.05-14.03 11.41-25.39 25.43-25.43h103.69c14.03 0.04 25.39 11.4 25.43 25.43v5.09c-0.04 14.03-11.4 25.4-25.44 25.43z" fill="#EF7E20" /><path d="M578.994 960H475.284c-22-0.07-39.91-17.98-39.97-39.93v-5.12c0.08-22 17.99-39.9 39.93-39.97h103.73c22 0.07 39.91 17.98 39.97 39.93v5.12c-0.05 22.02-17.97 39.93-39.95 39.97z m-0.07-55.95h-103.64c-5.97 0.01-10.88 4.93-10.9 10.96v5.02c0.01 5.98 4.93 10.89 10.94 10.9h103.64c6-0.03 10.89-4.93 10.9-10.93v-5.05c-0.01-5.98-4.92-10.89-10.94-10.9z" fill="#363432" /></svg>