<?xml version="1.0" standalone="no"?><!DOCTYPE svg PUBLIC "-//W3C//DTD SVG 1.1//EN" "http://www.w3.org/Graphics/SVG/1.1/DTD/svg11.dtd"><svg class="icon" width="200px" height="200.00px" viewBox="0 0 1024 1024" version="1.1" xmlns="http://www.w3.org/2000/svg"><path d="M766.248 429.529c-13.98-140.42-139.15-242.91-279.56-228.93-121.09 12.06-216.87 107.85-228.93 228.93-108.67 14.16-185.28 113.73-171.12 222.4 12.88 98.85 97.1 172.8 196.79 172.79h457.15c109.59 0.02 198.44-88.8 198.46-198.39 0.02-99.69-73.93-183.92-172.79-196.8z" fill="#EF7E20" /><path d="M740.628 845.669H283.398c-109.85 0-203.36-82.12-217.55-191.04-14.91-114.52 61.76-220.25 173.12-243.18 19.57-122.95 120.5-219.23 245.64-231.69 73.48-7.42 145.42 14.42 202.55 61.19 52.96 43.37 87.33 103.45 97.9 170.51 100.82 20.86 174.96 110.5 174.95 214.88-0.01 58.61-22.84 113.7-64.29 155.13-41.43 41.4-96.51 64.2-155.09 64.2z m-457.2-41.92h457.2c47.39 0 91.93-18.45 125.45-51.95 33.53-33.51 52-78.07 52-125.47 0.01-88.86-66.43-164.53-154.54-176.02-9.66-1.26-17.18-9.01-18.15-18.71-6.21-62.33-36.32-118.53-84.79-158.22s-109.48-58.05-171.84-51.92c-110.74 11.04-199.11 99.41-210.15 210.15-0.97 9.7-8.49 17.45-18.15 18.71-97.03 12.65-165.69 101.88-153.05 198.92 11.48 88.1 87.14 154.53 175.98 154.53 0.03-0.02 0.03-0.02 0.04-0.02z" fill="#363432" /><path d="M611.218 734.559h-198.42c-24.62 0-44.58-19.96-44.58-44.58v-148.98c0-24.62 19.96-44.58 44.58-44.58h198.42c24.62 0 44.57 19.96 44.57 44.58v149c-0.01 24.61-19.96 44.56-44.57 44.56z" fill="#FFFBF1" /><path d="M611.218 755.509h-198.42c-36.13 0-65.53-29.39-65.53-65.53v-148.98c0-36.13 29.4-65.54 65.53-65.54h198.42c36.13 0 65.53 29.41 65.53 65.54v149c-0.02 36.13-29.42 65.51-65.53 65.51z m-198.42-238.13c-13.02 0-23.61 10.6-23.61 23.62v148.98c0 13.02 10.6 23.61 23.61 23.61h198.42c13.01 0 23.61-10.59 23.61-23.61v-148.98c0-13.02-10.6-23.62-23.61-23.62h-198.42z" fill="#363432" /><path d="M544.748 599.129c0.11-18.09-14.46-32.84-32.55-32.95-18.09-0.11-32.84 14.46-32.95 32.55a32.756 32.756 0 0 0 12.57 26l-5.98 56.93a4.372 4.372 0 0 0 3.87 4.8c0.16 0.02 0.31 0.02 0.47 0.02h43.85c2.42 0 4.37-1.96 4.37-4.37 0-0.56-0.11-1.12-0.32-1.65l-5.87-55.73a32.604 32.604 0 0 0 12.54-25.6z" fill="#363432" /><path d="M635.138 517.389h-246.26c-5.56 0-10.89-2.21-14.82-6.14a20.934 20.934 0 0 1-6.14-14.82c0.01-79.42 64.64-144.05 144.06-144.06h0.03c79.44 0 144.08 64.61 144.09 144.06 0 5.55-2.2 10.89-6.14 14.82a20.959 20.959 0 0 1-14.82 6.14z m-223.14-41.92h200.01c-9.7-46.3-50.86-81.18-100-81.18h-0.02c-49.13 0.02-90.28 34.9-99.99 81.18z" fill="#363432" /></svg>