<?xml version="1.0" standalone="no"?><!DOCTYPE svg PUBLIC "-//W3C//DTD SVG 1.1//EN" "http://www.w3.org/Graphics/SVG/1.1/DTD/svg11.dtd"><svg class="icon" width="200px" height="200.00px" viewBox="0 0 1024 1024" version="1.1" xmlns="http://www.w3.org/2000/svg"><path d="M619.214 338.063v104.28c0 5.54 1.18 11.01 3.45 16.06l190.04 424.23c8.87 19.88-0.06 43.19-19.94 52.06a39.453 39.453 0 0 1-15.98 3.42h-529.55c-21.77-0.05-39.38-17.73-39.34-39.51 0.01-5.51 1.18-10.95 3.42-15.98l190.05-424.2a39.49 39.49 0 0 0 3.45-16.06v-104.3c0-21.77 17.65-39.42 39.42-39.42h135.7c21.71 0.07 39.28 17.69 39.28 39.42z" fill="#EF7E20" /><path d="M776.784 960.003h-529.54c-16.43-0.03-31.81-6.44-43.37-18.04-11.56-11.62-17.91-27.03-17.87-43.42 0.01-8.58 1.8-16.95 5.33-24.85l190.03-424.22c1.01-2.22 1.53-4.71 1.54-7.16v-104.26c0-33.82 27.5-61.32 61.32-61.32h135.7c33.78 0.11 61.2 27.62 61.2 61.32v104.28c0 2.45 0.51 4.83 1.51 7.06l190.06 424.27c13.78 30.93-0.14 67.26-31.01 81.03-7.93 3.52-16.29 5.31-24.9 5.31z m-196.93-639.47h-135.63c-9.66 0-17.52 7.86-17.52 17.52v104.31c-0.02 8.74-1.83 17.14-5.38 25.02l-190.01 424.19c-1 2.22-1.51 4.61-1.51 7.06-0.01 4.71 1.8 9.1 5.1 12.4 3.3 3.32 7.69 5.15 12.38 5.16h529.5c2.43 0 4.81-0.51 7.08-1.51 8.8-3.94 12.78-14.32 8.83-23.14l-190.03-424.2c-3.54-7.87-5.35-16.3-5.35-25.01v-104.28c0-9.62-7.83-17.49-17.46-17.52z" fill="#363432" /><path d="M567.164 697.183m-43.13 0a43.13 43.13 0 1 0 86.26 0 43.13 43.13 0 1 0-86.26 0Z" fill="#FFFBF1" /><path d="M567.164 754.913c-31.83 0-57.72-25.89-57.72-57.73 0-31.82 25.89-57.72 57.72-57.72s57.73 25.89 57.73 57.72-25.9 57.73-57.73 57.73z m0-86.25c-15.73 0-28.52 12.79-28.52 28.52s12.8 28.53 28.52 28.53c15.73 0 28.53-12.8 28.53-28.53s-12.8-28.52-28.53-28.52z" fill="#363432" /><path d="M309.184 721.023h405.63c15.5 0.02 29.55 9.12 35.9 23.26l61.98 138.34c8.87 19.88-0.06 43.19-19.94 52.06a39.36 39.36 0 0 1-15.96 3.42h-529.58c-21.77-0.05-39.38-17.75-39.32-39.52a39.36 39.36 0 0 1 3.42-15.96l61.98-138.34c6.35-14.13 20.4-23.24 35.89-23.26z" fill="#FFFBF1" /><path d="M776.854 960.003h-529.64c-16.43-0.03-31.81-6.44-43.37-18.05-11.56-11.62-17.89-27.03-17.85-43.42 0.02-8.6 1.8-16.95 5.3-24.81l62.01-138.39c9.88-21.99 31.8-36.17 55.86-36.2h405.65c24.08 0.03 46 14.22 55.88 36.17l61.99 138.36c13.79 30.93-0.13 67.26-31 81.03-7.86 3.5-16.21 5.28-24.83 5.31z m-467.65-217.07c-6.87 0-13.13 4.06-15.95 10.34l-61.97 138.3c-0.98 2.21-1.49 4.61-1.5 7.07-0.01 4.68 1.8 9.08 5.1 12.39a17.37 17.37 0 0 0 12.37 5.16h529.54c2.42 0 4.81-0.51 7.05-1.51 8.81-3.94 12.79-14.32 8.85-23.14l-61.96-138.3a17.515 17.515 0 0 0-15.94-10.31h-405.59z" fill="#363432" /><path d="M535.394 829.553m-19.01 0a19.01 19.01 0 1 0 38.02 0 19.01 19.01 0 1 0-38.02 0Z" fill="#EF7E20" /><path d="M535.394 855.863c-14.51 0-26.31-11.81-26.31-26.31s11.81-26.31 26.31-26.31c14.51 0 26.31 11.81 26.31 26.31s-11.8 26.31-26.31 26.31z m0-38.02c-6.46 0-11.71 5.25-11.71 11.71s5.25 11.71 11.71 11.71c6.45 0 11.71-5.25 11.71-11.71s-5.26-11.71-11.71-11.71z" fill="#363432" /><path d="M597.534 788.003m-28 0a28 28 0 1 0 56 0 28 28 0 1 0-56 0Z" fill="#EF7E20" /><path d="M597.534 823.303c-19.47 0-35.3-15.84-35.3-35.3s15.83-35.3 35.3-35.3 35.3 15.84 35.3 35.3-15.83 35.3-35.3 35.3z m0-56c-11.41 0-20.7 9.28-20.7 20.7s9.29 20.7 20.7 20.7 20.7-9.28 20.7-20.7-9.29-20.7-20.7-20.7z" fill="#363432" /><path d="M621.504 335.213h-219c-20.13-0.06-36.44-16.37-36.5-36.5 0.06-20.13 16.37-36.44 36.5-36.5h219.01c20.13 0.06 36.44 16.37 36.5 36.5-0.09 20.12-16.38 36.42-36.51 36.5z" fill="#EF7E20" /><path d="M621.504 357.103h-219c-32.13-0.09-58.3-26.26-58.4-58.33 0.1-32.2 26.26-58.36 58.32-58.47h219.08c32.14 0.11 58.3 26.28 58.4 58.33-0.13 32.2-26.29 58.36-58.32 58.47h-0.08z m-0.08-73h-218.92c-7.99 0.03-14.57 6.62-14.6 14.67 0.03 7.93 6.6 14.5 14.66 14.53h218.89c8.05-0.04 14.62-6.63 14.65-14.69-0.03-7.89-6.61-14.48-14.68-14.51z" fill="#363432" /><path d="M423.054 554.113l41.79-93.24v-72.02" fill="#EF7E20" /><path d="M423.054 568.713c-2 0-4.03-0.41-5.97-1.28-7.36-3.29-10.64-11.93-7.35-19.29l40.51-90.38v-68.9c0-8.07 6.54-14.6 14.6-14.6s14.6 6.53 14.6 14.6v72.02c0 2.05-0.43 4.09-1.28 5.97l-41.78 93.23c-2.43 5.42-7.76 8.63-13.33 8.63z" fill="#363432" /><path d="M525.234 173.393m-23.45 0a23.45 23.45 0 1 0 46.9 0 23.45 23.45 0 1 0-46.9 0Z" fill="#EF7E20" /><path d="M525.234 204.143c-16.96 0-30.75-13.8-30.75-30.75s13.79-30.74 30.75-30.74c16.95 0 30.75 13.79 30.75 30.74s-13.8 30.75-30.75 30.75z m0-46.89c-8.9 0-16.15 7.24-16.15 16.14 0 8.91 7.25 16.15 16.15 16.15s16.15-7.24 16.15-16.15c0-8.9-7.25-16.14-16.15-16.14z" fill="#363432" /><path d="M588.054 105.853m-34.56 0a34.56 34.56 0 1 0 69.12 0 34.56 34.56 0 1 0-69.12 0Z" fill="#EF7E20" /><path d="M588.054 147.713c-23.08 0-41.86-18.78-41.86-41.86 0-23.07 18.78-41.85 41.86-41.85s41.86 18.78 41.86 41.85c0 23.08-18.77 41.86-41.86 41.86z m0-69.11c-15.04 0-27.26 12.22-27.26 27.25s12.23 27.26 27.26 27.26 27.26-12.23 27.26-27.26-12.22-27.25-27.26-27.25z" fill="#363432" /></svg>