<?xml version="1.0" standalone="no"?><!DOCTYPE svg PUBLIC "-//W3C//DTD SVG 1.1//EN" "http://www.w3.org/Graphics/SVG/1.1/DTD/svg11.dtd"><svg class="icon" width="200px" height="200.00px" viewBox="0 0 1024 1024" version="1.1" xmlns="http://www.w3.org/2000/svg"><path d="M184.267 579.727L671.466 92.528 938.87 359.932l-487.2 487.2z" fill="#E9E7DF" /><path d="M451.682 868.267c-5.6 0-10.97-2.23-14.94-6.19l-267.41-267.42c-8.25-8.25-8.25-21.62 0-29.87l487.21-487.2c8.25-8.25 21.62-8.25 29.87 0l267.4 267.41c8.25 8.25 8.25 21.62 0 29.87l-487.2 487.21a21.119 21.119 0 0 1-14.93 6.19z m-237.55-288.54l237.54 237.55 457.33-457.34-237.53-237.54-457.34 457.33z" fill="#363432" /><path d="M444.406765 586.993254a117.77 165.68 44.999 1 0 234.302813-234.310993 117.77 165.68 44.999 1 0-234.302813 234.310993Z" fill="#EF7E20" /><path d="M513.942 627.707c-31.67 0-59.29-10.56-79.49-30.76-25.56-25.55-35.68-63.03-28.5-105.5 6.88-40.72 29.03-81.5 62.37-114.85 33.34-33.35 74.13-55.51 114.85-62.38 42.47-7.14 79.94 2.94 105.5 28.51 25.56 25.55 35.68 63.03 28.5 105.5-6.88 40.72-29.04 81.5-62.38 114.85-33.34 33.35-74.13 55.51-114.84 62.38-8.91 1.49-17.6 2.25-26.01 2.25z m-25.7-231.19c-29.24 29.25-48.6 64.62-54.52 99.62-5.62 33.24 1.71 61.97 20.64 80.89 18.92 18.94 47.63 26.23 80.9 20.66 34.99-5.93 70.37-25.29 99.62-54.53 29.24-29.25 48.61-64.62 54.52-99.62 5.62-33.24-1.71-61.97-20.64-80.89-18.93-18.95-47.64-26.27-80.9-20.66-34.99 5.92-70.38 25.29-99.62 54.53z" fill="#363432" /><path d="M85.122 439.897h689.01v491.57H85.122z" fill="#E9E7DF" /><path d="M774.132 952.597H85.122c-11.67 0-21.12-9.46-21.12-21.12v-491.57c0-11.66 9.45-21.12 21.12-21.12h689.01c11.67 0 21.12 9.46 21.12 21.12v491.57c0.01 11.66-9.45 21.12-21.12 21.12z m-667.88-42.25h646.76v-449.32h-646.76v449.32z" fill="#363432" /><path d="M774.132 863.547h-53.71c-7.78 0-14.08-6.3-14.08-14.08s6.31-14.08 14.08-14.08h45.53a14.01 14.01 0 0 1 8.18-2.61c7.78 0 14.08 6.3 14.08 14.08v2.61c0 7.78-6.3 14.08-14.08 14.08z m-124.12 0h-56.33c-7.78 0-14.08-6.3-14.08-14.08s6.31-14.08 14.08-14.08h56.33c7.78 0 14.08 6.3 14.08 14.08s-6.3 14.08-14.08 14.08z m-126.75 0h-56.33c-7.78 0-14.08-6.3-14.08-14.08s6.31-14.08 14.08-14.08h56.33c7.78 0 14.08 6.3 14.08 14.08s-6.3 14.08-14.08 14.08z m-126.74 0h-56.33c-7.78 0-14.08-6.3-14.08-14.08s6.31-14.08 14.08-14.08h56.33c7.78 0 14.08 6.3 14.08 14.08s-6.3 14.08-14.08 14.08z m-126.74 0h-56.33c-7.78 0-14.08-6.3-14.08-14.08s6.31-14.08 14.08-14.08h56.33c7.78 0 14.08 6.3 14.08 14.08s-6.31 14.08-14.08 14.08z m-126.75 0h-56.33c-7.78 0-14.08-6.3-14.08-14.08s6.31-14.08 14.08-14.08h56.33c7.78 0 14.08 6.3 14.08 14.08s-6.3 14.08-14.08 14.08z m-57.91-68.83c-7.78 0-14.08-6.3-14.08-14.08v-56.33c0-7.78 6.31-14.08 14.08-14.08s14.08 6.3 14.08 14.08v56.33c0 7.78-6.3 14.08-14.08 14.08z m689.01-4.19c-7.78 0-14.08-6.3-14.08-14.08v-56.34c0-7.78 6.31-14.08 14.08-14.08 7.78 0 14.08 6.3 14.08 14.08v56.33c0 7.79-6.3 14.09-14.08 14.09z m-689.01-122.55c-7.78 0-14.08-6.3-14.08-14.08v-56.33c0-7.78 6.31-14.08 14.08-14.08s14.08 6.3 14.08 14.08v56.33c0 7.78-6.3 14.08-14.08 14.08z m689.01-4.2c-7.78 0-14.08-6.3-14.08-14.08v-56.33c0-7.78 6.31-14.08 14.08-14.08 7.78 0 14.08 6.3 14.08 14.08v56.33c0 7.78-6.3 14.08-14.08 14.08z m-689.01-122.55c-7.78 0-14.08-6.3-14.08-14.08v-5.24c0-7.78 6.31-14.08 14.08-14.08h56.33c7.78 0 14.08 6.3 14.08 14.08s-6.31 14.08-14.08 14.08h-45.37a14.068 14.068 0 0 1-10.96 5.24z m689.01-4.71c-1.38 0-2.71-0.18-3.97-0.52h-51.32c-7.78 0-14.08-6.3-14.08-14.08s6.31-14.08 14.08-14.08h55.29c7.78 0 14.08 6.3 14.08 14.08s-6.3 14.6-14.08 14.6z m-125.7-0.53h-56.33c-7.78 0-14.08-6.3-14.08-14.08s6.31-14.08 14.08-14.08h56.33c7.78 0 14.08 6.3 14.08 14.08s-6.31 14.08-14.08 14.08z m-126.75 0h-56.33c-7.78 0-14.08-6.3-14.08-14.08s6.31-14.08 14.08-14.08h56.33c7.78 0 14.08 6.3 14.08 14.08s-6.3 14.08-14.08 14.08z m-126.74 0h-56.33c-7.78 0-14.08-6.3-14.08-14.08s6.31-14.08 14.08-14.08h56.33c7.78 0 14.08 6.3 14.08 14.08s-6.3 14.08-14.08 14.08z m-126.74 0h-56.33c-7.78 0-14.08-6.3-14.08-14.08s6.31-14.08 14.08-14.08h56.33c7.78 0 14.08 6.3 14.08 14.08s-6.31 14.08-14.08 14.08z" fill="#363432" /><path d="M661.402 605.257h225.46v160.85h-225.46z" fill="#EF7E20" /><path d="M886.862 787.237h-225.46c-11.67 0-21.12-9.46-21.12-21.12v-160.85c0-11.66 9.45-21.12 21.12-21.12h225.47c11.67 0 21.12 9.46 21.12 21.12v160.85c0 11.66-9.46 21.12-21.13 21.12z m-204.34-42.25h183.22v-118.6h-183.22v118.6z" fill="#363432" /><path d="M723.532 685.687m-18.77 0a18.77 18.77 0 1 0 37.54 0 18.77 18.77 0 1 0-37.54 0Z" fill="#E9E7DF" /><path d="M723.532 711.497c-14.23 0-25.81-11.58-25.81-25.81 0-14.23 11.58-25.81 25.81-25.81 14.23 0 25.81 11.58 25.81 25.81 0 14.23-11.58 25.81-25.81 25.81z m0-37.54c-6.47 0-11.73 5.27-11.73 11.73 0 6.46 5.26 11.73 11.73 11.73s11.73-5.27 11.73-11.73c0-6.46-5.26-11.73-11.73-11.73z" fill="#363432" /><path d="M671.432 224.877c-33.91 0-67.81-12.91-93.62-38.73l19.91-19.91c40.63 40.64 106.75 40.65 147.38 0.04l2.15-1.76 7.94 11.84 9.83 9.83c-25.81 25.81-59.7 38.69-93.59 38.69z" fill="#363432" /><path d="M844.132 452.317l-1.18-1.06c-25-25.02-38.75-58.26-38.75-93.63 0.01-35.36 13.79-68.6 38.8-93.59l19.91 19.91c-19.69 19.68-30.54 45.85-30.54 73.69-0.01 27.6 10.64 53.57 30 73.2l0.54 0.54-19.91 19.91 9.96-9.96-8.83 10.99z" fill="#363432" /><path d="M600.012 742.607c-7.78 0-14.08-6.3-14.08-14.08v-85.66c0-7.78 6.31-14.08 14.08-14.08 7.78 0 14.08 6.3 14.08 14.08v85.66c0 7.78-6.3 14.08-14.08 14.08z" fill="#363432" /></svg>