<?xml version="1.0" standalone="no"?><!DOCTYPE svg PUBLIC "-//W3C//DTD SVG 1.1//EN" "http://www.w3.org/Graphics/SVG/1.1/DTD/svg11.dtd"><svg class="icon" width="200px" height="200.00px" viewBox="0 0 1024 1024" version="1.1" xmlns="http://www.w3.org/2000/svg"><path d="M512.005 101.302c-235.23 0-426.58 148.89-426.58 331.9 0 90.59 46.66 175.4 131.37 238.86a31.609 31.609 0 0 1 12.61 25.35c-0.5 120.64 73.15 189.82 130.29 225.29-15.26-58.37 5.99-120.19 53.92-156.84a31.093 31.093 0 0 1 23.56-6.21c24.79 3.56 49.79 5.39 74.84 5.47 235.22 0 426.58-148.87 426.58-331.9s-191.38-331.92-426.59-331.92z" fill="#FFFBF1" /><path d="M359.685 944.112c-3.91 0-7.82-1.07-11.29-3.22-64.35-39.94-140.96-114.61-140.42-243.56 0.01-3.18-1.51-6.23-4.05-8.14-90.23-67.59-139.92-158.5-139.92-255.97 0-194.81 200.97-353.32 448-353.32s448 158.5 448 353.33c0 194.81-200.97 353.3-448 353.3-26.01-0.07-52.19-1.98-77.89-5.69-2.6-0.32-5.3 0.32-7.38 1.95-41.3 31.58-59.44 84.33-46.32 134.48 2.22 8.48-0.96 17.46-8 22.66a21.528 21.528 0 0 1-12.73 4.18z m152.32-821.39c-223.41 0-405.16 139.27-405.16 310.48 0 83.65 43.61 162.38 122.79 221.71 13.32 10 21.23 25.91 21.18 42.54-0.36 84.92 39.2 142.29 82.7 179.67 2.18-49.74 26.06-96.93 67.08-128.29 11.11-8.62 25.6-12.42 39.64-10.4 23.7 3.42 47.87 5.17 71.83 5.24 223.34 0 405.1-139.27 405.1-310.47 0-171.19-181.76-310.48-405.16-310.48z" fill="#363432" /><path d="M528.345 434.942m-55.92 0a55.92 55.92 0 1 0 111.84 0 55.92 55.92 0 1 0-111.84 0Z" fill="#EF7E20" /><path d="M528.345 505.132c-38.71 0-70.2-31.49-70.2-70.18 0-38.71 31.49-70.2 70.2-70.2s70.2 31.49 70.2 70.2c0 38.69-31.49 70.18-70.2 70.18z m0-111.82c-22.96 0-41.64 18.69-41.64 41.64s18.68 41.62 41.64 41.62 41.64-18.67 41.64-41.62c0-22.95-18.68-41.64-41.64-41.64z" fill="#363432" /><path d="M372.235 474.792c-6.87 0-12.93-4.96-14.08-11.98-1.28-7.78 4-15.12 11.78-16.4l100.94-16.52c7.89-1.23 15.13 4 16.4 11.8 1.28 7.78-4 15.12-11.78 16.4l-100.94 16.52c-0.78 0.12-1.56 0.18-2.32 0.18zM488.685 409.812c-3.64 0-7.28-1.38-10.06-4.16l-76.75-76.25c-5.6-5.55-5.63-14.59-0.07-20.19 5.56-5.58 14.61-5.62 20.19-0.06l76.75 76.25c5.6 5.55 5.63 14.59 0.07 20.19a14.235 14.235 0 0 1-10.13 4.22zM568.015 409.812c-3.63 0-7.26-1.38-10.05-4.13-5.61-5.55-5.65-14.6-0.1-20.19l92.1-93.02c5.54-5.63 14.59-5.65 20.19-0.11 5.61 5.55 5.65 14.6 0.1 20.19l-92.1 93.02a14.196 14.196 0 0 1-10.14 4.24zM617.785 560.082c-4.17 0-8.3-1.81-11.12-5.31l-54.33-67.34c-4.95-6.14-3.99-15.13 2.15-20.08 6.14-4.96 15.12-4 20.08 2.15l54.33 67.34c4.95 6.14 3.99 15.13-2.15 20.08a14.217 14.217 0 0 1-8.96 3.16zM418.285 566.822c-3.5 0-7.01-1.28-9.76-3.85-5.75-5.4-6.05-14.43-0.66-20.19l71.88-76.79c5.39-5.76 14.43-6.04 20.18-0.67 5.75 5.4 6.05 14.43 0.66 20.19l-71.88 76.79c-2.8 3-6.61 4.52-10.42 4.52z" fill="#363432" /><path d="M390.915 298.412m-29.63 0a29.63 29.63 0 1 0 59.26 0 29.63 29.63 0 1 0-59.26 0Z" fill="#EF7E20" /><path d="M390.915 335.182c-20.27 0-36.77-16.5-36.77-36.77s16.5-36.77 36.77-36.77 36.77 16.5 36.77 36.77-16.49 36.77-36.77 36.77z m0-59.26c-12.4 0-22.49 10.1-22.49 22.49 0 12.4 10.09 22.49 22.49 22.49s22.49-10.1 22.49-22.49c0-12.4-10.09-22.49-22.49-22.49z" fill="#363432" /><path d="M680.965 281.442m-29.63 0a29.63 29.63 0 1 0 59.26 0 29.63 29.63 0 1 0-59.26 0Z" fill="#EF7E20" /><path d="M680.965 318.212c-20.27 0-36.77-16.5-36.77-36.76 0-20.27 16.5-36.77 36.77-36.77s36.77 16.5 36.77 36.77c0 20.26-16.5 36.76-36.77 36.76z m0-59.25c-12.4 0-22.49 10.1-22.49 22.49s10.09 22.48 22.49 22.48 22.49-10.08 22.49-22.48-10.09-22.49-22.49-22.49z" fill="#363432" /><path d="M636.345 568.812m-29.63 0a29.63 29.63 0 1 0 59.26 0 29.63 29.63 0 1 0-59.26 0Z" fill="#EF7E20" /><path d="M636.345 605.572c-20.27 0-36.77-16.5-36.77-36.76 0-20.27 16.5-36.77 36.77-36.77s36.77 16.5 36.77 36.77c0 20.26-16.5 36.76-36.77 36.76z m0-59.25c-12.4 0-22.49 10.1-22.49 22.49 0 12.4 10.09 22.48 22.49 22.48s22.49-10.08 22.49-22.48c0-12.39-10.09-22.49-22.49-22.49z" fill="#363432" /><path d="M398.055 574.162m-29.63 0a29.63 29.63 0 1 0 59.26 0 29.63 29.63 0 1 0-59.26 0Z" fill="#EF7E20" /><path d="M398.055 610.932c-20.27 0-36.77-16.5-36.77-36.76 0-20.27 16.5-36.77 36.77-36.77s36.77 16.5 36.77 36.77c0 20.26-16.5 36.76-36.77 36.76z m0-59.25c-12.4 0-22.49 10.1-22.49 22.49s10.09 22.48 22.49 22.48 22.49-10.08 22.49-22.48-10.09-22.49-22.49-22.49z" fill="#363432" /><path d="M343.035 465.282m-29.63 0a29.63 29.63 0 1 0 59.26 0 29.63 29.63 0 1 0-59.26 0Z" fill="#EF7E20" /><path d="M343.035 502.052c-20.27 0-36.77-16.5-36.77-36.76 0-20.27 16.5-36.77 36.77-36.77s36.77 16.5 36.77 36.77c0 20.26-16.49 36.76-36.77 36.76z m0-59.25c-12.4 0-22.49 10.1-22.49 22.49s10.09 22.48 22.49 22.48 22.49-10.08 22.49-22.48-10.08-22.49-22.49-22.49z" fill="#363432" /></svg>