<?xml version="1.0" standalone="no"?><!DOCTYPE svg PUBLIC "-//W3C//DTD SVG 1.1//EN" "http://www.w3.org/Graphics/SVG/1.1/DTD/svg11.dtd"><svg class="icon" width="200px" height="200.00px" viewBox="0 0 1024 1024" version="1.1" xmlns="http://www.w3.org/2000/svg"><path d="M511.996 91.332l-425.06 280.44v560.89h850.14v-560.89l-425.08-280.44z" fill="#EF7E20" /><path d="M937.066 955.602H86.936c-12.67 0-22.94-10.27-22.94-22.94v-560.9c0-7.7 3.87-14.9 10.3-19.14l425.07-280.44c7.66-5.05 17.6-5.05 25.26 0l425.07 280.44a22.936 22.936 0 0 1 10.3 19.14v560.9c0 12.66-10.26 22.94-22.93 22.94z m-827.2-45.87h804.26v-525.62l-402.13-265.31-402.13 265.31v525.62z" fill="#363432" /><path d="M937.066 460.012l-425.07 280.51-425.06-280.51v472.65h850.14v-472.65z" fill="#FFFBF1" /><path d="M937.066 955.602H86.936c-12.67 0-22.94-10.27-22.94-22.94v-472.65c0-8.44 4.64-16.2 12.06-20.2 7.44-3.96 16.47-3.58 23.5 1.06l412.44 272.17 412.43-272.18c7.05-4.66 16.08-5.03 23.5-1.06a22.95 22.95 0 0 1 12.06 20.2v472.65c0.01 12.67-10.25 22.95-22.92 22.95z m-827.2-45.87h804.26v-407.1l-389.5 257.04a22.952 22.952 0 0 1-25.26 0l-389.5-257.04v407.1z" fill="#363432" /><path d="M445.086 696.362l-358.15 236.3h850.14l-358.17-236.3-66.91 44.16-66.91-44.16z" fill="#E9E7DF" /><path d="M937.066 947.952H86.936c-6.75 0-12.71-4.43-14.65-10.9a15.29 15.29 0 0 1 6.23-17.16l358.16-236.3a15.289 15.289 0 0 1 16.84 0l58.49 38.6 58.49-38.6a15.289 15.289 0 0 1 16.84 0l358.16 236.3a15.29 15.29 0 0 1 6.23 17.16 15.319 15.319 0 0 1-14.66 10.9z m-799.19-30.58h748.25l-307.22-202.68-58.49 38.6a15.289 15.289 0 0 1-16.84 0l-58.49-38.6-307.21 202.68z" fill="#363432" /><path d="M744.386 404.972h-464.77c-4.23 0-7.65-3.42-7.65-7.65s3.42-7.65 7.65-7.65h464.77c4.23 0 7.65 3.42 7.65 7.65-0.01 4.23-3.43 7.65-7.65 7.65z" fill="#363432" /></svg>