<?xml version="1.0" standalone="no"?><!DOCTYPE svg PUBLIC "-//W3C//DTD SVG 1.1//EN" "http://www.w3.org/Graphics/SVG/1.1/DTD/svg11.dtd"><svg class="icon" width="200px" height="200.00px" viewBox="0 0 1024 1024" version="1.1" xmlns="http://www.w3.org/2000/svg"><path d="M159.154 200.646h705.81v659.86h-705.81z" fill="#EF7E20" /><path d="M864.964 884.046h-705.81c-13 0-23.54-10.54-23.54-23.54v-659.87c0-13 10.54-23.54 23.54-23.54h705.81c13 0 23.54 10.54 23.54 23.54v659.87c0 13-10.54 23.54-23.54 23.54z m-682.27-47.07h658.73v-612.8h-658.73v612.8z" fill="#363432" /><path d="M312.604 665.746m-42.53 0a42.53 42.53 0 1 0 85.06 0 42.53 42.53 0 1 0-85.06 0Z" fill="#FFFBF1" /><path d="M312.604 723.966c-32.11 0-58.22-26.11-58.22-58.22s26.11-58.22 58.22-58.22 58.22 26.11 58.22 58.22-26.11 58.22-58.22 58.22z m0-85.05c-14.8 0-26.83 12.03-26.83 26.83 0 14.8 12.04 26.83 26.83 26.83s26.83-12.03 26.83-26.83c0.01-14.8-12.03-26.83-26.83-26.83z" fill="#363432" /><path d="M443.804 446.456m-42.53 0a42.53 42.53 0 1 0 85.06 0 42.53 42.53 0 1 0-85.06 0Z" fill="#FFFBF1" /><path d="M443.794 504.666c-32.11 0-58.22-26.11-58.22-58.22s26.11-58.22 58.22-58.22 58.22 26.11 58.22 58.22-26.11 58.22-58.22 58.22z m0-85.05c-14.8 0-26.83 12.03-26.83 26.83 0 14.8 12.04 26.83 26.83 26.83s26.83-12.03 26.83-26.83c0.01-14.8-12.03-26.83-26.83-26.83z" fill="#363432" /><path d="M580.294 582.946m-42.53 0a42.53 42.53 0 1 0 85.06 0 42.53 42.53 0 1 0-85.06 0Z" fill="#FFFBF1" /><path d="M580.294 641.166c-32.11 0-58.22-26.11-58.22-58.22s26.11-58.22 58.22-58.22 58.22 26.11 58.22 58.22-26.11 58.22-58.22 58.22z m0-85.05c-14.8 0-26.83 12.03-26.83 26.83s12.04 26.83 26.83 26.83 26.83-12.03 26.83-26.83-12.03-26.83-26.83-26.83z" fill="#363432" /><path d="M711.484 363.656m-42.53 0a42.53 42.53 0 1 0 85.06 0 42.53 42.53 0 1 0-85.06 0Z" fill="#FFFBF1" /><path d="M711.484 421.886c-32.11 0-58.22-26.11-58.22-58.22s26.11-58.22 58.22-58.22 58.22 26.11 58.22 58.22-26.11 58.22-58.22 58.22z m0-85.06c-14.8 0-26.83 12.03-26.83 26.83s12.04 26.83 26.83 26.83c14.8 0 26.83-12.03 26.83-26.83s-12.03-26.83-26.83-26.83z" fill="#363432" /><path d="M334.394 644.996c-2.74 0-5.52-0.72-8.04-2.22-7.44-4.46-9.86-14.08-5.42-21.53l87.58-146.41c4.46-7.43 14.08-9.84 21.52-5.41 7.44 4.46 9.86 14.08 5.42 21.53l-87.58 146.41c-2.94 4.9-8.14 7.63-13.48 7.63zM550.224 568.576c-4.02 0-8.03-1.53-11.1-4.6l-76.36-76.36c-6.13-6.13-6.13-16.06 0-22.19 6.13-6.13 16.06-6.13 22.19 0l76.36 76.36c6.13 6.13 6.13 16.06 0 22.19-3.06 3.06-7.07 4.6-11.09 4.6zM602.044 562.256c-2.74 0-5.52-0.72-8.04-2.22-7.44-4.46-9.86-14.08-5.41-21.53l87.68-146.55c4.44-7.43 14.09-9.82 21.52-5.41 7.44 4.46 9.86 14.08 5.41 21.53l-87.68 146.55c-2.94 4.9-8.14 7.63-13.48 7.63z" fill="#363432" /><path d="M869.104 87.546h-714.11c-31.2 0-56.49 25.29-56.49 56.49 0 31.2 25.29 56.49 56.49 56.49h714.02c31.2 0 56.49-25.29 56.49-56.49 0-31.16-25.24-56.44-56.4-56.49z" fill="#FFFBF1" /><path d="M869.004 224.066h-714.01c-44.13 0-80.03-35.91-80.03-80.03 0-44.14 35.91-80.04 80.03-80.04h714.16c44.05 0.09 79.9 36 79.9 80.04-0.01 44.13-35.92 80.03-80.05 80.03z m-714.01-112.99c-18.18 0-32.96 14.79-32.96 32.96s14.78 32.95 32.96 32.95h714.02c18.18 0 32.96-14.77 32.96-32.95 0-18.14-14.77-32.93-32.91-32.96h-714.07z" fill="#363432" /><path d="M512.044 902.406m-41.9 0a41.9 41.9 0 1 0 83.8 0 41.9 41.9 0 1 0-83.8 0Z" fill="#FFFBF1" /><path d="M512.044 959.996c-31.75 0-57.59-25.84-57.59-57.59s25.84-57.59 57.59-57.59 57.59 25.84 57.59 57.59-25.83 57.59-57.59 57.59z m0-83.79c-14.45 0-26.21 11.75-26.21 26.21s11.75 26.21 26.21 26.21 26.21-11.75 26.21-26.21-11.76-26.21-26.21-26.21z" fill="#363432" /></svg>