<?xml version="1.0" standalone="no"?><!DOCTYPE svg PUBLIC "-//W3C//DTD SVG 1.1//EN" "http://www.w3.org/Graphics/SVG/1.1/DTD/svg11.dtd"><svg class="icon" width="200px" height="200.00px" viewBox="0 0 1024 1024" version="1.1" xmlns="http://www.w3.org/2000/svg"><path d="M87.091 672.705v-455.79c0.14-50.59 41.12-91.57 91.71-91.71h546.53v455.79" fill="#EF7E20" /><path d="M87.091 695.785c-12.76 0-23.09-10.34-23.09-23.09v-455.78c0.18-63.16 51.65-114.64 114.74-114.8h546.59c12.76 0 23.09 10.34 23.09 23.09v455.78c0 12.75-10.34 23.09-23.09 23.09s-23.09-10.34-23.09-23.09v-432.69h-523.44c-37.7 0.11-68.51 30.91-68.62 68.68v455.72c0 12.75-10.33 23.09-23.09 23.09z" fill="#363432" /><path d="M178.791 596.395c-8.5 0-15.4-6.89-15.4-15.4v-455.78c0-8.51 6.89-15.4 15.4-15.4s15.4 6.89 15.4 15.4v455.78c-0.01 8.51-6.9 15.4-15.4 15.4z" fill="#363432" /><path d="M178.781 581.005c-50.58 0.15-91.55 41.13-91.69 91.71 0.11 50.61 41.09 91.62 91.69 91.77h546.6v-183.48h-546.6z" fill="#E9E7DF" /><path d="M725.391 787.585h-546.6c-63.19-0.21-114.65-51.72-114.79-114.83 0.18-63.17 51.64-114.64 114.71-114.85H725.391c12.76 0 23.09 10.34 23.09 23.09v183.49c0 12.76-10.33 23.1-23.09 23.1z m-546.57-183.49c-37.74 0.15-68.53 30.94-68.63 68.68 0.08 37.68 30.9 68.51 68.68 68.63h523.43v-137.31h-523.48z" fill="#363432" /><path d="M653.461 662.035h-474.67c-8.5 0-15.4-6.89-15.4-15.4 0-8.51 6.89-15.4 15.4-15.4h474.68c8.5 0 15.4 6.89 15.4 15.4-0.01 8.51-6.9 15.4-15.41 15.4z" fill="#363432" /><path d="M653.461 721.365h-474.67c-8.5 0-15.4-6.89-15.4-15.4 0-8.51 6.89-15.4 15.4-15.4h474.68c8.5 0 15.4 6.89 15.4 15.4-0.01 8.51-6.9 15.4-15.41 15.4z" fill="#363432" /><path d="M639.071 261.855l-89.01-30.57-89 30.57v-136.64h178.01v136.64z" fill="#E9E7DF" /><path d="M639.071 277.245c-1.68 0-3.37-0.27-5-0.84l-84.02-28.85-83.99 28.85c-4.71 1.65-9.9 0.87-13.95-2.03a15.403 15.403 0 0 1-6.45-12.52v-136.64c0-8.51 6.89-15.4 15.4-15.4h178.01c8.5 0 15.4 6.89 15.4 15.4v136.63c0 4.98-2.41 9.64-6.45 12.52-2.65 1.9-5.79 2.88-8.95 2.88z m-89.02-61.37c1.69 0 3.38 0.29 5 0.84l68.62 23.56v-99.66h-147.22v99.66l68.59-23.56c1.63-0.55 3.32-0.84 5.01-0.84z" fill="#363432" /><path d="M725.391 687.275m-211.51 0a211.51 211.51 0 1 0 423.02 0 211.51 211.51 0 1 0-423.02 0Z" fill="#E9E7DF" /><path d="M725.391 921.885c-129.36 0-234.6-105.24-234.6-234.61s105.24-234.61 234.6-234.61S960.001 557.905 960.001 687.275 854.751 921.885 725.391 921.885z m0-423.03c-103.89 0-188.42 84.52-188.42 188.43s84.52 188.43 188.42 188.43 188.43-84.52 188.43-188.43-84.54-188.43-188.43-188.43z" fill="#363432" /><path d="M936.911 702.675h-423.03c-8.5 0-15.4-6.89-15.4-15.4 0-8.51 6.89-15.4 15.4-15.4h423.03c8.5 0 15.4 6.89 15.4 15.4-0.01 8.51-6.9 15.4-15.4 15.4zM906.571 596.925h-362.37c-8.5 0-15.4-6.89-15.4-15.4s6.89-15.4 15.4-15.4h362.37c8.5 0 15.4 6.89 15.4 15.4s-6.89 15.4-15.4 15.4zM906.571 808.435h-362.37c-8.5 0-15.4-6.89-15.4-15.4s6.89-15.4 15.4-15.4h362.37c8.5 0 15.4 6.89 15.4 15.4s-6.89 15.4-15.4 15.4z" fill="#363432" /><path d="M725.391 914.195c-63.04 0-97.05-116.91-97.05-226.91s34.02-226.91 97.05-226.91 97.05 116.91 97.05 226.91-34.01 226.91-97.05 226.91z m0-423.04c-27.67 0-66.26 74.62-66.26 196.12s38.59 196.12 66.26 196.12 66.26-74.62 66.26-196.12-38.59-196.12-66.26-196.12z" fill="#363432" /></svg>