<?xml version="1.0" standalone="no"?><!DOCTYPE svg PUBLIC "-//W3C//DTD SVG 1.1//EN" "http://www.w3.org/Graphics/SVG/1.1/DTD/svg11.dtd"><svg class="icon" width="200px" height="200.00px" viewBox="0 0 1024 1024" version="1.1" xmlns="http://www.w3.org/2000/svg"><path d="M788.357 375.275m-35.87 0a35.87 35.87 0 1 0 71.74 0 35.87 35.87 0 1 0-71.74 0Z" fill="#E9E7DF" /><path d="M788.357 425.425c-27.65 0-50.15-22.49-50.15-50.14 0-27.65 22.5-50.14 50.15-50.14s50.15 22.49 50.15 50.14c0 27.64-22.5 50.14-50.15 50.14z m0-71.73c-11.91 0-21.59 9.68-21.59 21.59s9.68 21.59 21.59 21.59 21.59-9.68 21.59-21.59-9.68-21.59-21.59-21.59z" fill="#363432" /><path d="M192.307 784.065h-77.11v-255.06h573.1v255.06h-388.85" fill="#FFFBF1" /><path d="M688.307 805.485h-388.86c-11.83 0-21.42-9.59-21.42-21.42 0-11.82 9.59-21.42 21.42-21.42h367.44v-212.23h-530.26v212.23h55.69c11.83 0 21.42 9.59 21.42 21.42 0 11.82-9.59 21.42-21.42 21.42h-77.1c-11.83 0-21.42-9.59-21.42-21.42v-255.07c0-11.82 9.59-21.42 21.42-21.42h573.1c11.83 0 21.42 9.59 21.42 21.42v255.07c-0.01 11.83-9.6 21.42-21.43 21.42z" fill="#363432" /><path d="M804.017 784.065h-49.62v-389.01h127.82l56.36 194.51v194.51h-48.36" fill="#E9E7DF" /><path d="M938.577 805.485h-48.37c-11.83 0-21.42-9.59-21.42-21.42 0-11.82 9.59-21.42 21.42-21.42h26.95v-170.05l-51.03-176.13h-90.32v346.18h28.2c11.83 0 21.42 9.59 21.42 21.42 0 11.82-9.59 21.42-21.42 21.42h-49.62c-11.83 0-21.42-9.59-21.42-21.42v-389.01c0-11.82 9.59-21.42 21.42-21.42h127.83c9.53 0 17.92 6.3 20.57 15.46l56.36 194.51c0.56 1.92 0.84 3.93 0.84 5.95v194.51c0.01 11.83-9.57 21.42-21.41 21.42z" fill="#363432" /><path d="M754.397 589.555v-194.5h127.82l56.36 194.51h-184.18z" fill="#EF7E20" /><path d="M938.577 603.835h-184.18c-7.89 0-14.28-6.39-14.28-14.28v-194.5c0-7.89 6.39-14.28 14.28-14.28h127.83c6.36 0 11.94 4.2 13.71 10.3l56.36 194.51c1.25 4.31 0.4 8.97-2.3 12.55-2.7 3.6-6.93 5.7-11.42 5.7z m-169.9-28.56h150.9l-48.08-165.95h-102.82v165.95z" fill="#363432" /><path d="M240.447 784.065m-58.99 0a58.99 58.99 0 1 0 117.98 0 58.99 58.99 0 1 0-117.98 0Z" fill="#E9E7DF" /><path d="M240.447 864.465c-44.34 0-80.4-36.07-80.4-80.4s36.07-80.4 80.4-80.4 80.4 36.07 80.4 80.4-36.07 80.4-80.4 80.4z m0-117.96c-20.71 0-37.57 16.86-37.57 37.57s16.85 37.57 37.57 37.57 37.57-16.86 37.57-37.57-16.86-37.57-37.57-37.57z" fill="#363432" /><path d="M813.387 784.065m-58.99 0a58.99 58.99 0 1 0 117.98 0 58.99 58.99 0 1 0-117.98 0Z" fill="#E9E7DF" /><path d="M813.387 864.465c-44.34 0-80.4-36.07-80.4-80.4s36.07-80.4 80.4-80.4c44.34 0 80.4 36.07 80.4 80.4s-36.07 80.4-80.4 80.4z m0-117.96c-20.71 0-37.57 16.86-37.57 37.57s16.85 37.57 37.57 37.57 37.57-16.86 37.57-37.57-16.86-37.57-37.57-37.57z" fill="#363432" /><path d="M823.307 649.585h-27.56c-7.89 0-14.28-6.39-14.28-14.28s6.39-14.28 14.28-14.28h27.55c7.89 0 14.28 6.39 14.28 14.28 0.01 7.9-6.39 14.28-14.27 14.28zM701.017 805.485h-127.79c-11.83 0-21.42-9.59-21.42-21.42 0-11.82 9.59-21.42 21.42-21.42h127.79c11.83 0 21.42 9.59 21.42 21.42 0 11.83-9.58 21.42-21.42 21.42z" fill="#363432" /><path d="M565.287 395.055h189.1v389.01h-189.1z" fill="#E9E7DF" /><path d="M754.387 805.485h-189.1c-11.83 0-21.42-9.59-21.42-21.42v-389.01c0-11.82 9.59-21.42 21.42-21.42h189.1c11.83 0 21.42 9.59 21.42 21.42v389.02c0 11.82-9.59 21.41-21.42 21.41z m-167.68-42.84h146.26v-346.18h-146.26v346.18z" fill="#363432" /><path d="M604.487 436.285h110.72v92.71h-110.72z" fill="#EF7E20" /><path d="M715.207 536.135h-110.72c-3.95 0-7.14-3.19-7.14-7.14v-92.72c0-3.95 3.19-7.14 7.14-7.14h110.72c3.95 0 7.14 3.19 7.14 7.14v92.72c-0.01 3.95-3.2 7.14-7.14 7.14z m-103.58-14.28h96.44v-78.44h-96.44v78.44z" fill="#363432" /><path d="M71.133 406.36l726.539-239.705 40.453 122.612-726.539 239.706z" fill="#FFFBF1" /><path d="M111.597 536.135c-3 0-5.79-1.9-6.78-4.91l-40.45-122.62c-0.6-1.8-0.45-3.75 0.4-5.44 0.85-1.7 2.34-2.98 4.13-3.57l726.58-239.71c1.82-0.57 3.76-0.45 5.45 0.4a7.11 7.11 0 0 1 3.56 4.14l40.45 122.63a7.122 7.122 0 0 1-4.54 9.01l-726.56 239.71c-0.75 0.25-1.5 0.36-2.24 0.36z m-31.44-125.22l35.99 109.06 713.02-235.24-35.98-109.06-713.03 235.24z" fill="#363432" /><path d="M71.137 406.335l162.49 81.88 81.86-162.48 161.94 81.58 81.12-160.89 160.71 80.98 79.45-157.74" fill="#FFFBF1" /><path d="M233.637 495.355c-1.11 0-2.21-0.25-3.21-0.77l-162.5-81.88c-3.52-1.77-4.94-6.07-3.16-9.58 1.76-3.53 6.04-4.94 9.59-3.17l156.11 78.66 78.65-156.09c1.76-3.53 6.04-4.94 9.59-3.17l155.56 78.35 77.91-154.52c1.76-3.54 6.04-4.95 9.59-3.17l154.33 77.75 76.23-151.35a7.116 7.116 0 0 1 9.59-3.17c3.52 1.77 4.94 6.07 3.17 9.58l-79.45 157.74a7.122 7.122 0 0 1-4.14 3.57c-1.81 0.59-3.76 0.47-5.45-0.4l-154.33-77.75-77.91 154.53c-1.78 3.51-6.07 4.92-9.59 3.17l-155.56-78.35-78.65 156.08a7.103 7.103 0 0 1-4.13 3.57c-0.74 0.24-1.49 0.37-2.24 0.37z" fill="#363432" /><path d="M110.457 532.705c-1.08 0-2.18-0.25-3.21-0.77-3.52-1.77-4.94-6.07-3.16-9.58l79.45-157.68c1.76-3.53 6.04-4.94 9.59-3.17l154.36 77.77 77.89-154.67c0.86-1.7 2.34-2.98 4.14-3.57 1.81-0.57 3.77-0.46 5.45 0.4l155.55 78.41 78.65-156.09c0.85-1.7 2.34-2.98 4.13-3.57 1.82-0.59 3.77-0.46 5.45 0.4l162.49 81.88c3.52 1.77 4.94 6.07 3.16 9.58-1.78 3.53-6.07 4.91-9.59 3.17l-156.11-78.66-78.65 156.1a7.103 7.103 0 0 1-4.13 3.57c-1.81 0.6-3.75 0.47-5.45-0.4l-155.55-78.41-77.89 154.67a7.122 7.122 0 0 1-4.14 3.57c-1.8 0.6-3.74 0.47-5.45-0.4l-154.36-77.77-76.24 151.29a7.129 7.129 0 0 1-6.38 3.93z" fill="#363432" /><path d="M185.087 581.605h110.72v35.9h-110.72z" fill="#E9E7DF" /><path d="M295.807 624.645h-110.72c-3.95 0-7.14-3.19-7.14-7.14v-35.89c0-3.95 3.19-7.14 7.14-7.14h110.72c3.95 0 7.14 3.19 7.14 7.14v35.89c0 3.94-3.2 7.14-7.14 7.14z m-103.58-14.28h96.44v-21.61h-96.44v21.61z" fill="#363432" /></svg>