<?xml version="1.0" standalone="no"?><!DOCTYPE svg PUBLIC "-//W3C//DTD SVG 1.1//EN" "http://www.w3.org/Graphics/SVG/1.1/DTD/svg11.dtd"><svg class="icon" width="200px" height="200.00px" viewBox="0 0 1024 1024" version="1.1" xmlns="http://www.w3.org/2000/svg"><path d="M86.996 231.551h850v560.89h-850z" fill="#FFFBF1" /><path d="M936.986 815.381H86.996c-12.67 0-22.94-10.27-22.94-22.94v-560.88c0-12.66 10.27-22.94 22.94-22.94h849.99c12.67 0 22.94 10.27 22.94 22.94v560.88c0 12.66-10.27 22.94-22.94 22.94z m-827.06-45.87h804.12v-515.02h-804.12v515.02z" fill="#363432" /><path d="M937.066 317.811l-425.07 280.45-425.06-280.45v-86.25h850.14v86.25z" fill="#FFFBF1" /><path d="M511.996 621.191c-4.4 0-8.8-1.27-12.63-3.79l-425.06-280.45a22.936 22.936 0 0 1-10.3-19.14v-86.25c0-12.66 10.27-22.94 22.94-22.94h850.13c12.67 0 22.94 10.27 22.94 22.94v86.25c0 7.7-3.87 14.9-10.3 19.14l-425.08 280.45a23 23 0 0 1-12.64 3.79z m-402.13-315.74l402.13 265.33 402.13-265.32v-50.96h-804.26v50.95z m827.2 12.35h0.15-0.15z" fill="#363432" /><path d="M511.996 598.261l-65.37-43.13-359.7 237.3h850.14l-359.7-237.3-65.37 43.13z" fill="#E9E7DF" /><path d="M937.066 807.721H86.936c-6.75 0-12.71-4.43-14.65-10.9a15.29 15.29 0 0 1 6.23-17.16l359.7-237.3a15.289 15.289 0 0 1 16.84 0l56.94 37.57 56.94-37.57a15.289 15.289 0 0 1 16.84 0l359.7 237.3a15.29 15.29 0 0 1 6.23 17.16 15.289 15.289 0 0 1-14.64 10.9z m-799.18-30.58h748.23l-308.75-203.69-56.94 37.57a15.289 15.289 0 0 1-16.84 0l-56.94-37.57-308.76 203.69z" fill="#363432" /></svg>