<?xml version="1.0" standalone="no"?><!DOCTYPE svg PUBLIC "-//W3C//DTD SVG 1.1//EN" "http://www.w3.org/Graphics/SVG/1.1/DTD/svg11.dtd"><svg class="icon" width="200px" height="200.00px" viewBox="0 0 1024 1024" version="1.1" xmlns="http://www.w3.org/2000/svg"><path d="M638.891 196.453c-52.47 52.49-52.45 137.58 0.04 190.05s137.58 52.45 190.05-0.04l-190.09-190.01z" fill="#EF7E20" /><path d="M733.941 447.643c-40 0-80-15.23-110.46-45.67-60.93-60.9-60.96-160.04-0.06-220.97 4.1-4.1 9.66-6.4 15.46-6.4h0.01c5.79 0 11.36 2.31 15.46 6.4l190.11 190.01a21.876 21.876 0 0 1 0 30.92c-30.47 30.46-70.5 45.71-110.52 45.71z m-93.54-218.77c-29.27 43.72-24.6 103.59 13.99 142.18 38.59 38.57 98.46 43.21 142.18 13.92l-156.17-156.1z" fill="#363432" /><path d="M287.181 738.163c52.48 52.47 137.55 52.47 190.03 0l-0.28-0.28 256.71-256.7-189.77-189.74-256.69 256.7c-52.47 52.46-52.49 137.53-0.03 190 0.02 0 0.03 0.01 0.03 0.02z" fill="#FFFBF1" /><path d="M382.201 799.293c-40.01 0-80.01-15.22-110.47-45.67 0 0-0.02-0.03-0.03-0.03-60.89-60.92-60.88-160.01 0.03-220.91l256.69-256.7c8.54-8.54 22.37-8.54 30.91 0l189.77 189.75c4.1 4.1 6.4 9.66 6.4 15.46s-2.31 11.36-6.4 15.46l-253.82 253.8c-0.75 1.12-1.62 2.19-2.61 3.17-30.46 30.46-70.46 45.67-110.47 45.67z m-79.56-76.58c42.98 42.96 112.38 43.85 156.41 2.6 0.71-1.01 1.52-1.98 2.43-2.89l241.24-241.24-158.84-158.82-241.24 241.23c-43.86 43.85-43.87 115.22-0.01 159.08l-15.46 15.46 15.47-15.42z" fill="#363432" /><path d="M368.011 489.153c-5.59 0-11.19-2.13-15.46-6.4l-45.73-45.73c-8.54-8.54-8.54-22.37 0-30.91s22.37-8.54 30.91 0l45.73 45.73c8.54 8.54 8.54 22.37 0 30.91-4.26 4.27-9.85 6.4-15.45 6.4z" fill="#363432" /><path d="M78.572 272.737l94.879-94.878 192.875 192.875-94.878 94.879z" fill="#E9E7DF" /><path d="M271.451 480.193c-3.73 0-7.46-1.42-10.3-4.27l-192.88-192.88c-5.69-5.69-5.69-14.92 0-20.61l94.88-94.88c5.69-5.69 14.92-5.69 20.61 0l192.87 192.87c5.69 5.69 5.69 14.92 0 20.61l-94.88 94.88a14.5 14.5 0 0 1-10.3 4.28z m-172.27-207.45l172.26 172.26 74.27-74.27-172.26-172.26-74.27 74.27zM603.791 724.933c-5.59 0-11.19-2.13-15.46-6.4l-45.75-45.75c-8.54-8.54-8.54-22.37 0-30.91 8.53-8.54 22.37-8.54 30.91 0l45.75 45.75c8.54 8.54 8.54 22.37 0 30.91-4.25 4.26-9.85 6.4-15.45 6.4z" fill="#363432" /><path d="M558.032 752.197l94.878-94.878 192.876 192.875-94.879 94.879z" fill="#E9E7DF" /><path d="M750.911 959.653c-3.73 0-7.46-1.42-10.3-4.27l-192.88-192.88c-5.69-5.69-5.69-14.92 0-20.61l94.88-94.88c5.69-5.69 14.92-5.69 20.61 0l192.88 192.88c5.69 5.69 5.69 14.92 0 20.61l-94.88 94.88a14.571 14.571 0 0 1-10.31 4.27z m-172.26-207.45l172.26 172.26 74.27-74.27-172.26-172.26-74.27 74.27z" fill="#363432" /><path d="M703.061 911.783c-3.73 0-7.46-1.42-10.3-4.27-5.69-5.69-5.69-14.92 0-20.61l94.86-94.86c5.69-5.69 14.92-5.69 20.61 0 5.69 5.69 5.69 14.92 0 20.61l-94.86 94.86a14.53 14.53 0 0 1-10.31 4.27zM655.201 863.933c-3.73 0-7.46-1.42-10.3-4.27-5.69-5.69-5.69-14.92 0-20.61l94.89-94.88c5.69-5.69 14.92-5.69 20.61 0 5.69 5.69 5.69 14.92 0 20.61l-94.89 94.88a14.606 14.606 0 0 1-10.31 4.27zM607.341 816.063c-3.73 0-7.46-1.42-10.3-4.27-5.69-5.69-5.69-14.92 0-20.61l94.88-94.88c5.69-5.69 14.92-5.69 20.61 0 5.69 5.69 5.69 14.92 0 20.61l-94.88 94.88a14.546 14.546 0 0 1-10.31 4.27zM223.871 432.043c-3.73 0-7.46-1.42-10.3-4.27-5.69-5.69-5.69-14.92 0-20.61l94.88-94.88c5.69-5.69 14.92-5.69 20.61 0s5.69 14.92 0 20.61l-94.88 94.88a14.571 14.571 0 0 1-10.31 4.27zM176.011 384.173c-3.73 0-7.46-1.42-10.3-4.27-5.69-5.69-5.69-14.92 0-20.61l94.89-94.88c5.69-5.69 14.92-5.69 20.61 0s5.69 14.92 0 20.61l-94.89 94.88a14.53 14.53 0 0 1-10.31 4.27zM128.141 336.303c-3.73 0-7.46-1.42-10.3-4.27-5.69-5.69-5.69-14.92 0-20.61l94.89-94.88c5.69-5.69 14.92-5.69 20.61 0 5.69 5.69 5.69 14.92 0 20.61l-94.89 94.88a14.53 14.53 0 0 1-10.31 4.27zM342.451 697.763c-3.73 0-7.46-1.42-10.3-4.27-5.69-5.69-5.69-14.92 0-20.61l44.35-44.35c5.69-5.69 14.92-5.69 20.61 0 5.69 5.69 5.69 14.92 0 20.61l-44.35 44.35a14.571 14.571 0 0 1-10.31 4.27zM442.441 597.783c-3.73 0-7.46-1.42-10.3-4.27-5.69-5.69-5.69-14.92 0-20.61l44.34-44.34c5.69-5.69 14.92-5.69 20.61 0 5.69 5.69 5.69 14.92 0 20.61l-44.34 44.34a14.53 14.53 0 0 1-10.31 4.27z" fill="#363432" /><path d="M733.901 313.303c-5.59 0-11.19-2.13-15.46-6.4-8.54-8.54-8.54-22.37 0-30.91l49.69-49.69c8.54-8.54 22.37-8.54 30.91 0s8.54 22.37 0 30.91l-49.69 49.69c-4.27 4.27-9.86 6.4-15.45 6.4z" fill="#363432" /><path d="M342.451 683.193m-22.17 0a22.17 22.17 0 1 0 44.34 0 22.17 22.17 0 1 0-44.34 0Z" fill="#EF7E20" /><path d="M342.451 712.643c-16.24 0-29.46-13.22-29.46-29.46 0-16.24 13.22-29.45 29.46-29.45s29.46 13.21 29.46 29.45-13.22 29.46-29.46 29.46z m0-44.33c-8.21 0-14.88 6.68-14.88 14.87 0 8.21 6.68 14.89 14.88 14.89 8.21 0 14.88-6.68 14.88-14.89 0-8.2-6.67-14.87-14.88-14.87z" fill="#363432" /><path d="M386.801 638.833m-22.17 0a22.17 22.17 0 1 0 44.34 0 22.17 22.17 0 1 0-44.34 0Z" fill="#EF7E20" /><path d="M386.801 668.293c-16.24 0-29.46-13.22-29.46-29.46s13.22-29.45 29.46-29.45 29.46 13.21 29.46 29.45-13.22 29.46-29.46 29.46z m0-44.33c-8.21 0-14.88 6.68-14.88 14.87 0 8.21 6.68 14.89 14.88 14.89 8.21 0 14.88-6.68 14.88-14.89 0-8.2-6.67-14.87-14.88-14.87z" fill="#363432" /><path d="M682.371 547.043c-3.73 0-7.46-1.42-10.3-4.27l-189.76-189.76c-5.69-5.69-5.69-14.92 0-20.61 5.69-5.69 14.92-5.69 20.61 0l189.75 189.76c5.69 5.69 5.69 14.92 0 20.61a14.507 14.507 0 0 1-10.3 4.27z" fill="#363432" /><path d="M854.271 293.583c-1.75 0-3.52-0.2-5.3-0.65-11.71-2.92-18.84-14.77-15.93-26.49 8.27-33.18-11.99-66.9-45.16-75.18-9.82-2.42-20.21-2.43-30.02 0.01-11.74 2.92-23.58-4.23-26.5-15.94-2.92-11.71 4.22-23.58 15.93-26.5a106.38 106.38 0 0 1 51.15 0c56.57 14.12 91.11 71.62 77.02 128.17-2.46 9.94-11.38 16.58-21.19 16.58z" fill="#363432" /><path d="M936.651 266.723c-1.07 0-2.15-0.07-3.24-0.24-11.94-1.76-20.19-12.9-18.42-24.84 9.44-63.52-34.57-122.88-98.1-132.33a117.005 117.005 0 0 0-34.25 0.01c-11.9 1.89-23.06-6.45-24.84-18.4-1.77-11.94 6.47-23.06 18.41-24.84 15.6-2.32 31.46-2.31 47.1-0.03 87.38 12.99 147.91 94.64 134.94 182.01-1.62 10.86-10.95 18.66-21.6 18.66z" fill="#363432" /></svg>