<?xml version="1.0" standalone="no"?><!DOCTYPE svg PUBLIC "-//W3C//DTD SVG 1.1//EN" "http://www.w3.org/Graphics/SVG/1.1/DTD/svg11.dtd"><svg class="icon" width="200px" height="200.00px" viewBox="0 0 1024 1024" version="1.1" xmlns="http://www.w3.org/2000/svg"><path d="M239.1 90.097h545.8v843.81H239.1z" fill="#FFFBF1" /><path d="M784.9 959.997H239.1c-14.41 0-26.09-11.69-26.09-26.09V90.087c0-14.4 11.68-26.09 26.09-26.09h545.79c14.41 0 26.09 11.69 26.09 26.09v843.82c0.01 14.41-11.67 26.09-26.08 26.09z m-519.71-52.18H758.8v-791.64H265.19v791.64z" fill="#363432" /><path d="M310.92 248.077h402.16v531.43H310.92v-531.43z" fill="#EF7E20" /><path d="M713.08 796.907H310.92c-9.61 0-17.39-7.78-17.39-17.39v-531.45c0-9.61 7.79-17.39 17.39-17.39h402.16c9.61 0 17.39 7.78 17.39 17.39v531.44c0.01 9.62-7.78 17.4-17.39 17.4z m-384.77-34.79h367.38v-496.65H328.31v496.65z" fill="#363432" /><path d="M512 858.267m-28.47 0a28.47 28.47 0 1 0 56.94 0 28.47 28.47 0 1 0-56.94 0Z" fill="#363432" /><path d="M563.17 182.877H460.83c-9.61 0-17.39-7.78-17.39-17.39s7.79-17.39 17.39-17.39h102.34c9.61 0 17.39 7.78 17.39 17.39s-7.79 17.39-17.39 17.39z" fill="#363432" /><path d="M374.3 297.197h275.39v275.39H374.3z" fill="#E9E7DF" /><path d="M649.68 581.277H374.3c-4.81 0-8.7-3.89-8.7-8.7v-275.38c0-4.81 3.89-8.7 8.7-8.7h275.39c4.81 0 8.7 3.89 8.7 8.7v275.39c-0.01 4.8-3.9 8.69-8.71 8.69zM383 563.887h257.99v-258H383v258z" fill="#363432" /><path d="M613.4 527.297H428.3c-4.81 0-8.7-3.89-8.7-8.7v-185.11c0-4.81 3.89-8.7 8.7-8.7s8.7 3.89 8.7 8.7v176.41h176.4c4.81 0 8.7 3.89 8.7 8.7s-3.89 8.7-8.7 8.7z" fill="#363432" /><path d="M446.02 364.757c-2.58 0-5.14-1.14-6.85-3.33l-10.86-13.88-10.86 13.88c-2.96 3.77-8.42 4.43-12.2 1.48-3.79-2.96-4.45-8.42-1.49-12.21l17.71-22.61c3.3-4.21 10.4-4.21 13.69 0l17.71 22.61c2.96 3.79 2.3 9.26-1.49 12.21a8.716 8.716 0 0 1-5.36 1.85zM590.84 545.047c-2.59 0-5.15-1.14-6.86-3.35-2.96-3.77-2.28-9.24 1.49-12.2l13.86-10.84-13.87-10.87c-3.78-2.96-4.44-8.42-1.48-12.21 2.96-3.79 8.42-4.42 12.21-1.48l22.61 17.72a8.72 8.72 0 0 1 3.33 6.85c0 2.68-1.23 5.2-3.34 6.85l-22.6 17.68a8.628 8.628 0 0 1-5.35 1.85z" fill="#363432" /><path d="M451.19 410.707h23.22v86.15h-23.22z" fill="#FFFBF1" /><path d="M474.41 505.557h-23.22c-4.81 0-8.7-3.89-8.7-8.7v-86.15c0-4.81 3.89-8.7 8.7-8.7h23.22c4.81 0 8.7 3.89 8.7 8.7v86.15c0 4.81-3.89 8.7-8.7 8.7z m-14.52-17.4h5.83v-68.76h-5.83v68.76z" fill="#363432" /><path d="M498.5 387.657h23.22v109.19H498.5z" fill="#FFFBF1" /><path d="M521.72 505.557H498.5c-4.81 0-8.7-3.89-8.7-8.7v-109.2c0-4.81 3.89-8.7 8.7-8.7h23.22c4.81 0 8.7 3.89 8.7 8.7v109.2c0 4.81-3.89 8.7-8.7 8.7z m-14.52-17.4h5.83v-91.8h-5.83v91.8z" fill="#363432" /><path d="M545.81 427.697h23.22v69.16h-23.22z" fill="#FFFBF1" /><path d="M569.03 505.557h-23.22c-4.81 0-8.7-3.89-8.7-8.7v-69.16c0-4.81 3.89-8.7 8.7-8.7h23.22c4.81 0 8.7 3.89 8.7 8.7v69.16c0 4.81-3.89 8.7-8.7 8.7z m-14.52-17.4h5.83v-51.77h-5.83v51.77z" fill="#363432" /><path d="M649.7 629.007H374.3c-4.81 0-8.7-3.89-8.7-8.7s3.89-8.7 8.7-8.7h275.4c4.81 0 8.7 3.89 8.7 8.7s-3.89 8.7-8.7 8.7zM649.7 664.847H374.3c-4.81 0-8.7-3.89-8.7-8.7 0-4.81 3.89-8.7 8.7-8.7h275.4c4.81 0 8.7 3.89 8.7 8.7 0 4.81-3.89 8.7-8.7 8.7zM649.7 699.647H374.3c-4.81 0-8.7-3.89-8.7-8.7s3.89-8.7 8.7-8.7h275.4c4.81 0 8.7 3.89 8.7 8.7s-3.89 8.7-8.7 8.7zM522.9 735.507H374.3c-4.81 0-8.7-3.89-8.7-8.7s3.89-8.7 8.7-8.7h148.61c4.81 0 8.7 3.89 8.7 8.7s-3.9 8.7-8.71 8.7z" fill="#363432" /></svg>