<?xml version="1.0" standalone="no"?><!DOCTYPE svg PUBLIC "-//W3C//DTD SVG 1.1//EN" "http://www.w3.org/Graphics/SVG/1.1/DTD/svg11.dtd"><svg class="icon" width="200px" height="200.00px" viewBox="0 0 1024 1024" version="1.1" xmlns="http://www.w3.org/2000/svg"><path d="M871.819 87.37h-719.56c-31.44 0-56.93 25.49-56.93 56.93s25.49 56.93 56.93 56.93h719.57c31.41-0.04 56.86-25.52 56.86-56.93-0.02-31.41-25.46-56.88-56.87-56.93z" fill="#FFFBF1" /><path d="M152.249 224.61c-44.27 0-80.3-36.02-80.3-80.3s36.02-80.3 80.3-80.3h719.62c44.2 0.09 80.17 36.11 80.17 80.3 0 44.22-35.97 80.24-80.19 80.3h-719.6z m0-113.88c-18.51 0-33.57 15.06-33.57 33.57s15.06 33.57 33.57 33.57h719.57c18.45-0.03 33.49-15.09 33.49-33.57-0.01-18.47-15.04-33.54-33.53-33.57h-719.53zM511.989 891.61c-12.91 0-23.37-10.47-23.37-23.37v-99.09c0-12.9 10.46-23.37 23.37-23.37s23.37 10.47 23.37 23.37v99.09c0 12.9-10.46 23.37-23.37 23.37z" fill="#363432" /><path d="M683.869 960c-2.88 0-5.8-0.53-8.63-1.66l-163.24-64.96-163.25 64.96c-12.01 4.76-25.58-1.08-30.35-13.07-4.78-11.99 1.08-25.59 13.07-30.35l171.88-68.39a23.25 23.25 0 0 1 17.28 0l171.88 68.39c11.99 4.76 17.84 18.36 13.07 30.35-3.64 9.16-12.43 14.73-21.71 14.73z" fill="#363432" /><path d="M156.429 201.25h711.14v567.89h-711.14z" fill="#EF7E20" /><path d="M867.569 792.52h-711.14c-12.91 0-23.37-10.47-23.37-23.37V201.26c0-12.9 10.46-23.37 23.37-23.37h711.14c12.91 0 23.37 10.47 23.37 23.37v567.89c0 12.9-10.46 23.37-23.37 23.37z m-687.78-46.73h664.41V224.62h-664.41v521.17z" fill="#363432" /><path d="M261.779 274.59h500.41V555.6h-500.41z" fill="#FFFBF1" /><path d="M762.189 571.18h-500.41c-8.6 0-15.58-6.97-15.58-15.58V274.59c0-8.61 6.97-15.58 15.58-15.58h500.41c8.6 0 15.58 6.97 15.58 15.58V555.6c0 8.62-6.98 15.58-15.58 15.58z m-484.83-31.15h469.26V290.17h-469.26v249.86z" fill="#363432" /><path d="M261.779 555.62l108.07-96.89 81.78 38.48 87.62-114.89 83.73 44.78 67.43-67.43" fill="#FFFBF1" /><path d="M261.789 571.2c-4.27 0-8.53-1.75-11.61-5.17-5.74-6.4-5.2-16.26 1.2-22l108.07-96.9c4.65-4.18 11.39-5.14 17.03-2.51l70.39 33.13 79.99-104.87c4.64-6.08 13-7.91 19.73-4.29l73.53 39.34 59.27-59.27c6.08-6.08 15.94-6.08 22.03 0 6.08 6.08 6.08 15.94 0 22.03l-67.43 67.43c-4.84 4.87-12.29 5.96-18.36 2.72l-72.04-38.53-79.58 104.34c-4.44 5.86-12.36 7.74-19.01 4.65l-72.44-34.09-100.38 89.99c-2.98 2.69-6.69 4-10.39 4z" fill="#363432" /><path d="M690.409 375.24h-39.92c-8.6 0-15.58-6.97-15.58-15.58s6.97-15.58 15.58-15.58h39.92c8.6 0 15.58 6.97 15.58 15.58s-6.97 15.58-15.58 15.58z" fill="#363432" /><path d="M690.409 415.15c-8.6 0-15.58-6.97-15.58-15.58v-39.91c0-8.61 6.97-15.58 15.58-15.58s15.58 6.97 15.58 15.58v39.92c0 8.61-6.97 15.57-15.58 15.57z" fill="#363432" /><path d="M548.329 632.21h213.86v63.6h-213.86z" fill="#EF7E20" /><path d="M762.189 711.39h-213.86c-8.6 0-15.58-6.97-15.58-15.58v-63.6c0-8.61 6.97-15.58 15.58-15.58h213.86c8.6 0 15.58 6.97 15.58 15.58v63.6c0 8.61-6.98 15.58-15.58 15.58z m-198.28-31.15h182.7v-32.45h-182.7v32.45z" fill="#363432" /><path d="M261.779 632.21h213.86v63.6h-213.86z" fill="#EF7E20" /><path d="M475.639 711.39h-213.86c-8.6 0-15.58-6.97-15.58-15.58v-63.6c0-8.61 6.97-15.58 15.58-15.58h213.86c8.6 0 15.58 6.97 15.58 15.58v63.6c-0.01 8.61-6.98 15.58-15.58 15.58z m-198.28-31.15h182.7v-32.45h-182.7v32.45z" fill="#363432" /></svg>