<?xml version="1.0" standalone="no"?><!DOCTYPE svg PUBLIC "-//W3C//DTD SVG 1.1//EN" "http://www.w3.org/Graphics/SVG/1.1/DTD/svg11.dtd"><svg class="icon" width="200px" height="200.00px" viewBox="0 0 1024 1024" version="1.1" xmlns="http://www.w3.org/2000/svg"><path d="M512.002 276.172m-180.17 0a180.17 180.17 0 1 0 360.34 0 180.17 180.17 0 1 0-360.34 0Z" fill="#EF7E20" /><path d="M512.002 477.672c-111.11 0-201.5-90.4-201.5-201.5C310.502 165.052 400.892 74.652 512.002 74.652S713.502 165.052 713.502 276.172c0 111.11-90.39 201.5-201.5 201.5z m0-360.35c-87.58 0-158.84 71.26-158.84 158.85 0 87.58 71.25 158.84 158.84 158.84S670.842 363.752 670.842 276.172c0-87.59-71.26-158.85-158.84-158.85z" fill="#363432" /><path d="M594.952 357.362c0-45.81-37.15-82.95-82.96-82.95-45.81 0-82.94 37.14-82.95 82.95h165.91z" fill="#FFFBF1" /><path d="M594.952 371.582h-165.91c-3.77 0-7.39-1.5-10.05-4.17s-4.17-6.29-4.17-10.05c0.01-53.58 43.59-97.17 97.17-97.17s97.17 43.59 97.18 97.17c0 3.76-1.5 7.39-4.17 10.05s-6.28 4.17-10.05 4.17z m-150.2-28.44h134.51c-6.58-31.1-34.23-54.51-67.26-54.51-33.03 0-60.68 23.42-67.25 54.51z" fill="#363432" /><path d="M512.002 245.932m-50.96 0a50.96 50.96 0 1 0 101.92 0 50.96 50.96 0 1 0-101.92 0Z" fill="#FFFBF1" /><path d="M512.002 311.102c-35.94 0-65.18-29.23-65.18-65.16 0-35.94 29.24-65.18 65.18-65.18s65.18 29.23 65.18 65.18c-0.01 35.93-29.25 65.16-65.18 65.16z m0-101.9c-20.26 0-36.73 16.49-36.73 36.73s16.48 36.72 36.73 36.72 36.73-16.47 36.73-36.72-16.48-36.73-36.73-36.73z" fill="#363432" /><path d="M758.502 747.832m-180.17 0a180.17 180.17 0 1 0 360.34 0 180.17 180.17 0 1 0-360.34 0Z" fill="#EF7E20" /><path d="M758.502 949.342c-111.11 0-201.5-90.4-201.5-201.5 0-111.12 90.39-201.52 201.5-201.52s201.5 90.4 201.5 201.52c0 111.1-90.39 201.5-201.5 201.5z m0-360.35c-87.58 0-158.84 71.26-158.84 158.85 0 87.58 71.25 158.84 158.84 158.84s158.84-71.26 158.84-158.84c-0.01-87.59-71.26-158.85-158.84-158.85z" fill="#363432" /><path d="M841.462 829.022c0-45.81-37.13-82.96-82.95-82.96s-82.96 37.13-82.96 82.95v0.02h165.91z" fill="#FFFBF1" /><path d="M841.462 843.252h-165.9c-3.77 0-7.39-1.5-10.05-4.17s-4.17-6.29-4.17-10.05c0.01-53.59 43.6-97.19 97.18-97.19 25.96 0 50.36 10.11 68.71 28.47 18.35 18.36 28.46 42.76 28.46 68.72-0.01 7.86-6.37 14.22-14.23 14.22z m-150.2-28.47l134.52 0.03c-2.7-12.94-9.1-24.82-18.66-34.39-12.99-12.99-30.24-20.14-48.6-20.14-33.03 0-60.69 23.4-67.26 54.5z" fill="#363432" /><path d="M758.502 717.612m-50.96 0a50.96 50.96 0 1 0 101.92 0 50.96 50.96 0 1 0-101.92 0Z" fill="#FFFBF1" /><path d="M758.502 782.792c-35.94 0-65.18-29.23-65.18-65.18s29.24-65.18 65.18-65.18c35.94 0 65.18 29.23 65.18 65.18s-29.25 65.18-65.18 65.18z m0-101.91c-20.26 0-36.73 16.49-36.73 36.73 0 20.25 16.48 36.73 36.73 36.73 20.26 0 36.73-16.49 36.73-36.73s-16.48-36.73-36.73-36.73z" fill="#363432" /><path d="M265.502 747.832m-180.17 0a180.17 180.17 0 1 0 360.34 0 180.17 180.17 0 1 0-360.34 0Z" fill="#EF7E20" /><path d="M265.502 949.342c-111.11 0-201.5-90.4-201.5-201.5 0-111.12 90.39-201.52 201.5-201.52s201.5 90.4 201.5 201.52c0 111.1-90.39 201.5-201.5 201.5z m0-360.35c-87.58 0-158.84 71.26-158.84 158.85 0 87.58 71.25 158.84 158.84 158.84s158.84-71.26 158.84-158.84c0-87.59-71.26-158.85-158.84-158.85z" fill="#363432" /><path d="M348.452 829.022c0-45.81-37.15-82.95-82.96-82.95-45.81 0-82.94 37.14-82.95 82.95h165.91z" fill="#FFFBF1" /><path d="M348.452 843.252h-165.9c-3.77 0-7.39-1.5-10.05-4.17s-4.17-6.29-4.17-10.05c0.01-53.58 43.59-97.17 97.17-97.17s97.17 43.59 97.18 97.17c0 3.76-1.5 7.39-4.17 10.05s-6.29 4.17-10.06 4.17z m-150.2-28.44h134.51c-6.58-31.1-34.23-54.51-67.26-54.51-33.03 0-60.68 23.41-67.25 54.51z" fill="#363432" /><path d="M265.502 717.612m-50.96 0a50.96 50.96 0 1 0 101.92 0 50.96 50.96 0 1 0-101.92 0Z" fill="#FFFBF1" /><path d="M265.502 782.792c-35.94 0-65.18-29.23-65.18-65.18s29.24-65.18 65.18-65.18 65.18 29.23 65.18 65.18-29.25 65.18-65.18 65.18z m0-101.91c-20.26 0-36.73 16.49-36.73 36.73 0 20.25 16.48 36.73 36.73 36.73 20.26 0 36.73-16.49 36.73-36.73s-16.47-36.73-36.73-36.73z" fill="#363432" /><path d="M265.502 581.882c-7.85 0-14.22-6.36-14.22-14.22v-55.65c0-7.86 6.37-14.22 14.22-14.22h232.28v-41.44c0-7.86 6.37-14.22 14.22-14.22 7.85 0 14.22 6.36 14.22 14.22v55.66c0 7.86-6.37 14.22-14.22 14.22h-232.28v41.43c0 7.85-6.37 14.22-14.22 14.22z" fill="#363432" /><path d="M758.502 581.882c-7.85 0-14.22-6.36-14.22-14.22v-41.43h-232.28c-7.85 0-14.22-6.36-14.22-14.22s6.37-14.22 14.22-14.22h246.5c7.85 0 14.22 6.36 14.22 14.22v55.65c0 7.85-6.37 14.22-14.22 14.22z" fill="#363432" /></svg>