<?xml version="1.0" standalone="no"?><!DOCTYPE svg PUBLIC "-//W3C//DTD SVG 1.1//EN" "http://www.w3.org/Graphics/SVG/1.1/DTD/svg11.dtd"><svg class="icon" width="200px" height="200.00px" viewBox="0 0 1024 1024" version="1.1" xmlns="http://www.w3.org/2000/svg"><path d="M334.074 334.878m-69.86 0a69.86 69.86 0 1 0 139.72 0 69.86 69.86 0 1 0-139.72 0Z" fill="#EF7E20" /><path d="M334.074 426.538c-50.54 0-91.65-41.12-91.65-91.66s41.11-91.65 91.65-91.65 91.65 41.11 91.65 91.65-41.11 91.66-91.65 91.66z m0-139.72c-26.5 0-48.06 21.55-48.06 48.06s21.56 48.07 48.06 48.07c26.5 0 48.06-21.57 48.06-48.07s-21.56-48.06-48.06-48.06z" fill="#363432" /><path d="M689.924 334.878m-69.86 0a69.86 69.86 0 1 0 139.72 0 69.86 69.86 0 1 0-139.72 0Z" fill="#EF7E20" /><path d="M689.924 426.538c-50.54 0-91.65-41.12-91.65-91.66s41.11-91.65 91.65-91.65 91.65 41.11 91.65 91.65-41.1 91.66-91.65 91.66z m0-139.72c-26.5 0-48.06 21.55-48.06 48.06s21.56 48.07 48.06 48.07c26.5 0 48.06-21.57 48.06-48.07s-21.55-48.06-48.06-48.06z" fill="#363432" /><path d="M826.254 514.278h-628.51c-28.65 0-51.87-23.22-51.87-51.87v-75.65c0-28.65 23.22-51.87 51.87-51.87h628.51c28.65 0 51.87 23.22 51.87 51.87v75.65c0 28.64-23.22 51.87-51.87 51.87z" fill="#FFFBF1" /><path d="M826.254 536.068h-628.51c-40.62 0-73.67-33.05-73.67-73.67v-75.66c0-40.62 33.05-73.67 73.67-73.67h628.51c40.62 0 73.67 33.05 73.67 73.67v75.66c0 40.63-33.05 73.67-73.67 73.67z m-628.51-179.4c-16.59 0-30.08 13.49-30.08 30.08v75.66c0 16.59 13.49 30.08 30.08 30.08h628.51c16.59 0 30.08-13.49 30.08-30.08v-75.66c0-16.59-13.49-30.08-30.08-30.08h-628.51z" fill="#363432" /><path d="M260.384 584.398m-174.59 0a174.59 174.59 0 1 0 349.18 0 174.59 174.59 0 1 0-349.18 0Z" fill="#FFFBF1" /><path d="M260.384 780.778c-108.28 0-196.38-88.1-196.38-196.37 0-108.29 88.1-196.39 196.38-196.39s196.38 88.1 196.38 196.39c0 108.27-88.1 196.37-196.38 196.37z m0-349.18c-84.25 0-152.79 68.55-152.79 152.8 0 84.24 68.54 152.79 152.79 152.79s152.79-68.55 152.79-152.79c0-84.25-68.54-152.8-152.79-152.8z" fill="#363432" /><path d="M260.384 584.398m-119 0a119 119 0 1 0 238 0 119 119 0 1 0-238 0Z" fill="#EF7E20" /><path d="M260.384 710.648c-69.62 0-126.26-56.64-126.26-126.25 0-69.62 56.64-126.27 126.26-126.27s126.26 56.64 126.26 126.27c0 69.61-56.64 126.25-126.26 126.25z m0-237.99c-61.61 0-111.73 50.13-111.73 111.74s50.12 111.72 111.73 111.72S372.114 645.998 372.114 584.398s-50.12-111.74-111.73-111.74z" fill="#363432" /><path d="M260.384 500.878c-46.12 0-83.52 37.39-83.52 83.52" fill="#EF7E20" /><path d="M176.864 598.928c-8.02 0-14.53-6.5-14.53-14.53 0-54.06 43.99-98.05 98.05-98.05 8.02 0 14.53 6.5 14.53 14.53s-6.51 14.53-14.53 14.53c-38.04 0-68.99 30.95-68.99 68.99 0 8.03-6.5 14.53-14.53 14.53z" fill="#363432" /><path d="M763.624 584.398m-174.59 0a174.59 174.59 0 1 0 349.18 0 174.59 174.59 0 1 0-349.18 0Z" fill="#FFFBF1" /><path d="M763.614 780.778c-108.28 0-196.38-88.1-196.38-196.37 0-108.29 88.1-196.39 196.38-196.39s196.38 88.1 196.38 196.39c0.01 108.27-88.09 196.37-196.38 196.37z m0-349.18c-84.25 0-152.79 68.55-152.79 152.8 0 84.24 68.54 152.79 152.79 152.79s152.79-68.55 152.79-152.79c0.01-84.25-68.53-152.8-152.79-152.8z" fill="#363432" /><path d="M763.624 584.398m-119 0a119 119 0 1 0 238 0 119 119 0 1 0-238 0Z" fill="#EF7E20" /><path d="M763.614 710.648c-69.62 0-126.26-56.64-126.26-126.25 0-69.62 56.64-126.27 126.26-126.27s126.26 56.64 126.26 126.27c0 69.61-56.64 126.25-126.26 126.25z m0-237.99c-61.61 0-111.73 50.13-111.73 111.74s50.12 111.72 111.73 111.72S875.344 645.998 875.344 584.398s-50.12-111.74-111.73-111.74z" fill="#363432" /><path d="M763.624 500.878c-46.12 0-83.52 37.39-83.52 83.52" fill="#EF7E20" /><path d="M680.104 598.928c-8.02 0-14.53-6.5-14.53-14.53 0-54.06 43.99-98.05 98.05-98.05 8.02 0 14.53 6.5 14.53 14.53s-6.51 14.53-14.53 14.53c-38.04 0-68.99 30.95-68.99 68.99 0 8.03-6.51 14.53-14.53 14.53z" fill="#363432" /><path d="M512.004 494.708m-54.14 0a54.14 54.14 0 1 0 108.28 0 54.14 54.14 0 1 0-108.28 0Z" fill="#EF7E20" /><path d="M512.004 570.638c-41.87 0-75.93-34.07-75.93-75.94s34.06-75.92 75.93-75.92 75.93 34.05 75.93 75.92-34.06 75.94-75.93 75.94z m0-108.28c-17.84 0-32.34 14.5-32.34 32.34s14.51 32.35 32.34 32.35c17.84 0 32.34-14.52 32.34-32.35s-14.51-32.34-32.34-32.34z" fill="#363432" /></svg>