<?xml version="1.0" standalone="no"?><!DOCTYPE svg PUBLIC "-//W3C//DTD SVG 1.1//EN" "http://www.w3.org/Graphics/SVG/1.1/DTD/svg11.dtd"><svg class="icon" width="200px" height="200.00px" viewBox="0 0 1024 1024" version="1.1" xmlns="http://www.w3.org/2000/svg"><path d="M185.219 94.1l-97.93 169.59v666.2h195.84v-666.2L185.219 94.1z" fill="#E9E7DF" /><path d="M283.129 953.19H87.289c-12.87 0-23.29-10.43-23.29-23.29V263.69c0-4.09 1.08-8.11 3.12-11.65l97.93-169.59a23.308 23.308 0 0 1 20.17-11.65c8.33 0 16.01 4.44 20.17 11.65l97.91 169.59c2.05 3.55 3.12 7.55 3.12 11.65V929.9c0 12.86-10.42 23.29-23.29 23.29z m-172.54-46.58h149.25V269.94l-74.61-129.25-74.64 129.25v636.67z" fill="#363432" /><path d="M87.289 263.69l47.19 39.24 34.16-31.85 48.37 41.29 66.06-48.68" fill="#E9E7DF" /><path d="M217.029 327.9c-3.59 0-7.19-1.24-10.08-3.72l-37.84-32.29-24.02 22.4c-5.73 5.34-14.51 5.61-20.52 0.58l-47.2-39.25c-6.59-5.47-7.49-15.27-2.01-21.87 5.48-6.58 15.29-7.48 21.88-2l36.68 30.5 24.15-22.52c5.8-5.38 14.69-5.57 20.67-0.45l39 33.29 56.14-41.37c6.91-5.11 16.62-3.64 21.72 3.29 5.09 6.9 3.61 16.62-3.29 21.7l-66.06 48.68a15.515 15.515 0 0 1-9.22 3.03z" fill="#363432" /><path d="M168.699 838.76c-8.58 0-15.53-6.95-15.53-15.53V271.09c0-8.58 6.95-15.53 15.53-15.53 8.58 0 15.53 6.95 15.53 15.53v552.14c0 8.58-6.95 15.53-15.53 15.53z" fill="#363432" /><path d="M241.079 190.86h-111.73l55.91-96.76 55.82 96.76z" fill="#FFFBF1" /><path d="M241.079 206.4h-111.73a15.53 15.53 0 0 1-13.45-7.76 15.502 15.502 0 0 1 0.01-15.53l55.91-96.77c2.78-4.81 7.9-7.76 13.44-7.76h0.01c5.54 0 10.67 2.96 13.44 7.76l55.82 96.77a15.502 15.502 0 0 1-0.01 15.53c-2.77 4.8-7.89 7.76-13.44 7.76z m-84.83-31.06h57.94l-28.94-50.18-29 50.18z" fill="#363432" /><path d="M87.289 818.51h195.84V929.9H87.289z" fill="#EF7E20" /><path d="M283.129 953.19H87.289c-12.87 0-23.29-10.43-23.29-23.29V818.51c0-12.86 10.43-23.29 23.29-23.29h195.84c12.87 0 23.29 10.43 23.29 23.29V929.9c0 12.86-10.42 23.29-23.29 23.29z m-172.54-46.58h149.25v-64.8h-149.25v64.8z" fill="#363432" /><path d="M400.219 94.1h223.56v835.8h-223.56z" fill="#E9E7DF" /><path d="M623.779 953.19h-223.56c-12.87 0-23.29-10.43-23.29-23.29V94.1c0-12.86 10.43-23.29 23.29-23.29h223.56c12.87 0 23.29 10.43 23.29 23.29v835.8c0 12.86-10.42 23.29-23.29 23.29z m-200.26-46.58h176.97V117.39h-176.97v789.22z" fill="#363432" /><path d="M511.999 214.18h-111.78c-8.58 0-15.53-6.95-15.53-15.53s6.95-15.53 15.53-15.53h111.78c8.58 0 15.53 6.95 15.53 15.53s-6.95 15.53-15.53 15.53z" fill="#363432" /><path d="M464.509 318.73h-64.29c-8.58 0-15.53-6.95-15.53-15.53 0-8.58 6.95-15.53 15.53-15.53h64.29c8.58 0 15.53 6.95 15.53 15.53 0 8.58-6.95 15.53-15.53 15.53z" fill="#363432" /><path d="M511.999 423.28h-111.78c-8.58 0-15.53-6.95-15.53-15.53 0-8.58 6.95-15.53 15.53-15.53h111.78c8.58 0 15.53 6.95 15.53 15.53 0 8.58-6.95 15.53-15.53 15.53z" fill="#363432" /><path d="M464.509 527.82h-64.29c-8.58 0-15.53-6.95-15.53-15.53 0-8.58 6.95-15.53 15.53-15.53h64.29c8.58 0 15.53 6.95 15.53 15.53 0 8.59-6.95 15.53-15.53 15.53z" fill="#363432" /><path d="M511.999 632.39h-111.78c-8.58 0-15.53-6.95-15.53-15.53 0-8.58 6.95-15.53 15.53-15.53h111.78c8.58 0 15.53 6.95 15.53 15.53 0 8.58-6.95 15.53-15.53 15.53z" fill="#363432" /><path d="M464.509 736.94h-64.29c-8.58 0-15.53-6.95-15.53-15.53s6.95-15.53 15.53-15.53h64.29c8.58 0 15.53 6.95 15.53 15.53s-6.95 15.53-15.53 15.53z" fill="#363432" /><path d="M511.999 841.49h-111.78c-8.58 0-15.53-6.95-15.53-15.53s6.95-15.53 15.53-15.53h111.78c8.58 0 15.53 6.95 15.53 15.53s-6.95 15.53-15.53 15.53z" fill="#363432" /><path d="M740.869 630.56h195.84v299.33h-195.84z" fill="#EF7E20" /><path d="M936.709 953.18h-195.84c-12.87 0-23.29-10.43-23.29-23.29V630.55c0-12.86 10.43-23.29 23.29-23.29h195.84c12.87 0 23.29 10.43 23.29 23.29v299.33c0 12.87-10.43 23.3-23.29 23.3z m-172.55-46.59h149.25V653.85h-149.25v252.74z" fill="#363432" /><path d="M865.619 882.33c-8.58 0-15.53-6.95-15.53-15.53V693.66c0-8.58 6.95-15.53 15.53-15.53 8.58 0 15.53 6.95 15.53 15.53V866.8c0 8.58-6.95 15.53-15.53 15.53zM811.969 882.33c-8.58 0-15.53-6.95-15.53-15.53V748.24c0-8.58 6.95-15.53 15.53-15.53 8.58 0 15.53 6.95 15.53 15.53V866.8c-0.01 8.58-6.96 15.53-15.53 15.53z" fill="#363432" /><path d="M740.869 513.36h195.84v117.2h-195.84z" fill="#E9E7DF" /><path d="M936.709 646.08h-195.84c-8.58 0-15.53-6.95-15.53-15.53v-117.2c0-8.58 6.95-15.53 15.53-15.53h195.84c8.58 0 15.53 6.95 15.53 15.53v117.2c0 8.59-6.96 15.53-15.53 15.53z m-180.31-31.05h164.78v-86.14h-164.78v86.14z" fill="#363432" /></svg>