<?xml version="1.0" standalone="no"?><!DOCTYPE svg PUBLIC "-//W3C//DTD SVG 1.1//EN" "http://www.w3.org/Graphics/SVG/1.1/DTD/svg11.dtd"><svg class="icon" width="200px" height="200.00px" viewBox="0 0 1024 1024" version="1.1" xmlns="http://www.w3.org/2000/svg"><path d="M200.203 200.206h623.58v623.58h-623.58z" fill="#FFFBF1" /><path d="M823.783 849.306h-623.58c-14.1 0-25.52-11.43-25.52-25.52v-623.59c0-14.09 11.42-25.52 25.52-25.52h623.58c14.1 0 25.52 11.43 25.52 25.52v623.58c0 14.1-11.42 25.53-25.52 25.53z m-598.06-51.04h572.55v-572.55h-572.55v572.55z" fill="#363432" /><path d="M89.523 92.356h368.61v368.61H89.523z" fill="#EF7E20" /><path d="M458.133 486.486H89.523c-14.1 0-25.52-11.43-25.52-25.52V92.356c0-14.09 11.42-25.52 25.52-25.52h368.61c14.1 0 25.52 11.43 25.52 25.52v368.61c0 14.09-11.43 25.52-25.52 25.52z m-343.1-51.03h317.57v-317.58h-317.57v317.58z" fill="#363432" /><path d="M565.873 92.356h368.61v368.61h-368.61z" fill="#EF7E20" /><path d="M934.483 486.486h-368.61c-14.1 0-25.52-11.43-25.52-25.52V92.356c0-14.09 11.42-25.52 25.52-25.52h368.61c14.1 0 25.52 11.43 25.52 25.52v368.61c0 14.09-11.43 25.52-25.52 25.52z m-343.09-51.03h317.57v-317.58h-317.57v317.58z" fill="#363432" /><path d="M565.873 563.026h368.61v368.61h-368.61z" fill="#EF7E20" /><path d="M934.483 957.156h-368.61c-14.1 0-25.52-11.43-25.52-25.52v-368.61c0-14.09 11.42-25.52 25.52-25.52h368.61c14.1 0 25.52 11.43 25.52 25.52v368.61c0 14.09-11.43 25.52-25.52 25.52z m-343.09-51.03h317.57v-317.58h-317.57v317.58z" fill="#363432" /><path d="M89.523 563.026h368.61v368.61H89.523z" fill="#EF7E20" /><path d="M458.133 957.156H89.523c-14.1 0-25.52-11.43-25.52-25.52v-368.61c0-14.09 11.42-25.52 25.52-25.52h368.61c14.1 0 25.52 11.43 25.52 25.52v368.61c0 14.09-11.43 25.52-25.52 25.52z m-343.1-51.03h317.57v-317.58h-317.57v317.58zM273.813 387.236c-14.1 0-25.52-11.43-25.52-25.52v-168.71c0-14.09 11.42-25.52 25.52-25.52s25.52 11.43 25.52 25.52v168.71c0 14.09-11.42 25.52-25.52 25.52z" fill="#363432" /><path d="M358.163 302.876h-168.7c-14.1 0-25.52-11.43-25.52-25.52s11.42-25.52 25.52-25.52h168.7c14.1 0 25.52 11.43 25.52 25.52s-11.42 25.52-25.52 25.52zM214.173 832.486c-6.53 0-13.06-2.49-18.04-7.48-9.97-9.97-9.97-26.12 0-36.09l119.29-119.29c9.97-9.97 26.12-9.97 36.09 0 9.97 9.97 9.97 26.12 0 36.09l-119.3 119.3a25.433 25.433 0 0 1-18.04 7.47z" fill="#363432" /><path d="M333.463 832.486c-6.53 0-13.06-2.49-18.04-7.48l-119.29-119.28c-9.97-9.97-9.97-26.12 0-36.09 9.97-9.97 26.12-9.97 36.09 0l119.29 119.29c9.97 9.97 9.97 26.12 0 36.09a25.472 25.472 0 0 1-18.05 7.47z" fill="#363432" /><path d="M834.513 302.876h-168.7c-14.1 0-25.52-11.43-25.52-25.52s11.42-25.52 25.52-25.52h168.7c14.1 0 25.52 11.43 25.52 25.52s-11.42 25.52-25.52 25.52z" fill="#363432" /><path d="M834.513 730.276h-168.7c-14.1 0-25.52-11.43-25.52-25.52s11.42-25.52 25.52-25.52h168.7c14.1 0 25.52 11.43 25.52 25.52s-11.42 25.52-25.52 25.52z" fill="#363432" /><path d="M834.513 815.406h-168.7c-14.1 0-25.52-11.43-25.52-25.52s11.42-25.52 25.52-25.52h168.7c14.1 0 25.52 11.43 25.52 25.52s-11.42 25.52-25.52 25.52z" fill="#363432" /></svg>