<?xml version="1.0" standalone="no"?><!DOCTYPE svg PUBLIC "-//W3C//DTD SVG 1.1//EN" "http://www.w3.org/Graphics/SVG/1.1/DTD/svg11.dtd"><svg class="icon" width="200px" height="200.00px" viewBox="0 0 1024 1024" version="1.1" xmlns="http://www.w3.org/2000/svg"><path d="M582.823 465.592c-110.72 0-200.8-90.08-200.8-200.8s90.08-200.8 200.8-200.8 200.8 90.08 200.8 200.8-90.08 200.8-200.8 200.8z m0-354.04c-84.5 0-153.24 68.75-153.24 153.24s68.74 153.24 153.24 153.24 153.24-68.75 153.24-153.24-68.74-153.24-153.24-153.24z" fill="#363432" /><path d="M400.363 465.592c-110.72 0-200.8-90.08-200.8-200.8s90.08-200.8 200.8-200.8 200.8 90.08 200.8 200.8-90.08 200.8-200.8 200.8z m0-354.04c-84.5 0-153.24 68.75-153.24 153.24s68.74 153.24 153.24 153.24 153.24-68.75 153.24-153.24-68.73-153.24-153.24-153.24z" fill="#363432" /><path d="M885.833 936.222l-117.56-32.05-117.58 32.05v-671.43h235.13l-6.59 479.99 6.6 191.44z" fill="#EF7E20" /><path d="M650.703 960.002c-5.16 0-10.24-1.69-14.44-4.88a23.782 23.782 0 0 1-9.34-18.9v-671.42c0-13.13 10.64-23.78 23.78-23.78h235.13c6.36 0 12.46 2.55 16.93 7.07a23.796 23.796 0 0 1 6.85 17.03l-6.59 479.98 6.58 190.3c0.26 7.55-3.08 14.78-9 19.46-5.94 4.71-13.74 6.27-21.01 4.3l-111.31-30.34-111.32 30.34c-2.06 0.56-4.17 0.84-6.26 0.84z m23.78-671.43v616.51l87.54-23.86c4.1-1.11 8.41-1.11 12.51 0l86.43 23.56-5.48-159.2 6.25-457.02h-187.25z" fill="#363432" /><path d="M650.703 936.222h-512.55l10.56-191.45-10.56-479.99h512.55l11.89 479.99-11.89 191.45z" fill="#EF7E20" /><path d="M650.703 960.002h-512.55a23.8 23.8 0 0 1-17.27-7.43 23.792 23.792 0 0 1-6.47-17.66l10.5-190.52-10.53-479.07c-0.14-6.39 2.3-12.59 6.77-17.15 4.47-4.58 10.6-7.15 17-7.15h512.55c12.9 0 23.45 10.29 23.77 23.19l11.89 479.98c0.02 0.68 0.01 1.38-0.04 2.06l-11.89 191.45c-0.77 12.53-11.17 22.3-23.73 22.3z m-487.42-47.56h465.08l10.44-168.12-11.29-455.75h-465.05l10.02 455.67c0.02 0.62 0.01 1.22-0.03 1.84l-9.17 166.36z" fill="#363432" /><path d="M650.703 752.702h-402.91a7.93 7.93 0 0 1-7.93-7.93 7.93 7.93 0 0 1 7.93-7.93h402.91a7.93 7.93 0 0 1 7.93 7.93 7.93 7.93 0 0 1-7.93 7.93z" fill="#363432" /><path d="M768.283 773.402a7.93 7.93 0 0 1-7.93-7.93v-500.67a7.93 7.93 0 0 1 7.93-7.93 7.93 7.93 0 0 1 7.93 7.93v500.67c-0.01 4.38-3.55 7.93-7.93 7.93z" fill="#363432" /><path d="M263.643 499.942a136.72 87.19 0 1 0 273.44 0 136.72 87.19 0 1 0-273.44 0Z" fill="#FFFBF1" /><path d="M400.363 602.992c-85.55 0-152.58-45.27-152.58-103.04s67.02-103.04 152.58-103.04 152.58 45.27 152.58 103.04-67.02 103.04-152.58 103.04z m0-174.38c-65.52 0-120.87 32.66-120.87 71.33s55.35 71.33 120.87 71.33 120.87-32.66 120.87-71.33-55.34-71.33-120.87-71.33z" fill="#363432" /></svg>