<?xml version="1.0" standalone="no"?><!DOCTYPE svg PUBLIC "-//W3C//DTD SVG 1.1//EN" "http://www.w3.org/Graphics/SVG/1.1/DTD/svg11.dtd"><svg class="icon" width="200px" height="200.00px" viewBox="0 0 1024 1024" version="1.1" xmlns="http://www.w3.org/2000/svg"><path d="M288.564 379.144h635.84l-113.98 289.91-460.15 49.38-61.71-339.29z" fill="#FFFBF1" /><path d="M350.254 742.944c-11.7 0-21.94-8.36-24.08-20.12l-61.72-339.3c-1.3-7.15 0.64-14.5 5.29-20.08a24.52 24.52 0 0 1 18.82-8.81h635.84c8.1 0 15.69 4 20.25 10.7s5.52 15.22 2.55 22.76l-113.97 289.92a24.482 24.482 0 0 1-20.19 15.39l-460.15 49.39c-0.88 0.1-1.77 0.15-2.64 0.15z m-32.33-339.3l52.39 288 422.75-45.37 95.38-242.63h-570.52z" fill="#363432" /><path d="M725.804 609.724h-268.67c-9.02 0-16.34-7.31-16.34-16.34s7.31-16.34 16.34-16.34h268.67c9.02 0 16.34 7.31 16.34 16.34s-7.31 16.34-16.34 16.34z" fill="#363432" /><path d="M330.484 863.514m-71.98 0a71.98 71.98 0 1 0 143.96 0 71.98 71.98 0 1 0-143.96 0Z" fill="#EF7E20" /><path d="M330.474 960.004c-53.2 0-96.48-43.28-96.48-96.48s43.28-96.48 96.48-96.48 96.48 43.28 96.48 96.48-43.27 96.48-96.48 96.48z m0-143.96c-26.17 0-47.47 21.3-47.47 47.48 0 26.18 21.3 47.48 47.47 47.48 26.18 0 47.48-21.3 47.48-47.48 0-26.19-21.3-47.48-47.48-47.48z" fill="#363432" /><path d="M810.424 863.514m-71.98 0a71.98 71.98 0 1 0 143.96 0 71.98 71.98 0 1 0-143.96 0Z" fill="#EF7E20" /><path d="M810.434 960.004c-53.2 0-96.48-43.28-96.48-96.48s43.28-96.48 96.48-96.48 96.48 43.28 96.48 96.48-43.29 96.48-96.48 96.48z m0-143.96c-26.18 0-47.48 21.3-47.48 47.48 0 26.18 21.3 47.48 47.48 47.48 26.17 0 47.47-21.3 47.47-47.48-0.01-26.19-21.3-47.48-47.47-47.48z" fill="#363432" /><path d="M320.254 578.104c-11.58 0-21.89-8.25-24.07-20.04l-58.47-315.58-140.86-15.94c-13.45-1.52-23.12-13.66-21.6-27.1 1.52-13.45 13.72-23.21 27.1-21.58l158.9 17.98c10.71 1.21 19.37 9.28 21.35 19.88l61.78 333.42c2.46 13.3-6.33 26.1-19.63 28.56-1.51 0.27-3.02 0.4-4.5 0.4zM591.464 536.054c-13.54 0-24.5-10.98-24.5-24.5v-267.33c0-13.53 10.97-24.5 24.5-24.5s24.5 10.98 24.5 24.5v267.32c0 13.53-10.97 24.51-24.5 24.51z" fill="#363432" /><path d="M591.464 536.054c-5.42 0-10.86-1.8-15.33-5.39l-63.62-50.99c-10.56-8.47-12.26-23.88-3.8-34.44 8.46-10.58 23.87-12.28 34.45-3.81l48.31 38.72 48.3-38.7c10.55-8.47 25.99-6.76 34.44 3.78 8.46 10.56 6.76 25.99-3.8 34.44l-63.63 51.02c-4.48 3.56-9.9 5.37-15.32 5.37z" fill="#363432" /><path d="M494.594 88.514h193.74v155.71h-193.74z" fill="#EF7E20" /><path d="M688.334 268.724h-193.74c-13.54 0-24.5-10.98-24.5-24.5V88.504c0-13.53 10.97-24.5 24.5-24.5h193.74c13.54 0 24.5 10.98 24.5 24.5v155.72c0 13.53-10.96 24.5-24.5 24.5z m-169.24-49.01h144.73v-106.71h-144.73v106.71z" fill="#363432" /><path d="M591.464 163.374c-9.02 0-16.34-7.31-16.34-16.34v-58.53c0-9.03 7.31-16.34 16.34-16.34s16.34 7.31 16.34 16.34v58.53c-0.01 9.03-7.32 16.34-16.34 16.34z" fill="#363432" /></svg>