<?xml version="1.0" standalone="no"?><!DOCTYPE svg PUBLIC "-//W3C//DTD SVG 1.1//EN" "http://www.w3.org/Graphics/SVG/1.1/DTD/svg11.dtd"><svg class="icon" width="200px" height="200.00px" viewBox="0 0 1024 1024" version="1.1" xmlns="http://www.w3.org/2000/svg"><path d="M90.49 170.293H933.5v767.91H90.49z" fill="#FFFBF1" /><path d="M933.51 960.003H90.49c-12.04 0-21.8-9.77-21.8-21.8v-767.92c0-12.04 9.76-21.8 21.8-21.8H933.5c12.04 0 21.8 9.77 21.8 21.8v767.91c0.01 12.04-9.75 21.81-21.79 21.81z m-821.21-43.61h799.4v-724.31H112.3v724.31z" fill="#363432" /><path d="M90.49 336.753H933.5v601.45H90.49z" fill="#EF7E20" /><path d="M933.51 960.003H90.49c-12.04 0-21.8-9.77-21.8-21.8v-601.45c0-12.04 9.76-21.8 21.8-21.8H933.5c12.04 0 21.8 9.77 21.8 21.8v601.44c0.01 12.04-9.75 21.81-21.79 21.81z m-821.21-43.61h799.4v-557.84H112.3v557.84z" fill="#363432" /><path d="M211.61 473.353h72.67v72.67h-72.67z" fill="#EF7E20" /><path d="M284.28 560.563h-72.67c-8.03 0-14.53-6.5-14.53-14.53v-72.67c0-8.03 6.51-14.53 14.53-14.53h72.67c8.03 0 14.53 6.5 14.53 14.53v72.67c0.01 8.03-6.5 14.53-14.53 14.53z m-58.13-29.07h43.6v-43.6h-43.6v43.6z" fill="#363432" /><path d="M343.64 473.353h72.67v72.67h-72.67z" fill="#FFFBF1" /><path d="M416.32 560.563h-72.67c-8.03 0-14.53-6.5-14.53-14.53v-72.67c0-8.03 6.51-14.53 14.53-14.53h72.67c8.03 0 14.53 6.5 14.53 14.53v72.67c0 8.03-6.51 14.53-14.53 14.53z m-58.14-29.07h43.6v-43.6h-43.6v43.6z" fill="#363432" /><path d="M475.66 473.353h72.67v72.67h-72.67z" fill="#FFFBF1" /><path d="M548.34 560.563h-72.67c-8.03 0-14.53-6.5-14.53-14.53v-72.67c0-8.03 6.51-14.53 14.53-14.53h72.67c8.03 0 14.53 6.5 14.53 14.53v72.67c0 8.03-6.51 14.53-14.53 14.53z m-58.14-29.07h43.6v-43.6h-43.6v43.6z" fill="#363432" /><path d="M607.68 473.353h72.67v72.67h-72.67z" fill="#EF7E20" /><path d="M680.36 560.563h-72.67c-8.03 0-14.53-6.5-14.53-14.53v-72.67c0-8.03 6.51-14.53 14.53-14.53h72.67c8.03 0 14.53 6.5 14.53 14.53v72.67c0 8.03-6.51 14.53-14.53 14.53z m-58.14-29.07h43.6v-43.6h-43.6v43.6z" fill="#363432" /><path d="M739.72 473.353h72.67v72.67h-72.67z" fill="#EF7E20" /><path d="M812.39 560.563h-72.67c-8.03 0-14.53-6.5-14.53-14.53v-72.67c0-8.03 6.51-14.53 14.53-14.53h72.67c8.03 0 14.53 6.5 14.53 14.53v72.67c0 8.03-6.5 14.53-14.53 14.53z m-58.14-29.07h43.6v-43.6h-43.6v43.6z" fill="#363432" /><path d="M211.61 601.143h72.67v72.67h-72.67z" fill="#FFFBF1" /><path d="M284.28 688.353h-72.67c-8.03 0-14.53-6.5-14.53-14.53v-72.67c0-8.03 6.51-14.53 14.53-14.53h72.67c8.03 0 14.53 6.5 14.53 14.53v72.67c0.01 8.03-6.5 14.53-14.53 14.53z m-58.13-29.07h43.6v-43.6h-43.6v43.6z" fill="#363432" /><path d="M343.64 601.143h72.67v72.67h-72.67z" fill="#EF7E20" /><path d="M416.32 688.353h-72.67c-8.03 0-14.53-6.5-14.53-14.53v-72.67c0-8.03 6.51-14.53 14.53-14.53h72.67c8.03 0 14.53 6.5 14.53 14.53v72.67c0 8.03-6.51 14.53-14.53 14.53z m-58.14-29.07h43.6v-43.6h-43.6v43.6z" fill="#363432" /><path d="M475.66 601.143h72.67v72.67h-72.67z" fill="#EF7E20" /><path d="M548.34 688.353h-72.67c-8.03 0-14.53-6.5-14.53-14.53v-72.67c0-8.03 6.51-14.53 14.53-14.53h72.67c8.03 0 14.53 6.5 14.53 14.53v72.67c0 8.03-6.51 14.53-14.53 14.53z m-58.14-29.07h43.6v-43.6h-43.6v43.6z" fill="#363432" /><path d="M607.68 601.143h72.67v72.67h-72.67z" fill="#EF7E20" /><path d="M680.36 688.353h-72.67c-8.03 0-14.53-6.5-14.53-14.53v-72.67c0-8.03 6.51-14.53 14.53-14.53h72.67c8.03 0 14.53 6.5 14.53 14.53v72.67c0 8.03-6.51 14.53-14.53 14.53z m-58.14-29.07h43.6v-43.6h-43.6v43.6z" fill="#363432" /><path d="M739.72 601.143h72.67v72.67h-72.67z" fill="#FFFBF1" /><path d="M812.39 688.353h-72.67c-8.03 0-14.53-6.5-14.53-14.53v-72.67c0-8.03 6.51-14.53 14.53-14.53h72.67c8.03 0 14.53 6.5 14.53 14.53v72.67c0 8.03-6.5 14.53-14.53 14.53z m-58.14-29.07h43.6v-43.6h-43.6v43.6z" fill="#363432" /><path d="M211.61 728.933h72.67v72.67h-72.67z" fill="#EF7E20" /><path d="M284.28 816.143h-72.67c-8.03 0-14.53-6.5-14.53-14.53v-72.67c0-8.03 6.51-14.53 14.53-14.53h72.67c8.03 0 14.53 6.5 14.53 14.53v72.67c0.01 8.03-6.5 14.53-14.53 14.53z m-58.13-29.07h43.6v-43.6h-43.6v43.6z" fill="#363432" /><path d="M343.64 728.933h72.67v72.67h-72.67z" fill="#EF7E20" /><path d="M416.32 816.143h-72.67c-8.03 0-14.53-6.5-14.53-14.53v-72.67c0-8.03 6.51-14.53 14.53-14.53h72.67c8.03 0 14.53 6.5 14.53 14.53v72.67c0 8.03-6.51 14.53-14.53 14.53z m-58.14-29.07h43.6v-43.6h-43.6v43.6z" fill="#363432" /><path d="M475.66 728.933h72.67v72.67h-72.67z" fill="#FFFBF1" /><path d="M548.34 816.143h-72.67c-8.03 0-14.53-6.5-14.53-14.53v-72.67c0-8.03 6.51-14.53 14.53-14.53h72.67c8.03 0 14.53 6.5 14.53 14.53v72.67c0 8.03-6.51 14.53-14.53 14.53z m-58.14-29.07h43.6v-43.6h-43.6v43.6z" fill="#363432" /><path d="M607.68 728.933h72.67v72.67h-72.67z" fill="#EF7E20" /><path d="M680.36 816.143h-72.67c-8.03 0-14.53-6.5-14.53-14.53v-72.67c0-8.03 6.51-14.53 14.53-14.53h72.67c8.03 0 14.53 6.5 14.53 14.53v72.67c0 8.03-6.51 14.53-14.53 14.53z m-58.14-29.07h43.6v-43.6h-43.6v43.6z" fill="#363432" /><path d="M739.72 728.933h72.67v72.67h-72.67z" fill="#EF7E20" /><path d="M812.39 816.143h-72.67c-8.03 0-14.53-6.5-14.53-14.53v-72.67c0-8.03 6.51-14.53 14.53-14.53h72.67c8.03 0 14.53 6.5 14.53 14.53v72.67c0 8.03-6.5 14.53-14.53 14.53z m-58.14-29.07h43.6v-43.6h-43.6v43.6z" fill="#363432" /><path d="M261.28 262.033c-20.05-0.06-36.28-16.29-36.34-36.34v-110.82c0.06-20.05 16.29-36.28 36.34-36.34 20.05 0.06 36.28 16.29 36.34 36.34v110.83c-0.06 20.04-16.3 36.27-36.34 36.33z" fill="#EF7E20" /><path d="M261.32 276.573h-0.09c-27.95-0.09-50.75-22.88-50.83-50.83v-110.87c0.08-27.99 22.88-50.79 50.83-50.87 28.03 0.09 50.84 22.88 50.91 50.83v110.87c-0.07 27.99-22.87 50.78-50.82 50.87z m-0.09-183.5c-11.93 0.03-21.72 9.84-21.76 21.84v110.78c0.04 11.95 9.81 21.75 21.8 21.8 11.99-0.06 21.77-9.85 21.8-21.84v-110.78c-0.03-11.97-9.82-21.78-21.84-21.8z" fill="#363432" /><path d="M762.72 262.033c-20.05-0.06-36.28-16.29-36.34-36.34v-110.82c0.06-20.05 16.29-36.28 36.34-36.34 20.05 0.06 36.28 16.29 36.34 36.34v110.83c-0.06 20.04-16.29 36.27-36.34 36.33z" fill="#EF7E20" /><path d="M762.77 276.573h-0.09c-27.95-0.09-50.75-22.88-50.83-50.83v-110.87c0.08-27.99 22.88-50.79 50.83-50.87 28.03 0.09 50.84 22.88 50.91 50.83v110.87c-0.07 27.99-22.88 50.78-50.82 50.87z m-0.09-183.5c-11.93 0.03-21.72 9.84-21.76 21.84v110.78c0.04 11.95 9.81 21.75 21.8 21.8 11.99-0.06 21.77-9.85 21.8-21.84v-110.78c-0.03-11.97-9.82-21.78-21.84-21.8z" fill="#363432" /><path d="M615.25 277.433h-206.5c-12.04 0-21.8-9.77-21.8-21.8 0-12.04 9.76-21.8 21.8-21.8h206.51c12.04 0 21.8 9.77 21.8 21.8 0 12.04-9.76 21.8-21.81 21.8z" fill="#363432" /></svg>