<?xml version="1.0" standalone="no"?><!DOCTYPE svg PUBLIC "-//W3C//DTD SVG 1.1//EN" "http://www.w3.org/Graphics/SVG/1.1/DTD/svg11.dtd"><svg class="icon" width="200px" height="200.00px" viewBox="0 0 1024 1024" version="1.1" xmlns="http://www.w3.org/2000/svg"><path d="M511.988 828.39c-66.1 0-128.24-25.74-174.99-72.48-46.75-46.74-72.5-108.88-72.5-175V411.24c0-12.07 9.78-21.85 21.85-21.85 12.07 0 21.85 9.79 21.85 21.85v169.68c0 54.43 21.21 105.61 59.7 144.1 38.49 38.47 89.66 59.67 144.08 59.67h0.03c112.35 0 203.76-91.41 203.77-203.77V411.24c0-12.07 9.78-21.85 21.85-21.85s21.85 9.79 21.85 21.85v169.68c-0.01 136.46-111.03 247.48-247.48 247.48 0.02-0.01 0-0.01-0.01-0.01z" fill="#363432" /><path d="M643.578 938.14c0-72.67-58.91-131.57-131.57-131.57s-131.57 58.91-131.57 131.57h263.14z" fill="#E9E7DF" /><path d="M643.568 960h-263.14c-12.07 0-21.85-9.79-21.85-21.85 0-84.6 68.83-153.43 153.42-153.43s153.43 68.83 153.43 153.43c0 12.06-9.79 21.85-21.86 21.85z m-239.1-43.71h215.07c-10.16-50.07-54.51-87.87-107.53-87.87s-97.38 37.81-107.54 87.87z" fill="#363432" /><path d="M511.998 85.85c-73.67 0.22-133.34 59.88-133.55 133.55v347.37c0.22 73.67 59.88 133.34 133.55 133.55 73.67-0.22 133.34-59.88 133.55-133.55V219.4c-0.21-73.67-59.88-133.34-133.55-133.55z" fill="#EF7E20" /><path d="M512.068 722.18c-85.54-0.24-155.22-69.93-155.47-155.35V219.41c0.25-85.48 69.94-155.17 155.34-155.41h0.13c85.41 0.24 155.1 69.93 155.34 155.35v347.42c-0.25 85.49-69.94 155.17-155.34 155.41z m-0.07-614.47c-61.42 0.21-111.52 50.34-111.7 111.76v347.31c0.18 61.39 50.32 111.52 111.77 111.7 61.32-0.18 111.46-50.31 111.64-111.76V219.41c-0.18-61.37-50.29-111.49-111.71-111.7z" fill="#363432" /><path d="M469.198 269.19h-90.75c-12.07 0-21.85-9.79-21.85-21.85 0-12.07 9.78-21.85 21.85-21.85h90.75c12.07 0 21.85 9.79 21.85 21.85 0 12.06-9.78 21.85-21.85 21.85zM469.198 362.97h-90.75c-12.07 0-21.85-9.79-21.85-21.85s9.78-21.85 21.85-21.85h90.75c12.07 0 21.85 9.79 21.85 21.85s-9.78 21.85-21.85 21.85zM469.198 456.77h-90.75c-12.07 0-21.85-9.79-21.85-21.85 0-12.07 9.78-21.85 21.85-21.85h90.75c12.07 0 21.85 9.79 21.85 21.85 0 12.06-9.78 21.85-21.85 21.85zM645.558 269.19h-90.77c-12.07 0-21.85-9.79-21.85-21.85 0-12.07 9.78-21.85 21.85-21.85h90.77c12.07 0 21.85 9.79 21.85 21.85 0 12.06-9.78 21.85-21.85 21.85zM645.558 362.97h-90.77c-12.07 0-21.85-9.79-21.85-21.85s9.78-21.85 21.85-21.85h90.77c12.07 0 21.85 9.79 21.85 21.85s-9.78 21.85-21.85 21.85zM645.558 456.77h-90.77c-12.07 0-21.85-9.79-21.85-21.85 0-12.07 9.78-21.85 21.85-21.85h90.77c12.07 0 21.85 9.79 21.85 21.85 0 12.06-9.78 21.85-21.85 21.85z" fill="#363432" /><path d="M378.448 535.97v30.8c0 73.76 59.79 133.55 133.55 133.55s133.55-59.79 133.55-133.55v-30.8h-267.1z" fill="#FFFBF1" /><path d="M511.998 722.18c-85.69 0-155.41-69.72-155.41-155.41v-30.8c0-12.07 9.78-21.85 21.85-21.85h267.11c12.07 0 21.85 9.79 21.85 21.85v30.8c0.01 85.7-69.7 155.41-155.4 155.41z m-111.7-164.35v8.95c0 61.59 50.11 111.7 111.7 111.7s111.7-50.11 111.7-111.7v-8.95h-223.4z" fill="#363432" /></svg>