<?xml version="1.0" standalone="no"?><!DOCTYPE svg PUBLIC "-//W3C//DTD SVG 1.1//EN" "http://www.w3.org/Graphics/SVG/1.1/DTD/svg11.dtd"><svg class="icon" width="200px" height="200.00px" viewBox="0 0 1024 1024" version="1.1" xmlns="http://www.w3.org/2000/svg"><path d="M165.48 715.928h-79.8v-468.94h593.46v468.94H307.72" fill="#EF7E20" /><path d="M679.13 737.598H307.72c-11.97 0-21.68-9.71-21.68-21.68 0-11.97 9.7-21.68 21.68-21.68h349.73v-425.58h-550.1v425.59h58.12c11.97 0 21.68 9.71 21.68 21.68 0 11.97-9.7 21.68-21.68 21.68h-79.8c-11.97 0-21.68-9.71-21.68-21.68v-468.95c0-11.97 9.7-21.68 21.68-21.68h593.45c11.97 0 21.68 9.71 21.68 21.68v468.94c0.01 11.97-9.69 21.68-21.67 21.68z" fill="#363432" /><path d="M747.56 715.928h-70.35v-402.86h181.22l79.89 201.43v201.43h-68.56" fill="#EF7E20" /><path d="M938.32 737.598h-68.56c-11.97 0-21.68-9.71-21.68-21.68 0-11.97 9.7-21.68 21.68-21.68h46.88v-175.6l-72.94-183.89H698.88v359.5h48.68c11.97 0 21.68 9.71 21.68 21.68 0 11.97-9.7 21.68-21.68 21.68h-70.35c-11.97 0-21.68-9.71-21.68-21.68v-402.86c0-11.97 9.7-21.68 21.68-21.68h181.22c8.88 0 16.87 5.42 20.15 13.69l79.89 201.43a21.61 21.61 0 0 1 1.52 7.99v201.42c0.01 11.97-9.69 21.68-21.67 21.68z" fill="#363432" /><path d="M677.21 514.498v-201.43h181.22l79.89 201.43H677.21z" fill="#E9E7DF" /><path d="M938.32 528.958H677.21c-7.98 0-14.45-6.46-14.45-14.45v-201.44c0-7.99 6.47-14.45 14.45-14.45h181.22c5.93 0 11.25 3.61 13.44 9.12l79.89 201.43a14.466 14.466 0 0 1-13.44 19.79z m-246.66-28.9h225.39l-68.43-172.53H691.66v172.53z" fill="#363432" /><path d="M215.34 715.928m-61.09 0a61.09 61.09 0 1 0 122.18 0 61.09 61.09 0 1 0-122.18 0Z" fill="#FFFBF1" /><path d="M215.33 798.698c-45.63 0-82.77-37.13-82.77-82.77 0-45.63 37.13-82.76 82.77-82.76s82.77 37.13 82.77 82.76c0 45.64-37.13 82.77-82.77 82.77z m0-122.18c-21.73 0-39.41 17.67-39.41 39.4 0 21.73 17.68 39.42 39.41 39.42s39.41-17.68 39.41-39.42c0-21.73-17.67-39.4-39.41-39.4z" fill="#363432" /><path d="M808.66 715.928m-61.09 0a61.09 61.09 0 1 0 122.18 0 61.09 61.09 0 1 0-122.18 0Z" fill="#FFFBF1" /><path d="M808.66 798.698c-45.63 0-82.77-37.13-82.77-82.77 0-45.63 37.13-82.76 82.77-82.76s82.77 37.13 82.77 82.76c0 45.64-37.14 82.77-82.77 82.77z m0-122.18c-21.73 0-39.41 17.67-39.41 39.4 0 21.73 17.68 39.42 39.41 39.42s39.41-17.68 39.41-39.42c0-21.73-17.68-39.4-39.41-39.4z" fill="#363432" /><path d="M774.92 576.318h-39.09c-7.98 0-14.45-6.46-14.45-14.45 0-7.99 6.47-14.45 14.45-14.45h39.09c7.98 0 14.45 6.46 14.45 14.45 0 7.99-6.47 14.45-14.45 14.45z" fill="#363432" /><path d="M692.31 737.598H559.96c-11.97 0-21.68-9.71-21.68-21.68 0-11.97 9.7-21.68 21.68-21.68h132.35c11.97 0 21.68 9.71 21.68 21.68 0 11.97-9.7 21.68-21.68 21.68z" fill="#363432" /><path d="M382.4 481.448m-79.18 0a79.18 79.18 0 1 0 158.36 0 79.18 79.18 0 1 0-158.36 0Z" fill="#E9E7DF" /><path d="M382.39 575.078c-51.63 0-93.63-42-93.63-93.63 0-51.64 42-93.64 93.63-93.64s93.63 42 93.63 93.64c0.01 51.63-41.99 93.63-93.63 93.63z m0-158.36c-35.69 0-64.73 29.04-64.73 64.74s29.04 64.72 64.73 64.72 64.73-29.03 64.73-64.72-29.03-64.74-64.73-64.74z" fill="#363432" /><path d="M484.57 522.058H280.24c-7.98 0-14.45-6.46-14.45-14.45 0-7.99 6.47-14.45 14.45-14.45h204.33c7.98 0 14.45 6.46 14.45 14.45 0 7.98-6.47 14.45-14.45 14.45z" fill="#363432" /></svg>