<?xml version="1.0" standalone="no"?><!DOCTYPE svg PUBLIC "-//W3C//DTD SVG 1.1//EN" "http://www.w3.org/Graphics/SVG/1.1/DTD/svg11.dtd"><svg class="icon" width="200px" height="200.00px" viewBox="0 0 1024 1024" version="1.1" xmlns="http://www.w3.org/2000/svg"><path d="M85.387 637.007L485.344 237.05l301.6 301.6-399.957 399.956z" fill="#FFFBF1" /><path d="M386.989 959.999c-5.67 0-11.11-2.26-15.12-6.26l-301.6-301.6c-8.35-8.35-8.35-21.88 0-30.24l399.96-399.97c8.02-8.02 22.22-8.02 30.24 0l301.6 301.6c8.35 8.35 8.35 21.88 0 30.24l-399.97 399.97c-4 4.01-9.44 6.26-15.11 6.26z m-271.36-322.98l271.36 271.37 369.72-369.74-271.36-271.37-369.72 369.74z" fill="#363432" /><path d="M523.029 274.757L712.404 85.382l226.201 226.201L749.23 500.96z" fill="#E9E7DF" /><path d="M749.239 522.349c-5.47 0-10.94-2.09-15.12-6.26l-226.2-226.21c-8.35-8.35-8.35-21.88 0-30.24l189.37-189.37c8.35-8.35 21.88-8.35 30.24 0l226.21 226.21c8.35 8.35 8.35 21.88 0 30.24l-189.38 189.37a21.347 21.347 0 0 1-15.12 6.26z m-195.97-247.59l195.97 195.97 159.14-159.14-195.97-195.97-159.14 159.14z" fill="#363432" /><path d="M650.037 251.06l38.679-38.679 38.678 38.679-38.678 38.678z" fill="#EF7E20" /><path d="M688.719 303.979c-3.65 0-7.29-1.39-10.08-4.18l-38.67-38.67c-5.57-5.57-5.57-14.59 0-20.16l38.67-38.67c5.57-5.57 14.59-5.57 20.16 0l38.68 38.67c2.67 2.67 4.18 6.29 4.18 10.08s-1.5 7.41-4.18 10.08l-38.68 38.67a14.214 14.214 0 0 1-10.08 4.18z m-18.52-52.93l18.51 18.51 18.52-18.51-18.51-18.51-18.52 18.51z" fill="#363432" /><path d="M734.262 335.272l38.678-38.678 38.679 38.678-38.679 38.679z" fill="#EF7E20" /><path d="M772.949 388.199c-3.65 0-7.29-1.39-10.08-4.18l-38.68-38.67a14.252 14.252 0 0 1-4.18-10.08c0-3.79 1.5-7.41 4.18-10.08l38.68-38.67c5.57-5.57 14.59-5.57 20.16 0l38.68 38.67c2.67 2.67 4.18 6.29 4.18 10.08s-1.5 7.41-4.18 10.08l-38.68 38.67a14.197 14.197 0 0 1-10.08 4.18z m-18.51-52.93l18.51 18.51 18.51-18.51-18.51-18.51-18.51 18.51z" fill="#363432" /><path d="M85.37 637.002L185.842 536.53l301.6 301.6L386.968 938.6z" fill="#EF7E20" /><path d="M386.989 959.989c-5.47 0-10.94-2.09-15.12-6.26l-301.6-301.6c-4.01-4.01-6.26-9.45-6.26-15.12s2.26-11.11 6.26-15.12l100.47-100.47c8.35-8.35 21.88-8.35 30.24 0l301.6 301.6c4.01 4.01 6.26 9.45 6.26 15.12s-2.26 11.11-6.26 15.12l-100.48 100.46a21.276 21.276 0 0 1-15.11 6.27z m-271.36-322.99l271.36 271.37 70.23-70.23-271.36-271.37-70.23 70.23z" fill="#363432" /><path d="M649.679 551.949c-5.47 0-10.94-2.09-15.12-6.26l-156.23-156.24c-8.35-8.35-8.35-21.88 0-30.24 8.35-8.35 21.88-8.35 30.24 0l156.22 156.24c8.35 8.35 8.35 21.88 0 30.24a21.307 21.307 0 0 1-15.11 6.26z" fill="#363432" /><path d="M554.309 576.739c-5.47 0-10.94-2.09-15.12-6.26l-85.67-85.67c-8.35-8.35-8.35-21.88 0-30.24 8.35-8.35 21.88-8.35 30.24 0l85.67 85.67c8.35 8.35 8.35 21.88 0 30.24a21.347 21.347 0 0 1-15.12 6.26z" fill="#363432" /></svg>