<?xml version="1.0" standalone="no"?><!DOCTYPE svg PUBLIC "-//W3C//DTD SVG 1.1//EN" "http://www.w3.org/Graphics/SVG/1.1/DTD/svg11.dtd"><svg class="icon" width="200px" height="200.00px" viewBox="0 0 1024 1024" version="1.1" xmlns="http://www.w3.org/2000/svg"><path d="M638.275 252.045h150.64v51.89h-150.64z" fill="#FFFBF1" /><path d="M788.925 325.695h-150.65c-12.02 0-21.77-9.75-21.77-21.77v-51.89c0-12.02 9.74-21.77 21.77-21.77h150.65c12.02 0 21.77 9.75 21.77 21.77v51.89c0 12.03-9.75 21.77-21.77 21.77z m-128.88-43.53h107.12v-8.36h-107.12v8.36zM379.655 732.295h-64.51c-12.02 0-21.77-9.75-21.77-21.77s9.74-21.77 21.77-21.77h64.51c12.02 0 21.77 9.75 21.77 21.77-0.01 12.02-9.75 21.77-21.77 21.77z" fill="#363432" /><path d="M192.315 710.535h-68.92v-131.8h512.53v131.78h-133.5" fill="#EF7E20" /><path d="M192.305 732.295h-68.92c-12.02 0-21.77-9.75-21.77-21.77v-131.8c0-12.02 9.74-21.77 21.77-21.77h512.53c12.02 0 21.77 9.75 21.77 21.77v131.79c0 12.02-9.74 21.77-21.77 21.77h-133.5c-12.02 0-21.77-9.75-21.77-21.77s9.74-21.77 21.77-21.77h111.73v-88.25h-469v88.27h47.16c12.02 0 21.77 9.75 21.77 21.77 0 12.01-9.74 21.76-21.77 21.76z" fill="#363432" /><path d="M828.585 710.535h69.84v-352.35c0-29.05-23.55-52.6-52.6-52.6h-157.3c-29.05 0-52.6 23.55-52.6 52.6v352.33h69.85" fill="#EF7E20" /><path d="M898.415 732.295h-69.84c-12.02 0-21.77-9.75-21.77-21.77s9.74-21.77 21.77-21.77h48.07v-330.58c0-17-13.83-30.83-30.83-30.83h-157.3c-17 0-30.83 13.83-30.83 30.83v330.57h48.09c12.02 0 21.77 9.75 21.77 21.77s-9.74 21.77-21.77 21.77h-69.85c-12.02 0-21.77-9.75-21.77-21.77v-352.34c0-41.01 33.36-74.36 74.36-74.36h157.3c41.01 0 74.36 33.36 74.36 74.36v352.35c0.01 12.02-9.73 21.77-21.76 21.77z" fill="#363432" /><path d="M253.735 710.535m-61.42 0a61.42 61.42 0 1 0 122.84 0 61.42 61.42 0 1 0-122.84 0Z" fill="#FFFBF1" /><path d="M253.725 793.725c-45.87 0-83.19-37.32-83.19-83.19s37.32-83.18 83.19-83.18c45.88 0 83.19 37.31 83.19 83.18 0.01 45.86-37.31 83.19-83.19 83.19z m0-122.84c-21.86 0-39.65 17.78-39.65 39.65 0 21.86 17.79 39.66 39.65 39.66 21.87 0 39.66-17.8 39.66-39.66 0.01-21.87-17.78-39.65-39.66-39.65z" fill="#363432" /><path d="M441.075 710.535m-61.42 0a61.42 61.42 0 1 0 122.84 0 61.42 61.42 0 1 0-122.84 0Z" fill="#FFFBF1" /><path d="M441.075 793.725c-45.87 0-83.19-37.32-83.19-83.19s37.32-83.18 83.19-83.18 83.19 37.31 83.19 83.18c-0.01 45.86-37.32 83.19-83.19 83.19z m0-122.84c-21.86 0-39.65 17.78-39.65 39.65 0 21.86 17.79 39.66 39.65 39.66s39.65-17.8 39.65-39.66c0-21.87-17.79-39.65-39.65-39.65z" fill="#363432" /><path d="M767.175 710.535m-61.42 0a61.42 61.42 0 1 0 122.84 0 61.42 61.42 0 1 0-122.84 0Z" fill="#FFFBF1" /><path d="M767.175 793.725c-45.87 0-83.19-37.32-83.19-83.19s37.32-83.18 83.19-83.18 83.19 37.31 83.19 83.18c-0.01 45.86-37.32 83.19-83.19 83.19z m0-122.84c-21.86 0-39.65 17.78-39.65 39.65 0 21.86 17.79 39.66 39.65 39.66s39.65-17.8 39.65-39.66c0-21.87-17.79-39.65-39.65-39.65z" fill="#363432" /><path d="M733.255 590.755h-39.29c-8.01 0-14.51-6.49-14.51-14.51s6.5-14.51 14.51-14.51h39.29c8.01 0 14.51 6.49 14.51 14.51s-6.5 14.51-14.51 14.51zM938.235 732.295h-90.49c-12.02 0-21.77-9.75-21.77-21.77s9.74-21.77 21.77-21.77h90.49c12.02 0 21.77 9.75 21.77 21.77s-9.75 21.77-21.77 21.77zM192.325 732.295H85.765c-12.02 0-21.77-9.75-21.77-21.77s9.74-21.77 21.77-21.77h106.56c12.02 0 21.77 9.75 21.77 21.77-0.01 12.02-9.75 21.77-21.77 21.77z" fill="#363432" /><path d="M693.955 373.535h146.89v146.89h-146.89z" fill="#E9E7DF" /><path d="M840.845 534.935h-146.89c-8.01 0-14.51-6.49-14.51-14.51v-146.89c0-8.02 6.5-14.51 14.51-14.51h146.89c8.01 0 14.51 6.49 14.51 14.51v146.89c0 8.02-6.5 14.51-14.51 14.51z m-132.38-29.02h117.87v-117.87h-117.87v117.87z" fill="#363432" /><path d="M273.945 528.155h146.89v50.6h-146.89z" fill="#FFFBF1" /><path d="M420.825 593.255h-146.88c-8.01 0-14.51-6.49-14.51-14.51v-50.59c0-8.02 6.5-14.51 14.51-14.51h146.89c8.01 0 14.51 6.49 14.51 14.51v50.59c0 8.02-6.5 14.51-14.52 14.51z m-132.37-29.02h117.87v-21.57h-117.87v21.57z" fill="#363432" /><path d="M635.915 415.845c-12.02 0-21.77-9.75-21.77-21.77v-142.03c0-12.02 9.74-21.77 21.77-21.77 12.02 0 21.77 9.75 21.77 21.77v142.04c0 12.02-9.74 21.76-21.77 21.76z" fill="#363432" /></svg>