<?xml version="1.0" standalone="no"?><!DOCTYPE svg PUBLIC "-//W3C//DTD SVG 1.1//EN" "http://www.w3.org/Graphics/SVG/1.1/DTD/svg11.dtd"><svg class="icon" width="200px" height="200.00px" viewBox="0 0 1024 1024" version="1.1" xmlns="http://www.w3.org/2000/svg"><path d="M255.856 79.71h592.16v864.56h-592.16z" fill="#EF7E20" /><path d="M848.016 960h-592.16c-8.68 0-15.72-7.03-15.72-15.72V79.72c0-8.69 7.04-15.72 15.72-15.72h592.16c8.68 0 15.72 7.03 15.72 15.72v864.56c0 8.69-7.04 15.72-15.72 15.72z m-576.44-31.44h560.72V95.44h-560.72v833.12z" fill="#363432" /><path d="M175.986 79.71h79.87v864.56h-79.87z" fill="#FFFBF1" /><path d="M255.856 960h-79.87c-8.68 0-15.72-7.03-15.72-15.72V79.72c0-8.69 7.04-15.72 15.72-15.72h79.87c8.68 0 15.72 7.03 15.72 15.72v864.56c0 8.69-7.04 15.72-15.72 15.72z m-64.15-31.44h48.43V95.44h-48.43v833.12z" fill="#363432" /><path d="M674.256 691.28h-244.64c-8.68 0-15.72-7.03-15.72-15.72s7.04-15.72 15.72-15.72h244.64c8.68 0 15.72 7.03 15.72 15.72s-7.04 15.72-15.72 15.72zM644.776 754.5h-185.69c-8.68 0-15.72-7.03-15.72-15.72s7.04-15.72 15.72-15.72h185.69c8.68 0 15.72 7.03 15.72 15.72s-7.04 15.72-15.72 15.72zM551.946 840.14c-10.57 0-19.17-8.6-19.17-19.17 0-10.56 8.6-19.16 19.17-19.16 10.56 0 19.16 8.6 19.16 19.16-0.01 10.57-8.6 19.17-19.16 19.17z m0-22.61c-1.9 0-3.45 1.54-3.45 3.44 0 3.79 6.88 3.82 6.88 0a3.425 3.425 0 0 0-3.43-3.44z" fill="#363432" /><path d="M589.756 828.83h-26.53a7.861 7.861 0 0 1 0-15.72h26.53a7.861 7.861 0 0 1 0 15.72zM540.636 828.83h-26.53a7.861 7.861 0 0 1 0-15.72h26.53a7.861 7.861 0 0 1 0 15.72zM551.946 589.91c-82.34 0-149.33-66.99-149.33-149.33s66.99-149.33 149.33-149.33 149.33 66.98 149.33 149.32-66.99 149.34-149.33 149.34z m0-267.23c-65.01 0-117.89 52.88-117.89 117.89s52.88 117.89 117.89 117.89 117.89-52.88 117.89-117.89-52.88-117.89-117.89-117.89zM727.466 215.3h-351.06c-13.03 0-23.58-10.56-23.58-23.58s10.55-23.58 23.58-23.58h351.06c13.03 0 23.58 10.56 23.58 23.58s-10.56 23.58-23.58 23.58z" fill="#363432" /><path d="M685.556 456.29h-267.23c-8.68 0-15.72-7.03-15.72-15.72s7.04-15.72 15.72-15.72h267.23c8.68 0 15.72 7.03 15.72 15.72s-7.04 15.72-15.72 15.72zM666.396 389.48h-228.92c-8.68 0-15.72-7.03-15.72-15.72s7.04-15.72 15.72-15.72h228.92c8.68 0 15.72 7.03 15.72 15.72s-7.04 15.72-15.72 15.72z" fill="#363432" /><path d="M666.396 523.1h-228.92c-8.68 0-15.72-7.03-15.72-15.72s7.04-15.72 15.72-15.72h228.92c8.68 0 15.72 7.03 15.72 15.72s-7.04 15.72-15.72 15.72z" fill="#363432" /><path d="M551.946 589.91c-44.18 0-67.3-75.13-67.3-149.33s23.12-149.33 67.3-149.33c44.18 0 67.29 75.13 67.29 149.33s-23.11 149.33-67.29 149.33z m0-267.23c-12.64 0-35.86 44.76-35.86 117.89s23.22 117.89 35.86 117.89 35.85-44.76 35.85-117.89-23.21-117.89-35.85-117.89z" fill="#363432" /></svg>