<?xml version="1.0" standalone="no"?><!DOCTYPE svg PUBLIC "-//W3C//DTD SVG 1.1//EN" "http://www.w3.org/Graphics/SVG/1.1/DTD/svg11.dtd"><svg class="icon" width="200px" height="200.00px" viewBox="0 0 1024 1024" version="1.1" xmlns="http://www.w3.org/2000/svg"><path d="M146.219 86.735h731.56v850.53h-731.56z" fill="#EF7E20" /><path d="M877.779 959.995h-731.56c-12.56 0-22.73-10.18-22.73-22.73V86.725c0-12.55 10.17-22.73 22.73-22.73h731.57c12.56 0 22.73 10.18 22.73 22.73v850.54c-0.01 12.55-10.18 22.73-22.74 22.73z m-708.83-45.45h686.11v-805.09h-686.11v805.09z" fill="#363432" /><path d="M877.779 908.365v-24.37c-0.09-32.67-26.55-59.13-59.22-59.22h-613.12c-32.67 0.09-59.13 26.55-59.22 59.22v53.26h731.56v-28.89z" fill="#FFFBF1" /><path d="M877.779 959.995h-731.56c-12.56 0-22.73-10.18-22.73-22.73v-53.27c0.13-45.07 36.86-81.8 81.88-81.95h613.2c45.09 0.15 81.82 36.88 81.95 81.88v53.35c-0.01 12.54-10.18 22.72-22.74 22.72z m-708.83-45.45h686.11v-30.54c-0.06-20.02-16.46-36.43-36.57-36.49h-613.05c-20.03 0.06-36.43 16.47-36.49 36.57v30.46z" fill="#363432" /><path d="M877.779 224.475v24.37c-0.09 32.67-26.55 59.13-59.22 59.22h-613.12c-32.67-0.09-59.13-26.55-59.22-59.22v-24.37" fill="#EF7E20" /><path d="M818.619 330.795h-613.18c-45.08-0.12-81.82-36.86-81.95-81.88v-24.43c0-12.55 10.17-22.73 22.73-22.73s22.73 10.18 22.73 22.73v24.36c0.06 20.04 16.46 36.43 36.55 36.49h613.06c20.04-0.06 36.43-16.46 36.49-36.57v-24.28c0-12.55 10.17-22.73 22.73-22.73s22.73 10.18 22.73 22.73v24.36c-0.13 45.09-36.87 81.83-81.89 81.95z" fill="#363432" /><path d="M511.999 839.925c-8.37 0-15.15-6.78-15.15-15.15v-600.32c0-8.38 6.78-15.15 15.15-15.15 8.37 0 15.15 6.78 15.15 15.15v600.32c0 8.38-6.78 15.15-15.15 15.15z" fill="#363432" /><path d="M511.999 195.565m-28.88 0a28.88 28.88 0 1 0 57.76 0 28.88 28.88 0 1 0-57.76 0Z" fill="#FFFBF1" /><path d="M511.999 239.605c-24.28 0-44.03-19.76-44.03-44.04s19.76-44.04 44.03-44.04c24.28 0 44.03 19.76 44.03 44.04s-19.75 44.04-44.03 44.04z m0-57.77c-7.57 0-13.73 6.16-13.73 13.73s6.16 13.73 13.73 13.73 13.73-6.16 13.73-13.73-6.16-13.73-13.73-13.73z" fill="#363432" /><path d="M511.999 415.025m-28.88 0a28.88 28.88 0 1 0 57.76 0 28.88 28.88 0 1 0-57.76 0Z" fill="#FFFBF1" /><path d="M511.999 459.065c-24.28 0-44.03-19.76-44.03-44.04 0-24.27 19.76-44.02 44.03-44.02 24.28 0 44.03 19.76 44.03 44.02 0 24.28-19.75 44.04-44.03 44.04z m0-57.76c-7.57 0-13.73 6.16-13.73 13.72 0 7.58 6.16 13.73 13.73 13.73s13.73-6.16 13.73-13.73c0-7.56-6.16-13.72-13.73-13.72z" fill="#363432" /><path d="M475.069 470.555c-20.56 0-45.04-2.68-73.55-8.04-8.23-1.54-13.64-9.46-12.1-17.68 1.55-8.23 9.49-13.67 17.68-12.09 85.18 15.97 109.25 2.46 115.65-4.08 4.34-4.44 3.63-9.06 3.43-9.94-1.69-7.99 3.2-16.16 11.12-18.13 7.96-1.92 15.92 2.43 18.15 10.28 0.6 2.1 5.39 21.03-9.95 37.82-13.31 14.6-36.58 21.86-70.43 21.86z" fill="#363432" /></svg>