<?xml version="1.0" standalone="no"?><!DOCTYPE svg PUBLIC "-//W3C//DTD SVG 1.1//EN" "http://www.w3.org/Graphics/SVG/1.1/DTD/svg11.dtd"><svg class="icon" width="200px" height="200.00px" viewBox="0 0 1024 1024" version="1.1" xmlns="http://www.w3.org/2000/svg"><path d="M871.819 87.37h-719.56c-31.44 0-56.93 25.49-56.93 56.93s25.49 56.93 56.93 56.93h719.57c31.41-0.04 56.86-25.52 56.86-56.93-0.02-31.41-25.46-56.88-56.87-56.93z" fill="#FFFBF1" /><path d="M152.249 224.61c-44.27 0-80.3-36.02-80.3-80.3s36.02-80.3 80.3-80.3h719.62c44.2 0.09 80.17 36.11 80.17 80.3 0 44.22-35.97 80.24-80.19 80.3h-719.6z m0-113.88c-18.51 0-33.57 15.06-33.57 33.57s15.06 33.57 33.57 33.57h719.57c18.45-0.03 33.49-15.09 33.49-33.57-0.01-18.47-15.04-33.54-33.53-33.57h-719.53z" fill="#363432" /><path d="M156.429 201.25h711.14v567.89h-711.14z" fill="#EF7E20" /><path d="M867.569 792.52h-711.14c-12.91 0-23.37-10.47-23.37-23.37V201.26c0-12.9 10.46-23.37 23.37-23.37h711.14c12.91 0 23.37 10.47 23.37 23.37v567.89c0 12.9-10.46 23.37-23.37 23.37z m-687.78-46.73h664.41V224.62h-664.41v521.17z" fill="#363432" /><path d="M511.989 891.61c-12.91 0-23.37-10.47-23.37-23.37v-99.09c0-12.9 10.46-23.37 23.37-23.37s23.37 10.47 23.37 23.37v99.09c0 12.9-10.46 23.37-23.37 23.37z" fill="#363432" /><path d="M683.869 960c-2.88 0-5.8-0.53-8.63-1.66l-163.24-64.96-163.25 64.96c-12.01 4.76-25.58-1.08-30.35-13.07-4.78-11.99 1.08-25.59 13.07-30.35l171.88-68.39a23.25 23.25 0 0 1 17.28 0l171.88 68.39c11.99 4.76 17.84 18.36 13.07 30.35-3.64 9.16-12.43 14.73-21.71 14.73z" fill="#363432" /><path d="M244.037 347.387l180.58-68.243 68.243 180.579-180.58 68.243z" fill="#FFFBF1" /><path d="M312.299 543.56c-6.29 0-12.22-3.83-14.57-10.07l-68.25-180.58c-1.46-3.86-1.32-8.15 0.37-11.91 1.7-3.77 4.83-6.71 8.69-8.17l180.58-68.24c8.02-3.04 17.04 1.02 20.08 9.07l68.25 180.58c1.46 3.86 1.32 8.15-0.37 11.91-1.7 3.77-4.83 6.71-8.69 8.17l-180.58 68.24c-1.82 0.68-3.68 1-5.51 1z m-48.17-187.09l57.24 151.44 151.44-57.23-57.24-151.44-151.44 57.23z" fill="#363432" /><path d="M699.099 361.57l40.41 109.62 40.41 109.63-115.15-19.83-115.15-19.81 74.77-89.8 74.71-89.81z" fill="#FFFBF1" /><path d="M779.919 596.4c-0.87 0-1.76-0.08-2.65-0.23l-230.29-39.66a15.58 15.58 0 0 1-11.98-9.96 15.59 15.59 0 0 1 2.65-15.35l149.48-179.59c3.54-4.29 9.07-6.34 14.61-5.39 5.48 0.94 10.06 4.75 11.98 9.96l80.81 219.25a15.59 15.59 0 0 1-2.65 15.35c-2.98 3.6-7.38 5.62-11.96 5.62z m-201.05-66l177.11 30.5-62.15-168.62-114.96 138.12z" fill="#363432" /><path d="M415.179 624.51m-66.58 0a66.58 66.58 0 1 0 133.16 0 66.58 66.58 0 1 0-133.16 0Z" fill="#FFFBF1" /><path d="M415.179 706.66c-45.3 0-82.15-36.84-82.15-82.14s36.85-82.16 82.15-82.16 82.15 36.86 82.15 82.16-36.84 82.14-82.15 82.14z m0-133.15c-28.12 0-51 22.88-51 51.01 0 28.11 22.88 50.99 51 50.99s51-22.88 51-50.99c0-28.13-22.88-51.01-51-51.01z" fill="#363432" /><path d="M742.429 706.66c-1.92 0-3.87-0.35-5.77-1.11l-192.81-76.88c-7.99-3.18-11.88-12.25-8.69-20.23 3.18-7.99 12.23-11.93 20.24-8.7l192.81 76.88c7.99 3.18 11.88 12.25 8.69 20.23-2.42 6.1-8.28 9.81-14.47 9.81z" fill="#363432" /></svg>