<?xml version="1.0" standalone="no"?><!DOCTYPE svg PUBLIC "-//W3C//DTD SVG 1.1//EN" "http://www.w3.org/Graphics/SVG/1.1/DTD/svg11.dtd"><svg class="icon" width="200px" height="200.00px" viewBox="0 0 1024 1024" version="1.1" xmlns="http://www.w3.org/2000/svg"><path d="M512.005 512.005m-425.51 0a425.51 425.51 0 1 0 851.02 0 425.51 425.51 0 1 0-851.02 0Z" fill="#FFFBF1" /><path d="M512.005 960.005c-247.03 0-448-200.98-448-448s200.97-448 448-448 448 200.98 448 448-200.98 448-448 448z m0-851.02c-222.22 0-403.01 180.78-403.01 403.01S289.775 915.015 512.005 915.015s403.01-180.78 403.01-403.01-180.79-403.02-403.01-403.02z" fill="#363432" /><path d="M512.005 512.005m-303.67 0a303.67 303.67 0 1 0 607.34 0 303.67 303.67 0 1 0-607.34 0Z" fill="#EF7E20" /><path d="M512.005 830.665c-175.71 0-318.66-142.94-318.66-318.66s142.95-318.66 318.66-318.66 318.66 142.94 318.66 318.66-142.95 318.66-318.66 318.66z m0-607.33c-159.17 0-288.67 129.5-288.67 288.67S352.835 800.675 512.005 800.675 800.675 671.175 800.675 512.005 671.165 223.335 512.005 223.335z" fill="#363432" /><path d="M262.695 526.995h-54.36c-8.28 0-15-6.71-15-15s6.71-15 15-15h54.36c8.28 0 15 6.71 15 15s-6.72 15-15 15zM815.665 526.995h-54.36c-8.28 0-15-6.71-15-15s6.71-15 15-15h54.36c8.28 0 15 6.71 15 15s-6.72 15-15 15zM297.275 741.725c-3.84 0-7.67-1.46-10.6-4.39-5.86-5.86-5.86-15.35 0-21.21l38.43-38.43c5.86-5.86 15.35-5.86 21.21 0 5.86 5.86 5.86 15.35 0 21.21l-38.44 38.43a14.913 14.913 0 0 1-10.6 4.39zM688.285 350.705c-3.84 0-7.67-1.46-10.6-4.39-5.86-5.86-5.86-15.35 0-21.21l38.43-38.43c5.86-5.86 15.35-5.86 21.21 0s5.86 15.35 0 21.21l-38.43 38.43a14.953 14.953 0 0 1-10.61 4.39zM512.005 830.665c-8.28 0-15-6.71-15-15v-54.36c0-8.29 6.71-15 15-15s15 6.71 15 15v54.36c-0.01 8.29-6.72 15-15 15zM512.005 277.695c-8.28 0-15-6.71-15-15v-54.36c0-8.29 6.71-15 15-15s15 6.71 15 15v54.36c-0.01 8.29-6.72 15-15 15zM726.725 741.725c-3.84 0-7.67-1.46-10.6-4.39l-38.43-38.43c-5.86-5.86-5.86-15.35 0-21.21 5.86-5.86 15.35-5.86 21.21 0l38.43 38.43c5.86 5.86 5.86 15.35 0 21.21a14.987 14.987 0 0 1-10.61 4.39zM335.715 350.705c-3.84 0-7.67-1.46-10.6-4.39l-38.43-38.43c-5.86-5.86-5.86-15.35 0-21.21 5.86-5.86 15.35-5.86 21.21 0l38.43 38.43c5.86 5.86 5.86 15.35 0 21.21a14.987 14.987 0 0 1-10.61 4.39z" fill="#363432" /><path d="M627.315 396.685l-38.66 70.69-38.66 70.69-32-32.06-32.03-32.03 70.69-38.66 70.66-38.63z" fill="#FFFBF1" /><path d="M550.005 553.065c-3.95 0-7.78-1.57-10.61-4.41l-64.03-64.07a14.986 14.986 0 0 1-4.24-12.73c0.67-4.69 3.5-8.77 7.64-11.03l141.35-77.29a14.968 14.968 0 0 1 17.79 2.55c4.71 4.7 5.75 11.95 2.56 17.79l-77.31 141.38a15.039 15.039 0 0 1-11.03 7.66c-0.71 0.1-1.42 0.15-2.12 0.15z m-39.28-75.54l35.73 35.76 43.14-78.89-78.87 43.13z" fill="#363432" /><path d="M396.685 627.325l38.66-70.69 38.66-70.69 32 32.06 32.03 32.03-70.69 38.66-70.66 38.63z" fill="#EF7E20" /><path d="M396.695 642.325c-3.89 0-7.72-1.51-10.61-4.39a14.987 14.987 0 0 1-2.56-17.79l77.31-141.38c2.27-4.14 6.36-6.99 11.03-7.66 4.69-0.7 9.39 0.92 12.73 4.26l64.03 64.07c3.34 3.34 4.91 8.05 4.24 12.73a14.96 14.96 0 0 1-7.64 11.03l-141.35 77.28a14.913 14.913 0 0 1-7.18 1.85z m80.85-131.6l-43.14 78.89 78.87-43.13-35.73-35.76z" fill="#363432" /><path d="M512.005 512.005m-46.86 0a46.86 46.86 0 1 0 93.72 0 46.86 46.86 0 1 0-93.72 0Z" fill="#FFFBF1" /><path d="M512.005 573.855c-34.11 0-61.86-27.75-61.86-61.86s27.75-61.86 61.86-61.86 61.86 27.75 61.86 61.86-27.76 61.86-61.86 61.86z m0-93.72c-17.57 0-31.87 14.29-31.87 31.87 0 17.57 14.29 31.87 31.87 31.87 17.57 0 31.87-14.29 31.87-31.87-0.01-17.58-14.3-31.87-31.87-31.87z" fill="#363432" /></svg>